<svg xmlns="http://www.w3.org/2000/svg" width="1413" height="401" fill="none" viewBox="0 0 1413 401"><path fill="#D2010D" fill-rule="evenodd" d="M1253.19 28.0827C1204.06 1.89068 1171.63 3.15163 1110.91 3.15163C996.813 3.1559 459.06 3.15163 344.955 3.15163C236.699 3.15163 111.551 -14.4521 46.7632 45.6994C-44.3763 130.329 3.24327 319.62 159.218 360.615C227.332 378.523 1123.94 358.786 1256.94 369.499C1283.92 371.666 1391.82 387.953 1412.34 400.752C1352.62 268.107 1396.32 104.385 1253.19 28.0827V28.0827Z" clip-rule="evenodd"/><path fill="#fff" d="M409.428 261.994H436.972L387.86 139.494H364.484L313.923 261.994H342.374L351.616 237.892H400.365L409.428 261.994V261.994ZM375.176 174.59H376.805L392.028 215.603H359.953L375.176 174.59ZM548.243 212.525C548.243 181.9 528.851 165.771 506.924 165.771C494.783 165.771 484.271 169.939 477.384 175.736V129.166L452.015 135.873V256.013C463.43 260.724 479.56 263.806 494.963 263.806C526.859 263.806 548.243 246.049 548.243 212.525V212.525ZM477.384 238.978V210.529C477.384 201.286 479.376 195.853 483.185 192.408C486.626 189.146 491.88 186.791 499.494 186.791C513.085 186.791 522.327 196.759 522.327 214.517C522.327 231.368 514.17 242.06 497.318 242.06C489.345 242.06 482.279 240.791 477.384 238.978V238.978ZM662.044 214.697C662.044 184.255 642.836 165.771 612.389 165.771C581.947 165.771 562.739 184.435 562.739 214.881C562.739 245.322 581.041 263.806 612.389 263.806C642.836 263.806 662.044 245.142 662.044 214.697ZM636.133 214.881C636.133 233.545 626.163 243.146 612.573 243.146C598.983 243.146 588.65 233.545 588.65 214.881C588.65 196.212 598.799 186.427 612.389 186.427C625.984 186.427 636.133 196.212 636.133 214.881V214.881ZM723.113 263.806C750.837 263.806 766.244 251.123 766.244 225.388V167.4H740.871V225.025C740.871 237.529 735.074 243.146 723.476 243.146C711.878 243.146 705.897 237.529 705.897 225.025V167.4H680.525V225.388C680.525 252.388 695.385 263.806 723.113 263.806V263.806ZM841.993 190.052L846.525 168.669H813.722V142.755L788.35 146.564V229.74C788.35 255.47 801.581 262.72 822.238 262.72C830.211 262.72 839.274 261.63 845.071 259.638L843.806 239.704C839.817 240.611 833.657 241.154 827.313 241.154C817.891 241.154 813.722 236.264 813.722 225.209V190.052H841.993ZM956.889 263.806C990.05 263.806 1008.9 247.861 1008.9 215.06V139.494H983.163V213.611C983.163 229.919 974.648 241.697 956.889 241.697C939.126 241.697 930.431 229.919 930.431 213.611V139.494H904.695V215.06C904.695 247.861 923.723 263.806 956.889 263.806ZM1059.1 242.787C1049.67 242.787 1038.62 240.248 1029.74 236.986L1027.74 258.553C1037.89 261.994 1049.31 263.806 1062.36 263.806C1082.47 263.806 1100.96 254.744 1100.96 231.732C1100.96 218.865 1094.8 210.713 1074.14 204.189C1063.08 200.744 1054.39 198.931 1054.39 193.135C1054.39 188.24 1060.18 186.248 1069.79 186.248C1077.76 186.248 1086.46 187.697 1093.71 190.236L1095.52 169.396C1087.18 167.22 1077.94 165.771 1067.98 165.771C1048.04 165.771 1028.47 173.744 1028.47 193.857C1028.47 208.173 1036.99 217.595 1057.1 223.396C1071.96 227.744 1075.22 229.74 1075.22 234.451C1075.22 239.161 1070.87 242.787 1059.1 242.787V242.787Z"/></svg>