<svg width="751" height="735" viewBox="0 0 751 735" fill="none" xmlns="http://www.w3.org/2000/svg">
<path fill-rule="evenodd" clip-rule="evenodd" d="M188.099 28.5416C200.319 21.4963 212.127 31.7661 214.705 41.8073C216.988 50.6646 215.771 75.568 215.771 86.1326C215.764 108.106 223.529 156.637 203.675 164.572C190.199 169.949 178.843 160.693 176.409 149.978L175.441 61.2032C175.388 43.6392 174.532 36.3587 188.099 28.5416V28.5416ZM467.864 27.7367C502.556 14.7059 494.889 71.7744 494.883 88.6188C494.883 111.593 502.085 158.371 482.414 164.775C447.821 176.046 455.01 127.875 455.01 103.54C455.01 80.0629 447.611 35.3444 467.864 27.7367V27.7367ZM355.49 138.354C355.49 173.809 327.393 169.524 319.51 158.148C313.152 148.977 311.516 42.8144 320.472 32.4984C333.385 17.623 355.49 27.0692 355.49 53.8044V138.354V138.354ZM93.1387 599.439C56.5636 599.629 44.703 593.86 44.8535 556.141C45.3572 433.762 45.2198 311.331 44.9058 189.044L620.314 189.293L620.347 377.08C626.523 382.169 634.34 383.825 642.53 387.227C652.231 391.256 654.352 393.885 663.961 397.889C659.742 326.861 663.699 240.84 663.869 168.197C663.961 129.549 651.623 104.181 626.11 90.2478C597.51 74.6332 555.76 82.286 521.475 80.4675C520.761 61.0392 528.134 -1.49048 473.596 0.0271518C420.535 1.50554 429.439 63.3885 428.183 80.6451L381.919 80.6515C380.78 65.8611 389.671 -0.922341 334.353 0.0130977C281.823 0.902745 289.706 59.4955 288.489 80.5723L242.383 80.6579C240.623 61.4389 245.47 40.1256 235.468 23.4578C228.54 11.912 214.214 -0.124121 195.106 0.00670949C142.529 0.359952 149.83 58.9399 149.012 79.9513C103.795 86.2377 65.6042 68.7319 29.4151 96.9325C-3.96759 122.948 1.62532 155.113 1.62532 205.496C1.62532 296.672 1.62532 387.855 1.62532 479.03C1.62532 544.217 -13.5582 612.15 48.8897 637.845C67.0627 645.322 90.5613 642.613 110.553 642.613C200.751 642.613 291.773 641.411 381.938 642.726L368.168 599.492L93.1387 599.439V599.439Z" fill="#D2010D"/>
<path fill-rule="evenodd" clip-rule="evenodd" d="M445.733 650.65C433.107 620.552 401.203 586.661 424.485 516.876C438.295 475.487 469.342 445.115 509.037 429.938C610.376 391.206 699.344 470.784 701.274 564.027L673.949 562.352C675.748 576.338 684.383 586.673 690.14 598.167C697.996 613.847 700.509 622.351 710.348 625.419C762.793 565.636 758.403 570.274 731.399 566.807C723.601 528.382 728.828 519.531 710.576 483.363C697.512 457.465 682.388 441.858 664.123 427.728C624.677 397.212 563.066 380.001 502.79 401.235C454.44 418.269 415.595 456.033 398.344 503.25C387.917 531.797 384.345 565.328 390.782 596.479C393.602 610.144 398.501 624.595 403.695 635.931C406.403 641.832 409.06 646.176 412.514 651.939C414.686 655.563 414.241 655.477 417.269 659.611L422.398 665.44C422.627 665.001 423.36 666.408 423.89 666.846C429.601 662.686 431.805 661.672 436.463 658.087C440.905 654.672 442.227 653.09 445.733 650.65V650.65Z" fill="#D2010D"/>
<path fill-rule="evenodd" clip-rule="evenodd" d="M89.4058 438.814L186.787 437.917L186.852 352.021L89.9028 351.177L89.4058 438.814Z" fill="#D2010D"/>
<path fill-rule="evenodd" clip-rule="evenodd" d="M348.569 323.284L446.258 322.924L445.303 236.392L348.877 236.3L348.569 323.284Z" fill="#D2010D"/>
<path fill-rule="evenodd" clip-rule="evenodd" d="M478.43 323.23L576.02 323.171L574.711 236.413L478.75 236.348L478.43 323.23Z" fill="#D2010D"/>
<path fill-rule="evenodd" clip-rule="evenodd" d="M219.019 552.193C231.475 556.059 300.209 554.712 316.413 553.233L315.949 467.22L219.019 468.272V552.193Z" fill="#D2010D"/>
<path fill-rule="evenodd" clip-rule="evenodd" d="M219.93 438.502L316.376 438.104L315.8 353.235C293.833 348.015 244.456 353.091 219.067 351.514L219.93 438.502V438.502Z" fill="#D2010D"/>
<path fill-rule="evenodd" clip-rule="evenodd" d="M89.4229 552.407C100.963 555.286 173.662 555.024 186.687 552.806L186.32 467.532L172.719 467.185L89.4625 468.127L89.4229 552.407Z" fill="#D2010D"/>
<path fill-rule="evenodd" clip-rule="evenodd" d="M218.814 322.216L316.502 322.451L315.586 236.522L219.063 237.203L219.037 309.931L218.814 322.216Z" fill="#D2010D"/>
<path fill-rule="evenodd" clip-rule="evenodd" d="M349.76 438.386C363.014 438.386 402.794 441.317 411.913 437.012C416.375 434.899 434.161 413.77 445.668 407.248L446.199 351.88L348.779 351.783L349.76 438.386Z" fill="#D2010D"/>
<path fill-rule="evenodd" clip-rule="evenodd" d="M160.898 323.867L186.719 321.917L186.084 236.413L89.5207 237.086L89.207 322.558L114.504 323.814L160.898 323.867Z" fill="#D2010D"/>
<path fill-rule="evenodd" clip-rule="evenodd" d="M478.504 387.117C516.584 374.21 530.105 368.649 576.035 370.369L576.068 351.753L478.844 352.028L478.504 387.117V387.117Z" fill="#D2010D"/>
<path fill-rule="evenodd" clip-rule="evenodd" d="M365.753 552.893C368.337 517.935 377.018 494.086 390.219 467.547L376.639 467.278L369.181 467.298L359.231 467.31L348.882 467.22L348.921 553.941L365.753 552.893Z" fill="#D2010D"/>
<path fill-rule="evenodd" clip-rule="evenodd" d="M508.831 522.045C504.991 536.874 527.914 565.088 534.966 574.377C553.139 598.332 565.255 595.578 581.177 574.134C591.585 560.116 648.289 501.314 646.797 482.565C633.393 485.215 609.359 505.285 599.631 513.004L557.934 547.706C543.287 542.035 530.714 524.413 508.831 522.045Z" fill="#D2010D"/>
<path fill-rule="evenodd" clip-rule="evenodd" d="M571.973 689.238C575.054 680.885 578.887 646.144 569.722 640.93C550.823 630.189 554.251 668.815 554.814 678.255C555.644 692.135 559.426 694.877 571.973 689.238V689.238Z" fill="#D2010D"/>
<path fill-rule="evenodd" clip-rule="evenodd" d="M458.708 664.708C450.42 668.77 441.726 676.691 438.416 686.418C445.03 691.233 455.791 700.665 463.681 704.688C470.504 699.383 477.124 688.825 479.918 679.445C468.051 675.252 468.351 670.935 458.708 664.708Z" fill="#D2010D"/>
<path fill-rule="evenodd" clip-rule="evenodd" d="M599.336 730.237L593.507 701.741L564.501 704.868L565.547 734.619L599.336 730.237Z" fill="#D2010D"/>
<path fill-rule="evenodd" clip-rule="evenodd" d="M446.101 557.075C429.76 557.068 426.122 556.591 429.21 573.54C440.626 578.328 466.911 577.962 479.543 573.703L477.666 559.364C469.482 556.44 456.732 557.081 446.101 557.075Z" fill="#D2010D"/>
<path fill-rule="evenodd" clip-rule="evenodd" d="M566.214 479.892C566.273 479.309 566.999 478.728 567.143 478.388L568.66 475.136C569.498 472.245 569.334 472.153 569.55 469.046C570.643 453.143 571.284 438.883 564.422 430.693C547.328 429.195 550.377 435.122 550.377 451.685C550.364 470.767 547.42 487.663 566.214 479.892V479.892Z" fill="#D2010D"/>
<path fill-rule="evenodd" clip-rule="evenodd" d="M631.868 716.726C644.579 712.873 653.182 706.254 661.98 700.026C658.461 692.209 650.931 683.43 645.214 677.373C635.807 682.41 632.124 686.244 620.872 689.501L631.868 716.726V716.726Z" fill="#D2010D"/>
<path fill-rule="evenodd" clip-rule="evenodd" d="M689.976 672.971C696.445 666.501 704.996 654.204 707.953 645.249L682.014 632.688C677.906 642.815 672.149 647.374 668.368 655.59C673.019 661.961 682.924 670.635 689.976 672.971V672.971Z" fill="#D2010D"/>
<path fill-rule="evenodd" clip-rule="evenodd" d="M533.888 703.327L506.746 696.348L497.038 721.939C506.248 727.414 517.428 730.044 529.4 731.097L533.888 703.327Z" fill="#D2010D"/>
</svg>
