<svg width="509" height="201" viewBox="0 0 509 201" fill="none" xmlns="http://www.w3.org/2000/svg">
<path d="M111.898 75.1972C106.802 75.1972 103.124 73.9204 100.966 71.3987C98.6216 68.6671 98.0241 64.419 99.1691 58.7861C101.263 48.5593 110.14 33.3071 126.074 33.3071C129.926 33.3071 132.804 34.4041 134.618 36.5402C136.739 39.0199 137.38 42.8765 136.461 47.4263C131.081 73.8485 115.053 75.1972 111.898 75.1972ZM126.487 22.9924C105.106 22.9924 81.5983 35.7849 77.266 57.3594C72.658 80.4005 93.1703 85.3461 106.333 85.4959C135.943 85.8576 153.958 68.1396 158.1 50.0779C162.061 32.7336 146.764 22.9924 126.487 22.9924Z" fill="#D2010D"/>
<path d="M321.597 55.3182C310.415 56.4732 306.265 59.3725 305.321 64.7557C304.566 69.0598 307.348 73.0721 317.753 72.6225C323.831 72.3528 330.43 70.8721 335.078 68.5462L340.249 55.0205C332.5 54.5789 327.233 54.7487 321.597 55.3182V55.3182ZM305.01 24.9736C312.759 23.7308 320.085 22.402 334.242 22.402C356.993 22.402 370.971 29.9412 364.442 46.9258C361.613 54.2552 358.707 61.9362 356.223 68.4124C352.774 77.4602 353.522 80.913 354.237 84.1161C354.237 84.1161 348.874 82.1599 337.728 82.4776C327.752 82.7534 323.438 85.3091 307.088 85.3091C289.397 85.3091 282.927 76.553 283.61 67.2874C284.234 59.1587 288.754 52.0831 298.869 48.0568C305.567 45.3832 312.246 44.488 319.162 43.9485C329.842 43.1053 339.35 43.5708 344.524 43.9485C345.453 40.9092 346.78 34.7088 331.783 34.6169C315.727 34.491 304.756 37.2985 299.68 38.8751L305.01 24.9736V24.9736Z" fill="#D2010D"/>
<path d="M231.265 73.6689C218.919 73.6689 220.042 61.6718 224.379 52.3082C229.944 40.3111 241.174 34.82 248.308 34.5563C253.635 34.3505 258.066 35.1637 261.623 38.5447C253.242 71.1072 236.29 73.6689 231.265 73.6689ZM277.892 25.994C267.028 25.994 266.546 23.0167 248.872 23.0167C223.491 23.0167 202.624 41.6998 199.656 62.3172C198.709 68.8133 200.539 74.638 204.28 78.7144C208.161 82.9545 214.022 84.605 220.976 84.9187C231.265 85.3663 240.679 83.3122 249.699 77.4235C244.421 93.0853 226.403 96.3404 214.315 96.2665C208.413 96.2325 201.95 95.9827 196.841 93.5309L191.537 106.839C196.841 108.252 204.754 109.175 211.088 109.175C240.749 109.175 259.824 98.5684 267.773 77.7013L288.028 24.3475C288.028 24.3475 281.995 25.994 277.892 25.994V25.994Z" fill="#D2010D"/>
<path d="M69.9961 66.8955C66.1395 68.7319 56.8035 71.5193 49.4159 71.5193C29.4832 71.5193 23.3764 59.4263 25.4966 47.6389C28.9936 28.2105 47.7294 13.4658 69.9541 13.4658C76.8082 13.4658 82.9569 14.7706 88.4302 17.0326L94.9166 4.39403C89.4413 1.89628 81.682 0.351685 74.4523 0.351685C38.955 0.351685 5.75166 20.5934 1.04573 47.557C-3.10268 71.3635 17.4516 84.6215 42.6957 84.6215C49.4719 84.6215 56.9874 83.5544 63.238 82.0898L69.9961 66.8955V66.8955Z" fill="#D2010D"/>
<path d="M409.374 22.5413L413.824 10.6061L391.338 14.4726L388.262 22.5413H378.347L374.766 32.3964H384.595L372.778 61.6439C369.748 69.0712 369.586 74.5103 372.302 78.2509C374.94 81.9036 380.209 83.69 388.38 83.69C392.956 83.69 399.155 82.7468 404.005 81.472L408.777 69.9564V69.9384C406.063 71.0574 401.691 72.1904 398.126 72.3203C395.594 72.4182 394.109 71.8627 393.192 70.6198C391.855 68.8674 392.207 65.3526 394.123 60.5329C394.123 60.5329 403.889 36.5606 405.573 32.3964H420.373L424.153 22.5413H409.374V22.5413Z" fill="#D2010D"/>
<path d="M462.022 32.7467C465.875 32.7467 468.558 33.7258 470.047 35.6581C471.794 37.944 471.874 41.6686 470.295 46.4203H442.733C444.831 39.8822 450.984 32.7467 462.022 32.7467V32.7467ZM478.158 70.4806C472.249 73.356 462.022 74.9126 455.206 74.9126C449.239 74.9126 444.379 72.9264 441.502 69.3076C438.876 66.0246 438.213 61.6426 439.525 56.8829H488.036L488.269 56.2474C492.068 45.685 491.6 36.5253 486.914 30.4388C482.644 24.8658 475.185 22.0364 464.89 22.0364C441.925 22.0364 422.382 34.8348 417.305 53.1462C414.747 62.4019 416.08 70.5205 421.137 76.619C426.713 83.3429 436.492 87.0436 448.666 87.0436C455.696 87.0436 464.172 85.7907 471.834 83.4888L478.158 70.4806V70.4806Z" fill="#D2010D"/>
<path d="M498.587 18.8826H499.319C500.198 18.8826 500.811 18.475 500.811 17.9235C500.811 17.2581 500.22 16.9044 499.418 16.9044C499.105 16.9044 498.771 16.9623 498.587 16.9623V18.8826ZM498.501 23.5004H495.987V15.4277C496.561 15.3318 497.876 15.13 499.534 15.13C501.383 15.13 502.186 15.3798 502.804 15.7774C503.309 16.1411 503.673 16.7525 503.673 17.5598C503.673 18.3771 502.909 19.0884 501.788 19.3921V19.4841C502.688 19.7438 503.213 20.4112 503.459 21.5702C503.711 22.7411 503.871 23.1967 504.015 23.5004H501.225C500.965 23.1967 500.811 22.4953 500.669 21.776C500.518 20.9607 500.134 20.5531 499.319 20.5531H498.501V23.5004ZM499.5 12.7861C495.939 12.7861 493.262 15.6815 493.262 19.3921C493.262 22.9849 495.939 25.9402 499.56 25.9402C503.259 25.9902 505.959 22.9849 505.959 19.3342C505.959 15.6815 503.259 12.7861 499.534 12.7861H499.5ZM499.726 10.6061C504.632 10.6061 508.601 14.5086 508.601 19.3342C508.601 24.2178 504.632 28.1203 499.56 28.1203C494.575 28.1203 490.58 24.2178 490.58 19.3342C490.58 14.5086 494.575 10.6061 499.56 10.6061H499.726Z" fill="#D2010D"/>
<path d="M188.401 2.05432L156.596 84.1141H177.7L209.515 2.05432H188.401Z" fill="#D2010D"/>
<path d="M378.983 112.179L378.981 112.177C361.85 131.446 341.765 147.369 319.355 158.144C297.014 169 272.557 174.649 247.992 174.631C223.424 174.615 198.985 168.934 176.674 158.056C154.293 147.259 134.253 131.33 117.165 112.067L111.109 127.689C124.917 148.283 143.802 165.851 165.801 178.489C190.5 192.714 219.255 200.405 247.992 200.351C276.727 200.373 305.467 192.648 330.133 178.401C352.182 165.701 371.088 148.045 384.866 127.359L378.983 112.179V112.179Z" fill="#D2010D"/>
</svg>
