<svg xmlns="http://www.w3.org/2000/svg" width="2543" height="400" fill="none" viewBox="0 0 2543 400"><path fill="#0084D6" fill-rule="evenodd" d="M323.145 0H395.958C483.966 0 555.969 71.9934 555.969 159.998C555.969 248.004 483.966 320.003 395.958 320.003H373.882L356.401 399.739L237.076 400L280.881 192.777H395.725C413.754 192.777 428.499 178.027 428.499 159.998V159.993C428.499 141.964 413.754 127.215 395.725 127.215H295.257L323.145 0V0Z" clip-rule="evenodd"/><path fill="#0084D6" fill-rule="evenodd" d="M160.006 0H287.88L259.992 127.215H160.244C142.215 127.215 127.464 141.965 127.464 159.993V159.999C127.464 178.027 142.215 192.777 160.244 192.777H245.616L217.728 320.004H160.006C72.0029 320.004 0 248.004 0 159.999C0 71.9935 72.0029 0 160.006 0V0Z" clip-rule="evenodd"/><path fill="#000" d="M708.879 259.779C722.19 259.779 735.31 257.53 743.563 254.34L741.498 231.85C733.061 234.658 721.065 236.532 710.189 236.532C683.383 236.532 667.823 220.039 667.823 194.169C667.823 167.549 686.007 152.555 709.814 152.555C721.44 152.555 733.811 154.989 740.933 157.803L743.188 134.557C735.685 131.742 724.249 129.309 708.505 129.309C667.264 129.309 640.453 156.113 640.453 195.103C640.453 230.909 662.385 259.779 708.879 259.779V259.779ZM885.379 194.544C885.379 153.864 856.318 129.309 820.7 129.309C785.273 129.309 755.838 153.864 755.838 194.544C755.838 235.033 785.273 259.779 820.7 259.779C856.318 259.779 885.379 235.033 885.379 194.544ZM783.399 194.544C783.399 169.989 798.768 152.365 820.7 152.365C842.448 152.365 858.008 169.989 858.008 194.544C858.008 219.099 842.448 236.723 820.7 236.723C798.768 236.723 783.399 219.099 783.399 194.544ZM932.528 131.183H905.907V231.1C905.907 248.908 913.779 257.905 931.403 257.905H982.955L989.328 234.849H944.898C935.711 234.849 932.528 232.409 932.528 222.663V131.183V131.183ZM1068.54 152.555C1082.03 152.555 1094.97 154.989 1103.96 158.178L1106.21 134.931C1097.03 131.558 1083.91 129.309 1067.97 129.309C1023.92 129.309 995.986 156.488 995.986 194.919C995.986 232.409 1020.73 259.779 1063.85 259.779C1082.22 259.779 1100.03 255.655 1111.46 249.283V190.796L1084.85 197.733V234.473C1079.97 235.973 1073.41 236.907 1066.47 236.907C1041.17 236.907 1023.36 221.164 1023.36 194.728C1023.36 167.924 1042.1 152.555 1068.54 152.555V152.555ZM1224.23 257.905H1252.72L1201.92 131.183H1177.73L1125.43 257.905H1154.86L1164.42 232.974H1214.85L1224.23 257.905ZM1188.79 167.49H1190.48L1206.23 209.913H1173.05L1188.79 167.49V167.49ZM1352.55 131.183H1243.45V154.239H1283V257.905H1309.99V154.239H1346.18L1352.55 131.183V131.183ZM1449.38 257.905L1455.75 234.849H1405.7C1396.51 234.849 1393.33 232.409 1393.33 222.663V207.479H1441.69L1442.81 184.423H1393.33V154.239H1449.19L1455.56 131.183H1366.7V231.1C1366.7 248.908 1374.58 257.905 1392.2 257.905H1449.38V257.905ZM1510.77 199.042H1463.34V219.099H1505.15L1510.77 199.042V199.042ZM1621.66 173.737C1621.66 144.303 1603.1 131.183 1572.16 131.183H1524.92V257.905H1551.55V218.349H1574.23C1605.91 218.349 1621.66 201.482 1621.66 173.737ZM1572.16 195.103H1551.55V154.239H1571.6C1585.66 154.239 1594.29 160.052 1594.29 174.296C1594.29 187.231 1587.35 195.103 1572.16 195.103V195.103ZM1717.36 257.905H1745.85L1695.05 131.183H1670.86L1618.56 257.905H1647.99L1657.55 232.974H1707.98L1717.36 257.905ZM1681.93 167.49H1683.62L1699.36 209.913H1666.18L1681.93 167.49V167.49ZM1787.56 131.183H1760.94V231.1C1760.94 248.908 1768.82 257.905 1786.44 257.905H1837.99L1844.36 234.849H1799.93C1790.75 234.849 1787.56 232.409 1787.56 222.663V131.183V131.183ZM1929.01 212.727L1884.58 131.183H1861.52V257.905H1887.2V186.482L1919.26 242.536H1938.94L1970.62 188.172V257.905H1996.31V131.183H1974L1930.13 212.727H1929.01V212.727ZM2146.75 194.544C2146.75 153.864 2117.69 129.309 2082.07 129.309C2046.65 129.309 2017.21 153.864 2017.21 194.544C2017.21 235.033 2046.65 259.779 2082.07 259.779C2117.69 259.779 2146.75 235.033 2146.75 194.544ZM2044.77 194.544C2044.77 169.989 2060.14 152.365 2082.07 152.365C2103.82 152.365 2119.38 169.989 2119.38 194.544C2119.38 219.099 2103.82 236.723 2082.07 236.723C2060.14 236.723 2044.77 219.099 2044.77 194.544ZM2193.9 131.183H2167.28V231.1C2167.28 248.908 2175.15 257.905 2192.78 257.905H2244.33L2250.7 234.849H2206.27C2197.08 234.849 2193.9 232.409 2193.9 222.663V131.183V131.183ZM2294.66 131.183H2268.04V257.905H2294.66V131.183ZM2376.68 218.165H2374.99L2340.13 131.183H2309.76L2364.31 257.905H2386.43L2439.67 131.183H2409.11L2376.68 218.165V218.165ZM2536.12 257.905L2542.5 234.849H2492.44C2483.26 234.849 2480.07 232.409 2480.07 222.663V207.479H2528.44L2529.56 184.423H2480.07V154.239H2535.94L2542.31 131.183H2453.45V231.1C2453.45 248.908 2461.32 257.905 2478.95 257.905H2536.12V257.905Z"/></svg>