<svg width="1633" height="400" viewBox="0 0 1633 400" fill="none" xmlns="http://www.w3.org/2000/svg">
<path fill-rule="evenodd" clip-rule="evenodd" d="M1473.77 372.669C1424.65 398.857 1392.21 397.6 1331.49 397.6C1217.4 397.6 458.333 397.6 344.229 397.6C235.969 397.6 110.817 415.205 46.0358 355.055C-45.1033 270.428 2.51727 81.1311 158.486 40.1375C226.607 22.2332 1344.52 41.9565 1477.52 31.2567C1504.5 29.0855 1612.41 12.7996 1632.93 0C1573.2 132.646 1616.9 296.371 1473.77 372.669Z" fill="#D2010D"/>
<path d="M209.677 286.876C220.988 286.876 232.143 284.968 239.152 282.257L237.4 263.136C230.231 265.525 220.034 267.121 210.792 267.121C188.005 267.121 174.781 253.1 174.781 231.112C174.781 208.487 190.239 195.74 210.475 195.74C220.351 195.74 230.868 197.814 236.923 200.203L238.835 180.444C232.46 178.054 222.74 175.986 209.356 175.986C174.304 175.986 151.517 198.768 151.517 231.91C151.517 262.342 170.162 286.876 209.677 286.876ZM338.74 243.698C338.74 216.93 321.851 200.68 295.083 200.68C268.314 200.68 251.426 217.091 251.426 243.858C251.426 270.626 267.516 286.876 295.083 286.876C321.851 286.876 338.74 270.465 338.74 243.698ZM315.953 243.858C315.953 260.269 307.192 268.713 295.239 268.713C283.29 268.713 274.208 260.269 274.208 243.858C274.208 227.447 283.13 218.843 295.083 218.843C307.031 218.843 315.953 227.447 315.953 243.858ZM378.571 168.496L356.266 174.39V285.284H378.571V168.496ZM481.186 202.116H464.931L463.5 210.876C459.037 205.143 449.478 200.68 439.759 200.68C413.146 200.68 396.102 219.32 396.102 243.542C396.102 268.557 412.032 286.238 436.887 286.238C445.974 286.238 454.257 283.055 459.674 278.276V283.532C459.674 297.87 452.184 305.043 436.731 305.043C429.718 305.043 420.636 303.286 414.421 300.897L412.353 319.22C420.32 321.77 430.516 323.362 439.915 323.362C465.252 323.362 481.186 309.341 481.186 278.592V202.116ZM458.876 261.544C455.212 265.048 448.84 267.759 441.19 267.759C428.443 267.759 418.884 258.833 418.884 243.22C418.884 228.722 427.65 219.164 441.19 219.164C451.07 219.164 458.876 226.012 458.876 235.891V261.544ZM496.8 258.517C496.8 274.767 509.23 286.876 527.554 286.876C537.75 286.876 545.557 283.211 551.135 277.317H551.451C551.772 280.344 552.089 282.574 552.566 285.284H571.848C571.527 280.028 571.527 274.29 571.527 268.713V230.314C571.527 209.762 558.62 200.68 536.636 200.68C525.481 200.68 512.734 202.592 504.606 204.822L506.042 222.507C514.17 220.439 523.252 219.164 530.737 219.164C543.484 219.164 549.222 222.668 549.222 231.272V234.937C546.034 234.616 541.415 234.3 537.113 234.3H531.696C506.203 234.3 496.8 242.904 496.8 258.517ZM549.222 257.402C549.222 260.59 548.107 263.296 545.718 265.525C542.846 268.075 539.025 269.671 533.287 269.671C525.164 269.671 519.587 265.525 519.587 258.356C519.587 252.779 523.568 249.752 529.944 249.752H549.222V257.402ZM637.815 222.031L641.797 203.23H612.959V180.444L590.649 183.792V256.925C590.649 279.546 602.282 285.922 620.445 285.922C627.458 285.922 635.425 284.967 640.521 283.211L639.407 265.686C635.902 266.484 630.485 266.961 624.908 266.961C616.624 266.961 612.959 262.659 612.959 252.94V222.031H637.815ZM696.613 286.876C705.534 286.876 716.207 285.445 724.175 283.211L722.262 265.686C715.731 267.121 707.126 268.396 698.521 268.396C683.229 268.396 674.142 261.384 673.986 251.509H728.798C729.436 248.16 729.752 244.018 729.752 240.193C729.752 219.48 719.395 200.68 692.787 200.68C665.542 200.68 650.406 219.48 650.406 244.018C650.406 270.946 665.221 286.876 696.613 286.876ZM691.829 217.251C702.667 217.251 707.286 225.058 707.286 236.052H674.303C674.463 224.581 680.678 217.251 691.829 217.251ZM866.144 213.747C866.144 188.732 850.37 177.578 824.079 177.578H783.926V285.284H806.553V251.665H825.831C852.76 251.665 866.144 237.327 866.144 213.747ZM824.079 231.91H806.553V197.176H823.602C835.551 197.176 842.88 202.115 842.88 214.224C842.88 225.218 836.986 231.91 824.079 231.91ZM901.517 202.116H882.395V285.284H904.705V230.158C912.829 225.535 922.708 222.347 932.267 221.714L933.065 200.52C921.273 201.795 910.916 206.574 902.949 213.266L901.517 202.116ZM1026.92 243.698C1026.92 216.93 1010.03 200.68 983.258 200.68C956.49 200.68 939.601 217.091 939.601 243.858C939.601 270.626 955.692 286.876 983.258 286.876C1010.03 286.876 1026.92 270.465 1026.92 243.698ZM1004.13 243.858C1004.13 260.269 995.367 268.713 983.414 268.713C971.466 268.713 962.384 260.269 962.384 243.858C962.384 227.447 971.305 218.843 983.258 218.843C995.207 218.843 1004.13 227.447 1004.13 243.858ZM1084.27 219.164C1095.43 219.164 1102.44 225.856 1102.44 237.327V259.471C1098.77 264.411 1092.08 267.759 1084.75 267.759C1071.21 267.759 1062.44 257.879 1062.44 242.744C1062.44 228.883 1071.37 219.164 1084.27 219.164ZM1124.75 168.496L1102.44 174.39V207.211C1098.62 203.547 1090.49 200.68 1082.68 200.68C1059.58 200.68 1039.66 217.251 1039.66 244.179C1039.66 271.584 1058.14 286.876 1080.61 286.876C1091.44 286.876 1099.73 282.573 1104.35 276.84H1104.83C1105.31 280.982 1105.62 281.78 1106.26 285.284H1125.06C1124.75 277.317 1124.75 269.988 1124.75 261.704V168.496ZM1182.58 286.876C1206.96 286.876 1220.5 275.726 1220.5 253.1V202.116H1198.2V252.779C1198.2 263.773 1193.1 268.713 1182.9 268.713C1172.7 268.713 1167.44 263.773 1167.44 252.779V202.116H1145.14V253.1C1145.14 276.84 1158.2 286.876 1182.58 286.876ZM1305.11 264.571C1299.86 266.8 1293 268.236 1285.51 268.236C1271.01 268.236 1259.54 259.952 1259.54 243.542C1259.54 226.97 1271.17 219.32 1285.2 219.32C1292.53 219.32 1299.38 220.755 1304 222.507L1306.55 204.184C1298.74 201.795 1290.61 200.68 1283.28 200.68C1256.51 200.68 1236.76 216.774 1236.76 243.858C1236.76 271.103 1255.4 286.876 1282.97 286.876C1292.37 286.876 1301.61 285.124 1307.02 282.574L1305.11 264.571ZM1370.12 222.031L1374.1 203.23H1345.26V180.444L1322.95 183.792V256.925C1322.95 279.546 1334.59 285.922 1352.75 285.922C1359.76 285.922 1367.73 284.967 1372.83 283.211L1371.71 265.686C1368.21 266.484 1362.79 266.961 1357.21 266.961C1348.93 266.961 1345.26 262.659 1345.26 252.94V222.031H1370.12ZM1413.14 268.396C1404.85 268.396 1395.13 266.163 1387.32 263.296L1385.57 282.257C1394.49 285.284 1404.53 286.876 1416.01 286.876C1433.69 286.876 1449.94 278.909 1449.94 258.678C1449.94 247.363 1444.53 240.194 1426.36 234.46C1416.64 231.433 1409 229.837 1409 224.741C1409 220.439 1414.09 218.687 1422.54 218.687C1429.55 218.687 1437.2 219.957 1443.57 222.191L1445.16 203.868C1437.83 201.955 1429.71 200.68 1420.95 200.68C1403.42 200.68 1386.21 207.693 1386.21 225.379C1386.21 237.964 1393.7 246.248 1411.39 251.348C1424.45 255.173 1427.32 256.925 1427.32 261.067C1427.32 265.209 1423.5 268.396 1413.14 268.396Z" fill="white"/>
</svg>
