<svg width="2736" height="400" viewBox="0 0 2736 400" fill="none" xmlns="http://www.w3.org/2000/svg">
<path fill-rule="evenodd" clip-rule="evenodd" d="M323.139 0H395.949C483.956 0 555.957 71.9927 555.957 159.996V160.002C555.957 248 483.956 319.998 395.949 319.998H373.874L356.393 399.732L237.071 400L280.875 192.774H395.717C413.745 192.774 428.495 178.03 428.495 160.002V159.99C428.495 141.963 413.745 127.219 395.717 127.219H295.251L323.139 0V0Z" fill="#0084D6"/>
<path fill-rule="evenodd" clip-rule="evenodd" d="M160.008 0H287.874L259.986 127.219H160.24C142.211 127.219 127.461 141.963 127.461 159.991V160.002C127.461 178.03 142.211 192.774 160.24 192.774H245.611L217.723 319.999H160.008C72.0011 319.999 0 248 0 160.002V159.996C0 71.9928 72.0011 0 160.008 0V0Z" fill="#0084D6"/>
<path fill-rule="evenodd" clip-rule="evenodd" d="M755.128 124.743L711.901 317.284H592.579L635.806 124.743H589.39C580.042 73.581 550.756 29.1956 509.933 0H866.483L839.363 124.743H755.128V124.743Z" fill="#FF0000"/>
<path d="M1059.59 259.777C1072.9 259.777 1086.03 257.528 1094.27 254.339L1092.21 231.848C1083.78 234.657 1071.78 236.531 1060.91 236.531C1034.09 236.531 1018.54 220.038 1018.54 194.168C1018.54 167.549 1036.72 152.551 1060.53 152.551C1072.15 152.551 1084.53 154.99 1091.65 157.798L1093.9 134.553C1086.4 131.744 1074.97 129.305 1059.22 129.305C1017.98 129.305 991.165 156.114 991.165 195.103C991.165 230.908 1013.1 259.777 1059.59 259.777ZM1236.1 194.544C1236.1 153.865 1207.04 129.305 1171.42 129.305C1135.99 129.305 1106.55 153.865 1106.55 194.544C1106.55 235.032 1135.99 259.777 1171.42 259.777C1207.04 259.777 1236.1 235.032 1236.1 194.544ZM1134.11 194.544C1134.11 169.983 1149.48 152.366 1171.42 152.366C1193.17 152.366 1208.73 169.983 1208.73 194.544C1208.73 219.098 1193.17 236.722 1171.42 236.722C1149.48 236.722 1134.11 219.098 1134.11 194.544ZM1283.25 131.179H1256.63V231.093C1256.63 248.906 1264.5 257.903 1282.12 257.903H1333.67L1340.05 234.848H1295.62C1286.44 234.848 1283.25 232.408 1283.25 222.662V131.179V131.179ZM1419.26 152.551C1432.76 152.551 1445.69 154.989 1454.69 158.173L1456.94 134.927C1447.75 131.553 1434.63 129.305 1418.7 129.305C1374.64 129.305 1346.71 156.489 1346.71 194.918C1346.71 232.407 1371.45 259.777 1414.57 259.777C1432.94 259.777 1450.75 255.654 1462.19 249.281V190.789L1435.57 197.727V234.472C1430.69 235.971 1424.13 236.906 1417.19 236.906C1391.89 236.906 1374.08 221.163 1374.08 194.729C1374.08 167.925 1392.83 152.551 1419.26 152.551V152.551ZM1574.95 257.903H1603.45L1552.64 131.179H1528.46L1476.16 257.903H1505.59L1515.15 232.973H1565.58L1574.95 257.903ZM1539.52 167.484H1541.21L1556.96 209.912H1523.78L1539.52 167.484V167.484ZM1703.28 131.179H1594.17V154.24H1633.73V257.903H1660.72V154.24H1696.9L1703.28 131.179V131.179ZM1800.11 257.903L1806.48 234.848H1756.42C1747.24 234.848 1744.05 232.408 1744.05 222.662V207.479H1792.42L1793.54 184.418H1744.05V154.24H1799.92L1806.29 131.179H1717.43V231.093C1717.43 248.906 1725.3 257.903 1742.93 257.903H1800.11V257.903ZM1955.05 131.179H1845.95V154.24H1885.5V257.903H1912.5V154.24H1948.67L1955.05 131.179V131.179ZM2087.69 194.544C2087.69 153.865 2058.63 129.305 2023.01 129.305C1987.58 129.305 1958.14 153.865 1958.14 194.544C1958.14 235.032 1987.58 259.777 2023.01 259.777C2058.63 259.777 2087.69 235.032 2087.69 194.544ZM1985.71 194.544C1985.71 169.983 2001.07 152.366 2023.01 152.366C2044.76 152.366 2060.32 169.983 2060.32 194.544C2060.32 219.098 2044.76 236.722 2023.01 236.722C2001.07 236.722 1985.71 219.098 1985.71 194.544ZM2134.84 131.179H2108.22V231.093C2108.22 248.906 2116.09 257.903 2133.71 257.903H2185.26L2191.64 234.848H2147.21C2138.03 234.848 2134.84 232.408 2134.84 222.662V131.179V131.179ZM2299.53 257.903H2328.02L2277.22 131.179H2253.04L2200.73 257.903H2230.17L2239.73 232.973H2290.16L2299.53 257.903ZM2264.09 167.484H2265.78L2281.53 209.912H2248.35L2264.09 167.484V167.484ZM2370.11 191.355V154.24H2392.42C2406.48 154.24 2414.73 158.923 2414.73 172.423C2414.73 185.358 2406.85 191.355 2392.79 191.355H2370.11V191.355ZM2444.53 257.903L2450.91 234.848H2438.91C2434.41 234.848 2431.97 233.348 2429.35 229.594L2415.67 209.727C2433.66 203.914 2441.54 186.667 2441.54 171.673C2441.54 142.43 2424.1 131.179 2394.48 131.179H2343.49V257.903H2370.11V214.41H2382.48C2386.8 214.41 2388.3 214.976 2390.73 218.724L2410.04 246.842C2415.48 254.714 2420.16 257.903 2429.54 257.903H2444.53V257.903ZM2556.92 257.903H2585.42L2534.62 131.179H2510.44L2458.13 257.903H2487.57L2497.13 232.973H2547.55L2556.92 257.903ZM2521.49 167.484H2523.18L2538.93 209.912H2505.75L2521.49 167.484V167.484ZM2668.38 212.727L2623.95 131.179H2600.89V257.903H2626.57V186.481L2658.63 242.529H2678.31L2710 188.165V257.903H2735.68V131.179H2713.37L2669.51 212.727H2668.38Z" fill="black"/>
</svg>
