<svg width="468" height="115" viewBox="0 0 468 115" fill="none" xmlns="http://www.w3.org/2000/svg">
<path fill-rule="evenodd" clip-rule="evenodd" d="M421.781 106.62C407.725 114.113 398.444 113.753 381.068 113.753C348.421 113.752 131.217 113.753 98.5657 113.753C67.5886 113.753 31.777 118.79 13.2397 101.58C-12.839 77.3683 0.787974 23.2124 45.4173 11.4837C64.9099 6.36055 384.799 12.0034 422.856 8.94198C430.575 8.32108 461.453 3.6615 467.324 0C450.233 37.9504 462.74 84.7911 421.781 106.62Z" fill="white"/>
<path d="M73.4646 82.0837C76.702 82.0837 79.8932 81.5373 81.8989 80.762L81.3982 75.2912C79.3464 75.976 76.4285 76.4305 73.7839 76.4305C67.2631 76.4305 63.479 72.4197 63.479 66.129C63.479 59.6555 67.902 56.009 73.6918 56.009C76.5191 56.009 79.5277 56.6017 81.2615 57.285L81.8082 51.6329C79.9838 50.9481 77.2026 50.3555 73.3725 50.3555C63.3424 50.3555 56.8215 56.875 56.8215 66.3564C56.8215 75.0639 62.1568 82.0837 73.4646 82.0837ZM110.396 69.7296C110.396 62.0709 105.563 57.4216 97.903 57.4216C90.2441 57.4216 85.4111 62.117 85.4111 69.7757C85.4111 77.4345 90.0153 82.0837 97.903 82.0837C105.563 82.0837 110.396 77.3884 110.396 69.7296ZM103.877 69.7757C103.877 74.4711 101.369 76.8866 97.9491 76.8866C94.529 76.8866 91.9304 74.4711 91.9304 69.7757C91.9304 65.0804 94.4844 62.6191 97.903 62.6191C101.323 62.6191 103.877 65.0804 103.877 69.7757ZM129.001 57.4216C126.493 57.4216 123.483 58.4704 121.294 59.9291L120.975 57.8316H115.322V81.628H121.704V64.4416C122.982 63.5756 124.897 62.8463 126.72 62.8463C127.996 62.8463 128.908 63.1197 129.638 63.7584C130.413 64.4417 130.777 65.4444 130.777 67.4052V81.628H137.162V66.6758C137.162 63.4852 136.478 61.2972 135.11 59.7925C133.697 58.2432 131.645 57.4216 129.001 57.4216V57.4216ZM156.768 57.4216C154.261 57.4216 151.251 58.4704 149.062 59.9291L148.743 57.8316H143.09V81.628H149.472V64.4416C150.75 63.5756 152.665 62.8463 154.488 62.8463C155.764 62.8463 156.676 63.1197 157.406 63.7584C158.181 64.4417 158.545 65.4444 158.545 67.4052V81.628H164.93V66.6758C164.93 63.4852 164.246 61.2972 162.878 59.7925C161.465 58.2432 159.413 57.4216 156.768 57.4216V57.4216ZM182.803 82.0837C185.357 82.0837 188.411 81.674 190.692 81.0353L190.144 76.0205C188.275 76.4305 185.813 76.7957 183.351 76.7957C178.972 76.7957 176.374 74.7905 176.329 71.9638H192.014C192.195 71.0057 192.287 69.8217 192.287 68.727C192.287 62.8002 189.323 57.4216 181.709 57.4216C173.912 57.4216 169.581 62.8003 169.581 69.8219C169.581 77.5252 173.822 82.0837 182.803 82.0837ZM181.436 62.163C184.537 62.163 185.859 64.3972 185.859 67.5418H176.42C176.466 64.2591 178.243 62.163 181.436 62.163ZM215.494 75.7011C213.989 76.3399 212.03 76.7496 209.886 76.7496C205.738 76.7496 202.454 74.3791 202.454 69.6838C202.454 64.9438 205.782 62.7557 209.795 62.7557C211.893 62.7557 213.853 63.1658 215.175 63.6679L215.904 58.4243C213.671 57.741 211.345 57.4216 209.248 57.4216C201.588 57.4216 195.935 62.0264 195.935 69.7757C195.935 77.5712 201.269 82.0837 209.156 82.0837C211.847 82.0837 214.491 81.5818 216.041 80.8525L215.494 75.7011V75.7011ZM234.097 63.5295L235.238 58.151H226.985V51.6329L220.601 52.5897V73.5131C220.601 79.9865 223.93 81.8104 229.127 81.8104C231.133 81.8104 233.414 81.5373 234.873 81.0353L234.553 76.0205C233.55 76.2493 232.001 76.3858 230.403 76.3858C228.034 76.3858 226.985 75.1544 226.985 72.3738V63.5295H234.097V63.5295ZM268.338 57.8316H263.368L258.308 72.647H258.125L253.839 57.8316H246.864L255.115 81.628H260.497L265.74 66.5392H265.967L271.166 81.628H276.455L284.845 57.8316H277.868L273.719 72.647H273.537L268.338 57.8316V57.8316ZM288.217 81.628H294.601V57.8316H288.217V81.628ZM294.646 46.709L288.173 48.3963V54.277H294.646V46.709ZM314.024 63.5295L315.165 58.151H306.912V51.6329L300.528 52.5897V73.5131C300.528 79.9865 303.857 81.8104 309.054 81.8104C311.06 81.8104 313.34 81.5373 314.799 81.0353L314.48 76.0205C313.477 76.2493 311.928 76.3858 310.33 76.3858C307.961 76.3858 306.912 75.1544 306.912 72.3738V63.5295H314.024V63.5295ZM333.129 57.4216C330.758 57.4216 327.976 58.3338 325.832 59.6558V48.2135L319.45 49.8994V81.628H325.832V64.4416C327.11 63.5756 329.025 62.8463 330.848 62.8463C332.124 62.8463 333.037 63.1197 333.766 63.7584C334.542 64.4417 334.906 65.4444 334.906 67.4052V81.628H341.29V66.6758C341.29 63.4852 340.606 61.2972 339.238 59.7925C337.825 58.2432 335.773 57.4216 333.129 57.4216V57.4216ZM367.918 82.0837C374.894 82.0837 378.77 78.8933 378.77 72.4199V57.8316H372.386V72.3276C372.386 75.4737 370.927 76.8866 368.009 76.8866C365.091 76.8866 363.586 75.4737 363.586 72.3276V57.8316H357.203V72.4199C357.203 79.2112 360.941 82.0837 367.918 82.0837V82.0837ZM391.034 76.7957C388.663 76.7957 385.882 76.157 383.648 75.337L383.145 80.762C385.699 81.628 388.571 82.0837 391.855 82.0837C396.916 82.0837 401.567 79.8039 401.567 74.0152C401.567 70.7785 400.016 68.7271 394.819 67.0858C392.037 66.2198 389.849 65.7636 389.849 64.305C389.849 63.0751 391.308 62.573 393.724 62.573C395.731 62.573 397.919 62.9384 399.742 63.5756L400.198 58.3338C398.101 57.7871 395.775 57.4216 393.268 57.4216C388.253 57.4216 383.328 59.427 383.328 64.4877C383.328 68.0884 385.472 70.459 390.532 71.9177C394.272 73.0124 395.092 73.5131 395.092 74.6985C395.092 75.8838 393.997 76.7957 391.034 76.7957V76.7957Z" fill="#D2010D"/>
</svg>
