<svg xmlns="http://www.w3.org/2000/svg" width="1412" height="401" fill="none" viewBox="0 0 1412 401"><path fill="#D2010D" fill-rule="evenodd" d="M1252.46 28.1957C1203.33 2.00367 1170.9 3.26504 1110.18 3.26504C996.084 3.26931 458.333 3.26504 344.228 3.26504C235.971 3.26504 110.824 -14.3391 46.036 45.8124C-45.1034 130.442 2.51651 319.732 158.491 360.728C226.605 378.636 1123.22 358.899 1256.21 369.612C1283.19 371.779 1391.09 388.066 1411.61 400.865C1351.89 268.221 1395.59 104.498 1252.46 28.1957V28.1957Z" clip-rule="evenodd"/><path fill="#fff" d="M314.373 263.921C327.237 263.921 339.921 261.745 347.898 258.667L345.902 236.921C337.749 239.639 326.151 241.452 315.639 241.452C289.723 241.452 274.684 225.502 274.684 200.494C274.684 174.764 292.263 160.268 315.275 160.268C326.515 160.268 338.472 162.623 345.359 165.342L347.535 142.869C340.284 140.155 329.229 137.795 314.01 137.795C274.141 137.795 248.226 163.709 248.226 201.401C248.226 236.014 269.43 263.921 314.373 263.921V263.921ZM461.156 214.811C461.156 184.37 441.949 165.885 411.502 165.885C381.06 165.885 361.852 184.549 361.852 214.995C361.852 245.436 380.153 263.921 411.502 263.921C441.949 263.921 461.156 245.257 461.156 214.811ZM435.246 214.995C435.246 233.659 425.276 243.26 411.686 243.26C398.095 243.26 387.763 233.659 387.763 214.995C387.763 196.326 397.912 186.541 411.502 186.541C425.097 186.541 435.246 196.326 435.246 214.995V214.995ZM535.097 165.885C525.128 165.885 513.166 170.053 504.471 175.85L503.201 167.514H480.732V262.108H506.1V193.792C511.174 190.35 518.784 187.447 526.034 187.447C531.109 187.447 534.734 188.538 537.632 191.073C540.715 193.791 542.164 197.78 542.164 205.569V262.108H567.532V202.67C567.532 189.987 564.813 181.287 559.38 175.307C553.762 169.147 545.605 165.885 535.097 165.885V165.885ZM643.285 190.166L647.817 168.784H615.015V142.869L589.643 146.678V229.854C589.643 255.585 602.874 262.835 623.53 262.835C631.503 262.835 640.567 261.745 646.363 259.753L645.098 239.819C641.109 240.725 634.949 241.268 628.605 241.268C619.183 241.268 615.015 236.378 615.015 225.323V190.166H643.285ZM657.966 231.663C657.966 250.147 672.099 263.921 692.935 263.921C704.534 263.921 713.413 259.752 719.757 253.049H720.116C720.479 256.491 720.843 259.026 721.386 262.108H743.313C742.954 256.128 742.953 249.604 742.953 243.26V199.588C742.953 176.213 728.273 165.885 703.264 165.885C690.58 165.885 676.088 168.061 666.845 170.596L668.474 190.709C677.716 188.354 688.041 186.905 696.561 186.905C711.057 186.905 717.581 190.893 717.581 200.678V204.846C713.956 204.483 708.702 204.119 703.807 204.119H697.647C668.658 204.119 657.966 213.905 657.966 231.663V231.663ZM717.581 230.397C717.581 234.022 716.311 237.1 713.592 239.64C710.331 242.538 705.983 244.35 699.459 244.35C690.217 244.35 683.873 239.64 683.873 231.483C683.873 225.139 688.404 221.698 695.654 221.698H717.581V230.397V230.397ZM838.817 238.549C832.836 241.088 825.043 242.717 816.527 242.717C800.034 242.717 786.986 233.296 786.986 214.632C786.986 195.784 800.217 187.088 816.163 187.088C824.499 187.088 832.293 188.717 837.547 190.709L840.446 169.869C831.566 167.155 822.323 165.885 813.987 165.885C783.545 165.885 761.075 184.186 761.075 214.995C761.075 245.979 782.275 263.921 813.628 263.921C824.32 263.921 834.828 261.929 840.993 259.026L838.817 238.549V238.549ZM912.753 190.166L917.285 168.784H884.483V142.869L859.11 146.678V229.854C859.11 255.585 872.341 262.835 892.998 262.835C900.971 262.835 910.034 261.745 915.831 259.753L914.566 239.819C910.577 240.725 904.417 241.268 898.073 241.268C888.651 241.268 884.483 236.378 884.483 225.323V190.166H912.753ZM1027.65 263.921C1060.81 263.921 1079.66 247.975 1079.66 215.174V139.608H1053.92V213.725C1053.92 230.034 1045.41 241.811 1027.65 241.811C1009.89 241.811 1001.19 230.034 1001.19 213.725V139.608H975.455V215.174C975.455 247.975 994.483 263.921 1027.65 263.921ZM1129.86 242.901C1120.43 242.901 1109.38 240.362 1100.5 237.1L1098.5 258.667C1108.65 262.108 1120.07 263.921 1133.12 263.921C1153.23 263.921 1171.72 254.858 1171.72 231.846C1171.72 218.979 1165.56 210.827 1144.9 204.303C1133.84 200.858 1125.15 199.045 1125.15 193.248C1125.15 188.354 1130.94 186.361 1140.55 186.361C1148.52 186.361 1157.22 187.811 1164.47 190.35L1166.28 169.51C1157.94 167.334 1148.7 165.885 1138.74 165.885C1118.8 165.885 1099.23 173.858 1099.23 193.971C1099.23 208.288 1107.75 217.709 1127.86 223.51C1142.72 227.858 1145.98 229.854 1145.98 234.565C1145.98 239.276 1141.63 242.901 1129.86 242.901V242.901Z"/></svg>