<svg width="751" height="656" viewBox="0 0 751 656" fill="none" xmlns="http://www.w3.org/2000/svg">
<path fill-rule="evenodd" clip-rule="evenodd" d="M510.808 559.336L499.345 525.485L512.792 513.278L525.619 523.184L510.808 559.336V559.336ZM607.662 501.294L610.866 495.619L615.896 481.338C628.979 482.963 669.449 487.822 679.856 497.834C665.386 496.427 642.461 491.094 631.426 494.054C613.364 497.321 600.973 518.286 607.35 541.758C614.078 566.522 623.689 568.532 625.712 601.605C626.892 620.877 630.831 658.711 652.119 654.131C671.917 649.866 660.168 613.658 672.653 596.293C692.914 600.361 683.145 618.709 688.384 639.79C690.878 649.82 691.353 649.097 696.844 652.805C722.259 662.501 725.022 619.466 726.801 598.428C732.096 607.691 736.651 629.585 740.578 642.468C744.568 655.568 742.13 652.377 750.03 655.345C754.855 645.14 740.355 606.712 735.903 592.252C724.936 556.608 769.08 535.903 729.551 498.6C717.819 487.527 709.629 491.68 695.463 490.709C687.636 490.17 674.868 483.104 663.586 480.56C652.829 478.139 640.635 475.962 630.057 473.879C610.396 470.869 598.065 466.45 579.925 461.386C561.401 456.211 550.79 456.716 548.968 435.609C545.341 393.571 554.468 413.98 569.374 371.079C579.913 340.729 595.55 377.204 590.404 252.014C587.735 187.047 574.455 186.704 562.462 161.941L548.591 150.175C493.545 124.843 430.817 124.779 396.147 166.376C359.107 210.818 374.612 263.035 372.914 288.162C371.797 304.675 373.449 334.387 380.33 350.947C385.266 362.824 387.08 356.204 392.627 365.22C395.069 369.193 396.481 376.434 399.021 382.224C402.289 389.658 404.44 391.621 409.316 398.225C416.446 407.882 418.012 423.904 414.834 440.271C411.587 456.977 403.226 456.947 386.648 461.711C355.031 470.791 288.847 484.948 273.317 498.198C261.838 507.992 261.025 514.318 254.164 527.739L252.612 539.162L234.887 595.973C232.685 610.236 214.546 645.623 224.263 655.854C242.719 645.213 250.593 517.893 287 498.737C299.912 491.941 327.072 487.014 344.403 484.234C360.485 511.465 357.897 518.869 376.849 524.843C367.375 554.709 368.992 531.506 399.175 566.137L483.969 646.043C498.879 641.809 588.826 542.96 596.688 537.892C591.884 528.517 592.941 536.502 589.622 524.424C602.299 518.043 605.849 520.964 607.662 501.294V501.294ZM602.868 491.577L599.596 498.681C598.497 501.551 598.069 504.262 597.072 506.657C591.29 520.51 589.335 512.525 577.475 523.376C580.096 532.212 581.713 529.603 584.344 538.611L500.752 620.694L558.117 465.419L605.917 478.332L602.868 491.577V491.577ZM622.705 506.944C638.984 500.571 642.867 501.901 663.214 505.233C692.375 512.388 696.066 491.547 716.245 500.926C762.1 522.238 719.504 564.683 717.366 593.71C715.954 612.897 716.519 637.557 702.328 645.444C688.016 632.014 704.599 588.223 676.327 587.445C648.958 586.692 662.478 628.285 650.211 645.615C631.366 637.771 637.735 595.785 631.614 575.439C622.021 543.55 606.281 541.335 622.705 506.944V506.944ZM354.403 481.83C371.164 474.41 389.727 469.294 405.317 466.044C416.091 483.079 430.629 521.088 438.785 542.19C448.375 567.018 464.512 595.353 471.625 620.026C463.182 614.967 455.205 607.884 448.931 600.425L381.943 538.7C385.767 531.327 387.349 532.092 388.641 523.799C378.098 515.716 374.612 518.898 366.549 506.653C361.438 498.886 359.03 489.999 354.403 481.83ZM456.796 496.021L471.095 493.532L483.537 486.826C489.157 492.865 498.656 499.909 505.234 507.03C483.006 531.823 489.285 525.104 502.138 563.186C508.806 582.936 494.704 608.436 486.625 627.242C439.863 557.921 497.288 526.425 459.2 508.257L455.59 514.694C456.784 520.412 458.683 519.339 464.037 524.223L459.14 560.449L453.157 551.527C452.139 549.414 450.406 545.171 449.239 542.404C446.377 535.634 443.986 528.872 441.313 522.803L446.963 514.398C453.477 504.13 454.799 508.736 455.945 495.632C448.922 503.048 444.427 505.007 434.572 514.579C430.762 509.382 433.666 514.831 431.613 506.931L422.413 479.862C414.286 461.655 411.699 462.1 424.124 447.028C435.71 458.67 461.907 468.802 472.763 480.739C465.855 489.687 462.981 487.938 456.796 496.021V496.021ZM529.631 513.77C524.537 510.717 495.209 484.939 491.505 480.739L540.037 447.256C551.868 458.619 550.383 462.349 543.356 478.982C538.489 490.491 535.478 503.407 529.631 513.77ZM424.919 413.339C443.041 420.747 458.982 435.417 481.894 436.289C507.754 437.277 522.112 422.535 538.643 413.716L539.392 437.79C529.126 444.244 521.415 448.761 511.475 455.104C501.107 461.72 493.648 468.003 481.89 473.678C462.198 461.651 444.239 450.801 425.475 437.205L424.919 413.339V413.339ZM422.964 398.772C498.438 411.876 483.96 403.327 543.467 397.712C498.066 431.35 483.554 438.47 431.318 405.149L422.964 398.772ZM413.982 386.155L414.102 313.439C478.905 322.899 486.099 325.748 552.257 313.289L552.762 384.547C497.433 398.75 470.38 400.239 413.982 386.155ZM380.27 299.996L404.753 310.039L404.594 369.355C390.946 334.263 392.832 362.85 387.195 341.436C384.231 330.166 380.45 311.527 380.27 299.996ZM562.436 361.314L562.013 309.876C567.791 303.619 576.778 297.404 583.146 295.15C585.802 311.138 581.623 317.908 578.711 332.907C572.825 363.226 563.668 345.815 562.436 361.314V361.314ZM391.091 291.472C394.449 268.839 395.095 264.87 412.246 256.025C428.871 247.45 444.102 249.036 463.584 248.801C511.817 248.224 521.389 219.44 539.725 209.907C562.74 236.556 572.188 250.307 572.492 288.846C526.954 329.55 409.911 311.775 391.091 291.472ZM383.346 282.144C368.808 233.67 383.068 145.03 473.96 142.254C553.856 139.812 587.252 190.776 580.516 269.908C577.646 246.774 577.415 244.122 565.704 228.725C558.005 218.602 549.105 203.243 543.211 197.144C513.733 207.14 514.777 239.025 460.902 239.824C439.974 240.137 406.215 238.755 388.987 261.833C385.57 266.409 384.004 275.921 383.346 282.144Z" fill="#D2010D"/>
<path fill-rule="evenodd" clip-rule="evenodd" d="M109.605 377.301C120.913 372.228 131.024 377.912 142.059 381.65C156.717 386.612 160.429 383.75 167.123 396.846L109.605 377.301V377.301ZM113.941 388.476C126.366 392.188 154.39 401.26 165.391 407.141C163.556 418.462 161.276 423.842 155.985 430.33C144.737 437.058 85.9308 411.708 68.2578 400.156C57.9928 393.446 56.5343 390.41 48.4762 383.173C25.3115 362.374 6.17562 308.095 10.6281 267.156L32.3557 261.854C57.4922 319.87 26.7527 321.906 65.0028 369.256C87.9794 397.693 102.098 384.935 113.941 388.476V388.476ZM42.4969 259.77C55.9911 265.882 53.3649 270.129 56.453 285.894C58.7583 297.655 63.8353 309.246 56.0167 317.115L42.4969 259.77ZM122.256 434.56L131.268 436.361C145.241 438.854 156.473 443.225 164.638 434.398C169.826 428.786 177.914 407.564 176.498 397.068C173.248 372.946 119.724 364.995 111.807 365.812C96.9058 369.957 102.453 371.621 93.3772 379.67C77.1713 371.077 60.4605 353.084 53.5872 330.909C72.1456 319.498 70.8882 309.708 66.1834 286.899C61.5342 264.355 61.9746 253.787 39.5369 249.677C54.6608 223.459 48.2793 206.339 74.421 180.318C89.3652 187.298 84.7503 193.816 92.5945 191.892C98.159 182.256 87.8169 181.015 81.799 169.703C106.837 154.045 127.277 134.32 168.256 134.38C168.286 136.89 167.833 145.667 168.017 147.164C170.125 164.507 165.699 154.225 174.313 158.998L177.914 146.971C178.231 144.05 177.807 137.617 177.781 134.319C193.782 133.259 208.256 137.788 222.306 141.483C230.043 144.819 239.936 149.986 246.275 153.759L262.673 166.277C263.041 166.649 263.623 167.312 263.948 167.654L266.369 170.558C259.645 177.487 250.436 181.529 250.595 193.962C257.874 192.914 257.977 191.54 262.216 187.537C268.862 181.259 265.933 181.841 274.209 177.726C291.775 193.474 310.436 228.638 309.311 263.453C296.685 264.997 293.259 261.216 284.11 267.82C289.495 276.848 283.858 271.066 302.801 274.009L307.578 275.04C308.199 275.172 309.148 275.381 309.875 275.706C308.678 293.755 304.354 310.037 297.429 325.195C292.112 336.845 280.842 355.257 271.583 361.275C264.624 355.591 262.306 348.064 251.835 348.149C249.218 358.683 248.978 350.754 254.833 357.96C255.804 359.158 262.96 365.338 264.192 366.411C259.97 375.025 264.085 368.905 257.502 374.777C229.924 399.37 189.894 397.218 180.968 407.141C198.748 423.684 253.362 389.233 267.1 379.016C333.027 329.998 336.231 215.573 272.258 161.957C259.085 150.914 251.767 146.924 235.497 137.361C191.306 118.264 134.548 122.174 98.0177 146.766C69.019 166.286 43.6259 197.135 35.9613 232.214L33.5233 250.926C19.7126 254.873 8.47667 255.413 3.00198 265.459C-9.43154 289.384 20.0207 361.168 31.8854 378.643C48.8355 403.616 84.9727 424.111 122.256 434.56V434.56Z" fill="#D2010D"/>
<path fill-rule="evenodd" clip-rule="evenodd" d="M203.23 346.683C189.393 333.412 204.59 289.328 176.814 288.08C151.81 286.955 159.179 327.184 151.793 347.102C141.524 343.522 141.169 340.285 138.247 327.826C129.064 288.683 143.32 300.855 119.672 248.89C111.43 230.769 114.71 215.136 127.234 204.991C147.751 188.38 159.415 205.111 174.838 206.48C192.55 208.054 196.767 190.026 221.523 202.143C237.96 210.192 243.293 226.479 234.701 249.489C227.789 268 219.94 272.315 218.332 296.711C217.246 313.229 218.212 339.417 203.23 346.683V346.683ZM152.499 215.243C152.507 215.261 147.251 227.672 176.96 226.085C188.739 225.457 197.216 223.245 198.007 212.613C189.821 209.773 188.238 216.047 176.583 216.715C163.47 217.459 162.182 210.907 152.499 215.243V215.243ZM122.538 279.949C129.997 298.994 121.909 343.086 143.162 354.257C172.819 369.847 159.509 309.212 173.333 296.882C199.855 302.677 176.438 367.233 208.845 355.048C230.055 347.072 223.773 299.683 230.727 279.556C238.28 257.7 259.405 233.548 240.851 206.599C235.676 199.085 222.861 190.009 208.362 189.021C187.793 187.618 183.555 203.777 168.944 194.008C155.967 190.313 150.18 186.019 134.141 190.835C123.756 193.957 113.829 202.404 109.338 210.727C96.1393 235.161 115.724 258.505 122.538 279.949Z" fill="#D2010D"/>
<path fill-rule="evenodd" clip-rule="evenodd" d="M651.485 513.326C657.528 536.641 698.845 526.004 698.392 515.243C694.919 512.702 704.88 508.305 688.546 513.365C678.054 516.611 690.68 515.619 678.816 517.232C665.351 519.058 664.196 514.147 651.485 513.326Z" fill="#D2010D"/>
<path fill-rule="evenodd" clip-rule="evenodd" d="M76.0083 545.468C77.7833 536.547 62.4629 507.537 56.0173 504.154C46.1244 513.571 55.1405 517.673 60.9873 528.378C66.2695 538.044 66.7912 544.801 76.0083 545.468ZM106.008 582.823C99.1432 572.477 101.517 569.065 90.1442 567.769C89.8791 577.426 90.264 575.535 94.7079 580.719C98.198 587.16 95.3751 582.28 100.392 588.772C110.208 601.483 106.893 603.344 119.04 603.977C119.387 595.145 118.488 596.89 114.019 590.996C110.105 585.838 110.965 585.043 106.008 582.823V582.823ZM38.0192 470.1C39.0158 480.754 37.4802 477.799 46.6033 480.737C50.1105 471.114 45.1918 467.483 43.6991 455.542C34.7172 431.638 41.1756 439.644 32.3477 436.411C28.3101 444.366 30.2307 444.148 32.6087 454.19C35.2477 465.31 33.5026 463.894 38.0192 470.1V470.1ZM173.15 650.518C171.952 643.807 147.585 621.56 139.078 621.615C134.301 630.511 161.105 654.35 173.15 650.518Z" fill="#D2010D"/>
<path fill-rule="evenodd" clip-rule="evenodd" d="M514.139 31.2327C519.605 39.4699 545.738 51.9748 555.417 50.1016C554.031 40.3676 558.988 44.987 536.79 34.0812C530.443 30.9634 515.824 22.7262 514.139 31.2327Z" fill="#D2010D"/>
<path fill-rule="evenodd" clip-rule="evenodd" d="M172.531 74.9978C181.35 74.7669 185.234 69.8829 192.458 65.1825C200.336 60.0587 207.488 58.0357 210.195 50.2516C201.559 44.5718 197.988 50.3327 188.664 56.0681C183.741 59.0962 181.756 59.9043 177.287 63.1719C168.459 69.6258 170.127 63.5313 172.531 74.9978Z" fill="#D2010D"/>
<path fill-rule="evenodd" clip-rule="evenodd" d="M736.881 413.269C741.702 410.121 741.582 420.326 743.665 391.756C744.388 381.782 745.56 375.431 742.292 368.165C733.314 371.496 734.777 373.665 733.13 399.378C732.288 412.461 734.272 410.177 736.881 413.269Z" fill="#D2010D"/>
<path fill-rule="evenodd" clip-rule="evenodd" d="M633.655 110.362C632.539 117.826 639.805 121.508 646.033 127.222C655.793 136.187 651.268 143.021 665.391 141.366C663.68 128.942 644.865 110.667 640.366 108.986C627.71 104.251 637.496 107.899 633.655 110.362Z" fill="#D2010D"/>
<path fill-rule="evenodd" clip-rule="evenodd" d="M445.186 10.2027C448.834 18.928 435.066 11.7295 465.203 19.0092C482.508 23.1922 481.002 26.4 489.223 21.2547C486.969 14.0435 494.116 16.2037 470.66 10.729C459.647 8.15843 453.017 3.95384 445.186 10.2027Z" fill="#D2010D"/>
<path fill-rule="evenodd" clip-rule="evenodd" d="M702.71 202.588C706.171 194.817 691.924 163.861 679.781 163.57C678.387 172.141 687.467 186.413 693.177 195.822C700.238 207.46 692.24 200.518 702.71 202.588Z" fill="#D2010D"/>
<path fill-rule="evenodd" clip-rule="evenodd" d="M729.712 270.206C732.787 261.16 729.28 257.17 726.016 247.175C724.818 243.509 724.019 239.224 722.299 235.131C716.756 221.928 723.929 229.472 713.219 227.86C711.26 232.885 716.423 266.472 729.712 270.206V270.206Z" fill="#D2010D"/>
<path fill-rule="evenodd" clip-rule="evenodd" d="M372.925 0.661359C376.92 13.2613 376.441 9.30558 392.438 9.48094C403.177 9.60069 411.3 12.1537 418.344 8.17613C414.533 -1.59675 412.052 0.759729 400.286 0.447511C392.544 0.242216 379.388 -0.557577 372.925 0.661359V0.661359Z" fill="#D2010D"/>
<path fill-rule="evenodd" clip-rule="evenodd" d="M301.485 12.8324C308.141 19.791 311.383 16.4931 322.486 14.5942C354.911 9.04697 343.144 14.4742 345.642 4.94515C335.403 0.266164 309.432 4.28282 301.485 12.8324V12.8324Z" fill="#D2010D"/>
<path fill-rule="evenodd" clip-rule="evenodd" d="M736.466 341.129C743.925 338.956 745.123 342.84 742.347 320.385C741.042 309.813 742.432 301.541 734.25 296.43C727.941 304.373 733.249 332.827 736.466 341.129Z" fill="#D2010D"/>
<path fill-rule="evenodd" clip-rule="evenodd" d="M577.564 63.62C580.156 71.8789 591.106 77.1906 602.778 86.6941C614.489 96.2318 612.748 89.6027 613.655 89.1793C615.96 81.8741 583.343 54.989 577.564 63.62V63.62Z" fill="#D2010D"/>
<path fill-rule="evenodd" clip-rule="evenodd" d="M233.35 36.4888C244.188 42.3869 273.482 26.9727 275.992 20.9334C271.074 17.5802 276.018 15.0012 253.644 23.7478C249.902 25.2148 245.544 26.4382 242.22 28.0207C230.723 33.4996 237.297 28.9954 233.35 36.4888V36.4888Z" fill="#D2010D"/>
<path fill-rule="evenodd" clip-rule="evenodd" d="M456.793 496.027L455.942 495.638C454.796 508.743 453.474 504.136 446.96 514.405L455.587 514.701L459.197 508.264C463.73 500.766 466.844 499.068 471.091 493.538L456.793 496.027Z" fill="#D2010D"/>
</svg>
