<svg xmlns="http://www.w3.org/2000/svg" width="150" height="150" fill="none" viewBox="0 0 150 150"><path fill="#fff" fill-rule="evenodd" d="M74.605 0C115.808 0 149.21 33.3949 149.21 74.5895C149.21 115.784 115.808 149.179 74.605 149.179C33.4017 149.179 0 115.784 0 74.5895C0 33.3949 33.4017 0 74.605 0Z" clip-rule="evenodd"/><path fill="#D2010D" fill-rule="evenodd" d="M89.2202 47.4735C89.4282 47.328 89.131 47.3978 89.6035 47.3355C90.4815 47.2226 96.5387 47.3903 97.7719 47.1527C97.9175 45.8381 98.0735 33.8288 97.864 33L84.7347 33.0519C75.6169 32.431 67.4842 40.8311 66.2585 49.8682C65.7578 53.5593 66.2436 59.8901 65.9583 61.3651L52.0045 61.3886L52 74.937L65.9673 74.9518L66.0118 115.408L81.6712 115.421L81.704 74.9979L97.9264 74.9518L97.9888 61.3738L81.704 61.3651C81.6832 58.3112 81.4335 53.5519 81.8435 50.7489C82.0382 49.4151 82.83 47.8169 84.029 47.6015C85.0839 47.4099 88.1029 47.3176 89.2202 47.4735V47.4735Z" clip-rule="evenodd"/></svg>