<svg width="244" height="88" viewBox="0 0 244 88" fill="none" xmlns="http://www.w3.org/2000/svg">
<path fill-rule="evenodd" clip-rule="evenodd" d="M208.481 81.8457C197.69 87.5988 190.569 87.3225 177.233 87.3218C152.175 87.3197 100.659 87.3218 75.5994 87.3218C51.8244 87.3218 24.3391 91.1885 10.1106 77.9769C-9.90544 59.3907 0.552271 17.8198 34.8073 8.81452C49.7674 4.88233 180.095 9.21685 209.305 6.86408C215.231 6.38727 238.928 2.81079 243.435 0C230.318 29.1319 239.916 65.0867 208.481 81.8457Z" fill="white"/>
<path d="M44.2867 39.4345C46.7586 39.4345 49.1275 39.8807 50.7759 40.4647L51.188 36.2074C49.5055 35.5893 47.1018 35.1773 44.1837 35.1773C36.1157 35.1773 31 40.1557 31 47.1931C31 54.0593 35.5324 59.0718 43.4284 59.0718C46.7934 59.0718 50.0547 58.3165 52.1493 57.1492V46.4378L47.2737 47.7082V54.4372C46.3813 54.7122 45.1798 54.8834 43.9094 54.8834C39.2747 54.8834 36.0127 51.9995 36.0127 47.159C36.0127 42.2495 39.4459 39.4345 44.2867 39.4345ZM65.4054 59.0718C67.328 59.0718 69.628 58.7627 71.3446 58.2824L70.9325 54.5061C69.525 54.8152 67.6712 55.0895 65.8168 55.0895C62.5214 55.0895 60.5639 53.5789 60.5298 51.4503H72.34C72.4779 50.7292 72.5461 49.8368 72.5461 49.0126C72.5461 44.55 70.3144 40.4988 64.5812 40.4988C58.7102 40.4988 55.4489 44.55 55.4489 49.8368C55.4489 55.6387 58.6419 59.0718 65.4054 59.0718ZM64.3751 44.069C66.7099 44.069 67.7053 45.7515 67.7053 48.1203H60.5987C60.6328 45.6485 61.9721 44.069 64.3751 44.069ZM85.94 45.0993L86.7983 41.048H80.5841V36.1386L75.7774 36.8597V52.6177C75.7774 57.4923 78.2841 58.8657 82.1977 58.8657C83.7082 58.8657 85.4249 58.6597 86.5233 58.2824L86.2832 54.5061C85.5279 54.6774 84.3605 54.7804 83.159 54.7804C81.3735 54.7804 80.5841 53.8539 80.5841 51.7594V45.0993H85.94ZM103.969 54.9175C101.565 54.9175 98.8529 54.1971 96.8272 53.2358L96.484 57.6643C98.6809 58.5225 101.325 59.0718 104.312 59.0718C109.427 59.0718 113.101 56.2568 113.101 51.5875C113.101 47.846 111.178 46.2666 106.544 44.8243C102.835 43.6918 101.874 43.0047 101.874 41.4601C101.874 40.1897 103.144 39.3315 105.925 39.3315C107.642 39.3315 109.702 39.6746 111.659 40.2246L111.831 35.9332C110.217 35.4863 107.916 35.1773 105.685 35.1773C100.432 35.1773 96.7931 37.6149 96.7931 41.6661C96.7931 45.4083 98.6809 47.2961 102.938 48.7043C105.582 49.5626 106.75 49.8709 107.367 50.4549C107.848 50.9011 108.019 51.4503 108.019 52.1374C108.019 53.7161 106.887 54.9175 103.969 54.9175ZM126.289 45.0993L127.147 41.048H120.933V36.1386L116.126 36.8597V52.6177C116.126 57.4923 118.633 58.8657 122.546 58.8657C124.057 58.8657 125.774 58.6597 126.872 58.2824L126.632 54.5061C125.877 54.6774 124.709 54.7804 123.508 54.7804C121.722 54.7804 120.933 53.8539 120.933 51.7594V45.0993H126.289ZM128.868 52.9608C128.868 56.4628 131.546 59.0718 135.493 59.0718C137.691 59.0718 139.374 58.2824 140.575 57.012H140.643C140.712 57.6643 140.781 58.1453 140.884 58.7286H145.038C144.97 57.5954 144.97 56.3598 144.97 55.1584V46.8847C144.97 42.4555 142.189 40.4988 137.451 40.4988C135.047 40.4988 132.301 40.9109 130.55 41.3912L130.859 45.2023C132.609 44.7561 134.567 44.4811 136.181 44.4811C138.927 44.4811 140.163 45.2364 140.163 47.0907V47.8801C139.476 47.8112 138.48 47.743 137.554 47.743H136.387C130.893 47.743 128.868 49.5967 128.868 52.9608ZM140.163 52.7207C140.163 53.407 139.923 53.991 139.408 54.4713C138.79 55.0205 137.965 55.3644 136.73 55.3644C134.979 55.3644 133.777 54.4713 133.777 52.9267C133.777 51.7253 134.635 51.073 136.009 51.073H140.163V52.7207ZM153.282 40.8079H149.162V58.7286H153.969V46.8499C155.72 45.8545 157.848 45.1681 159.908 45.0303L160.08 40.4647C157.539 40.739 155.308 41.7692 153.591 43.2107L153.282 40.8079ZM172.753 45.0993L173.611 41.048H167.397V36.1386L162.59 36.8597V52.6177C162.59 57.4923 165.097 58.8657 169.011 58.8657C170.521 58.8657 172.238 58.6597 173.336 58.2824L173.096 54.5061C172.341 54.6774 171.173 54.7804 169.972 54.7804C168.186 54.7804 167.397 53.8539 167.397 51.7594V45.0993H172.753ZM185.22 59.0718C187.142 59.0718 189.442 58.7627 191.159 58.2824L190.747 54.5061C189.339 54.8152 187.485 55.0895 185.631 55.0895C182.336 55.0895 180.378 53.5789 180.344 51.4503H192.154C192.292 50.7292 192.36 49.8368 192.36 49.0126C192.36 44.55 190.129 40.4988 184.395 40.4988C178.524 40.4988 175.263 44.55 175.263 49.8368C175.263 55.6387 178.456 59.0718 185.22 59.0718ZM184.189 44.069C186.524 44.069 187.52 45.7515 187.52 48.1203H180.413C180.447 45.6485 181.786 44.069 184.189 44.069ZM204.518 44.4811C206.922 44.4811 208.432 45.9234 208.432 48.3952V53.1669C207.643 54.2312 206.2 54.9523 204.621 54.9523C201.703 54.9523 199.815 52.8237 199.815 49.5625C199.815 46.5756 201.737 44.4811 204.518 44.4811ZM213.239 33.5637L208.432 34.8341V41.9063C207.608 41.1169 205.857 40.4988 204.175 40.4988C199.197 40.4988 194.905 44.069 194.905 49.8709C194.905 55.7758 198.888 59.0718 203.728 59.0718C206.063 59.0718 207.848 58.1453 208.844 56.909H208.947C209.05 57.8014 209.118 57.9733 209.256 58.7286H213.307C213.239 57.012 213.239 55.4326 213.239 53.6479V33.5637Z" fill="#D2010D"/>
</svg>
