<svg xmlns="http://www.w3.org/2000/svg" width="1605" height="400" fill="none" viewBox="0 0 1605 400"><path fill="#D2010D" fill-rule="evenodd" d="M1445.77 27.3302C1396.63 1.1386 1364.21 2.39898 1303.49 2.39898C1189.39 2.39898 458.329 2.39898 344.224 2.39898C235.967 2.39898 110.814 -15.2019 46.0322 44.946C-45.1011 129.571 2.51785 318.866 158.486 359.863C226.599 377.763 1316.52 358.038 1449.52 368.743C1476.49 370.911 1584.4 387.199 1604.92 400C1545.2 267.352 1588.9 103.64 1445.77 27.3302V27.3302Z" clip-rule="evenodd"/><path fill="#fff" d="M159.298 208.692H211.307V261.245H237.041V138.741H211.307V186.402H159.298V138.741H133.565V261.245H159.298V208.692ZM383.833 199.995C383.833 160.669 355.743 136.931 321.312 136.931C287.06 136.931 258.607 160.669 258.607 199.995C258.607 239.138 287.06 263.055 321.312 263.055C355.743 263.055 383.833 239.138 383.833 199.995ZM285.249 199.995C285.249 176.252 300.108 159.22 321.312 159.22C342.333 159.22 357.375 176.252 357.375 199.995C357.375 223.734 342.333 240.765 321.312 240.765C300.108 240.765 285.249 223.734 285.249 199.995ZM480.607 186.764H482.239L507.611 261.245H529.718L570.678 138.741H541.68L519.573 221.016H517.94L489.671 138.741H473.18L444.906 221.016H443.274L421.167 138.741H392.173L433.128 261.245H455.235L480.607 186.764V186.764ZM654.041 138.741H628.308V261.245H654.041V138.741ZM776.003 138.741H670.533V161.031H708.769V261.245H734.865V161.031H769.841L776.003 138.741ZM901.229 186.764H902.862L928.233 261.245H950.341L991.3 138.741H962.302L940.195 221.016H938.563L910.293 138.741H893.802L865.528 221.016H863.896L841.789 138.741H812.796L853.75 261.245H875.858L901.229 186.764V186.764ZM1124.68 199.995C1124.68 160.669 1096.59 136.931 1062.16 136.931C1027.9 136.931 999.452 160.669 999.452 199.995C999.452 239.138 1027.9 263.055 1062.16 263.055C1096.59 263.055 1124.68 239.138 1124.68 199.995ZM1026.09 199.995C1026.09 176.252 1040.95 159.22 1062.16 159.22C1083.18 159.22 1098.22 176.252 1098.22 199.995C1098.22 223.734 1083.18 240.765 1062.16 240.765C1040.95 240.765 1026.09 223.734 1026.09 199.995ZM1171.98 196.915V161.031H1193.54C1207.13 161.031 1215.11 165.561 1215.11 178.608C1215.11 191.115 1207.5 196.915 1193.9 196.915H1171.98ZM1243.92 261.245L1250.08 238.955H1238.48C1234.14 238.955 1231.78 237.506 1229.24 233.88L1216.01 214.67C1233.41 209.054 1241.02 192.38 1241.02 177.884C1241.02 149.616 1224.17 138.741 1195.53 138.741H1146.24V261.245H1171.98V219.205H1183.93C1188.11 219.205 1189.56 219.746 1191.91 223.372L1210.58 250.554C1215.83 258.164 1220.37 261.245 1229.42 261.245H1243.92V261.245ZM1334.35 251.457C1339.07 257.981 1344.32 261.245 1353.02 261.245H1367.16L1373.32 238.955H1361.54C1357.91 238.955 1355.56 237.506 1352.84 233.517L1327.11 197.456L1371.69 138.741H1341.42L1304.99 186.402H1292.67V138.741H1266.94V261.245H1292.67V208.33H1299.92C1302.64 208.33 1303.91 209.054 1305.36 211.227L1334.35 251.457V251.457ZM1423.15 241.128C1410.47 241.128 1396.15 237.322 1385.46 232.252L1383.65 255.629C1395.24 260.158 1409.2 263.055 1424.97 263.055C1451.97 263.055 1471.36 248.197 1471.36 223.551C1471.36 203.801 1461.21 195.461 1436.74 187.851C1417.17 181.873 1412.1 178.246 1412.1 170.09C1412.1 163.388 1418.8 158.858 1433.48 158.858C1442.54 158.858 1453.42 160.669 1463.75 163.566L1464.66 140.914C1456.14 138.563 1443.99 136.931 1432.21 136.931C1404.49 136.931 1385.28 149.795 1385.28 171.182C1385.28 190.932 1395.24 200.898 1417.72 208.33C1431.67 212.859 1437.83 214.492 1441.09 217.573C1443.63 219.929 1444.54 222.826 1444.54 226.453C1444.54 234.787 1438.56 241.128 1423.15 241.128V241.128Z"/></svg>