<svg xmlns="http://www.w3.org/2000/svg" width="751" height="865" fill="none" viewBox="0 0 751 865"><path fill="#D2010D" d="M64.681 0.0117188H582.282C600.077 0.0117188 616.253 7.28157 627.969 19.0045C639.692 30.7198 646.963 46.8954 646.963 64.6898V311.153L627.343 330.972V64.6898C627.343 52.3025 622.271 41.0376 614.099 32.8736C605.935 24.7019 594.67 19.631 582.282 19.631H64.681C52.2932 19.631 41.028 24.7019 32.8636 32.8736C24.6916 41.0376 19.6204 52.3025 19.6204 64.6898V800.309C19.6204 812.696 24.6916 823.961 32.8636 832.133C41.028 840.297 52.3008 845.368 64.681 845.368H582.282C594.67 845.368 605.935 840.297 614.099 832.133C622.271 823.961 627.343 812.696 627.343 800.309V432.21L646.963 412.391V800.309C646.963 818.111 639.692 834.279 627.969 846.002C616.253 857.717 600.077 864.989 582.282 864.989H64.681C46.8859 864.989 30.7099 857.717 18.9942 846.002C7.27843 834.279 0 818.111 0 800.309V64.6898C0 46.8878 7.27843 30.7198 18.9942 19.0045C30.7099 7.28157 46.8859 0.0117188 64.681 0.0117188Z"/><path fill="#D2010D" d="M710.69 263.451L744.668 297.086C748.854 301.233 750.977 306.731 751 312.245C751.023 317.744 748.961 323.265 744.791 327.473L380.411 695.519C376.271 699.704 370.765 701.828 365.258 701.851C359.759 701.882 354.237 699.811 350.022 695.641C347.173 692.823 316.066 661.946 316.012 662.007L315.394 661.336C311.636 657.273 309.742 652.071 309.719 646.848C309.689 641.349 311.758 635.828 315.921 631.62V631.581L316.409 631.13L680.3 263.573C684.448 259.388 689.946 257.264 695.461 257.242C700.952 257.211 706.481 259.281 710.69 263.451V263.451ZM730.875 310.953L696.897 277.32C696.53 276.961 696.033 276.779 695.537 276.786C695.056 276.786 694.552 276.985 694.17 277.366L330.317 644.885L329.798 645.45L329.775 645.435C329.431 645.794 329.255 646.283 329.255 646.772C329.263 647.169 329.393 647.574 329.645 647.91L329.874 648.139L329.859 648.154L363.822 681.772C364.181 682.131 364.678 682.314 365.174 682.306C365.663 682.306 366.167 682.108 366.541 681.726L730.921 313.68C731.28 313.313 731.456 312.817 731.456 312.321C731.456 311.832 731.257 311.335 730.875 310.953V310.953Z"/><path fill="#D2010D" d="M304.667 707.773L352.454 688.673L323.103 659.623L304.667 707.773V707.773ZM373.579 701.298L291.629 734.069C289.315 735.13 286.596 735.306 284.03 734.328C278.974 732.404 276.431 726.744 278.356 721.688L310.158 638.621C310.647 637.384 311.38 636.214 312.38 635.214C316.191 631.38 322.385 631.366 326.212 635.177L376.611 685.062C377.634 686.017 378.467 687.2 379.017 688.575C381.025 693.592 378.589 699.29 373.579 701.298Z"/><path fill="#D2010D" fill-rule="evenodd" d="M94.9115 109.272H281.661C288.901 109.272 294.82 115.199 294.82 122.44V122.454C294.82 129.702 288.901 135.622 281.661 135.622H94.9115C87.6636 135.622 81.7446 129.702 81.7446 122.454V122.44C81.7446 115.199 87.6636 109.272 94.9115 109.272Z" clip-rule="evenodd"/><path fill="#D2010D" fill-rule="evenodd" d="M94.9115 190.604H395.076C402.316 190.604 408.235 196.523 408.235 203.77V203.785C408.235 211.025 402.316 216.952 395.076 216.952H94.9115C87.6636 216.952 81.7446 211.025 81.7446 203.785V203.77C81.7446 196.523 87.6636 190.604 94.9115 190.604Z" clip-rule="evenodd"/><path fill="#D2010D" fill-rule="evenodd" d="M94.9115 271.936H395.076C402.316 271.936 408.235 277.854 408.235 285.102V285.117C408.235 292.357 402.316 298.283 395.076 298.283H94.9115C87.6636 298.283 81.7446 292.357 81.7446 285.117V285.102C81.7446 277.854 87.6636 271.936 94.9115 271.936Z" clip-rule="evenodd"/><path fill="#D2010D" fill-rule="evenodd" d="M94.9115 353.264H395.076C402.316 353.264 408.235 359.184 408.235 366.424V366.446C408.235 373.686 402.316 379.613 395.076 379.613H94.9115C87.6636 379.613 81.7446 373.686 81.7446 366.446V366.424C81.7446 359.184 87.6636 353.264 94.9115 353.264Z" clip-rule="evenodd"/><path fill="#D2010D" fill-rule="evenodd" d="M94.9115 434.596H395.076C402.316 434.596 408.235 440.522 408.235 447.762V447.784C408.235 455.023 402.316 460.942 395.076 460.942H94.9115C87.6636 460.942 81.7446 455.023 81.7446 447.784V447.762C81.7446 440.522 87.6636 434.596 94.9115 434.596Z" clip-rule="evenodd"/><path fill="#D2010D" fill-rule="evenodd" d="M94.9115 515.945H281.661C288.901 515.945 294.82 521.864 294.82 529.104V529.126C294.82 536.366 288.901 542.285 281.661 542.285H94.9115C87.6636 542.285 81.7446 536.366 81.7446 529.126V529.104C81.7446 521.864 87.6636 515.945 94.9115 515.945Z" clip-rule="evenodd"/></svg>