<svg width="150" height="150" viewBox="0 0 150 150" fill="none" xmlns="http://www.w3.org/2000/svg">
<path fill-rule="evenodd" clip-rule="evenodd" d="M74.7511 0C115.954 0 149.356 33.3949 149.356 74.5895C149.356 115.784 115.954 149.179 74.7511 149.179C33.5478 149.179 0.145996 115.784 0.145996 74.5895C0.145996 33.3949 33.5478 0 74.7511 0V0Z" fill="white"/>
<path d="M55.9166 29.0566H93.5854C100.99 29.0566 107.722 32.0852 112.597 36.9588C117.471 41.8309 120.499 48.5611 120.499 55.9658V93.2048C120.499 100.61 117.471 107.341 112.597 112.213C107.722 117.087 100.99 120.114 93.5854 120.114H55.9166C48.5104 120.114 41.7771 117.087 36.904 112.213C32.0293 107.341 29.0015 100.61 29.0015 93.2048V55.9658C29.0015 48.5611 32.0293 41.8309 36.904 36.9588C41.7771 32.0852 48.5104 29.0566 55.9166 29.0566ZM93.5854 37.1921H55.9166C50.7568 37.1921 46.0619 39.3073 42.6567 42.7104C39.2529 46.1149 37.1387 50.807 37.1387 55.9658V93.2048C37.1387 98.3621 39.2529 103.057 42.6567 106.462C46.0619 109.865 50.7568 111.979 55.9166 111.979H93.5854C98.7438 111.979 103.439 109.865 106.842 106.462C110.246 103.057 112.363 98.3621 112.363 93.2048V55.9658C112.363 50.807 110.246 46.1149 106.842 42.7104C103.439 39.3073 98.7438 37.1921 93.5854 37.1921Z" fill="#D2010D"/>
<path d="M74.6517 51.2793H74.8507C81.2452 51.2793 87.0737 53.901 91.3035 58.124L91.3198 58.1405C95.5437 62.3694 98.166 68.1966 98.166 74.5898C98.166 80.9873 95.5437 86.813 91.3198 91.0419L91.3035 91.0581C87.0737 95.2811 81.2452 97.9028 74.8507 97.9028H74.6517C68.2557 97.9028 62.4302 95.2811 58.2004 91.0581L58.1825 91.0419C53.9587 86.813 51.3379 80.9873 51.3379 74.5927C51.3379 68.1966 53.9587 62.3694 58.1825 58.1405L58.2004 58.124C62.4302 53.901 68.2557 51.2793 74.6517 51.2793ZM74.8507 59.415H74.6517C70.4709 59.415 66.6763 61.1187 63.9367 63.8593L63.9204 63.8755C61.1777 66.6161 59.4751 70.4114 59.4751 74.5898C59.4751 78.7726 61.1777 82.5661 63.9204 85.3066L63.9367 85.3232C66.6763 88.0637 70.4709 89.7674 74.6517 89.7674H74.8507C79.03 89.7674 82.826 88.0637 85.5671 85.3232L85.5835 85.3066C88.3247 82.5661 90.0288 78.7725 90.0288 74.5927C90.0288 70.4113 88.3247 66.6161 85.5835 63.8755L85.5671 63.8593C82.826 61.1187 79.03 59.415 74.8507 59.415Z" fill="#D2010D"/>
<path fill-rule="evenodd" clip-rule="evenodd" d="M99.1609 45.0137C102.361 45.0137 104.952 47.604 104.952 50.8021C104.952 54.0002 102.361 56.5923 99.1609 56.5923C95.9621 56.5923 93.3711 54.0002 93.3711 50.8021C93.3711 47.604 95.9621 45.0137 99.1609 45.0137Z" fill="#D2010D"/>
</svg>
