<svg xmlns="http://www.w3.org/2000/svg" width="1633" height="400" fill="none" viewBox="0 0 1633 400"><path fill="#0098A7" fill-rule="evenodd" d="M1473.77 372.669C1424.65 398.857 1392.21 397.6 1331.49 397.6C1217.4 397.6 458.333 397.6 344.229 397.6C235.969 397.6 110.817 415.205 46.0359 355.055C-45.1032 270.428 2.5171 81.1311 158.486 40.1375C226.606 22.2332 1344.52 41.9565 1477.52 31.2567C1504.5 29.0855 1612.41 12.7996 1632.93 0C1573.2 132.646 1616.9 296.371 1473.77 372.669Z" clip-rule="evenodd"/><path fill="#fff" d="M343.197 246.885L305.434 177.578H285.835V285.284H307.663V224.581L334.913 272.217H351.641L378.57 226.012V285.284H400.399V177.578H381.437L344.151 246.885H343.197V246.885ZM506.036 243.697C506.036 216.93 489.148 200.68 462.379 200.68C435.611 200.68 418.723 217.091 418.723 243.858C418.723 270.625 434.813 286.876 462.379 286.876C489.148 286.876 506.036 270.465 506.036 243.697ZM483.25 243.858C483.25 260.269 474.489 268.713 462.536 268.713C450.587 268.713 441.505 260.269 441.505 243.858C441.505 227.447 450.426 218.843 462.379 218.843C474.328 218.843 483.25 227.447 483.25 243.858ZM559.729 286.876C584.108 286.876 597.653 275.725 597.653 253.1V202.116H575.347V252.779C575.347 263.773 570.247 268.713 560.05 268.713C549.85 268.713 544.593 263.773 544.593 252.779V202.116H522.287V253.1C522.287 276.84 535.351 286.876 559.729 286.876V286.876ZM664.257 222.031L668.239 203.23H639.401V180.444L617.091 183.792V256.925C617.091 279.546 628.723 285.921 646.887 285.921C653.9 285.921 661.867 284.967 666.963 283.211L665.849 265.686C662.344 266.484 656.928 266.96 651.35 266.96C643.066 266.96 639.401 262.659 639.401 252.94V222.031H664.257V222.031ZM731.018 200.68C722.729 200.68 713.01 203.868 705.524 208.487V168.496L683.214 174.39V285.284H705.524V225.218C709.983 222.191 716.675 219.641 723.05 219.641C727.509 219.641 730.697 220.595 733.247 222.829C735.953 225.218 737.228 228.722 737.228 235.575V285.284H759.538V233.025C759.538 221.87 757.148 214.224 752.364 208.963C747.429 203.547 740.255 200.68 731.018 200.68V200.68ZM842.554 202.116H825.184L807.497 253.898H806.86L791.884 202.116H767.505L796.347 285.284H815.148L833.468 232.548H834.266L852.43 285.284H870.914L900.233 202.116H875.854L861.355 253.898H860.718L842.554 202.116ZM903.416 258.517C903.416 274.767 915.846 286.876 934.17 286.876C944.367 286.876 952.173 283.211 957.751 277.317H958.067C958.388 280.344 958.705 282.573 959.182 285.284H978.465C978.144 280.028 978.144 274.29 978.144 268.713V230.314C978.144 209.762 965.237 200.68 943.252 200.68C932.097 200.68 919.351 202.592 911.223 204.822L912.658 222.507C920.786 220.439 929.868 219.164 937.353 219.164C950.1 219.164 955.838 222.668 955.838 231.272V234.937C952.65 234.616 948.032 234.299 943.729 234.299H938.312C912.819 234.299 903.416 242.904 903.416 258.517V258.517ZM955.838 257.402C955.838 260.59 954.724 263.296 952.334 265.525C949.463 268.075 945.642 269.671 939.904 269.671C931.781 269.671 926.203 265.525 926.203 258.356C926.203 252.779 930.185 249.752 936.56 249.752H955.838V257.402ZM1020.69 268.396C1012.4 268.396 1002.68 266.163 994.876 263.296L993.124 282.257C1002.05 285.284 1012.09 286.876 1023.56 286.876C1041.24 286.876 1057.49 278.909 1057.49 258.677C1057.49 247.362 1052.08 240.193 1033.91 234.46C1024.19 231.433 1016.55 229.837 1016.55 224.741C1016.55 220.439 1021.64 218.687 1030.09 218.687C1037.1 218.687 1044.75 219.957 1051.12 222.191L1052.72 203.868C1045.39 201.955 1037.26 200.68 1028.5 200.68C1010.97 200.68 993.762 207.693 993.762 225.379C993.762 237.964 1001.25 246.248 1018.94 251.348C1032 255.173 1034.87 256.925 1034.87 261.067C1034.87 265.208 1031.05 268.396 1020.69 268.396V268.396ZM1120.27 200.68C1111.99 200.68 1102.27 203.868 1094.78 208.487V168.496L1072.47 174.39V285.284H1094.78V225.218C1099.24 222.191 1105.93 219.641 1112.31 219.641C1116.77 219.641 1119.95 220.595 1122.5 222.829C1125.21 225.218 1126.48 228.722 1126.48 235.575V285.284H1148.79V233.025C1148.79 221.87 1146.4 214.224 1141.62 208.963C1136.69 203.547 1129.51 200.68 1120.27 200.68V200.68ZM1211.25 286.876C1220.17 286.876 1230.85 285.444 1238.81 283.211L1236.9 265.686C1230.37 267.121 1221.77 268.396 1213.16 268.396C1197.87 268.396 1188.78 261.384 1188.63 251.509H1243.44C1244.08 248.16 1244.39 244.018 1244.39 240.193C1244.39 219.48 1234.04 200.68 1207.43 200.68C1180.18 200.68 1165.05 219.48 1165.05 244.018C1165.05 270.946 1179.86 286.876 1211.25 286.876V286.876ZM1206.47 217.251C1217.31 217.251 1221.93 225.058 1221.93 236.052H1188.94C1189.1 224.581 1195.32 217.251 1206.47 217.251ZM1283.75 268.396C1275.46 268.396 1265.74 266.163 1257.94 263.296L1256.18 282.257C1265.11 285.284 1275.15 286.876 1286.62 286.876C1304.3 286.876 1320.56 278.909 1320.56 258.677C1320.56 247.362 1315.14 240.193 1296.97 234.46C1287.26 231.433 1279.61 229.837 1279.61 224.741C1279.61 220.439 1284.71 218.687 1293.15 218.687C1300.16 218.687 1307.81 219.957 1314.18 222.191L1315.78 203.868C1308.45 201.955 1300.32 200.68 1291.56 200.68C1274.03 200.68 1256.82 207.693 1256.82 225.379C1256.82 237.964 1264.31 246.248 1282 251.348C1295.06 255.173 1297.93 256.925 1297.93 261.067C1297.93 265.208 1294.11 268.396 1283.75 268.396V268.396Z"/></svg>