<svg xmlns="http://www.w3.org/2000/svg" width="751" height="615" fill="none" viewBox="0 0 751 615"><path fill="#D2010D" fill-rule="evenodd" d="M366.216 562.577C378.763 556.548 391.049 563.726 394.58 572.853C399.438 585.405 392.52 597.269 383.598 600.933C358.126 611.387 341.327 574.529 366.216 562.577ZM252.514 55.5931C262.68 51.6959 418.974 53.8669 444.024 53.8669C476.824 53.8669 512.628 44.3952 512.595 81.9795L512.573 513.106C512.662 528.489 511.856 539.798 497.921 544.522C486.112 548.519 332.383 545.894 306.095 545.894C266.927 545.894 237.952 554.265 237.707 518.335L237.763 87.221C237.691 71.2602 239.04 60.7617 252.514 55.5931ZM312.03 30.3496C312.291 22.9271 333.415 25.9918 340.577 25.9918H409.542C430.567 25.9918 435.241 22.9493 438.589 30.9048C430.983 35.2517 337.657 32.6982 321.612 32.6982C315.8 32.6982 316.188 33.7361 312.03 30.3496V30.3496ZM215.239 299.308L215.267 351.011C219.103 418.629 213.24 492.704 215.428 561.399C216.361 590.584 237.78 613.357 268.159 614.273C303.125 615.333 339.894 614.284 375.06 614.284C409.992 614.284 445.418 614.868 480.283 614.296C510.563 613.796 533.503 592.4 534.835 562.865C537.95 493.864 534.108 419.456 534.947 349.656L535.074 301.029C533.17 265.793 534.907 224.956 534.907 188.96C534.907 150.459 534.896 111.959 534.907 73.4526C534.919 44.1735 531.399 9.29881 490.981 2.37042C466.986 -1.74887 404.95 1.55394 376.78 1.55394C344.713 1.55394 291.56 -1.63268 261.991 1.97031C223.861 6.62255 215.373 37.5121 215.417 70.0056C215.467 108.506 215.417 147.011 215.417 185.511C215.417 221.503 217.465 264.406 215.239 299.308V299.308Z" clip-rule="evenodd"/><path fill="#D2010D" fill-rule="evenodd" d="M665.256 144.902C633.833 157.343 665.445 178.684 687.985 219.738C721.963 281.633 721.413 358.939 690.795 421.839C682.928 438.011 676.093 447.398 667.138 460.405C656.579 475.75 669.303 497.707 688.929 489.202C703.597 482.845 727.07 433.402 735.037 412.562C760.526 345.931 754.679 269.724 723.284 206.925C714.068 188.499 698.912 165.449 686.093 150.754C681.812 145.846 674.001 141.443 665.256 144.902V144.902Z" clip-rule="evenodd"/><path fill="#D2010D" fill-rule="evenodd" d="M599.361 191.553C572.507 204.644 599.134 226.062 610.226 247.397C657.994 339.248 594.342 407.522 594.748 421.34C595.142 434.831 624.006 469.04 653.969 381.568C674.633 321.25 664.606 255.336 627.198 204.494C621.63 196.933 613.818 184.508 599.361 191.553V191.553Z" clip-rule="evenodd"/><path fill="#D2010D" fill-rule="evenodd" d="M85.7483 144.901C117.166 157.342 85.5543 178.683 63.0195 219.737C29.0368 281.632 29.5862 358.938 60.2045 421.838C68.077 438.01 74.9114 447.397 83.8665 460.404C94.426 475.749 81.7012 497.706 62.0756 489.201C47.4021 482.844 23.9348 433.401 15.9624 412.561C-9.52606 345.93 -3.68016 269.723 27.7209 206.924C36.937 188.498 52.0936 165.448 64.9127 150.753C69.1932 145.845 76.9987 141.442 85.7483 144.901V144.901Z" clip-rule="evenodd"/><path fill="#D2010D" fill-rule="evenodd" d="M151.64 191.551C178.494 204.642 151.873 226.06 140.775 247.395C93.0125 339.247 156.664 407.521 156.258 421.339C155.859 434.829 126.995 469.038 97.032 381.567C76.3737 321.248 86.395 255.334 123.809 204.493C129.371 196.931 137.183 184.506 151.64 191.551V191.551Z" clip-rule="evenodd"/></svg>