<svg width="1633" height="400" viewBox="0 0 1633 400" fill="none" xmlns="http://www.w3.org/2000/svg">
<path fill-rule="evenodd" clip-rule="evenodd" d="M1473.77 372.669C1424.65 398.857 1392.21 397.6 1331.49 397.6C1217.4 397.6 458.333 397.6 344.228 397.6C235.969 397.6 110.817 415.205 46.0359 355.055C-45.1032 270.428 2.5171 81.1311 158.486 40.1375C226.606 22.2332 1344.52 41.9565 1477.52 31.2567C1504.5 29.0855 1612.41 12.7996 1632.93 0C1573.2 132.646 1616.9 296.371 1473.77 372.669Z" fill="#0098A7"/>
<path d="M421.042 177.578H328.307V197.176H361.928V285.284H384.871V197.176H415.621L421.042 177.578ZM508.356 243.698C508.356 216.93 491.467 200.68 464.699 200.68C437.931 200.68 421.042 217.091 421.042 243.858C421.042 270.625 437.133 286.876 464.699 286.876C491.467 286.876 508.356 270.465 508.356 243.698ZM485.569 243.858C485.569 260.269 476.808 268.713 464.855 268.713C452.907 268.713 443.825 260.269 443.825 243.858C443.825 227.447 452.746 218.843 464.699 218.843C476.648 218.843 485.569 227.447 485.569 243.858ZM608.417 243.698C608.417 216.93 591.528 200.68 564.76 200.68C537.991 200.68 521.102 217.091 521.102 243.858C521.102 270.625 537.193 286.876 564.76 286.876C591.528 286.876 608.417 270.465 608.417 243.698ZM585.629 243.858C585.629 260.269 576.869 268.713 564.916 268.713C552.967 268.713 543.885 260.269 543.885 243.858C543.885 227.447 552.807 218.843 564.76 218.843C576.708 218.843 585.629 227.447 585.629 243.858ZM671.512 222.031L675.493 203.23H646.656V180.444L624.346 183.792V256.925C624.346 279.546 635.978 285.921 654.142 285.921C661.155 285.921 669.122 284.967 674.218 283.211L673.104 265.686C669.599 266.484 664.182 266.96 658.605 266.96C650.321 266.96 646.656 262.659 646.656 252.94V222.031H671.512ZM738.272 200.68C729.984 200.68 720.265 203.868 712.779 208.487V168.496L690.469 174.39V285.284H712.779V225.218C717.238 222.191 723.93 219.641 730.305 219.641C734.764 219.641 737.951 220.595 740.502 222.829C743.208 225.218 744.483 228.722 744.483 235.575V285.284H766.793V233.025C766.793 221.87 764.403 214.224 759.619 208.963C754.684 203.547 747.51 200.68 738.272 200.68ZM809.812 260.429V238.441C809.812 227.287 817.935 219.641 830.682 219.641C841.837 219.641 851.556 227.287 851.556 242.904C851.556 259.792 842.952 268.075 829.728 268.075C821.921 268.075 813.317 264.411 809.812 260.429ZM834.824 200.68C823.513 200.68 813.156 205.143 806.781 210.876L805.826 202.116H787.502V321.931L809.812 316.032V280.982C814.748 284.33 823.192 286.876 831.797 286.876C855.698 286.876 874.339 271.9 874.339 242.422C874.339 216.137 857.134 200.68 834.824 200.68ZM885.494 258.517C885.494 274.767 897.924 286.876 916.248 286.876C926.444 286.876 934.251 283.211 939.829 277.317H940.145C940.466 280.344 940.783 282.573 941.26 285.284H960.543C960.222 280.028 960.222 274.29 960.222 268.713V230.314C960.222 209.762 947.314 200.68 925.33 200.68C914.175 200.68 901.428 202.592 893.301 204.822L894.736 222.507C902.864 220.439 911.946 219.164 919.431 219.164C932.178 219.164 937.916 222.668 937.916 231.272V234.937C934.728 234.616 930.109 234.299 925.807 234.299H920.39C894.897 234.299 885.494 242.904 885.494 258.517ZM937.916 257.402C937.916 260.59 936.801 263.296 934.412 265.525C931.54 268.075 927.72 269.671 921.982 269.671C913.858 269.671 908.281 265.525 908.281 258.356C908.281 252.779 912.262 249.752 918.638 249.752H937.916V257.402ZM1002.77 268.396C994.48 268.396 984.76 266.163 976.954 263.296L975.202 282.257C984.123 285.284 994.163 286.876 1005.63 286.876C1023.32 286.876 1039.57 278.909 1039.57 258.677C1039.57 247.362 1034.16 240.193 1015.99 234.46C1006.27 231.433 998.626 229.837 998.626 224.741C998.626 220.439 1003.72 218.687 1012.17 218.687C1019.18 218.687 1026.83 219.957 1033.2 222.191L1034.79 203.868C1027.46 201.955 1019.34 200.68 1010.57 200.68C993.049 200.68 975.839 207.693 975.839 225.379C975.839 237.964 983.33 246.248 1001.02 251.348C1014.08 255.173 1016.95 256.925 1016.95 261.067C1016.95 265.208 1013.13 268.396 1002.77 268.396ZM1100.44 222.031L1104.42 203.23H1075.58V180.444L1053.27 183.792V256.925C1053.27 279.546 1064.91 285.921 1083.07 285.921C1090.08 285.921 1098.05 284.967 1103.14 283.211L1102.03 265.686C1098.53 266.484 1093.11 266.96 1087.53 266.96C1079.25 266.96 1075.58 262.659 1075.58 252.94V222.031H1100.44ZM1159.24 286.876C1168.16 286.876 1178.83 285.444 1186.8 283.211L1184.89 265.686C1178.35 267.121 1169.75 268.396 1161.14 268.396C1145.85 268.396 1136.77 261.384 1136.61 251.509H1191.42C1192.06 248.16 1192.38 244.018 1192.38 240.193C1192.38 219.48 1182.02 200.68 1155.41 200.68C1128.17 200.68 1113.03 219.48 1113.03 244.018C1113.03 270.946 1127.84 286.876 1159.24 286.876ZM1154.45 217.251C1165.29 217.251 1169.91 225.058 1169.91 236.052H1136.93C1137.09 224.581 1143.3 217.251 1154.45 217.251ZM1231.73 268.396C1223.45 268.396 1213.73 266.163 1205.92 263.296L1204.17 282.257C1213.09 285.284 1223.13 286.876 1234.6 286.876C1252.29 286.876 1268.54 278.909 1268.54 258.677C1268.54 247.362 1263.12 240.193 1244.96 234.46C1235.24 231.433 1227.59 229.837 1227.59 224.741C1227.59 220.439 1232.69 218.687 1241.13 218.687C1248.15 218.687 1255.79 219.957 1262.17 222.191L1263.76 203.868C1256.43 201.955 1248.31 200.68 1239.54 200.68C1222.02 200.68 1204.81 207.693 1204.81 225.379C1204.81 237.964 1212.3 246.248 1229.98 251.348C1243.05 255.173 1245.91 256.925 1245.91 261.067C1245.91 265.208 1242.09 268.396 1231.73 268.396Z" fill="white"/>
</svg>
