<svg xmlns="http://www.w3.org/2000/svg" width="1633" height="400" fill="none" viewBox="0 0 1633 400"><path fill="#B3B3B3" fill-rule="evenodd" d="M1473.77 372.669C1424.65 398.857 1392.21 397.6 1331.49 397.6C1217.4 397.6 458.333 397.6 344.229 397.6C235.969 397.6 110.817 415.205 46.0359 355.055C-45.1032 270.428 2.5171 81.1311 158.486 40.1375C226.606 22.2332 1344.52 41.9565 1477.52 31.2567C1504.5 29.0855 1612.41 12.7996 1632.93 0C1573.2 132.646 1616.9 296.371 1473.77 372.669Z" clip-rule="evenodd"/><path fill="#fff" d="M377.438 176.994H284.703V196.592H318.324V284.7H341.267V196.592H372.016L377.438 176.994ZM464.751 243.114C464.751 216.346 447.863 200.096 421.095 200.096C394.326 200.096 377.438 216.507 377.438 243.274C377.438 270.041 393.528 286.292 421.095 286.292C447.863 286.292 464.751 269.881 464.751 243.114ZM441.965 243.274C441.965 259.685 433.204 268.129 421.251 268.129C409.302 268.129 400.22 259.685 400.22 243.274C400.22 226.863 409.142 218.259 421.095 218.259C433.043 218.259 441.965 226.863 441.965 243.274ZM564.812 243.114C564.812 216.346 547.923 200.096 521.155 200.096C494.386 200.096 477.498 216.507 477.498 243.274C477.498 270.041 493.588 286.292 521.155 286.292C547.923 286.292 564.812 269.881 564.812 243.114ZM542.025 243.274C542.025 259.685 533.264 268.129 521.311 268.129C509.363 268.129 500.281 259.685 500.281 243.274C500.281 226.863 509.202 218.259 521.155 218.259C533.103 218.259 542.025 226.863 542.025 243.274ZM627.908 221.447L631.889 202.646H603.052V179.86L580.742 183.208V256.341C580.742 278.962 592.374 285.337 610.538 285.337C617.551 285.337 625.518 284.383 630.614 282.627L629.499 265.102C625.995 265.9 620.578 266.376 615 266.376C606.717 266.376 603.052 262.075 603.052 252.356V221.447H627.908ZM694.668 200.096C686.38 200.096 676.66 203.284 669.174 207.903V167.912L646.865 173.806V284.7H669.174V224.634C673.633 221.607 680.325 219.057 686.701 219.057C691.159 219.057 694.347 220.011 696.897 222.245C699.603 224.634 700.878 228.138 700.878 234.991V284.7H723.188V232.441C723.188 221.286 720.799 213.64 716.015 208.379C711.079 202.963 703.906 200.096 694.668 200.096ZM828.505 241.205C828.505 214.278 811.456 200.096 792.178 200.096C781.5 200.096 772.262 203.761 766.208 208.861V167.912L743.898 173.806V279.444C753.938 283.585 768.116 286.292 781.661 286.292C809.704 286.292 828.505 270.679 828.505 241.205ZM766.208 264.464V239.449C766.208 231.326 767.96 226.547 771.304 223.519C774.331 220.648 778.954 218.58 785.646 218.58C797.595 218.58 805.723 227.34 805.723 242.958C805.723 257.772 798.549 267.174 783.734 267.174C776.721 267.174 770.506 266.06 766.208 264.464ZM864.837 201.532H845.715V284.7H868.025V229.574C876.148 224.951 886.028 221.763 895.587 221.13L896.385 199.936C884.592 201.211 874.235 205.99 866.268 212.682L864.837 201.532ZM948.009 286.292C972.387 286.292 985.932 275.141 985.932 252.516V201.532H963.627V252.195C963.627 263.189 958.526 268.129 948.33 268.129C938.129 268.129 932.872 263.189 932.872 252.195V201.532H910.567V252.516C910.567 276.256 923.63 286.292 948.009 286.292ZM1028.8 267.812C1020.51 267.812 1010.79 265.579 1002.98 262.712L1001.23 281.673C1010.15 284.7 1020.19 286.292 1031.66 286.292C1049.35 286.292 1065.6 278.325 1065.6 258.093C1065.6 246.778 1060.18 239.609 1042.02 233.876C1032.3 230.849 1024.65 229.253 1024.65 224.157C1024.65 219.855 1029.75 218.103 1038.19 218.103C1045.21 218.103 1052.85 219.373 1059.23 221.607L1060.82 203.284C1053.49 201.371 1045.37 200.096 1036.6 200.096C1019.08 200.096 1001.87 207.109 1001.87 224.795C1001.87 237.38 1009.36 245.664 1027.04 250.764C1040.11 254.589 1042.97 256.341 1042.97 260.483C1042.97 264.624 1039.15 267.812 1028.8 267.812ZM1128.38 200.096C1120.09 200.096 1110.37 203.284 1102.89 207.903V167.912L1080.58 173.806V284.7H1102.89V224.634C1107.34 221.607 1114.04 219.057 1120.41 219.057C1124.87 219.057 1128.06 220.011 1130.61 222.245C1133.31 224.634 1134.59 228.138 1134.59 234.991V284.7H1156.9V232.441C1156.9 221.286 1154.51 213.64 1149.73 208.379C1144.79 202.963 1137.62 200.096 1128.38 200.096ZM1219.36 286.292C1228.28 286.292 1238.95 284.86 1246.92 282.627L1245.01 265.102C1238.48 266.537 1229.87 267.812 1221.27 267.812C1205.97 267.812 1196.89 260.8 1196.73 250.925H1251.54C1252.18 247.576 1252.5 243.434 1252.5 239.609C1252.5 218.896 1242.14 200.096 1215.53 200.096C1188.29 200.096 1173.15 218.896 1173.15 243.434C1173.15 270.362 1187.97 286.292 1219.36 286.292ZM1214.57 216.667C1225.41 216.667 1230.03 224.474 1230.03 235.468H1197.05C1197.21 223.997 1203.42 216.667 1214.57 216.667ZM1291.86 267.812C1283.57 267.812 1273.85 265.579 1266.04 262.712L1264.29 281.673C1273.21 284.7 1283.25 286.292 1294.72 286.292C1312.41 286.292 1328.66 278.325 1328.66 258.093C1328.66 246.778 1323.24 239.609 1305.08 233.876C1295.36 230.849 1287.71 229.253 1287.71 224.157C1287.71 219.855 1292.81 218.103 1301.25 218.103C1308.27 218.103 1315.91 219.373 1322.29 221.607L1323.88 203.284C1316.55 201.371 1308.43 200.096 1299.66 200.096C1282.14 200.096 1264.93 207.109 1264.93 224.795C1264.93 237.38 1272.42 245.664 1290.1 250.764C1303.17 254.589 1306.03 256.341 1306.03 260.483C1306.03 264.624 1302.21 267.812 1291.86 267.812Z"/></svg>