<svg width="650" height="197" viewBox="0 0 650 197" fill="none" xmlns="http://www.w3.org/2000/svg">
<path d="M26.8408 26.2566C26.8408 22.3237 24.4406 19.275 20.2771 18.2913V18.1927C23.2167 17.1602 24.882 14.456 24.882 11.3585C24.882 5.16249 20.8166 2.80278 13.3713 2.80278H0.734904V36.0419H14.3998C22.1387 36.0419 26.8408 33.2391 26.8408 26.2566V26.2566ZM7.69031 29.9943V22.028H13.763C17.878 22.028 19.69 22.9629 19.69 25.913C19.69 28.7646 18.0247 29.9943 14.253 29.9943H7.69031ZM7.69031 8.85042H13.4695C16.1632 8.85042 17.9266 9.5882 17.9266 12.391C17.9266 14.9966 16.1632 16.0789 13.2245 16.0789H7.69031V8.85042ZM44.9608 36.5337C47.704 36.5337 50.9849 36.0907 53.4346 35.4027L52.8465 29.9943C50.8381 30.4363 48.193 30.8296 45.5489 30.8296C40.8468 30.8296 38.0549 28.666 38.0054 25.6173H54.8548C55.0502 24.5848 55.1484 23.3064 55.1484 22.1265C55.1484 15.7344 51.9648 9.9327 43.7855 9.9327C35.4098 9.9327 30.7564 15.7344 30.7564 23.3064C30.7564 31.6162 35.3117 36.5337 44.9608 36.5337ZM43.4909 15.0464C46.8223 15.0464 48.2426 17.4549 48.2426 20.8481H38.1035C38.1531 17.3075 40.0633 15.0464 43.4909 15.0464V15.0464ZM80.567 29.6498C78.9504 30.3378 76.8438 30.7808 74.5419 30.7808C70.0848 30.7808 66.558 28.224 66.558 23.1591C66.558 18.0453 70.1344 15.6856 74.4437 15.6856C76.697 15.6856 78.8036 16.1277 80.2238 16.6684L81.0073 11.014C78.6072 10.2762 76.1099 9.9327 73.8565 9.9327C65.6277 9.9327 59.554 14.8981 59.554 23.2576C59.554 31.666 65.2845 36.5337 73.7584 36.5337C76.6484 36.5337 79.4889 35.9931 81.1541 35.2055L80.567 29.6498V29.6498ZM85.0707 27.7809C85.0707 32.797 88.8911 36.5337 94.5235 36.5337C97.6575 36.5337 100.058 35.4027 101.772 33.5836H101.871C101.968 34.5175 102.066 35.2055 102.213 36.0419H108.14C108.042 34.419 108.042 32.6487 108.042 30.9282V19.0778C108.042 12.7355 104.074 9.9327 97.3153 9.9327C93.8867 9.9327 89.9682 10.5221 87.4699 11.2111L87.9112 16.6684C90.4095 16.0291 93.2004 15.6358 95.5034 15.6358C99.4209 15.6358 101.184 16.7181 101.184 19.3726V20.5036C100.205 20.406 98.7842 20.3075 97.4621 20.3075H95.7969C87.9598 20.3075 85.0707 22.9629 85.0707 27.7809V27.7809ZM101.184 27.4374C101.184 28.4201 100.842 29.2565 100.107 29.9445C99.2255 30.7311 98.0502 31.2229 96.2869 31.2229C93.7885 31.2229 92.0747 29.9445 92.0747 27.7321C92.0747 26.0106 93.2986 25.0767 95.2584 25.0767H101.184V27.4374ZM126.014 36.5337C133.508 36.5337 137.671 33.0917 137.671 26.1092V10.3748H130.814V26.0106C130.814 29.4038 129.247 30.9282 126.112 30.9282C122.977 30.9282 121.361 29.4038 121.361 26.0106V10.3748H114.504V26.1092C114.504 33.4362 118.52 36.5337 126.014 36.5337V36.5337ZM151.334 30.8296C148.787 30.8296 145.799 30.1416 143.399 29.2565L142.86 35.108C145.604 36.0419 148.689 36.5337 152.216 36.5337C157.652 36.5337 162.648 34.0754 162.648 27.8307C162.648 24.3389 160.983 22.1266 155.4 20.3563C152.411 19.4223 150.061 18.9305 150.061 17.3573C150.061 16.0291 151.628 15.4885 154.223 15.4885C156.378 15.4885 158.73 15.8818 160.689 16.5708L161.179 10.9154C158.925 10.326 156.428 9.9327 153.734 9.9327C148.346 9.9327 143.057 12.0963 143.057 17.5535C143.057 21.4386 145.359 23.9954 150.795 25.5685C154.811 26.7484 155.693 27.2891 155.693 28.5675C155.693 29.8459 154.518 30.8296 151.334 30.8296V30.8296ZM180.572 36.5337C183.315 36.5337 186.596 36.0907 189.046 35.4027L188.458 29.9943C186.449 30.4363 183.804 30.8296 181.16 30.8296C176.458 30.8296 173.666 28.666 173.617 25.6173H190.466C190.662 24.5848 190.76 23.3064 190.76 22.1265C190.76 15.7344 187.576 9.9327 179.397 9.9327C171.021 9.9327 166.368 15.7344 166.368 23.3064C166.368 31.6162 170.923 36.5337 180.572 36.5337V36.5337ZM179.102 15.0464C182.434 15.0464 183.854 17.4549 183.854 20.8481H173.715C173.764 17.3075 175.675 15.0464 179.102 15.0464ZM220.39 36.5337C223.134 36.5337 226.415 36.0907 228.864 35.4027L228.276 29.9943C226.268 30.4363 223.623 30.8296 220.979 30.8296C216.277 30.8296 213.485 28.666 213.435 25.6173H230.285C230.48 24.5848 230.578 23.3064 230.578 22.1265C230.578 15.7344 227.394 9.9327 219.215 9.9327C210.84 9.9327 206.186 15.7344 206.186 23.3064C206.186 31.6162 210.741 36.5337 220.39 36.5337V36.5337ZM218.921 15.0464C222.252 15.0464 223.672 17.4549 223.672 20.8481H213.533C213.583 17.3075 215.493 15.0464 218.921 15.0464ZM249.187 36.0419L259.914 10.3748H252.469L246.445 26.847H246.2L239.881 10.3748H232.437L243.457 36.0419H249.187ZM275.976 36.5337C278.72 36.5337 282 36.0907 284.45 35.4027L283.862 29.9943C281.854 30.4363 279.209 30.8296 276.564 30.8296C271.862 30.8296 269.07 28.666 269.021 25.6173H285.87C286.066 24.5848 286.164 23.3064 286.164 22.1265C286.164 15.7344 282.98 9.9327 274.801 9.9327C266.425 9.9327 261.772 15.7344 261.772 23.3064C261.772 31.6162 266.327 36.5337 275.976 36.5337ZM274.506 15.0464C277.838 15.0464 279.258 17.4549 279.258 20.8481H269.119C269.169 17.3075 271.079 15.0464 274.506 15.0464ZM297.819 10.3748H291.941V36.0419H298.798V19.029C301.297 17.6033 304.334 16.6196 307.272 16.4224L307.517 9.88293C303.892 10.2762 300.709 11.7518 298.26 13.8168L297.819 10.3748V10.3748ZM337.196 10.3748H329.555L323.922 26.5523H323.726L317.555 10.3748H309.866L320.494 35.2055L315.498 46.4664L321.719 47.9908L337.196 10.3748V10.3748ZM365.65 23.2088C365.65 14.9478 360.459 9.9327 352.23 9.9327C344.001 9.9327 338.809 14.9966 338.809 23.2576C338.809 31.5186 343.756 36.5337 352.23 36.5337C360.459 36.5337 365.65 31.4688 365.65 23.2088ZM358.646 23.2576C358.646 28.3225 355.952 30.9282 352.279 30.9282C348.605 30.9282 345.813 28.3225 345.813 23.2576C345.813 18.1927 348.556 15.5373 352.23 15.5373C355.904 15.5373 358.646 18.1927 358.646 23.2576ZM386.122 9.9327C383.428 9.9327 380.195 11.0628 377.844 12.6369L377.501 10.3748H371.427V36.0419H378.284V17.5047C379.656 16.5708 381.713 15.7832 383.672 15.7832C385.043 15.7832 386.023 16.0789 386.807 16.7669C387.64 17.5047 388.032 18.586 388.032 20.7008V36.0419H394.889V19.9142C394.889 16.4722 394.154 14.1115 392.684 12.4895C391.166 10.8169 388.962 9.9327 386.122 9.9327V9.9327ZM414.575 36.5337C417.318 36.5337 420.599 36.0907 423.049 35.4027L422.461 29.9943C420.452 30.4363 417.807 30.8296 415.163 30.8296C410.461 30.8296 407.669 28.666 407.62 25.6173H424.469C424.664 24.5848 424.763 23.3064 424.763 22.1265C424.763 15.7344 421.579 9.9327 413.4 9.9327C405.024 9.9327 400.371 15.7344 400.371 23.3064C400.371 31.6162 404.926 36.5337 414.575 36.5337ZM413.105 15.0464C416.437 15.0464 417.857 17.4549 417.857 20.8481H407.718C407.767 17.3075 409.677 15.0464 413.105 15.0464ZM453.903 15.6358C457.332 15.6358 459.487 17.7008 459.487 21.2414V28.0766C458.36 29.601 456.303 30.6334 454.05 30.6334C449.888 30.6334 447.193 27.5848 447.193 22.9131C447.193 18.6358 449.936 15.6358 453.903 15.6358V15.6358ZM466.344 0L459.487 1.81906V11.9479C458.312 10.8169 455.814 9.9327 453.413 9.9327C446.312 9.9327 440.189 15.0464 440.189 23.3562C440.189 31.8133 445.871 36.5337 452.777 36.5337C456.108 36.5337 458.655 35.2056 460.075 33.4362H460.222C460.369 34.7147 460.467 34.9606 460.662 36.0419H466.443C466.344 33.5836 466.344 31.3215 466.344 28.7646V0ZM486.227 36.5337C488.97 36.5337 492.251 36.0907 494.701 35.4027L494.112 29.9943C492.104 30.4363 489.459 30.8296 486.815 30.8296C482.113 30.8296 479.321 28.666 479.271 25.6173H496.121C496.316 24.5848 496.414 23.3064 496.414 22.1265C496.414 15.7344 493.231 9.9327 485.052 9.9327C476.676 9.9327 472.022 15.7344 472.022 23.3064C472.022 31.6162 476.578 36.5337 486.227 36.5337ZM484.757 15.0464C488.088 15.0464 489.509 17.4549 489.509 20.8481H479.37C479.419 17.3075 481.329 15.0464 484.757 15.0464ZM509 30.8296C506.453 30.8296 503.465 30.1416 501.065 29.2565L500.526 35.108C503.27 36.0419 506.355 36.5337 509.882 36.5337C515.318 36.5337 520.315 34.0754 520.315 27.8307C520.315 24.3389 518.649 22.1266 513.066 20.3563C510.077 19.4223 507.727 18.9305 507.727 17.3573C507.727 16.0291 509.294 15.4885 511.889 15.4885C514.045 15.4885 516.396 15.8818 518.355 16.5708L518.845 10.9154C516.591 10.326 514.094 9.9327 511.4 9.9327C506.012 9.9327 500.723 12.0963 500.723 17.5535C500.723 21.4386 503.025 23.9954 508.461 25.5685C512.477 26.7484 513.359 27.2891 513.359 28.5675C513.359 29.8459 512.184 30.8296 509 30.8296V30.8296ZM538.238 36.5337C540.981 36.5337 544.262 36.0907 546.712 35.4027L546.124 29.9943C544.116 30.4363 541.47 30.8296 538.826 30.8296C534.124 30.8296 531.332 28.666 531.283 25.6173H548.132C548.328 24.5848 548.426 23.3064 548.426 22.1265C548.426 15.7344 545.242 9.9327 537.063 9.9327C528.687 9.9327 524.034 15.7344 524.034 23.3064C524.034 31.6162 528.589 36.5337 538.238 36.5337ZM536.768 15.0464C540.1 15.0464 541.52 17.4549 541.52 20.8481H531.381C531.431 17.3075 533.341 15.0464 536.768 15.0464ZM560.08 10.3748H554.203V36.0419H561.06V19.029C563.559 17.6033 566.595 16.6196 569.534 16.4224L569.779 9.88293C566.154 10.2762 562.97 11.7518 560.522 13.8168L560.08 10.3748V10.3748ZM589.123 36.0419L599.85 10.3748H592.405L586.381 26.847H586.136L579.817 10.3748H572.373L583.392 36.0419H589.123V36.0419ZM615.912 36.5337C618.655 36.5337 621.936 36.0907 624.386 35.4027L623.798 29.9943C621.79 30.4363 619.144 30.8296 616.5 30.8296C611.798 30.8296 609.006 28.666 608.957 25.6173H625.806C626.002 24.5848 626.1 23.3064 626.1 22.1265C626.1 15.7344 622.916 9.9327 614.737 9.9327C606.361 9.9327 601.708 15.7344 601.708 23.3064C601.708 31.6162 606.263 36.5337 615.912 36.5337ZM614.442 15.0464C617.774 15.0464 619.194 17.4549 619.194 20.8481H609.055C609.105 17.3075 611.015 15.0464 614.442 15.0464ZM638.686 30.8296C636.139 30.8296 633.151 30.1416 630.75 29.2565L630.212 35.108C632.955 36.0419 636.041 36.5337 639.567 36.5337C645.003 36.5337 650 34.0754 650 27.8307C650 24.3389 648.335 22.1266 642.751 20.3563C639.763 19.4223 637.412 18.9305 637.412 17.3573C637.412 16.0291 638.979 15.4885 641.575 15.4885C643.73 15.4885 646.081 15.8818 648.04 16.5708L648.53 10.9154C646.277 10.326 643.78 9.9327 641.086 9.9327C635.697 9.9327 630.408 12.0963 630.408 17.5535C630.408 21.4386 632.71 23.9954 638.146 25.5685C642.163 26.7484 643.045 27.2891 643.045 28.5675C643.045 29.8459 641.869 30.8296 638.686 30.8296V30.8296ZM14.498 75.7541L15.7228 69.9524H6.85721V62.9211L0 63.9536V86.5222C0 93.5047 3.57539 95.4721 9.15916 95.4721C11.3143 95.4721 13.763 95.1765 15.331 94.6358L14.9879 89.2274C13.9098 89.4733 12.2446 89.6207 10.5308 89.6207C7.98388 89.6207 6.85721 88.2925 6.85721 85.2935V75.7541H14.498ZM35.508 69.1658C32.9611 69.1658 29.9729 70.1486 27.6709 71.5743V59.2331L20.8137 61.0522V95.275H27.6709V76.7378C29.0426 75.8039 31.0995 75.0163 33.0583 75.0163C34.43 75.0163 35.4098 75.312 36.1934 76.0001C37.0264 76.7378 37.4182 77.8191 37.4182 79.9339V95.275H44.2754V79.1473C44.2754 75.7053 43.5405 73.3446 42.0707 71.7227C40.5523 70.05 38.3485 69.1658 35.508 69.1658ZM63.9615 95.7669C66.7048 95.7669 69.9856 95.3238 72.4353 94.6358L71.8472 89.2274C69.8388 89.6695 67.1937 90.0628 64.5496 90.0628C59.8476 90.0628 57.0557 87.8992 57.0061 84.8505H73.8556C74.051 83.818 74.1491 82.5395 74.1491 81.3597C74.1491 74.9675 70.9655 69.1658 62.7862 69.1658C54.4106 69.1658 49.7571 74.9676 49.7571 82.5396C49.7571 90.8493 54.3124 95.7669 63.9615 95.7669V95.7669ZM62.4917 74.2795C65.8231 74.2795 67.2433 76.6881 67.2433 80.0813H57.1043C57.1539 76.5407 59.064 74.2795 62.4917 74.2795V74.2795ZM116.956 81.8515C116.956 73.5418 111.714 69.1658 105.788 69.1658C102.506 69.1658 99.6659 70.2959 97.8043 71.87V59.2331L90.9471 61.0522V93.6521C94.0326 94.9305 98.3924 95.7669 102.555 95.7669C111.176 95.7669 116.956 90.9479 116.956 81.8515V81.8515ZM97.8043 89.0303V81.3109C97.8043 78.8028 98.3428 77.3273 99.3713 76.3933C100.303 75.5082 101.723 74.869 103.78 74.869C107.453 74.869 109.952 77.5732 109.952 82.3922C109.952 86.9653 107.747 89.8666 103.192 89.8666C101.037 89.8666 99.1264 89.5221 97.8043 89.0303V89.0303ZM135.565 95.7669C138.308 95.7669 141.589 95.3238 144.039 94.6358L143.45 89.2274C141.442 89.6695 138.797 90.0628 136.153 90.0628C131.451 90.0628 128.659 87.8992 128.609 84.8505H145.459C145.654 83.818 145.752 82.5395 145.752 81.3597C145.752 74.9675 142.569 69.1658 134.389 69.1658C126.014 69.1658 121.36 74.9676 121.36 82.5396C121.36 90.8493 125.916 95.7669 135.565 95.7669V95.7669ZM134.095 74.2795C137.426 74.2795 138.847 76.6881 138.847 80.0813H128.707C128.757 76.5407 130.667 74.2795 134.095 74.2795ZM158.338 90.0628C155.791 90.0628 152.803 89.3747 150.403 88.4896L149.864 94.3411C152.608 95.275 155.693 95.7669 159.22 95.7669C164.656 95.7669 169.653 93.3086 169.653 87.0638C169.653 83.5721 167.987 81.3597 162.404 79.5894C159.415 78.6555 157.065 78.1636 157.065 76.5905C157.065 75.2623 158.632 74.7216 161.227 74.7216C163.382 74.7216 165.734 75.1149 167.693 75.8039L168.183 70.1486C165.929 69.5591 163.432 69.1658 160.738 69.1658C155.35 69.1658 150.061 71.3294 150.061 76.7866C150.061 80.6717 152.363 83.2285 157.799 84.8017C161.815 85.9815 162.697 86.5222 162.697 87.8006C162.697 89.079 161.522 90.0628 158.338 90.0628V90.0628ZM188.85 75.7541L190.074 69.9524H181.209V62.9211L174.352 63.9536V86.5222C174.352 93.5047 177.927 95.4721 183.511 95.4721C185.666 95.4721 188.115 95.1765 189.683 94.6358L189.34 89.2274C188.261 89.4733 186.596 89.6207 184.882 89.6207C182.336 89.6207 181.209 88.2925 181.209 85.2935V75.7541H188.85V75.7541ZM218.529 74.869C221.958 74.869 224.113 76.934 224.113 80.4746V87.3098C222.986 88.8341 220.929 89.8666 218.676 89.8666C214.513 89.8666 211.818 86.8179 211.818 82.1463C211.818 77.8689 214.562 74.869 218.529 74.869V74.869ZM230.97 59.2331L224.113 61.0522V71.1811C222.937 70.05 220.439 69.1658 218.039 69.1658C210.938 69.1658 204.814 74.2795 204.814 82.5893C204.814 91.0465 210.496 95.7669 217.402 95.7669C220.734 95.7669 223.281 94.4387 224.701 92.6694H224.848C224.994 93.9478 225.093 94.1937 225.288 95.275H231.068C230.97 92.8167 230.97 90.5546 230.97 87.9977V59.2331V59.2331ZM250.852 95.7669C253.596 95.7669 256.876 95.3238 259.326 94.6358L258.738 89.2274C256.73 89.6695 254.085 90.0628 251.44 90.0628C246.738 90.0628 243.946 87.8992 243.897 84.8505H260.746C260.942 83.818 261.04 82.5395 261.04 81.3597C261.04 74.9675 257.856 69.1658 249.677 69.1658C241.301 69.1658 236.648 74.9676 236.648 82.5396C236.648 90.8493 241.203 95.7669 250.852 95.7669V95.7669ZM249.383 74.2795C252.714 74.2795 254.134 76.6881 254.134 80.0813H243.995C244.045 76.5407 245.955 74.2795 249.383 74.2795ZM281.511 69.1658C278.818 69.1658 275.585 70.2959 273.234 71.87L272.891 69.6079H266.817V95.275H273.674V76.7378C275.046 75.8039 277.103 75.0163 279.062 75.0163C280.433 75.0163 281.413 75.312 282.197 76.0001C283.03 76.7378 283.422 77.8191 283.422 79.9339V95.275H290.279V79.1473C290.279 75.7053 289.544 73.3446 288.074 71.7227C286.556 70.05 284.352 69.1658 281.511 69.1658V69.1658ZM311.238 75.7541L312.463 69.9524H303.598V62.9211L296.74 63.9536V86.5222C296.74 93.5047 300.316 95.4721 305.9 95.4721C308.055 95.4721 310.504 95.1765 312.072 94.6358L311.728 89.2274C310.65 89.4733 308.985 89.6207 307.271 89.6207C304.724 89.6207 303.598 88.2925 303.598 85.2935V75.7541H311.238V75.7541ZM315.694 87.014C315.694 92.0302 319.514 95.7669 325.146 95.7669C328.28 95.7669 330.68 94.6358 332.395 92.8167H332.493C332.591 93.7507 332.689 94.4387 332.836 95.275H338.763C338.664 93.6521 338.664 91.8818 338.664 90.1613V78.311C338.664 71.9686 334.697 69.1658 327.938 69.1658C324.51 69.1658 320.591 69.7553 318.093 70.4443L318.534 75.9015C321.032 75.2623 323.823 74.869 326.126 74.869C330.044 74.869 331.807 75.9513 331.807 78.6057V79.7368C330.828 79.6392 329.407 79.5406 328.085 79.5406H326.42C318.583 79.5406 315.694 82.196 315.694 87.014ZM331.807 86.6705C331.807 87.6532 331.465 88.4896 330.73 89.1776C329.848 89.9642 328.673 90.456 326.91 90.456C324.411 90.456 322.698 89.1776 322.698 86.9652C322.698 85.2438 323.921 84.3098 325.881 84.3098H331.807V86.6705V86.6705ZM352.376 59.2331L345.519 61.0522V95.275H352.376V59.2331ZM390.284 88.8829C388.667 89.5709 386.561 90.014 384.259 90.014C379.802 90.014 376.275 87.4571 376.275 82.3922C376.275 77.2785 379.851 74.9188 384.161 74.9188C386.414 74.9188 388.521 75.3608 389.941 75.9015L390.724 70.2471C388.324 69.5094 385.827 69.1658 383.574 69.1658C375.345 69.1658 369.271 74.1312 369.271 82.4908C369.271 90.8991 375.002 95.7669 383.475 95.7669C386.365 95.7669 389.206 95.2262 390.871 94.4387L390.284 88.8829V88.8829ZM394.788 87.014C394.788 92.0302 398.608 95.7669 404.241 95.7669C407.375 95.7669 409.775 94.6358 411.49 92.8167H411.588C411.685 93.7507 411.783 94.4387 411.93 95.275H417.857C417.759 93.6521 417.759 91.8818 417.759 90.1613V78.311C417.759 71.9686 413.791 69.1658 407.032 69.1658C403.604 69.1658 399.685 69.7553 397.187 70.4443L397.628 75.9015C400.127 75.2623 402.917 74.869 405.22 74.869C409.138 74.869 410.901 75.9513 410.901 78.6057V79.7368C409.922 79.6392 408.501 79.5406 407.179 79.5406H405.514C397.677 79.5406 394.788 82.196 394.788 87.014ZM410.901 86.6705C410.901 87.6532 410.559 88.4896 409.824 89.1776C408.943 89.9642 407.767 90.456 406.004 90.456C403.506 90.456 401.792 89.1776 401.792 86.9652C401.792 85.2438 403.016 84.3098 404.975 84.3098H410.901V86.6705V86.6705ZM430.392 69.6079H424.515V95.275H431.372V78.2622C433.87 76.8364 436.907 75.8527 439.846 75.6556L440.091 69.1161C436.466 69.5094 433.282 70.9849 430.833 73.0499L430.392 69.6079V69.6079ZM456.79 95.7669C459.533 95.7669 462.814 95.3238 465.263 94.6358L464.675 89.2274C462.667 89.6695 460.022 90.0628 457.378 90.0628C452.676 90.0628 449.884 87.8992 449.834 84.8505H466.684C466.879 83.818 466.977 82.5395 466.977 81.3597C466.977 74.9675 463.794 69.1658 455.614 69.1658C447.239 69.1658 442.585 74.9676 442.585 82.5396C442.585 90.8493 447.14 95.7669 456.79 95.7669V95.7669ZM455.32 74.2795C458.651 74.2795 460.071 76.6881 460.071 80.0813H449.932C449.982 76.5407 451.892 74.2795 455.32 74.2795ZM498.812 75.7541L500.428 69.9524H490.632V69.4108C490.632 65.9698 492.249 64.4454 496.02 64.4454C497.538 64.4454 499.351 64.5928 500.575 64.8875L501.212 59.4791C499.498 59.036 497.245 58.7901 495.433 58.7901C487.939 58.7901 483.775 62.7239 483.775 70.05V95.275H490.632V75.7541H498.812V75.7541ZM529.519 82.442C529.519 74.181 524.328 69.1658 516.099 69.1658C507.871 69.1658 502.679 74.2298 502.679 82.4908C502.679 90.7517 507.626 95.7669 516.099 95.7669C524.328 95.7669 529.519 90.702 529.519 82.442V82.442ZM522.515 82.4908C522.515 87.5557 519.822 90.1613 516.148 90.1613C512.475 90.1613 509.683 87.5557 509.683 82.4908C509.683 77.4258 512.426 74.7704 516.099 74.7704C519.773 74.7704 522.515 77.4258 522.515 82.4908ZM541.174 69.6079H535.297V95.275H542.154V78.2622C544.652 76.8364 547.689 75.8527 550.628 75.6556L550.873 69.1161C547.248 69.5094 544.064 70.9849 541.615 73.0499L541.174 69.6079V69.6079ZM14.498 134.987L15.7228 129.186H6.85721V122.154L0 123.187V145.755C0 152.738 3.57539 154.705 9.15916 154.705C11.3143 154.705 13.763 154.41 15.331 153.869L14.9879 148.461C13.9098 148.706 12.2446 148.854 10.5308 148.854C7.98388 148.854 6.85721 147.526 6.85721 144.527V134.987H14.498ZM35.508 128.399C32.9611 128.399 29.9729 129.382 27.6709 130.807V118.466L20.8137 120.285V154.508H27.6709V135.971C29.0426 135.037 31.0995 134.249 33.0583 134.249C34.43 134.249 35.4098 134.545 36.1934 135.233C37.0264 135.971 37.4182 137.052 37.4182 139.167V154.508H44.2754V138.38C44.2754 134.938 43.5405 132.578 42.0707 130.956C40.5523 129.283 38.3485 128.399 35.508 128.399V128.399ZM63.9615 155C66.7048 155 69.9856 154.557 72.4353 153.869L71.8472 148.461C69.8388 148.903 67.1937 149.296 64.5496 149.296C59.8476 149.296 57.0557 147.132 57.0061 144.084H73.8556C74.051 143.051 74.1491 141.773 74.1491 140.593C74.1491 134.201 70.9655 128.399 62.7862 128.399C54.4106 128.399 49.7571 134.201 49.7571 141.773C49.7571 150.082 54.3124 155 63.9615 155V155ZM62.4917 133.513C65.8231 133.513 67.2433 135.921 67.2433 139.314H57.1043C57.1539 135.774 59.064 133.513 62.4917 133.513V133.513ZM80.0246 154.508H86.8817V128.841H80.0246V154.508ZM86.9304 116.843L79.9759 118.662V125.006H86.9304V116.843ZM100.005 128.841H94.1278V154.508H100.985V137.495C103.483 136.07 106.52 135.086 109.459 134.889L109.704 128.349C106.079 128.742 102.895 130.218 100.446 132.283L100.005 128.841ZM151.431 144.723C151.431 140.79 149.031 137.741 144.868 136.758V136.659C147.807 135.626 149.473 132.922 149.473 129.825C149.473 123.629 145.407 121.269 137.962 121.269H125.326V154.508H138.99C146.729 154.508 151.431 151.705 151.431 144.723ZM132.281 148.461V140.494H138.354C142.469 140.494 144.281 141.429 144.281 144.379C144.281 147.231 142.615 148.461 138.844 148.461H132.281V148.461ZM132.281 127.317H138.06C140.754 127.317 142.517 128.054 142.517 130.857C142.517 133.463 140.754 134.545 137.815 134.545H132.281V127.317ZM169.551 155C172.295 155 175.576 154.557 178.025 153.869L177.437 148.461C175.429 148.903 172.784 149.296 170.14 149.296C165.437 149.296 162.646 147.132 162.596 144.084H179.445C179.641 143.051 179.739 141.773 179.739 140.593C179.739 134.201 176.555 128.399 168.376 128.399C160 128.399 155.347 134.201 155.347 141.773C155.347 150.082 159.902 155 169.551 155V155ZM168.082 133.513C171.413 133.513 172.833 135.921 172.833 139.314H162.694C162.744 135.774 164.654 133.513 168.082 133.513ZM192.325 149.296C189.778 149.296 186.79 148.608 184.39 147.723L183.851 153.574C186.594 154.508 189.68 155 193.207 155C198.643 155 203.639 152.542 203.639 146.297C203.639 142.805 201.974 140.593 196.39 138.823C193.402 137.889 191.051 137.397 191.051 135.824C191.051 134.495 192.618 133.955 195.214 133.955C197.369 133.955 199.721 134.348 201.679 135.037L202.169 129.382C199.916 128.792 197.419 128.399 194.725 128.399C189.337 128.399 184.047 130.563 184.047 136.02C184.047 139.905 186.349 142.462 191.785 144.035C195.802 145.215 196.684 145.755 196.684 147.034C196.684 148.312 195.509 149.296 192.325 149.296V149.296ZM222.836 134.987L224.061 129.186H215.196V122.154L208.338 123.187V145.755C208.338 152.738 211.914 154.705 217.498 154.705C219.653 154.705 222.101 154.41 223.669 153.869L223.326 148.461C222.248 148.706 220.583 148.854 218.869 148.854C216.322 148.854 215.196 147.526 215.196 144.527V134.987H222.836V134.987ZM249.332 149.05C245.903 149.05 242.034 148.017 239.144 146.64L238.654 152.984C241.789 154.213 245.561 155 249.822 155C257.119 155 262.361 150.968 262.361 144.281C262.361 138.921 259.618 136.659 253.006 134.594C247.715 132.971 246.345 131.988 246.345 129.775C246.345 127.956 248.157 126.726 252.124 126.726C254.573 126.726 257.511 127.218 260.303 128.005L260.548 121.859C258.246 121.219 254.964 120.777 251.781 120.777C244.288 120.777 239.096 124.268 239.096 130.071C239.096 135.43 241.789 138.135 247.863 140.151C251.634 141.379 253.299 141.822 254.181 142.658C254.867 143.297 255.112 144.084 255.112 145.067C255.112 147.329 253.495 149.05 249.332 149.05ZM299.142 135.332C299.778 136.167 299.876 137.348 299.876 139.314V154.508H306.734V138.528C306.734 134.938 306.391 132.628 304.725 130.71C303.648 129.382 301.248 128.399 298.652 128.399C295.566 128.399 291.991 129.775 289.247 131.447C287.729 129.48 285.33 128.399 282.587 128.399C279.403 128.399 276.318 129.726 274.261 131.103L273.917 128.841H267.844V154.508H274.701V135.971C276.268 134.889 278.326 134.249 280.04 134.249C281.51 134.249 282.391 134.693 282.978 135.479C283.665 136.413 283.86 137.544 283.86 139.314V154.508H290.717V138.478C290.717 137.544 290.717 136.806 290.669 135.921C292.187 134.987 294.489 134.249 296.056 134.249C297.428 134.249 298.505 134.594 299.142 135.332V135.332ZM313.686 154.508H320.543V128.841H313.686V154.508ZM320.592 116.843L313.638 118.662V125.006H320.592V116.843ZM334.745 118.466L327.888 120.285V154.508H334.745V118.466V118.466ZM354.824 155C357.567 155 360.848 154.557 363.297 153.869L362.709 148.461C360.701 148.903 358.056 149.296 355.412 149.296C350.71 149.296 347.918 147.132 347.868 144.084H364.718C364.913 143.051 365.011 141.773 365.011 140.593C365.011 134.201 361.828 128.399 353.648 128.399C345.273 128.399 340.619 134.201 340.619 141.773C340.619 150.082 345.175 155 354.824 155ZM353.354 133.513C356.685 133.513 358.105 135.921 358.105 139.314H347.966C348.016 135.774 349.926 133.513 353.354 133.513Z" fill="white"/>
<path d="M351.549 160.048L351.548 160.047C344.414 168.122 336.051 174.795 326.718 179.311C317.416 183.86 307.231 186.228 297.001 186.22C286.771 186.214 276.593 183.833 267.303 179.274C257.983 174.75 249.637 168.073 242.522 160L240 166.548C245.749 175.178 253.614 182.54 262.775 187.837C273.06 193.8 285.034 197.023 297.001 197C308.968 197.009 320.936 193.772 331.207 187.801C340.389 182.477 348.262 175.078 354 166.409L351.549 160.048V160.048Z" fill="white"/>
</svg>
