<svg width="150" height="150" viewBox="0 0 150 150" fill="none" xmlns="http://www.w3.org/2000/svg">
<path fill-rule="evenodd" clip-rule="evenodd" d="M74.7149 0C115.918 0 149.32 33.3949 149.32 74.5895C149.32 115.784 115.918 149.179 74.7149 149.179C33.5115 149.179 0.109619 115.784 0.109619 74.5895C0.109619 33.3949 33.5115 0 74.7149 0Z" fill="white"/>
<path fill-rule="evenodd" clip-rule="evenodd" d="M107.944 50.4864C108.001 50.3928 108.981 49.7599 109.216 49.5876C110.379 48.7395 111.696 47.4768 112.54 46.3955C113.598 45.0378 115.227 42.4756 115.588 40.7124C115.285 40.8149 114.678 41.2011 114.324 41.3927C113.098 42.0582 111.622 42.7416 110.328 43.2451C109.285 43.6506 105.373 44.992 104.301 44.9504C104.073 44.8509 100.956 40.9458 94.8761 39.7277C90.4754 38.8484 86.0969 39.7275 82.7541 41.5932C79.6489 43.3252 77.3061 45.7302 75.5619 48.9772C74.1311 51.6405 73.4877 54.8073 73.5962 57.9668C73.6393 59.1877 73.9007 60.1027 74.0062 61.1885C73.0598 61.2271 71.7317 61.0296 70.7883 60.9285C68.0189 60.6344 64.7651 59.9513 62.1888 59.176C55.4734 57.1529 49.4742 53.8834 44.2831 49.5505C41.7247 47.416 41.1913 46.7356 39.0162 44.4764C38.6374 44.0842 37.6197 42.7609 37.3998 42.6643C35.1742 46.3258 34.3481 51.6597 35.7105 56.5095C36.3301 58.7198 37.324 60.5114 38.4829 62.132C38.9806 62.8271 40.392 64.4193 41.01 64.9095L42.631 66.1884C42.7498 66.3102 42.631 66.1529 42.7395 66.3296C40.9076 66.392 38.2481 65.6761 36.59 64.9661L34.8905 64.1729C34.9098 69.1401 36.5989 72.8965 39.0667 75.8495C43.2891 80.9013 48.1682 81.3959 48.9155 81.8044L48.5069 81.9469C48.3688 81.9781 48.2098 82.0093 48.0538 82.042C45.0571 82.6644 43.9533 82.3347 41.1424 82.1134C41.2805 83.3582 42.9177 86.0795 43.5343 86.9618C46.4968 91.2056 51.9018 94.451 57.6143 94.4436C57.3469 94.9739 53.3623 97.3728 52.4962 97.8243C45.7555 101.345 39.4368 102.5 31.4852 101.804C31.6204 102.028 32.5534 102.533 32.8327 102.698C34.0614 103.429 35.7625 104.37 37.0372 104.942C43.7452 107.961 50.3062 109.788 58.1626 109.783C75.6138 109.773 89.2303 102.797 98.9157 89.9161C102.734 84.8375 105.671 78.5783 107.386 72.3916C108.342 68.941 108.999 64.9082 109.148 61.1902C109.176 60.4743 109.173 59.7582 109.173 59.0408C109.173 58.3842 109.109 57.5317 109.16 56.9078C110.03 56.3256 110.91 55.5559 111.668 54.9231C112.425 54.2889 114.279 52.4813 115.073 51.5485C115.392 51.1727 115.722 50.7834 116.083 50.3422C116.391 49.9679 117.805 48.1618 117.945 47.7474C117.622 47.8321 117.107 48.0859 116.784 48.2151C114.501 49.1316 110.139 50.4314 107.944 50.4864Z" fill="#D2010D"/>
</svg>
