<svg xmlns="http://www.w3.org/2000/svg" width="769" height="835" fill="none" viewBox="0 0 769 835"><path fill-rule="evenodd" stroke="#D2010D" stroke-miterlimit="22.926" stroke-width="18" d="M384.323 9.98633C591.611 9.98633 759.645 178.014 759.645 385.294C759.645 592.566 591.611 760.6 384.323 760.6C358.911 760.6 334.091 758.059 310.089 753.25L94.1545 821.806L100.849 631.267C43.6317 565.391 9 479.39 9 385.294C9 178.014 177.042 9.98633 384.323 9.98633V9.98633Z" clip-rule="evenodd"/><path fill="#D2010D" fill-rule="evenodd" d="M429.304 469.318C455.411 457.604 478.75 470.735 504.218 479.356C538.056 490.81 546.621 484.213 562.075 514.439L429.304 469.318V469.318ZM439.318 495.117C467.999 503.69 532.681 524.623 558.076 538.198C553.842 564.328 548.572 576.747 536.372 591.731C510.394 607.249 374.669 548.738 333.868 522.073C310.173 506.587 306.806 499.577 288.211 482.877C234.741 434.866 190.573 309.579 200.854 215.079L251.005 202.84C309.024 336.755 238.068 341.458 326.364 450.748C379.388 516.391 411.98 486.941 439.318 495.117V495.117ZM274.408 198.032C305.559 212.141 299.487 221.944 306.619 258.339C311.938 285.482 323.66 312.235 305.616 330.4L274.408 198.032ZM479.316 605.645C511.568 611.401 537.497 621.488 556.335 601.113C568.316 588.161 586.976 539.177 583.713 514.941C576.209 459.271 452.667 440.921 434.396 442.799C399.999 452.367 412.805 456.212 391.855 474.782C354.446 454.957 315.872 413.431 300.006 362.23C342.846 335.897 339.948 313.296 329.084 260.646C318.349 208.62 319.37 184.221 267.576 174.733L253.692 177.616C221.821 186.731 195.884 187.969 183.239 211.161C154.541 266.393 222.533 432.073 249.912 472.418C296.792 541.468 399.132 589.626 479.316 605.645Z" clip-rule="evenodd"/></svg>