<svg xmlns="http://www.w3.org/2000/svg" width="1109" height="401" fill="none" viewBox="0 0 1109 401"><path fill="#D2010D" fill-rule="evenodd" d="M949.611 27.7026C900.476 1.51117 868.054 2.76648 807.329 2.77131C693.235 2.77614 458.671 2.77131 344.567 2.77131C236.31 2.77131 111.162 -14.8344 46.376 45.3181C-44.7617 129.948 2.85714 319.233 158.829 360.234C226.947 378.139 820.363 358.404 953.363 369.114C980.343 371.287 1088.25 387.57 1108.77 400.371C1049.04 267.724 1092.74 104.012 949.611 27.7026V27.7026Z" clip-rule="evenodd"/><path fill="#fff" d="M242.852 187.135H244.484L269.856 261.614H291.963L332.923 139.112H303.925L281.817 221.385H280.185L251.916 139.112H235.425L207.151 221.385H205.519L183.412 139.112H154.419L195.373 261.614H217.481L242.852 187.135V187.135ZM375.331 209.062H427.339V261.614H453.073V139.112H427.339V186.773H375.331V139.112H349.597V261.614H375.331V209.062ZM526.469 191.848L497.838 139.112H468.115L513.242 218.305V261.614H538.976V218.483L584.098 139.112H555.283L527.015 191.848H526.469V191.848ZM691.201 263.424C724.366 263.424 743.214 247.48 743.214 214.678V139.112H717.48V213.23C717.48 229.541 708.962 241.319 691.201 241.319C673.44 241.319 664.743 229.541 664.743 213.23V139.112H639.009V214.678C639.009 247.48 658.035 263.424 691.201 263.424V263.424ZM802.113 241.497C789.427 241.497 775.109 237.692 764.418 232.622L762.607 255.998C774.201 260.527 788.157 263.424 803.924 263.424C830.928 263.424 850.316 248.567 850.316 223.92C850.316 204.171 840.17 195.831 815.702 188.221C796.13 182.243 791.055 178.617 791.055 170.461C791.055 163.758 797.762 159.229 812.442 159.229C821.501 159.229 832.376 161.04 842.706 163.937L843.613 141.285C835.095 138.934 822.95 137.302 811.172 137.302C783.444 137.302 764.234 150.165 764.234 171.552C764.234 191.302 774.202 201.268 796.676 208.7C810.627 213.229 816.788 214.862 820.053 217.942C822.588 220.299 823.496 223.196 823.496 226.822C823.496 235.157 817.518 241.497 802.113 241.497V241.497ZM940.203 169.92C940.203 150.349 925.161 137.302 899.065 137.302C886.925 137.302 871.883 140.382 861.553 144.728L865.175 164.845C873.693 160.856 886.379 158.143 895.805 158.143C907.4 158.143 914.469 163.213 914.469 171.914C914.469 179.162 909.94 183.692 901.783 189.129C889.281 197.647 884.568 205.798 884.568 221.926V225.369H903.594V221.926C903.594 212.505 908.67 207.792 919.182 200.906C930.236 193.658 940.203 183.692 940.203 169.92ZM883.298 261.614H905.41V238.6L883.298 243.313V261.614Z"/></svg>