<svg xmlns="http://www.w3.org/2000/svg" width="150" height="150" fill="none" viewBox="0 0 150 150"><path fill="#fff" fill-rule="evenodd" d="M74.6765 0C115.88 0 149.282 33.3949 149.282 74.5895C149.282 115.784 115.88 149.179 74.6765 149.179C33.4732 149.179 0.0712891 115.784 0.0712891 74.5895C0.0712891 33.3949 33.4732 0 74.6765 0Z" clip-rule="evenodd"/><path fill="#D2010D" fill-rule="evenodd" d="M123.173 74.3214C123.176 67.8197 122.851 61.3032 121.897 55.0006C121.043 49.3501 119.11 45.0069 113.339 43.0001C109.144 41.54 99.5651 41.2798 94.6697 41.0897C82.8791 40.6307 43.1822 39.9639 35.7254 43.0001C29.9014 45.3723 28.236 49.6114 27.404 55.2649C25.786 66.2733 25.7608 82.9843 27.404 93.9883C27.8779 97.1626 28.395 99.5213 29.9787 101.752C31.3188 103.639 33.1462 105.169 35.764 106.181C39.6551 107.684 49.6733 107.939 54.3964 108.135C64.5438 108.557 105.789 109.141 113.437 106.313C119.231 104.171 121.049 99.9149 121.895 94.205C122.858 87.7227 123.169 81.0117 123.173 74.3214Z" clip-rule="evenodd"/><path fill="#fff" fill-rule="evenodd" d="M65.0015 89.0571C65.8647 88.7957 82.1853 79.2386 83.9354 78.2612L90.1545 74.6486L77.7029 67.4191C75.6362 66.1996 73.4611 65.0441 71.4079 63.7859C70.5283 63.2467 65.6076 60.3561 65.0015 60.1719V89.0571Z" clip-rule="evenodd"/></svg>