<svg width="1080" height="562" viewBox="0 0 1080 562" fill="none" xmlns="http://www.w3.org/2000/svg">
<path d="M0 106L219.317 106C252.58 106 285.318 114.296 314.566 130.138L542.666 253.68C621.303 296.272 719.569 267.766 763.207 189.705V189.705C792.1 138.02 846.684 106 905.896 106L1080 106V486H0V106Z" fill="#E41E26" fill-opacity="0.5"/>
<path d="M0 132L177.852 132C236.33 132 291.878 157.593 329.876 202.044L344.611 219.281C408.49 294.007 517.205 311.229 601.052 259.903L761.937 161.421C793.367 142.182 829.502 132 866.353 132L1080 132V512H0V132Z" fill="#E41E26" fill-opacity="0.5"/>
<path d="M0 156L212.338 156C250.012 156 286.92 166.641 318.811 186.697L404.306 240.463C460.96 276.093 531.681 281.023 592.731 253.599L770.905 173.562C796.676 161.985 824.607 156 852.858 156L1080 156V536H0V156Z" fill="#E41E26" fill-opacity="0.5"/>
<path d="M0 182L197.3 182C244.263 182 289.729 198.527 325.73 228.684L410.517 299.709C484.403 361.602 591.923 361.994 666.258 300.64L754.566 227.753C790.4 198.177 835.414 182 881.877 182L1080 182V562H0V182Z" fill="#E41E26"/>
</svg>
