<svg xmlns="http://www.w3.org/2000/svg" width="100" height="100" fill="none" viewBox="0 0 100 100"><path fill="#fff" fill-rule="evenodd" d="M49.9996 0C77.6147 0 100 22.3861 100 49.9996C100 77.6147 77.6139 100 49.9996 100C22.3853 100 0 77.6139 0 49.9996C0 22.3852 22.3861 0 49.9996 0Z" clip-rule="evenodd"/><path fill="red" fill-rule="evenodd" d="M35.0269 23.2801C36.0036 22.7175 36.9466 23.538 37.153 24.3399C37.3351 25.0482 37.2381 27.0378 37.2381 27.8812C37.2381 29.6368 37.858 33.5146 36.2713 34.149C35.1951 34.579 34.2876 33.8383 34.0931 32.9829L34.0159 25.8897C34.0113 24.4856 33.9434 23.9046 35.0269 23.2801V23.2801ZM57.3792 23.2161C60.1504 22.1747 59.5377 26.7344 59.5377 28.0804C59.5377 29.9157 60.1128 33.653 58.5419 34.1655C55.7774 35.0656 56.3518 31.2168 56.3518 29.2727C56.3518 27.3965 55.7609 23.8241 57.3792 23.2161ZM48.4004 32.0537C48.4004 34.8868 46.1556 34.5439 45.5258 33.6352C45.018 32.9032 44.8874 24.4203 45.6029 23.5959C46.635 22.4075 48.4004 23.162 48.4011 25.2981L48.4004 32.0531V32.0537ZM27.4403 68.8936C24.5181 68.9087 23.5704 68.4477 23.583 65.4345C23.6232 55.6564 23.612 45.8751 23.5869 36.1036L69.5598 36.1241L69.5618 51.1278C70.0544 51.5354 70.6796 51.6667 71.3345 51.939C72.1087 52.2609 72.2788 52.4706 73.0465 52.7904C72.7088 47.1156 73.0254 40.2425 73.0386 34.4384C73.0458 31.3507 72.0605 29.3235 70.0214 28.2103C67.7363 26.9626 64.4014 27.5746 61.6619 27.4295C61.6052 25.8771 62.1941 20.8808 57.8376 21.0022C53.5978 21.1209 54.3094 26.065 54.2091 27.4433L50.5128 27.4441C50.4217 26.2623 51.132 20.9263 46.7128 21.0015C42.5159 21.0728 43.1457 25.7537 43.0488 27.4374L39.3656 27.4447C39.2245 25.9088 39.6122 24.206 38.813 22.8745C38.2597 21.9519 37.1154 20.9903 35.5881 21.0009C31.3872 21.0286 31.9709 25.7095 31.9049 27.3879C28.293 27.8898 25.2415 26.491 22.3504 28.7445C19.6835 30.8238 20.1299 33.3932 20.1299 37.4187C20.1299 44.7033 20.1299 51.9884 20.1299 59.2737C20.1299 64.4816 18.9165 69.9091 23.9061 71.9621C25.3583 72.5596 27.2351 72.3432 28.8324 72.3432C36.0392 72.3432 43.3113 72.2476 50.5154 72.3525L49.4147 68.8988L27.4416 68.8942L27.4403 68.8936Z" clip-rule="evenodd"/><path fill="red" fill-rule="evenodd" d="M55.6105 72.9848C54.6022 70.5797 52.0533 67.8725 53.9137 62.2966C55.017 58.99 57.4973 56.5632 60.6687 55.3511C68.7651 52.2562 75.873 58.6142 76.0273 66.0643L73.8444 65.9297C73.9882 67.0475 74.6774 67.8732 75.1377 68.7918C75.7648 70.0442 75.9666 70.7241 76.7521 70.9688C80.9424 66.1922 80.5916 66.5634 78.4337 66.2865C77.8112 63.2159 78.2286 62.509 76.7705 59.6192C75.7266 57.5497 74.5178 56.3026 73.059 55.1743C69.9073 52.7368 64.985 51.3612 60.1695 53.0574C56.3063 54.4185 53.2028 57.4356 51.8251 61.2085C50.9915 63.4896 50.7066 66.1685 51.221 68.6574C51.4466 69.7495 51.8376 70.9035 52.2531 71.8096C52.4694 72.2811 52.6818 72.6281 52.9568 73.0884C53.1309 73.3785 53.0953 73.372 53.3373 73.7017L53.7475 74.1672C53.7653 74.1323 53.8246 74.2451 53.8662 74.2801C54.3232 73.947 54.4986 73.866 54.8712 73.5804C55.226 73.3074 55.3316 73.1806 55.6112 72.9861L55.6105 72.9848Z" clip-rule="evenodd"/><path fill="red" fill-rule="evenodd" d="M27.1422 56.0601L34.9227 55.9881L34.9279 49.125L27.1824 49.0577L27.1422 56.0601Z" clip-rule="evenodd"/><path fill="red" fill-rule="evenodd" d="M47.8479 46.8294L55.6528 46.8004L55.5763 39.8877L47.8723 39.8804L47.8479 46.8294Z" clip-rule="evenodd"/><path fill="red" fill-rule="evenodd" d="M58.2233 46.8241L66.0197 46.8195L65.9155 39.8884L58.2484 39.8825L58.2233 46.8241Z" clip-rule="evenodd"/><path fill="red" fill-rule="evenodd" d="M37.4974 65.1186C38.4926 65.4279 43.9841 65.3198 45.2793 65.2017L45.2417 58.3292L37.4974 58.4137V65.1186V65.1186Z" clip-rule="evenodd"/><path fill="red" fill-rule="evenodd" d="M37.5697 56.035L45.275 56.0026L45.2289 49.2219C43.474 48.8044 39.529 49.2107 37.5011 49.0847L37.5697 56.035V56.035Z" clip-rule="evenodd"/><path fill="red" fill-rule="evenodd" d="M27.1434 65.1364C28.0653 65.3666 33.8733 65.3462 34.914 65.1688L34.8843 58.355L33.7982 58.3273L27.1467 58.4025L27.1434 65.1364V65.1364Z" clip-rule="evenodd"/><path fill="red" fill-rule="evenodd" d="M37.481 46.7442L45.2852 46.7628L45.212 39.8983L37.5007 39.9516L37.4981 45.7623L37.481 46.7442Z" clip-rule="evenodd"/><path fill="red" fill-rule="evenodd" d="M47.9422 56.0258C49.0013 56.0258 52.18 56.2605 52.9087 55.9163C53.2655 55.7474 54.6854 54.0593 55.6047 53.5383L55.6475 49.1145L47.8644 49.1072L47.9422 56.0258V56.0258Z" clip-rule="evenodd"/><path fill="red" fill-rule="evenodd" d="M32.854 46.8755L34.9169 46.7205L34.8661 39.889L27.1509 39.9418L27.1265 46.7706L29.1471 46.8709L32.854 46.8755Z" clip-rule="evenodd"/><path fill="red" fill-rule="evenodd" d="M58.2285 51.9291C61.2713 50.8976 62.3516 50.4544 66.0209 50.5909L66.0235 49.1032L58.2556 49.1256L58.2285 51.9291V51.9291Z" clip-rule="evenodd"/><path fill="red" fill-rule="evenodd" d="M49.2208 65.1741C49.4273 62.3812 50.1204 60.4752 51.1749 58.355L50.09 58.3333L49.4945 58.3353L48.6999 58.3366L47.8729 58.3286L47.8762 65.2578L49.2215 65.1741H49.2208Z" clip-rule="evenodd"/><path fill="red" fill-rule="evenodd" d="M60.6516 62.7089C60.3443 63.8939 62.1756 66.1481 62.7395 66.8906C64.1917 68.8044 65.1598 68.5836 66.4312 66.8709C67.2628 65.7511 71.7928 61.053 71.6741 59.5554C70.6038 59.767 68.6834 61.3702 67.9058 61.9868L64.5748 64.7592C63.4042 64.3061 62.3992 62.8981 60.6516 62.7089Z" clip-rule="evenodd"/><path fill="red" fill-rule="evenodd" d="M65.6958 76.0686C65.9425 75.4012 66.2485 72.6255 65.5165 72.2087C64.0063 71.3501 64.2799 74.4365 64.3248 75.1909C64.3914 76.3002 64.6934 76.519 65.6958 76.0686V76.0686Z" clip-rule="evenodd"/><path fill="red" fill-rule="evenodd" d="M56.6473 74.1072C55.9852 74.4317 55.2901 75.0649 55.0263 75.8417C55.5545 76.2262 56.4152 76.98 57.045 77.3012C57.5897 76.8772 58.1193 76.0337 58.3422 75.2845C57.3945 74.9495 57.4182 74.6045 56.648 74.1066L56.6473 74.1072Z" clip-rule="evenodd"/><path fill="red" fill-rule="evenodd" d="M67.8826 79.3436L67.4164 77.0665L65.0996 77.3164L65.1834 79.6938L67.8826 79.3436Z" clip-rule="evenodd"/><path fill="red" fill-rule="evenodd" d="M55.6402 65.5085C54.3344 65.5078 54.0442 65.4695 54.2909 66.8241C55.2029 67.2066 57.3027 67.1775 58.3117 66.8366L58.162 65.6911C57.5085 65.4577 56.4896 65.5091 55.6402 65.5085Z" clip-rule="evenodd"/><path fill="red" fill-rule="evenodd" d="M65.2368 59.3423C65.2414 59.2955 65.2988 59.2487 65.3106 59.2216L65.432 58.9618C65.4992 58.7304 65.4861 58.7231 65.5032 58.4751C65.5903 57.2049 65.6417 56.0646 65.093 55.4111C63.7272 55.2911 63.9706 55.7654 63.9712 57.0876C63.9699 58.6123 63.7345 59.9622 65.2368 59.3423V59.3423Z" clip-rule="evenodd"/><path fill="red" fill-rule="evenodd" d="M70.4811 78.264C71.4973 77.956 72.1845 77.4278 72.8875 76.9292C72.6059 76.3053 72.0045 75.603 71.5481 75.1196C70.7963 75.5226 70.5022 75.8279 69.6027 76.089L70.4811 78.264Z" clip-rule="evenodd"/><path fill="red" fill-rule="evenodd" d="M75.1237 74.7681C75.6407 74.2517 76.3239 73.2691 76.5607 72.5536L74.4879 71.5492C74.1595 72.3583 73.6999 72.723 73.3978 73.3799C73.7698 73.8877 74.5605 74.5815 75.1237 74.7681V74.7681Z" clip-rule="evenodd"/><path fill="red" fill-rule="evenodd" d="M62.6531 77.1937L60.4847 76.6365L59.7092 78.6809C60.4451 79.1188 61.3381 79.3285 62.2943 79.4129L62.6531 77.1937V77.1937Z" clip-rule="evenodd"/></svg>