<svg width="100" height="88" viewBox="0 0 100 88" fill="none" xmlns="http://www.w3.org/2000/svg">
<path fill-rule="evenodd" clip-rule="evenodd" d="M68.0163 74.4828L66.49 69.975L68.2808 68.3501L69.9883 69.6687L68.0156 74.4828H68.0163ZM80.9135 66.7534L81.3411 65.9981L82.0101 64.0966C83.752 64.3129 89.141 64.9597 90.5265 66.2927C88.6006 66.1052 85.5479 65.3959 84.0783 65.7897C81.6724 66.2252 80.0231 69.0164 80.8725 72.1424C81.7679 75.4394 83.0478 75.7073 83.3173 80.1111C83.4747 82.6773 83.9993 87.7155 86.8335 87.1047C89.4701 86.537 87.9057 81.7158 89.5678 79.4032C92.2655 79.9444 90.9649 82.3877 91.6627 85.1953C91.9947 86.5312 92.0579 86.435 92.7887 86.9287C96.1734 88.2193 96.5414 82.489 96.7778 79.687C97.4827 80.9216 98.09 83.8365 98.6124 85.5518C99.1435 87.2959 98.8194 86.8719 99.8707 87.2664C100.513 85.9068 98.5822 80.7902 97.9901 78.8643C96.5299 74.1178 102.408 71.3612 97.1442 66.3934C95.582 64.9195 94.4918 65.4727 92.6047 65.3427C91.5627 65.2715 89.8632 64.3301 88.3606 63.9916C86.9276 63.6682 85.3043 63.3794 83.8958 63.1013C81.2771 62.7003 79.6357 62.1125 77.2205 61.4384C74.7534 60.75 73.3407 60.8168 73.0978 58.0063C72.6149 52.4075 73.83 55.1261 75.8149 49.4123C77.2183 45.3715 79.3009 50.2278 78.6153 33.558C78.2596 24.9065 76.4911 24.8606 74.895 21.5636L73.0482 19.9962C65.7175 16.623 57.3649 16.6144 52.7485 22.1535C47.8166 28.0714 49.8812 35.0247 49.6549 38.3706C49.5061 40.5696 49.726 44.5263 50.6423 46.7318C51.2998 48.3135 51.5413 47.4318 52.2793 48.6319C52.6048 49.1608 52.7931 50.1252 53.1308 50.8963C53.5663 51.8858 53.8523 52.1481 54.502 53.027C55.4513 54.3133 55.6597 56.4462 55.2364 58.6265C54.8038 60.8506 53.6907 60.847 51.4831 61.4808C47.2741 62.6902 38.4602 64.5753 36.3927 66.3395C34.8635 67.6445 34.7564 68.4859 33.8416 70.2731L33.6346 71.7944L31.2747 79.3595C30.9815 81.2588 28.5662 85.9714 29.8597 87.3332C32.3174 85.9161 33.3659 68.9617 38.2137 66.4113C39.9326 65.5066 43.5495 64.8504 45.8577 64.4803C47.9992 68.1065 47.6542 69.0924 50.1773 69.888C48.9161 73.8648 49.1317 70.7754 53.151 75.3868L64.4412 86.0268C66.426 85.4641 78.404 72.3004 79.4511 71.6256C78.8115 70.3773 78.9516 71.4409 78.5097 69.8327C80.1977 68.9833 80.6706 69.3714 80.912 66.7527L80.9135 66.7534ZM80.2761 65.4599L79.8398 66.4056C79.6932 66.7879 79.6365 67.1479 79.5029 67.467C78.7339 69.3117 78.473 68.2488 76.8935 69.694C77.2427 70.8704 77.4577 70.5232 77.8083 71.7226L66.6776 82.6529L74.3166 61.9767L80.6814 63.6956L80.2754 65.4599H80.2761ZM82.9177 67.5057C85.0851 66.657 85.6025 66.8345 88.3117 67.2779C92.1944 68.2301 92.686 65.4554 95.3729 66.7044C101.479 69.5422 95.8077 75.1943 95.5224 79.0598C95.3341 81.6145 95.4095 84.8978 93.5196 85.9485C91.6145 84.1605 93.8221 78.3289 90.058 78.2247C86.4131 78.1241 88.2132 83.6633 86.5798 85.9715C84.0704 84.9266 84.9184 79.3349 84.1034 76.6264C82.8257 72.3801 80.7295 72.0848 82.917 67.5057H82.9177ZM47.1915 64.1613C49.4235 63.1732 51.8956 62.4927 53.9709 62.0593C55.406 64.3273 57.342 69.3892 58.4278 72.1991C59.7048 75.5047 61.8542 79.2782 62.8014 82.5638C61.676 81.8904 60.6138 80.9469 59.7788 79.953L50.8585 71.7334C51.368 70.7517 51.5786 70.8538 51.7504 69.7493C50.3462 68.6735 49.8827 69.0975 48.8091 67.4663C48.1285 66.4322 47.808 65.2486 47.1922 64.1606L47.1915 64.1613ZM60.8258 66.0512L62.7295 65.7193L64.3859 64.826C65.134 65.6302 66.3995 66.5686 67.2748 67.5165C64.3148 70.8179 65.1512 69.9232 66.8623 74.9945C67.7498 77.6247 65.8727 81.0194 64.7962 83.5238C58.5701 74.2938 66.2169 70.0992 61.1442 67.6796L60.6635 68.5369C60.823 69.2979 61.0752 69.1549 61.7881 69.806L61.1363 74.6295L60.3401 73.4415C60.2043 73.1598 59.9735 72.5951 59.8176 72.2264C59.4367 71.3253 59.1184 70.4248 58.7627 69.6157L59.5144 68.4968C60.3825 67.1292 60.5578 67.7435 60.7109 65.9973C59.7752 66.9847 59.1766 67.2456 57.8651 68.5212C57.3578 67.8291 57.7436 68.5543 57.4706 67.5022L56.2453 63.8976C55.1631 61.4729 54.8182 61.5326 56.4739 59.5255C58.0168 61.0763 61.5042 62.425 62.9501 64.0146C62.0302 65.2061 61.648 64.9733 60.8244 66.0498L60.8258 66.0512ZM70.5244 68.4141C69.8467 68.0073 65.9403 64.5753 65.448 64.0162L71.9099 59.5571C73.4858 61.0705 73.2882 61.5663 72.3526 63.7818C71.7051 65.3146 71.3033 67.0343 70.5251 68.4141H70.5244ZM56.5809 55.0413C58.9941 56.0279 61.1169 57.9811 64.1674 58.0975C67.6111 58.2283 69.5226 56.2657 71.7245 55.0915L71.8236 58.2974C70.4575 59.1568 69.4299 59.7583 68.1076 60.6027C66.7265 61.4838 65.7333 62.3202 64.1681 63.0762C61.5452 61.4751 59.1543 60.03 56.6557 58.2198L56.5817 55.042L56.5809 55.0413ZM56.3201 53.1017C66.3707 54.8465 64.4427 53.7074 72.3662 52.9601C66.3211 57.4392 64.3888 58.3879 57.4325 53.9504L56.3201 53.1017V53.1017ZM55.1243 51.4215L55.1408 41.7381C63.7693 42.9978 64.7272 43.3773 73.5368 41.718L73.6044 51.2074C66.2371 53.0989 62.6346 53.2971 55.1243 51.4215ZM50.6351 39.9488L53.8954 41.2861L53.8746 49.1852C52.0565 44.512 52.3081 48.3185 51.5571 45.4677C51.1619 43.9665 50.6595 41.4852 50.6351 39.9495V39.9488ZM74.8922 48.1137L74.8354 41.2638C75.605 40.4302 76.8015 39.6031 77.6488 39.3027C78.003 41.432 77.4461 42.3331 77.0588 44.3308C76.2755 48.3681 75.056 46.0491 74.8922 48.113V48.1137ZM52.0759 38.814C52.5236 35.8001 52.6092 35.2713 54.8929 34.0927C57.107 32.9516 59.1349 33.1621 61.7299 33.1312C68.1522 33.0535 69.4263 29.2218 71.8675 27.952C74.9324 31.5006 76.1907 33.3317 76.2309 38.4634C70.1672 43.884 54.5818 41.5168 52.0759 38.814ZM51.0454 37.5716C49.1095 31.1162 51.008 19.3128 63.111 18.9434C73.7502 18.6179 78.1971 25.4046 77.3003 35.9425C76.9172 32.8617 76.887 32.5089 75.3276 30.4579C74.3029 29.1098 73.1179 27.0646 72.3324 26.2526C68.408 27.5842 68.5467 31.8298 61.3727 31.9362C58.5859 31.9778 54.0909 31.7938 51.7971 34.8667C51.3415 35.476 51.1338 36.743 51.0461 37.5716H51.0454Z" fill="#FF0000"/>
<path fill-rule="evenodd" clip-rule="evenodd" d="M14.594 50.2415C16.1009 49.5667 17.4461 50.3235 18.9157 50.8208C20.8675 51.4812 21.3619 51.101 22.253 52.8444L14.594 50.2408V50.2415ZM15.171 51.7305C16.8253 52.2257 20.5578 53.433 22.0231 54.2163C21.778 55.7239 21.4747 56.4404 20.7705 57.3042C19.2715 58.1996 11.4421 54.8242 9.08857 53.2864C7.72104 52.3931 7.52703 51.9878 6.45413 51.0248C3.36981 48.2553 0.82158 41.0266 1.41444 35.5759L4.3076 34.8703C7.65494 42.5955 3.56167 42.8664 8.65526 49.1716C11.7144 52.958 13.5943 51.2591 15.171 51.7313V51.7305ZM5.65789 34.5914C7.45445 35.4049 7.10519 35.9712 7.51624 38.071C7.82309 39.6376 8.49931 41.1797 7.45803 42.2282L5.65789 34.5914V34.5914ZM16.2784 57.8669L17.4792 58.1069C19.339 58.4396 20.8352 59.021 21.9225 57.8453C22.6131 57.0986 23.6896 54.2716 23.502 52.8746C23.0687 49.6631 15.9421 48.6038 14.8879 48.713C12.9038 49.2642 13.6425 49.4863 12.4338 50.5577C10.2758 49.4137 8.05017 47.0178 7.13465 44.0643C9.60671 42.5451 9.43929 41.2415 8.81193 38.2039C8.1932 35.2029 8.2521 33.7952 5.26335 33.2477C7.27693 29.7566 6.42825 27.4763 9.90853 24.0118C11.8991 24.9417 11.2847 25.8099 12.3289 25.554C13.0698 24.2706 11.6929 24.1052 10.8916 22.599C14.2253 20.5143 16.9467 17.887 22.4039 17.8957C22.4075 18.2298 22.3472 19.3983 22.3716 19.5973C22.6526 21.907 22.0633 20.5373 23.2102 21.1733L23.6903 19.5722C23.7327 19.1827 23.6759 18.3262 23.6723 17.8878C25.803 17.747 27.7304 18.3498 29.6009 18.8421C30.6307 19.2862 31.9487 19.9739 32.7924 20.4763L34.9755 22.1427C35.0251 22.1923 35.1027 22.2807 35.1458 22.326L35.4685 22.7125C34.5731 23.636 33.3471 24.1743 33.368 25.83C34.3374 25.6899 34.351 25.5073 34.9159 24.9741C35.8005 24.1383 35.411 24.216 36.5126 23.6677C38.8517 25.7646 41.336 30.4478 41.1866 35.0829C39.5057 35.2892 39.0494 34.7854 37.8313 35.6643C38.5478 36.8666 37.7968 36.0963 40.3199 36.4879L40.9559 36.6259C41.0385 36.6431 41.165 36.6712 41.262 36.7143C41.1025 39.1181 40.5269 41.2861 39.6049 43.3047C38.897 44.8562 37.3958 47.3074 36.1627 48.1087C35.2371 47.352 34.9281 46.3495 33.5332 46.361C33.184 47.7644 33.1524 46.7082 33.9328 47.6675C34.0622 47.8278 35.0143 48.6498 35.1789 48.7928C34.6177 49.9404 35.1652 49.1256 34.2885 49.9075C30.6156 53.1822 25.2863 52.8954 24.0977 54.217C26.4656 56.4202 33.7373 51.8319 35.5669 50.4723C44.3449 43.9443 44.7717 28.708 36.2532 21.5678C34.499 20.0968 33.5246 19.5657 31.3587 18.2923C25.4746 15.7491 17.9169 16.2701 13.0518 19.5449C9.19065 22.1441 5.80951 26.2526 4.78835 30.9236L4.46353 33.4151C2.6253 33.9411 1.12842 34.0122 0.399741 35.3503C-1.25596 38.5367 2.66628 48.0951 4.24581 50.4227C6.503 53.7478 11.3142 56.4771 16.2791 57.8683L16.2784 57.8669Z" fill="#FF0000"/>
<path fill-rule="evenodd" clip-rule="evenodd" d="M27.0615 46.1656C25.219 44.3978 27.2426 38.5281 23.5438 38.3614C20.2145 38.2112 21.1953 43.5685 20.2123 46.2209C18.844 45.7437 18.7966 45.3132 18.4086 43.6539C17.1855 38.441 19.0833 40.0616 15.935 33.1427C14.837 30.7295 15.2739 28.6477 16.9418 27.2974C19.6733 25.0855 21.2263 27.3132 23.2801 27.4957C25.6386 27.7056 26.1999 25.3047 29.4962 26.9187C31.6851 27.9902 32.3958 30.159 31.2511 33.2232C30.3312 35.6881 29.2856 36.263 29.0715 39.5112C28.9263 41.7109 29.0556 45.1976 27.0607 46.1663L27.0615 46.1656ZM20.3057 28.6628C20.3064 28.665 19.6072 30.3171 23.5625 30.1065C25.132 30.0231 26.2595 29.7279 26.3651 28.3129C25.2757 27.9342 25.0644 28.7706 23.5129 28.8583C21.7667 28.9582 21.5956 28.0857 20.3057 28.6628ZM16.3159 37.2791C17.3098 39.8151 16.2325 45.6862 19.0625 47.1745C23.0113 49.2506 21.2392 41.1761 23.0796 39.5341C26.6116 40.3051 23.4935 48.9021 27.8088 47.2795C30.633 46.2173 29.7965 39.9071 30.7228 37.2266C31.7282 34.3169 34.5401 31.1004 32.0702 27.5116C31.3818 26.5106 29.6751 25.3026 27.7442 25.1703C25.0055 24.9835 24.4407 27.1351 22.4961 25.8343C20.7678 25.3421 19.9967 24.7707 17.861 25.4117C16.4776 25.8278 15.1568 26.9524 14.5582 28.0598C12.8012 31.3138 15.4083 34.4226 16.3152 37.2777L16.3159 37.2791Z" fill="#FF0000"/>
<path fill-rule="evenodd" clip-rule="evenodd" d="M86.7501 68.3557C87.555 71.4594 93.0567 70.0431 92.9964 68.6109C92.5336 68.2724 93.8602 67.6867 91.6849 68.3601C90.2872 68.7934 91.9695 68.6604 90.3885 68.8753C88.5963 69.1189 88.4425 68.465 86.7494 68.3557H86.7501Z" fill="#FF0000"/>
<path fill-rule="evenodd" clip-rule="evenodd" d="M10.1207 72.6352C10.3571 71.4473 8.31765 67.584 7.4589 67.1334C6.14166 68.3881 7.34176 68.9336 8.12074 70.3593C8.82356 71.6464 8.89327 72.5468 10.1207 72.6352V72.6352ZM14.1148 77.6094C13.2014 76.2318 13.5176 75.7771 12.0027 75.6046C11.9675 76.8909 12.0185 76.6387 12.61 77.3286C13.0749 78.1866 12.6991 77.537 13.3667 78.4015C14.6739 80.0938 14.2326 80.3417 15.8502 80.4258C15.8962 79.2501 15.7762 79.4822 15.1819 78.6982C14.6602 78.0112 14.7752 77.9048 14.1148 77.6094V77.6094ZM5.06229 62.5989C5.19523 64.0175 4.99043 63.6236 6.20562 64.0153C6.67273 62.734 6.01734 62.2511 5.81828 60.6601C4.62177 57.4773 5.48268 58.5431 4.30629 58.1126C3.76876 59.1719 4.02389 59.1423 4.34152 60.4797C4.69293 61.9615 4.4601 61.7725 5.06158 62.5989H5.06229ZM23.0559 86.6232C22.8963 85.73 19.6517 82.7678 18.5185 82.7749C17.8832 83.96 21.4519 87.1342 23.0559 86.6232Z" fill="#FF0000"/>
<path fill-rule="evenodd" clip-rule="evenodd" d="M68.4612 4.15904C69.1892 5.25566 72.6688 6.92076 73.958 6.67211C73.7733 5.37572 74.4337 5.99162 71.4772 4.53856C70.6321 4.1232 68.6854 3.02649 68.4612 4.15904V4.15904Z" fill="#FF0000"/>
<path fill-rule="evenodd" clip-rule="evenodd" d="M22.9739 9.98648C24.1481 9.95558 24.6648 9.30599 25.627 8.67935C26.6762 7.99738 27.6284 7.72788 27.9884 6.69163C26.8386 5.93492 26.3636 6.70166 25.1225 7.46555C24.4671 7.86942 24.2027 7.9765 23.607 8.41127C22.4313 9.27074 22.6533 8.45941 22.9739 9.98648Z" fill="#FF0000"/>
<path fill-rule="evenodd" clip-rule="evenodd" d="M98.1209 55.0318C98.7633 54.6128 98.7467 55.9718 99.0241 52.1674C99.1204 50.8394 99.2771 49.9935 98.8416 49.0262C97.6458 49.4696 97.8406 49.7586 97.6207 53.1829C97.5093 54.9241 97.773 54.6207 98.1209 55.0318V55.0318Z" fill="#FF0000"/>
<path fill-rule="evenodd" clip-rule="evenodd" d="M84.3756 14.6963C84.2269 15.6902 85.1941 16.181 86.0234 16.942C87.3234 18.1349 86.7205 19.0454 88.6011 18.8247C88.3733 17.1705 85.8689 14.7365 85.2689 14.513C83.5837 13.8828 84.8866 14.3686 84.3756 14.6963Z" fill="#FF0000"/>
<path fill-rule="evenodd" clip-rule="evenodd" d="M59.2786 1.35801C59.7651 2.52002 57.9312 1.56196 61.944 2.53139C64.2486 3.0876 64.0481 3.51521 65.1419 2.82964C64.8422 1.87028 65.7937 2.15773 62.6706 1.42833C61.2038 1.08555 60.3207 0.526565 59.2779 1.35801H59.2786Z" fill="#FF0000"/>
<path fill-rule="evenodd" clip-rule="evenodd" d="M93.5697 26.977C94.0311 25.9421 92.1339 21.8201 90.517 21.7813C90.3316 22.9224 91.5403 24.8232 92.3006 26.0757C93.2406 27.6265 92.1763 26.7017 93.5697 26.977Z" fill="#FF0000"/>
<path fill-rule="evenodd" clip-rule="evenodd" d="M97.1664 35.9805C97.5761 34.7761 97.1089 34.245 96.6741 32.9141C96.5146 32.4255 96.4083 31.8555 96.179 31.3108C95.441 29.5531 96.3961 30.5577 94.9696 30.3421C94.7087 31.0111 95.3965 35.4839 97.1657 35.9812L97.1664 35.9805Z" fill="#FF0000"/>
<path fill-rule="evenodd" clip-rule="evenodd" d="M49.6575 0.0881123C50.1893 1.76609 50.1261 1.23947 52.256 1.26247C53.6861 1.27828 54.7683 1.61891 55.7061 1.08857C55.1981 -0.212856 54.8682 0.101143 53.3016 0.0601815C52.2704 0.0321552 50.5191 -0.0742963 49.6575 0.0881123V0.0881123Z" fill="#FF0000"/>
<path fill-rule="evenodd" clip-rule="evenodd" d="M40.1452 1.70871C41.0313 2.63501 41.4632 2.19662 42.9407 1.94366C47.2589 1.20492 45.6923 1.92721 46.0243 0.658845C44.6611 0.0358 41.2037 0.57041 40.1452 1.70871Z" fill="#FF0000"/>
<path fill-rule="evenodd" clip-rule="evenodd" d="M98.0654 45.426C99.0593 45.1364 99.2181 45.6539 98.8487 42.6637C98.6748 41.2559 98.8602 40.1542 97.7708 39.4744C96.9307 40.5315 97.6371 44.3208 98.0654 45.426Z" fill="#FF0000"/>
<path fill-rule="evenodd" clip-rule="evenodd" d="M76.9066 8.47149C77.2523 9.5717 78.7096 10.2789 80.264 11.5444C81.8241 12.815 81.592 11.9325 81.7128 11.8757C82.0203 10.9034 77.677 7.32241 76.9073 8.47149H76.9066Z" fill="#FF0000"/>
<path fill-rule="evenodd" clip-rule="evenodd" d="M31.0721 4.85912C32.5158 5.64386 36.4165 3.59147 36.7507 2.78733C36.096 2.34035 36.7543 1.99762 33.7756 3.1625C33.2761 3.35797 32.6962 3.5211 32.2536 3.73094C30.7222 4.46106 31.5981 3.86096 31.0721 4.85912Z" fill="#FF0000"/>
<path fill-rule="evenodd" clip-rule="evenodd" d="M60.8253 66.0519L60.7117 65.9994C60.5587 67.7449 60.3833 67.1312 59.5152 68.4987L60.6643 68.5383L61.1451 67.681C61.7487 66.6829 62.1641 66.4564 62.7296 65.7205L60.826 66.0526L60.8253 66.0519Z" fill="#FF0000"/>
</svg>
