<svg xmlns="http://www.w3.org/2000/svg" width="862" height="802" fill="none" viewBox="0 0 862 802"><rect width="862" height="802" fill="#fff"/><path fill="#000" fill-opacity=".5" d="M273.72 392.184L276.168 383.328H242.4V432H252.624V413.784H270.912L271.344 404.928H252.624V392.184H273.72ZM290.403 394.416H281.763V432H291.843V407.088C295.515 405 299.979 403.56 304.299 403.272L304.659 393.696C299.331 394.272 294.651 396.432 291.051 399.456L290.403 394.416ZM347.047 413.208C347.047 401.112 339.415 393.768 327.319 393.768C315.223 393.768 307.591 401.184 307.591 413.28C307.591 425.376 314.863 432.72 327.319 432.72C339.415 432.72 347.047 425.304 347.047 413.208ZM336.751 413.28C336.751 420.696 332.791 424.512 327.391 424.512C321.991 424.512 317.887 420.696 317.887 413.28C317.887 405.864 321.919 401.976 327.319 401.976C332.719 401.976 336.751 405.864 336.751 413.28ZM376.418 393.768C372.458 393.768 367.706 395.424 364.25 397.728L363.746 394.416H354.818V432H364.898V404.856C366.914 403.488 369.938 402.336 372.818 402.336C374.834 402.336 376.274 402.768 377.426 403.776C378.65 404.856 379.226 406.44 379.226 409.536V432H389.306V408.384C389.306 403.344 388.226 399.888 386.066 397.512C383.834 395.064 380.594 393.768 376.418 393.768ZM419.429 403.416L421.229 394.92H408.197V384.624L398.117 386.136V419.184C398.117 429.408 403.373 432.288 411.581 432.288C414.749 432.288 418.349 431.856 420.653 431.064L420.149 423.144C418.565 423.504 416.117 423.72 413.597 423.72C409.853 423.72 408.197 421.776 408.197 417.384V403.416H419.429ZM464.921 403.416L466.721 394.92H453.689V384.624L443.609 386.136V419.184C443.609 429.408 448.865 432.288 457.073 432.288C460.241 432.288 463.841 431.856 466.145 431.064L465.641 423.144C464.057 423.504 461.609 423.72 459.089 423.72C455.345 423.72 453.689 421.776 453.689 417.384V403.416H464.921ZM491.526 432.72C495.558 432.72 500.382 432.072 503.982 431.064L503.118 423.144C500.166 423.792 496.278 424.368 492.39 424.368C485.478 424.368 481.374 421.2 481.302 416.736H506.07C506.358 415.224 506.502 413.352 506.502 411.624C506.502 402.264 501.822 393.768 489.798 393.768C477.486 393.768 470.646 402.264 470.646 413.352C470.646 425.52 477.342 432.72 491.526 432.72ZM489.366 401.256C494.262 401.256 496.35 404.784 496.35 409.752H481.446C481.518 404.568 484.326 401.256 489.366 401.256ZM533.151 432.72C537.183 432.72 542.007 432.072 545.607 431.064L544.743 423.144C541.791 423.792 537.903 424.368 534.015 424.368C527.103 424.368 522.999 421.2 522.927 416.736H547.695C547.983 415.224 548.127 413.352 548.127 411.624C548.127 402.264 543.447 393.768 531.423 393.768C519.111 393.768 512.271 402.264 512.271 413.352C512.271 425.52 518.967 432.72 533.151 432.72ZM530.991 401.256C535.887 401.256 537.975 404.784 537.975 409.752H523.071C523.143 404.568 525.951 401.256 530.991 401.256ZM576.648 403.416L578.448 394.92H565.416V384.624L555.336 386.136V419.184C555.336 429.408 560.592 432.288 568.8 432.288C571.968 432.288 575.568 431.856 577.872 431.064L577.368 423.144C575.784 423.504 573.336 423.72 570.816 423.72C567.072 423.72 565.416 421.776 565.416 417.384V403.416H576.648ZM606.832 393.768C603.088 393.768 598.696 395.208 595.312 397.296V379.224L585.232 381.888V432H595.312V404.856C597.328 403.488 600.352 402.336 603.232 402.336C605.248 402.336 606.688 402.768 607.84 403.776C609.064 404.856 609.64 406.44 609.64 409.536V432H619.72V408.384C619.72 403.344 618.64 399.888 616.48 397.512C614.248 395.064 611.008 393.768 606.832 393.768Z"/></svg>