<svg xmlns="http://www.w3.org/2000/svg" width="100" height="101" fill="none" viewBox="0 0 100 101"><path fill="red" fill-rule="evenodd" d="M49.9994 0.757812C77.6147 0.757812 100 23.1431 100 50.7584C100 78.3724 77.6147 100.758 49.9994 100.758C22.386 100.758 0 78.3724 0 50.7584C0 23.1431 22.386 0.757812 49.9994 0.757812Z" clip-rule="evenodd"/><path fill="#D2010D" fill-rule="evenodd" d="M28.5989 32.3991C28.5668 32.5662 28.5731 32.615 28.514 32.7757L28.3411 33.0759C28.2383 33.8685 27.8422 34.796 27.6526 36.5529C27.4951 38.0173 27.5948 47.1711 27.5884 49.0823C27.5839 52.1563 27.6334 53.7982 26.4712 56.3284C25.5815 58.2646 24.0965 59.851 22.7164 60.9052C22.6842 62.2256 24.0296 64.1361 25.0774 64.9319C25.5235 65.2707 25.9111 65.4 26.3894 65.7182C26.2917 65.9875 25.8695 66.39 25.6888 66.6098C24.9065 67.5638 24.4842 68.5158 23.9448 69.6201C23.9256 69.678 23.878 70.0232 23.7777 70.1916C23.6311 70.4372 21.0867 78.5336 21.0102 79.0331C20.991 79.1636 21.0232 79.1193 20.9718 79.2755C20.8426 79.6439 20.901 79.4309 20.8264 79.5351L20.5469 80.5136C23.0333 80.6042 25.6739 80.5264 28.1777 80.5264H58.5786C61.065 80.5264 63.7604 80.9827 64.9368 79.2587C65.5205 78.4043 66.1806 74.5449 66.4982 73.2027C66.7553 72.1183 67.7627 71.44 68.743 72.1118C69.6655 72.745 70.2606 77.532 70.6167 78.5991C71.1927 80.3232 73.4415 81.1538 75.0601 79.9221C75.755 79.3937 77.684 74.3945 78.6007 71.1572C79.6099 67.5933 80.2901 62.3439 77.1974 59.7688C76.4646 59.1587 75.2253 58.546 73.9505 58.4412C69.9361 58.1121 68.5013 61.1169 67.9517 61.5585C67.6913 61.3412 67.521 61.0326 67.3153 60.7838C66.0168 59.2108 65.3687 59.3034 64.9194 58.8746C61.0431 55.1757 62.1861 46.9082 62.1855 42.6675C62.1855 41.2481 62.253 36.0786 62.1341 34.8746C62.0576 34.0897 61.785 33.3195 61.7278 32.7184C61.5947 32.5609 61.7534 32.8342 61.6036 32.5532C61.4924 32.3475 61.4874 32.1347 61.4533 32.0473C61.2393 31.6706 61.0978 31.2625 60.876 30.9063C60.1727 29.7763 59.5119 28.9746 58.3959 28.1524C55.8972 26.3114 56.8499 28.0367 55.6002 25.7122C54.679 23.9991 53.0567 22.5297 51.0209 21.6767C48.9882 20.8255 47.1645 20.9284 44.8111 20.9637C36.7314 21.0859 30.7415 26.2966 28.5944 32.4022L28.5989 32.3991Z" clip-rule="evenodd"/><path fill="#fff" fill-rule="evenodd" d="M43.0444 22.9501C42.9486 23.0215 43.0957 22.9823 42.7949 23.0729C42.7435 23.0858 42.6266 23.0987 42.5822 23.1051C42.3785 23.1373 42.1914 23.1566 41.9896 23.172C41.1713 23.2042 40.2494 23.6875 39.514 23.8186C39.4626 23.8636 39.4452 23.8881 39.361 23.9383C39.2434 24.0077 39.4755 23.8869 39.2466 23.9961C39.1592 24.0347 38.9959 24.0899 38.8853 24.1292C38.272 24.2609 36.5139 25.3416 36.0839 25.6585C35.1646 26.3361 34.4099 26.9383 33.7208 27.6827C32.4737 29.0288 31.1199 30.94 30.3716 33.1482C30.3395 33.3731 30.3846 33.2136 30.3267 33.4051C30.2881 33.526 30.2456 33.544 30.2096 33.5929C29.8978 35.1877 29.5141 36.1404 29.5167 37.9358C29.5193 39.5931 29.4523 41.3751 29.5295 43.0162C29.8592 42.8587 30.0451 42.7038 30.4154 42.5379C30.713 42.4055 31.1989 42.2705 31.4432 42.1432C31.456 40.3041 31.2838 39.1702 32.025 37.6371C32.5425 36.5667 33.5016 35.5921 34.5192 35.0726C36.0131 34.309 37.0565 34.4003 38.9078 34.4003C40.6255 34.4003 42.3424 34.4003 44.0594 34.4003C47.7409 34.4003 49.8795 34.5506 52.6553 32.8504C53.545 32.3052 53.3316 32.2237 54.2914 32.7676C54.9188 33.1237 55.2794 33.395 55.7615 33.8334C56.8704 34.8426 57.0291 35.3254 57.8314 36.8476C57.8442 36.8669 57.8699 36.8925 57.8763 36.9118L57.9974 37.302C58.4615 40.3297 58.3116 39.01 58.3418 42.1625C58.6607 42.291 58.9679 42.3541 59.3266 42.5213C59.6609 42.6762 59.9567 42.8959 60.2575 43.0193L60.251 35.4038C60.206 34.5225 59.9926 33.9515 59.8653 33.238C59.7972 33.1564 59.8333 33.2702 59.7092 33.0053C59.677 32.9372 59.6642 32.8614 59.6417 32.7913C59.4681 32.027 58.536 30.8751 58.0796 30.4193C57.537 29.8781 56.5856 29.0899 55.6786 28.8064C55.4523 28.7807 55.6111 28.8128 55.4273 28.7485C55.408 28.7421 55.3694 28.7422 55.3572 28.7101C55.3444 28.6779 55.3122 28.6778 55.2903 28.6649L55.2838 28.6971C55.1752 28.665 55.1245 28.6585 54.9992 28.5949C54.6231 28.4104 55.012 28.6078 54.8256 28.476C54.6089 28.3378 54.3331 27.4493 54.2161 27.1954C54.0142 26.7576 53.763 26.336 53.4969 25.9638C53.162 25.4952 52.0948 24.3079 51.5214 24.1286C51.3343 24.0579 51.443 24.1093 51.3054 24.0148C51.2925 24.0019 51.2669 23.9891 51.254 23.9569C51.2411 23.9248 51.2282 23.9119 51.2154 23.8926C50.003 23.3288 49.2561 22.9387 47.6059 22.8905C46.8544 22.8712 46.0798 22.884 45.3258 22.8846C44.5833 22.8853 43.7238 22.9959 43.0456 22.949L43.0444 22.9501Z" clip-rule="evenodd"/><path fill="#fff" fill-rule="evenodd" d="M61.4982 60.4814C60.462 60.6524 59.4913 61.5235 59.0684 62.1509C58.414 63.1196 58.3008 64.0466 58.356 65.4557C58.4358 67.4754 58.9031 70.5803 59.6031 72.2343L59.8668 72.9145L59.8217 72.9594C60.0267 73.1992 60.0372 73.3195 60.0938 73.6203L60.7327 75.5122C60.9346 75.6363 60.9068 75.7057 60.9518 75.9699L61.4493 77.4285L61.6653 77.8636C61.8267 78.7649 62.9626 78.7977 63.3625 78.1349L63.5965 77.6078L63.6222 77.1366C63.6415 77.026 63.6415 76.907 63.6736 76.7939C63.8015 76.333 63.6865 76.7142 63.7984 76.5239L64.3924 73.7753C64.4374 73.4172 64.5029 72.9512 64.6759 72.712C64.771 71.3287 66.124 70.1714 67.4804 69.9869C69.1382 69.7613 70.6156 70.822 70.9839 71.9309C70.9968 71.9501 71.0289 71.9502 71.0353 71.9887C71.0404 72.0273 71.0738 72.0338 71.0802 72.0531C71.1831 72.3372 71.0867 71.877 71.1381 72.3057L71.7578 75.0589C71.79 75.1039 71.8093 75.0396 71.8877 75.3051C71.9263 75.4388 71.9327 75.5881 71.9456 75.7237L71.997 76.1588C72.0612 76.2495 72.0356 76.0561 72.1282 76.4205C72.1603 76.5337 72.1538 76.65 72.1666 76.765C72.3569 77.8173 72.368 78.6113 73.5495 78.583L73.5301 78.3766L73.7043 78.5014C74.216 78.3124 74.2732 77.8997 74.4635 77.3333C74.4828 77.2054 74.4507 77.204 74.5086 77.0909C74.6732 76.7611 74.5098 77.0098 74.7162 76.8543L74.684 76.6242C74.7033 76.5406 74.6969 76.4911 74.7483 76.387C74.8492 76.1671 74.7932 76.2964 74.8723 76.191L75.4155 74.7548C75.4207 74.7227 75.422 74.6449 75.4285 74.6591C75.4349 74.6719 75.4413 74.591 75.4477 74.5679C75.4927 74.4412 75.5254 74.4014 75.553 74.3564L75.5485 74.2779C75.5807 74.1429 75.6001 74.0362 75.649 73.9128C75.7139 73.7515 75.6552 73.8806 75.7066 73.7926C75.7452 73.7231 75.7967 73.6557 75.8224 73.6203L76.3534 71.9817L76.5779 71.4173L77.1731 68.796C77.1859 68.6288 77.1987 68.4789 77.218 68.3118C77.2212 68.2861 77.2502 68.0913 77.2502 68.0862C77.3633 67.741 77.2374 67.9808 77.4187 67.8168C77.3441 67.6401 77.5773 64.9376 77.5548 64.3661C77.5162 63.4218 77.0503 62.1947 76.4923 61.7832L76.3097 61.5582C75.564 60.9276 75.087 60.5446 73.946 60.389C70.3802 59.9043 69.3639 63.5304 67.9606 64.7659C67.5968 64.4554 67.2413 63.8673 66.9321 63.4572C66.5779 62.9886 66.3183 62.6357 65.9512 62.1568C65.417 61.4587 64.4328 60.5091 63.1722 60.421L61.4982 60.4814Z" clip-rule="evenodd"/><path fill="#fff" fill-rule="evenodd" d="M50.3786 35.869C50.2995 35.9397 50.3831 35.9596 50.0906 36.0328C49.9055 36.0778 49.8308 36.0523 49.681 36.0523L49.3159 36.1782C49.1957 36.2039 49.073 36.2168 48.9528 36.2361C48.6037 36.2939 48.3999 36.3087 48.0451 36.3157L41.3539 36.3287C39.4222 36.3287 36.6336 36.0053 35.1724 36.9097C33.4541 37.9736 33.357 39.2748 33.357 41.821C33.3563 44.0568 33.3185 46.3304 33.3609 48.5616L34.1766 48.4698C34.2724 48.4055 34.1316 48.4119 34.4556 48.3405C34.5822 48.3148 34.7487 48.3147 34.8779 48.3019L35.4045 48.2634C35.4238 48.2506 35.4559 48.1978 35.4714 48.2183L35.965 48.0788C36.2645 48.021 36.3508 48.0063 36.6535 47.9876L39.7949 47.4766C40.07 47.2985 40.0901 47.3531 40.4083 47.2979C40.6301 47.2593 40.821 47.2265 41.0453 47.2047C43.7073 47.1018 43.8449 46.6544 47.4338 47.0568C48.7561 47.2053 52.8476 48.0289 53.3503 48.0282C53.5168 48.0475 53.6654 48.0732 53.8364 48.1079L54.2927 48.2691L56.4032 48.6068C56.5401 45.399 56.4841 41.5645 56.2945 38.403C56.2302 38.3105 56.2926 38.4725 56.1917 38.2212C56.1788 38.189 56.1467 38.0656 56.1403 38.0283C56.1082 37.8876 56.0824 37.7814 56.0567 37.6117L55.6389 36.6828L55.4833 36.6506L55.4319 36.4134C55.2249 35.8799 54.1796 34.8951 53.6024 34.6064C53.191 34.7234 52.5455 35.1305 52.093 35.3252C51.7131 35.4892 50.7982 35.8607 50.3823 35.8716L50.3786 35.869Z" clip-rule="evenodd"/><path fill="#fff" fill-rule="evenodd" d="M41.7134 49.0546C41.4704 49.259 40.7067 49.3143 40.3878 49.3349C39.601 49.333 36.8453 50.0844 36.4043 49.9513C36.2796 50.0529 36.4557 50.0324 36.0629 50.1314C35.9009 50.17 35.7209 50.1699 35.5576 50.1828L33.5225 50.5377L33.7257 51.7744C33.8009 51.8734 33.7386 51.6864 33.8626 52.0033C33.8883 52.0727 33.9204 52.191 33.9403 52.2675C34.011 52.5105 34.0593 52.625 34.1467 52.8551C34.3125 53.955 35.9235 56.0981 36.4616 56.6735C36.9225 57.1659 37.5042 57.7103 38.1226 58.1397C38.4665 58.3788 39.6564 59.1804 40.0691 59.2524C40.1732 59.2974 40.1822 59.2846 40.2915 59.347C40.3783 59.3984 40.4143 59.4332 40.4606 59.4692C41.3336 59.7147 41.9069 59.9848 42.9252 60.1654C43.4105 60.2509 43.9067 60.2881 44.3869 60.317C44.9089 60.3492 45.4831 60.2592 45.9228 60.2978C45.9485 60.285 45.9869 60.2399 46.0004 60.2656C46.0133 60.2914 46.0584 60.2399 46.0783 60.2335C46.268 60.182 46.0719 60.227 46.2364 60.1948C46.3412 60.1755 46.4247 60.182 46.5256 60.1691C46.7911 60.137 46.9756 60.0985 47.2495 60.0779C49.3721 59.8214 51.9113 58.0691 52.9257 57.0283C53.6392 56.2968 54.2543 55.6192 54.849 54.5579C55.1672 53.9896 56.161 51.9776 56.0517 51.3663L56.2042 50.5139L54.345 50.2316C54.0422 50.1931 53.7389 50.1229 53.4426 50.0721L52.7932 49.9584C52.5117 49.8799 52.6126 49.8839 52.5496 49.8454C51.8933 49.8325 50.6771 49.5348 49.9687 49.4095C47.9888 49.0598 46.5623 48.7884 44.4744 48.8366C43.5224 48.8623 42.5934 49.0174 41.7134 49.0559V49.0546Z" clip-rule="evenodd"/><path fill="#fff" fill-rule="evenodd" d="M33.3915 64.1669C32.7294 64.1026 31.3235 64.6948 30.7816 64.9429C29.8983 65.3473 29.3288 65.7542 28.6654 66.2877C27.8947 66.9068 26.0299 68.9304 25.7901 70.306C25.7515 70.4121 25.7252 70.5388 25.6737 70.6423C25.5272 70.9367 25.6415 70.7302 25.5078 70.8498L24.7723 73.5162C24.7402 73.711 24.7147 73.8074 24.6472 73.9926C24.6452 73.9983 24.5808 74.172 24.5744 74.1842C24.4323 74.4561 24.5424 74.2779 24.3964 74.4155L23.7124 76.8281C23.6867 76.9772 23.7316 76.9091 23.6737 77.0782C23.5349 77.4645 23.6225 77.2035 23.5254 77.325L23.1641 78.5888L30.5978 78.5438L30.9346 75.6081C30.9539 75.232 30.9731 74.6039 31.1653 74.3107L31.4784 71.751L33.3438 71.978L33.1594 73.7862C33.1601 73.9295 33.1722 74.0767 33.1555 74.2227C33.1523 74.2612 33.1233 74.4161 33.1233 74.4341C33.0333 74.7215 33.0547 74.5899 33.0129 74.667L32.5423 78.5862L43.9313 78.587L43.8928 77.0217L43.6458 77.0345L43.1676 76.7767L41.378 76.1313C41.2437 76.0991 41.1278 76.067 41.0102 76.022C40.9845 76.0091 40.9152 75.9835 40.8927 75.9706C40.6189 75.8234 40.8606 75.9577 40.7301 75.8574L39.2933 75.3458L38.8401 75.1665C38.6588 75.162 38.68 75.1858 38.4762 75.1151C38.4505 75.1022 38.3766 75.0701 38.3528 75.0572C38.2345 74.9929 38.2276 74.9748 38.1704 74.933L36.8499 74.4818C36.7663 74.4497 36.6699 74.424 36.587 74.3816C36.2573 74.2093 36.4926 74.3366 36.3614 74.2215L34.2984 73.4976L33.8441 73.3214C33.5625 73.3156 33.59 73.328 33.3278 73.1551C33.3663 72.8632 33.3022 73.1228 33.47 73.0052C34.055 72.4903 34.7806 72.0133 35.4196 71.5241C35.7648 71.2605 36.0161 71.0741 36.3832 70.799L37.285 70.0816C37.2914 70.0494 37.3172 70.0495 37.3494 69.9974L33.1188 67.5032L33.673 66.1102L33.9288 65.4758C33.9417 65.2765 33.871 65.5144 33.961 65.2476C34.0388 65.0053 34.006 65.1595 34.0844 65.0548L34.4167 64.1965C34.3974 63.9824 34.4618 64.1265 34.3506 64.0166L33.3915 64.1669Z" clip-rule="evenodd"/><path fill="#fff" fill-rule="evenodd" d="M50.5413 65.1469C50.5091 65.3931 50.5431 65.2233 50.4769 65.4014C50.4705 65.4206 50.4449 65.4798 50.4385 65.4683C50.4333 65.4554 50.4062 65.5069 50.3933 65.5326L49.7885 67.0053C49.7435 67.2541 49.7846 67.0819 49.7197 67.2599C49.7132 67.2792 49.6877 67.3376 49.6812 67.326C49.6754 67.3132 49.649 67.3646 49.6361 67.3839L47.9243 71.6421C47.8793 71.8954 47.9186 71.725 47.8556 71.8999C47.8492 71.9192 47.8234 71.9776 47.817 71.966C47.8118 71.9531 47.7912 72.0046 47.7783 72.0239L47.7977 72.0366C47.7592 72.1562 47.7848 72.1337 47.7224 72.2636C47.671 72.3793 47.6473 72.3794 47.6055 72.4341L46.9124 74.1651C46.8545 74.446 46.8284 74.3857 46.7872 74.5638C46.6972 74.954 46.6477 74.734 46.8759 74.8394L47.9551 74.4107C48.0194 74.3657 47.8574 74.3212 48.2193 74.2615C48.4964 74.2165 48.2998 74.2101 48.4437 74.3258L48.6115 74.8851C48.6565 74.943 48.6694 74.9506 48.7266 75.0766C48.7395 75.0959 48.7394 75.1802 48.7459 75.166C48.7523 75.1532 48.7587 75.2302 48.7651 75.2623L49.0448 76.0384L46.7229 76.9583C46.6715 76.9904 46.6457 77.0161 46.5236 77.0701C46.5043 77.0765 46.4516 77.115 46.4349 77.0893C46.4156 77.0636 46.3706 77.1021 46.3398 77.1086L45.916 77.2655L45.8711 78.5538L57.2338 78.5151L57.1824 77.7116C56.978 77.4345 56.9045 76.1926 56.8962 75.8764L56.4469 71.9789L57.4614 71.8567L57.0794 70.1359C57.028 70.0619 57.0216 70.0908 56.9656 69.9507C56.9528 69.925 56.9142 69.7521 56.9142 69.7521C56.8821 69.603 56.8757 69.4834 56.8564 69.3394C56.8435 69.0726 56.6809 67.7889 56.5356 67.5375L52.4075 70.058L56.2928 73.1656C56.0774 73.3289 56.0876 73.2954 55.9063 73.3173C55.4512 73.4568 53.8596 74.203 53.5337 74.194C53.4283 74.2968 53.495 74.2668 53.3517 74.3478C53.209 74.4275 53.3132 74.3798 53.1069 74.4119L50.9797 75.2155L50.635 74.2936C50.59 74.2358 50.5772 74.2255 50.5213 74.0988C50.5148 74.0795 50.5085 74.0539 50.502 74.0096C50.4956 73.9581 50.4892 73.9452 50.4828 73.9125L50.4049 73.6767C50.2764 73.5314 50.3266 73.8669 50.2784 73.4722L50.4583 73.3667L50.8634 73.2986C51.0453 73.1231 50.6705 73.2105 51.087 73.1205L51.2934 73.0756L52.4691 72.5581C52.1355 72.1955 51.1532 71.5301 50.7206 71.2074C50.5007 71.0435 49.1444 70.087 49.0087 69.8555C49.2498 69.6177 49.9839 69.2244 50.3143 69.0277L54.1185 66.723C54.17 66.4125 54.1573 66.5482 54.0518 66.2365L53.5061 64.7406C53.4675 64.6892 53.4417 64.6762 53.3909 64.5747C53.2894 64.3664 53.3717 64.5169 53.3395 64.3665C53.3074 64.3344 53.2817 64.3279 53.2226 64.2166C53.1448 64.0604 53.2031 64.1652 53.171 63.9942C53.0341 63.4709 52.914 63.5688 52.3592 63.4935C51.9722 63.4421 51.6104 63.3636 51.2465 63.3643L50.5413 65.1469Z" clip-rule="evenodd"/><path fill="#fff" fill-rule="evenodd" d="M29.3644 53.4203C29.3451 53.6929 29.3387 53.8074 29.2783 54.0697C29.259 54.15 29.2332 54.281 29.21 54.3524C29.0615 54.7664 29.2153 54.391 29.0784 54.5774C29.072 54.9888 28.672 56.1055 28.5087 56.4481L28.4426 56.6512C28.3757 56.9989 28.4554 56.7585 28.276 56.8697C28.3146 57.3441 27.097 59.1049 26.8277 59.4726C26.3198 60.1649 25.4451 61.1356 24.8916 61.5811C25.1185 62.3698 26.1752 63.6445 26.9203 63.7924L27.4358 64.056C28.6225 64.1203 28.0433 64.2514 28.9728 63.7314C29.4434 63.4684 29.8201 63.2583 30.3202 63.0436C30.8833 62.8019 32.8723 62.0381 33.3892 62.2522C33.573 62.0844 33.2837 62.2137 33.6656 62.0845C33.7041 62.0716 33.8854 62.0522 33.9491 62.0458C34.1702 62.0137 34.3675 61.9706 34.5815 61.9526L38.157 61.4153L38.1313 60.4015C36.764 59.7496 35.3324 58.3502 34.5809 57.4592C33.7183 56.4365 32.7766 54.9393 32.2347 53.3489C32.0585 53.0886 31.9073 52.7743 31.881 52.359L31.7254 51.6269C30.5368 51.4122 30.3529 51.1036 29.5494 50.752L29.3644 53.4203Z" clip-rule="evenodd"/><path fill="#fff" fill-rule="evenodd" d="M40.1152 62.2477C40.2386 62.3698 40.1603 62.2092 40.2947 62.4721C40.402 62.6791 40.3075 62.5235 40.3596 62.6977L41.1 64.6667C41.145 64.7246 41.1578 64.7182 41.2157 64.8313C41.3147 65.0306 41.2414 64.9019 41.2671 65.0369C41.2992 65.069 41.3315 65.0691 41.3848 65.1868C41.4664 65.352 41.4041 65.2381 41.4362 65.413L42.1144 67.1937C42.153 67.2451 42.1722 67.2662 42.2262 67.3871C42.2391 67.4064 42.2392 67.4907 42.2456 67.4766C42.2521 67.4637 42.2584 67.5415 42.2649 67.5743L42.9577 69.3098C43.0027 69.3677 43.0221 69.3677 43.0755 69.477C43.15 69.6229 43.1076 69.5741 43.1494 69.7085L44.0944 72.2213C44.2442 72.3736 44.1586 72.0181 44.2511 72.4212L44.2963 72.6281L44.7745 73.7903L44.9931 73.7646L45.7515 71.9398C45.7965 71.7038 45.7554 71.865 45.8203 71.6883C45.8268 71.669 45.8526 71.6626 45.859 71.6221C45.8641 71.5836 45.8911 71.5835 45.9039 71.5578L45.9683 71.2924C46.0004 71.187 45.9812 71.1998 46.0422 71.0699C46.1952 70.7344 46.0466 71.0442 46.1662 70.8861L47.6158 67.2933C47.6845 66.9938 47.6131 67.0226 47.8394 66.8696C47.8265 66.6549 49.275 63.0809 49.4775 62.6573C49.5417 62.3513 49.471 62.3788 49.7005 62.2271L49.698 61.4198C49.0886 61.4327 47.6543 62.2534 44.9062 62.2573C42.0353 62.2618 41.3887 61.5804 40.0889 61.4004L40.1152 62.2477Z" clip-rule="evenodd"/><path fill="#fff" fill-rule="evenodd" d="M54.7652 61.8969C54.9722 61.9098 55.1914 61.9355 55.3875 61.967C55.426 61.9734 55.6716 62.0248 55.6961 62.0325C55.9255 62.1231 55.709 62.0003 55.8858 62.172C56.1287 62.0794 56.481 62.1978 56.8037 62.2106L57.0428 61.8173C57.9068 60.0707 60.0178 58.4309 61.9476 58.4964L62.1346 58.2424C61.7411 57.6008 61.5079 56.8552 61.1672 56.2612C60.9705 56.0401 61.0797 56.3319 61.0167 55.8896L60.9081 55.3176C60.8065 55.2192 60.8568 55.4295 60.7301 55.0451C60.6916 54.9339 60.685 54.8111 60.6593 54.6973C60.5044 53.0169 60.316 53.4354 60.2511 50.7471C59.5002 51.0537 59.5408 51.3487 58.0539 51.6187C57.3751 53.8178 57.0744 54.964 55.6325 56.8642C55.0122 57.6819 54.4696 58.2451 53.7696 58.8841C51.575 60.8878 51.5704 59.7338 51.6501 61.4398L54.7652 61.8969Z" clip-rule="evenodd"/><path fill="#fff" fill-rule="evenodd" d="M38.7051 73.0561C39.0066 73.1139 39.0324 73.0688 39.1706 73.315L39.3988 73.2828C39.5145 73.315 39.4926 73.2893 39.6334 73.3472C39.8513 73.4359 39.7254 73.3985 39.825 73.4712L41.2065 73.9983C41.4829 74.0497 41.2449 73.9726 41.4545 74.0562C41.5901 74.1076 41.5569 74.1224 41.6269 74.1841L41.6718 74.1391L42.3263 74.4169L42.8046 74.559C43.0668 74.6329 42.8905 74.6283 42.9619 74.4387L41.5343 70.7977C41.4958 70.7463 41.4648 70.7283 41.4147 70.6441C41.3697 70.5663 41.4211 70.6698 41.3568 70.5297C41.3118 70.4359 41.2707 70.2917 41.2354 70.1805L41.2546 70.1742C41.2289 70.1292 41.1968 70.0873 41.1473 69.9665C41.1408 69.9472 41.1345 69.9279 41.128 69.8809C41.1216 69.836 41.115 69.8232 41.1086 69.7917L39.6571 66.2054C39.6057 66.1366 39.6059 66.1538 39.5274 66.0163C39.4889 65.9449 39.4567 65.8441 39.4278 65.7734L39.3956 65.5309C39.3699 65.4859 39.3377 65.4436 39.2869 65.3253C39.2136 65.1479 39.3383 65.6254 39.2483 65.1523L38.6415 63.6841L38.4532 63.3389C37.5179 63.5002 36.8763 63.4753 36.6578 63.8109L36.4437 64.3431C36.3499 64.5893 36.2464 64.8246 36.1487 65.0701C35.9912 65.4648 35.6434 66.204 35.5566 66.6733L40.7681 69.8507L40.5611 70.0712C39.9189 70.6202 37.6431 72.1169 37.3301 72.5476L38.7051 73.0561Z" clip-rule="evenodd"/><path fill="#D2010D" fill-rule="evenodd" d="M38.3743 42.9952C37.9005 42.3537 38.3795 41.8393 39.0751 42.2996C39.1072 42.5728 39.0795 42.7451 39.0036 42.9682L38.3743 42.9952ZM37.9892 40.2825C34.8226 41.2821 36.3963 45.7658 39.336 44.8697C40.3729 44.5534 41.39 43.3636 40.9438 41.8947C40.6198 40.8289 39.4382 39.8248 37.9892 40.2825V40.2825Z" clip-rule="evenodd"/><path fill="#D2010D" fill-rule="evenodd" d="M50.8709 42.9985C50.5366 42.5877 50.5892 42.3916 50.9839 42.0933C51.8491 42.1062 51.8866 43.1142 50.8709 42.9985ZM48.7765 43.127L48.9866 43.5917C49.9001 46.0904 54.4218 44.893 53.4222 41.8273C52.6527 39.4662 48.5933 39.3574 48.7765 43.127Z" clip-rule="evenodd"/><path fill="#fff" fill-rule="evenodd" d="M31.4595 49.5734L31.4338 44.2236C30.4625 44.3773 29.5144 45.6378 29.5176 46.8875C29.5208 48.17 30.3906 49.2969 31.4584 49.5734H31.4595Z" clip-rule="evenodd"/><path fill="#fff" fill-rule="evenodd" d="M58.332 49.5816C59.3368 49.2666 60.2651 48.2747 60.2567 46.8887C60.2503 45.5632 59.3376 44.4704 58.3579 44.2178L58.332 49.5816Z" clip-rule="evenodd"/><path fill="#fff" fill-rule="evenodd" d="M55.3843 64.2208L56.5362 67.0826C56.5362 66.5895 56.4642 66.0675 56.4456 65.5526C56.4199 64.9169 56.5458 64.1417 56.2926 64.1623L55.4549 64.0401C55.3495 64.1237 55.3335 63.8884 55.3843 64.2208Z" clip-rule="evenodd"/><path fill="#6D6D6D" fill-rule="evenodd" d="M57.2408 78.5133L45.878 78.552L45.923 77.2637C45.833 77.3479 45.801 77.2959 45.7637 77.6186L45.8574 78.6161C46.5292 78.7292 54.8294 78.629 56.6428 78.6548C57.33 78.6612 57.1635 78.6419 57.2439 78.5133H57.2408Z" clip-rule="evenodd"/><path fill="#fff" fill-rule="evenodd" d="M59.0532 77.1783L59.1785 78.5038L59.6774 78.5615C59.7288 78.4612 59.7418 78.5101 59.7463 78.3243L59.6023 77.9047L59.1285 76.5225C59.0141 76.651 59.077 76.4839 59.0455 76.7037C59.0198 76.8831 59.05 76.6781 59.05 76.8613C59.05 77.0284 59.0821 76.9416 59.0532 77.1775V77.1783Z" clip-rule="evenodd"/><path fill="#6D6D6D" fill-rule="evenodd" d="M57.1866 77.7102L56.9955 76.091C56.9441 75.8846 56.9216 75.9155 56.9004 75.875C56.9068 76.1913 56.9822 77.4332 57.1866 77.7102V77.7102Z" clip-rule="evenodd"/><path fill="#9A9A9A" fill-rule="evenodd" d="M58.8967 76.3969C58.8948 76.6321 58.8999 76.9877 59.0529 77.1741C59.085 76.9382 59.0498 77.025 59.0498 76.8579C59.0498 76.6766 59.0176 76.8771 59.0452 76.7003C59.0774 76.4831 59.0132 76.6489 59.1282 76.5191L59.0252 76.1777L58.8967 76.3969Z" clip-rule="evenodd"/><path fill="#6D6D6D" fill-rule="evenodd" d="M59.1797 78.5004C59.2838 78.638 59.0332 78.6225 59.5044 78.6591C59.6034 78.6655 59.7396 78.6333 59.8347 78.6204C59.854 78.3588 59.9017 78.492 59.7474 78.3242C59.7416 78.51 59.7281 78.4611 59.6786 78.5614L59.1797 78.5004Z" clip-rule="evenodd"/><path fill="#6D6D6D" fill-rule="evenodd" d="M58.8939 76.3988L59.0223 76.1797L58.915 75.9951C58.87 76.0832 58.8764 75.8898 58.8487 76.1919C58.8166 76.4934 58.881 76.368 58.8939 76.3988V76.3988Z" clip-rule="evenodd"/><path fill="#9A9A9A" fill-rule="evenodd" d="M48.9874 43.5966L48.7773 43.1318C48.8031 43.2906 48.7451 43.218 48.8223 43.3845C48.9579 43.7021 48.8674 43.4847 48.9902 43.5966H48.9874Z" clip-rule="evenodd"/><path fill="#6D6D6D" fill-rule="evenodd" d="M47.6051 72.4305C47.6437 72.3726 47.6693 72.3727 47.722 72.2602C47.7799 72.1303 47.7607 72.1528 47.7973 72.0332C47.726 72.1078 47.7279 72.0782 47.6604 72.2029C47.5781 72.3572 47.6411 72.2479 47.6025 72.4305H47.6051Z" clip-rule="evenodd"/><path fill="#6D6D6D" fill-rule="evenodd" d="M47.7818 72.0273C47.7947 72.008 47.8205 71.9559 47.8205 71.9694C47.8263 71.9823 47.8527 71.9245 47.8591 71.9033C47.9234 71.7284 47.8783 71.8988 47.9278 71.6455C47.8764 71.7143 47.8764 71.6904 47.8115 71.8505C47.7472 71.9971 47.8307 71.6622 47.7793 72.0292L47.7818 72.0273Z" clip-rule="evenodd"/><path fill="#6D6D6D" fill-rule="evenodd" d="M59.7465 78.3241C59.7337 78.1229 59.7851 78.3215 59.7144 78.0881C59.6501 77.8753 59.6629 77.9917 59.6006 77.9043L59.7465 78.3241Z" clip-rule="evenodd"/><path fill="#9A9A9A" fill-rule="evenodd" d="M59.8691 72.9145L59.6055 72.2344L59.8234 72.8598C59.8292 72.8469 59.8557 72.8985 59.8685 72.9114L59.8691 72.9145Z" clip-rule="evenodd"/></svg>