<svg width="100" height="101" viewBox="0 0 100 101" fill="none" xmlns="http://www.w3.org/2000/svg">
<path fill-rule="evenodd" clip-rule="evenodd" d="M49.9994 0.524414C77.6147 0.524414 100 22.9097 100 50.525C100 78.139 77.6147 100.524 49.9994 100.524C22.386 100.524 0 78.139 0 50.525C0 22.9097 22.386 0.524414 49.9994 0.524414Z" fill="#FF0000"/>
<path fill-rule="evenodd" clip-rule="evenodd" d="M64.3396 52.2989C65.7396 51.7949 66.4404 53.9625 65.0448 54.4241C63.6782 54.8766 62.8353 52.8402 64.3396 52.2989ZM68.844 52.2732C70.3205 51.7217 70.8803 53.9318 69.6236 54.3805C68.1039 54.9224 67.4799 52.783 68.844 52.2732ZM59.8051 52.3054C61.0985 51.7834 61.9707 53.8507 60.5494 54.3798C59.1654 54.8947 58.2604 52.9283 59.8051 52.3054ZM59.6663 69.6599C62.3906 64.345 61.4191 64.8002 64.9695 64.8034L76.1021 64.804C80.634 64.8046 80.3447 65.2038 80.3383 61.6965C80.3319 56.7763 80.3192 51.8561 80.2999 46.9358C80.287 42.409 80.6938 42.5768 77.2546 42.5768H51.3615C50.1106 42.5768 48.9554 42.4302 48.8866 43.8008C48.7689 46.1227 48.8854 48.7821 48.8854 51.1413V62.2737C48.8854 63.5169 48.659 64.6755 49.9736 64.7963C51.0298 64.8927 52.5623 64.8026 53.6705 64.8026C54.9247 64.8019 56.2907 64.5403 56.8056 65.4107L59.271 70.2859L59.6663 69.6599Z" fill="white"/>
<path fill-rule="evenodd" clip-rule="evenodd" d="M59.27 70.2851L56.8048 65.4097C56.2899 64.5393 54.9239 64.8011 53.6697 64.8018C52.5615 64.8018 51.0289 64.8911 49.9728 64.7953C48.6582 64.6745 48.8844 63.5161 48.8844 62.2729V51.1403C48.8844 48.7811 48.7681 46.1217 48.8858 43.7998C48.9545 42.4292 50.1098 42.5758 51.3607 42.5758H77.2538C80.693 42.5758 80.2867 42.408 80.2989 46.9348C80.3117 51.8551 80.3247 56.7753 80.3375 61.6955C80.3439 65.2028 80.6332 64.8036 76.1013 64.803L64.9687 64.8024C61.4183 64.7992 62.3898 64.344 59.6654 69.6589L59.27 70.2851ZM38.745 54.6097C38.4255 53.9913 38.1807 53.1608 37.5642 52.9834C37.0301 52.8297 24.7572 52.919 23.5712 52.919C20.8501 52.919 19.6827 53.387 19.6936 51.2213C19.7064 48.4668 19.6184 32.1531 19.7258 31.6176C19.9263 30.5917 21.0511 30.6913 21.5943 30.6913L38.4166 30.6924C42.1534 30.7053 45.896 30.6937 49.6334 30.6924C50.5771 30.6918 51.1634 30.9703 51.2193 31.9197L51.1999 40.3318C49.7181 40.3253 48.6782 40.3446 47.784 41.2098C46.9053 42.0584 46.614 42.7031 46.6166 44.2941C46.6205 47.1251 46.6827 50.0443 46.6107 52.8656C45.9878 52.8785 44.2104 52.7884 43.7707 52.9504C42.881 53.2782 41.3338 57.7724 40.644 58.3605L38.745 54.6097ZM53.5083 40.3227C53.3418 38.6822 53.489 36.2124 53.489 34.4826C53.489 32.4628 53.7572 30.8282 52.5776 29.558C51.3704 28.2575 50.0037 28.4292 47.8174 28.4292H24.3979C22.7574 28.4285 20.314 28.1616 19.0958 28.9298C17.609 29.8677 17.4333 30.8757 17.4327 33.1629V50.7275C17.4327 51.7695 17.42 52.4703 17.879 53.2925C19.173 55.6074 22.0412 55.0493 24.8928 55.0493C28.6887 55.0493 32.7243 54.9169 36.49 55.0558C36.796 55.5077 37.0692 56.1994 37.3186 56.6834C38.3144 58.6151 38.8125 60.6637 40.6446 60.73C42.6348 60.8026 43.083 58.7785 44.1359 56.769C44.3468 56.3672 44.782 55.5668 44.9144 55.1444L46.6152 55.145C46.6152 56.8607 46.6152 58.5766 46.6152 60.2923C46.6152 61.6667 46.4288 63.964 46.936 65.0588C48.2782 67.9579 51.5136 66.8536 55.1385 67.0792C55.7145 68.1238 56.2398 69.2468 56.7977 70.3653C57.3609 71.4935 57.7709 72.6699 59.3626 72.6596C60.9471 72.6532 61.3727 71.417 61.9307 70.2837C62.2245 69.6872 62.4777 69.2063 62.7554 68.638C62.9978 68.143 63.3167 67.4481 63.5694 67.0657H77.6685C79.3637 67.0657 80.3799 67.0979 81.4206 66.187C82.3919 65.3365 82.5571 64.2964 82.5565 62.6013V48.6653C82.5565 47.1097 82.595 45.5103 82.5565 43.9604C82.5179 42.4401 81.8487 41.4136 80.9282 40.864C79.6997 40.1305 78.2869 40.3311 76.7614 40.3323H62.8255C59.79 40.3356 56.5182 40.4469 53.511 40.3196L53.5083 40.3227Z" fill="#D2010D"/>
<path fill-rule="evenodd" clip-rule="evenodd" d="M34.2597 33.6002C38.8938 32.9201 42.6113 36.5644 43.0703 40.5641C43.6007 45.1905 40.105 48.8732 36.1863 49.3129C31.4763 49.8407 27.7536 46.4499 27.3248 42.3261C26.8704 37.9485 29.7515 34.2617 34.2597 33.6002V33.6002ZM40.6442 58.3596C41.334 57.7714 42.8814 53.2773 43.7711 52.9495C44.2108 52.7875 45.9882 52.8748 46.6111 52.8645C46.6831 50.0431 46.6174 47.1242 46.6168 44.2932C46.6142 42.7022 46.9055 42.0574 47.7842 41.2089C48.6784 40.3443 49.7185 40.3236 51.2003 40.3306L51.2195 31.9186C51.1616 30.9691 50.5773 30.6909 49.6336 30.6915C45.8962 30.6928 42.1536 30.7044 38.4168 30.6915L21.5947 30.6901C21.0515 30.6901 19.9265 30.5905 19.7259 31.6165C19.6212 32.152 19.7131 48.4656 19.6938 51.2202C19.6809 53.3859 20.8503 52.9179 23.5714 52.9179C24.7574 52.9179 37.0302 52.8273 37.5644 52.9822C38.1809 53.1596 38.4259 53.9901 38.7454 54.6085L40.6442 58.3596Z" fill="white"/>
<path fill-rule="evenodd" clip-rule="evenodd" d="M34.5154 35.8386C36.2459 35.5937 37.8761 36.3033 38.8301 37.1165C42.5707 40.3043 40.8678 46.4035 35.9116 47.0599C32.5412 47.5066 29.9326 44.9854 29.5739 42.0998C29.1561 38.7339 31.6477 36.2455 34.5154 35.8386V35.8386ZM34.2582 33.6008C29.75 34.2623 26.8689 37.9491 27.3234 42.3267C27.7521 46.4505 31.4748 49.8413 36.1848 49.3135C40.1035 48.8739 43.5992 45.1911 43.0689 40.5647C42.6099 36.565 38.8924 32.9207 34.2582 33.6008V33.6008Z" fill="#D2010D"/>
<path fill-rule="evenodd" clip-rule="evenodd" d="M38.4784 42.482C38.1653 42.8536 36.9054 42.5709 36.3944 42.65L36.3687 44.6272C36.3108 44.957 36.2433 44.9468 36.1437 45.0329C35.8518 45.7118 34.8239 45.821 34.3141 45.1801C33.8609 44.6112 34.1631 43.3976 34.0287 42.576C32.7848 42.576 31.0101 42.8782 31.0404 41.4099C31.0661 40.0304 32.8569 40.3337 34.0422 40.3337C34.1361 39.3721 33.6361 37.3016 35.1975 37.2997C36.7467 37.2977 36.2576 39.3612 36.354 40.3261C37.2449 40.3582 38.5086 40.1307 39.0473 40.6925C39.7017 41.3746 39.1779 42.5399 38.4792 42.482H38.4784ZM34.5109 35.8411C31.6432 36.248 29.1516 38.7364 29.5694 42.1023C29.9281 44.9879 32.5367 47.5091 35.9071 47.0624C40.8633 46.406 42.5662 40.3068 38.8256 37.119C37.8716 36.3058 36.2414 35.5962 34.5109 35.8411V35.8411Z" fill="white"/>
<path fill-rule="evenodd" clip-rule="evenodd" d="M36.1469 45.0341C36.4671 44.1759 36.134 43.182 36.3539 42.5199L38.4822 42.4814C39.181 42.5393 39.7049 41.3737 39.0505 40.6917C38.5118 40.1299 37.248 40.3561 36.357 40.3252C36.2606 39.3604 36.7498 37.2969 35.2006 37.2988C33.6391 37.3008 34.1393 39.3714 34.0455 40.3331C32.8601 40.3331 31.071 40.0296 31.0434 41.4091C31.0113 42.8773 32.7881 42.5752 34.0319 42.5752C34.1663 43.3967 33.8642 44.6103 34.3174 45.1792C34.8271 45.8201 35.8551 45.7109 36.1469 45.0321V45.0341Z" fill="#D2010D"/>
<path fill-rule="evenodd" clip-rule="evenodd" d="M68.8417 52.2772C67.4776 52.787 68.1017 54.9263 69.6213 54.3844C70.878 53.9357 70.3183 51.7257 68.8417 52.2772Z" fill="#D2010D"/>
<path fill-rule="evenodd" clip-rule="evenodd" d="M64.3344 52.302C62.8301 52.8433 63.673 54.8798 65.0396 54.4272C66.4352 53.9657 65.7345 51.7981 64.3344 52.302Z" fill="#D2010D"/>
<path fill-rule="evenodd" clip-rule="evenodd" d="M59.8064 52.3035C58.2617 52.9264 59.1667 54.8928 60.5507 54.3779C61.972 53.8488 61.0998 51.7815 59.8064 52.3035Z" fill="#D2010D"/>
<path fill-rule="evenodd" clip-rule="evenodd" d="M36.1471 45.0353C36.2467 44.9491 36.3155 44.9593 36.3721 44.6296L36.3978 42.6523C36.9088 42.5732 38.1687 42.8559 38.4818 42.4844L36.3535 42.523C36.1349 43.1851 36.4666 44.179 36.1465 45.0372L36.1471 45.0353Z" fill="#808080"/>
</svg>
