<svg xmlns="http://www.w3.org/2000/svg" width="100" height="101" fill="none" viewBox="0 0 100 101"><path fill="red" fill-rule="evenodd" d="M50.0014 0.479492C77.6148 0.479492 100 22.8653 100 50.4787C100 78.094 77.6148 100.48 50.0014 100.48C22.3873 100.48 0 78.094 0 50.4787C0 22.8653 22.3873 0.479492 50.0014 0.479492Z" clip-rule="evenodd"/><path fill="#fff" fill-rule="evenodd" d="M20.93 77.2769C26.6017 80.4679 36.4936 81.9701 43.9028 82.1899C51.0974 82.404 61.846 80.5553 67.4302 77.8156C68.7641 77.1605 70.8424 76.1466 71.4705 74.8886C72.0754 73.6775 72.026 69.8906 71.8389 68.3395C71.5882 66.2619 70.5089 64.8007 69.4257 63.8153C68.8131 63.2579 66.277 61.0935 65.4002 60.8711C65.1585 62.1574 64.4321 63.902 63.8651 65.081C63.7385 65.3458 62.9015 66.8424 62.8803 66.9543C62.807 67.3355 63.3689 67.7039 63.6627 68.9047C64.4983 72.3181 61.8762 75.194 58.8299 75.2904C55.6806 75.39 52.9545 72.5764 53.5947 69.1752C53.8994 67.5565 54.8431 66.46 55.9359 65.7741C56.5626 65.3807 57.23 65.1145 58.0509 65.0271C59.3012 64.894 59.6881 65.1987 60.5945 65.3196C61.2604 64.2647 62.901 60.6969 62.926 59.2493C61.3009 58.6508 57.6986 56.2254 55.7007 55.9541C55.144 56.9717 48.0747 66.6681 47.322 67.032C47.0886 65.7065 46.4213 62.9733 46.3956 61.6985C46.3763 60.7349 47.2757 60.2147 47.4403 59.5661C47.5586 59.0994 46.9241 57.6935 46.7601 57.1786C45.7387 57.0282 43.7844 56.9871 42.797 57.1761C42.5848 57.4621 41.9408 59.1637 42.0443 59.559C42.2133 60.1986 43.1205 60.7849 43.1018 61.6907C43.0697 63.1962 42.3568 65.5382 42.1472 67.1536C41.6169 66.8123 38.0356 62.0501 37.7451 61.6689L33.622 55.9631C32.5736 56.1412 28.2968 58.154 27.6141 58.7165C27.7099 59.3104 28.6381 60.7843 28.8875 61.3564C31.6819 61.3371 33.1778 62.2224 34.7855 63.7446C36.0866 64.9757 37.0534 66.766 37.8537 68.9606C38.224 69.9769 38.6104 71.3506 38.0923 72.365C37.8454 72.8478 37.4931 72.9494 37.0849 73.4565C35.9593 74.856 33.6085 74.1488 33.4871 72.3142C33.3977 70.9681 34.2635 70.547 35.0066 70.1806L35.3101 69.9923C33.2254 63.3673 27.3454 61.8727 26.5085 67.7115C26.1755 70.0341 26.7739 71.1127 27.22 72.9794C27.6642 72.8155 28.0268 72.3925 28.6574 72.3456C30.5242 72.2055 31.4331 74.2633 30.5685 75.5541C29.6795 76.8809 28.7139 76.1691 27.5716 76.4172C26.3013 76.6937 25.586 75.786 25.1521 75.0377C24.2406 73.4654 23.6369 70.5353 23.734 68.333C23.8471 65.754 24.7734 64.0994 26.1002 62.6961C26.036 62.2647 25.1712 60.5678 24.889 60.24C23.8072 60.6552 21.6312 62.4004 20.7666 63.1049C17.2021 66.0079 17.1488 69.0518 17.5634 73.6435C17.7524 75.7333 19.4521 76.4457 20.93 77.2769V77.2769Z" clip-rule="evenodd"/><path fill="#fff" fill-rule="evenodd" d="M82.5496 31.2158C82.6075 29.9044 82.7064 26.8696 82.4011 25.7395C82.034 24.3812 80.9946 23.2524 79.7655 22.7375C78.3551 22.1461 76.1779 22.353 74.4538 22.3543C72.5722 22.355 70.6882 22.393 68.8053 22.3673C67.0497 22.3416 65.0396 22.1237 63.5295 22.771C62.3609 23.2718 61.3215 24.4139 60.9904 25.9104C60.7378 27.0559 60.8837 30.0464 60.8837 31.444L60.9029 45.6705C61.1112 46.4868 62.1809 45.108 62.3474 44.9434C62.8443 44.4536 63.2999 44.0171 63.7885 43.5221C63.9878 43.3203 65.0723 42.2056 65.2394 42.1079C66.0385 41.6386 74.0392 42.3412 76.1278 41.7948C77.5677 41.4181 78.9942 40.5953 79.8016 39.8046C82.3922 37.2673 82.3586 35.7072 82.5502 31.2184L82.5496 31.2158Z" clip-rule="evenodd"/><path fill="#fff" fill-rule="evenodd" d="M33.1747 28.9812C33.2879 30.2528 33.3456 31.1907 33.5796 32.4481C34.0907 35.1904 33.2743 33.8386 32.258 34.5836C31.0424 35.4752 31.7477 39.5456 32.3963 40.8216C33.043 42.0932 33.8477 42.0733 34.3273 42.7559C35.0112 43.7285 34.9051 46.7105 38.55 49.9175C39.6074 50.8484 41.8574 52.109 43.73 52.3694C48.26 52.9987 53.2245 49.0023 54.5205 44.136C55.189 41.6258 56.931 42.3644 57.4658 39.4498C58.6821 32.8203 56.1051 35.074 55.8615 33.9394C55.4977 32.243 59.55 23.7674 52.0025 20.336C48.7029 18.8356 42.612 18.048 39.0494 19.5915C38.0948 20.0048 37.5445 20.6476 37.0245 21.4428C36.4736 22.2855 36.0192 22.6224 34.9888 23.1521C34.0599 23.6303 33.6581 24.2199 33.3823 25.4387C33.1804 26.3329 33.0873 27.9932 33.1747 28.9812V28.9812Z" clip-rule="evenodd"/><path fill="#fff" fill-rule="evenodd" d="M56.2866 70.4345C56.6048 73.4102 61.3527 73.114 61.046 69.878C60.9329 68.6829 59.8099 67.633 58.4002 67.7687C57.1814 67.8863 56.1323 68.9907 56.2866 70.4345Z" clip-rule="evenodd"/><path fill="#D2010D" fill-rule="evenodd" d="M69.2118 29.1824C69.3526 28.7735 68.9918 28.5383 68.691 28.2317C68.4383 27.9739 68.198 27.7385 67.9416 27.4833C67.4511 26.996 67.2164 26.7056 66.5652 27.4448L65.7995 28.204C65.3746 28.5923 65.0789 29.0294 65.0024 29.6516C64.951 30.083 65.0668 30.567 65.2596 30.8852C65.4364 31.1757 65.6858 31.5031 65.8845 31.7595L67.2369 33.4296C67.4747 33.7163 67.7217 33.951 67.9673 34.2235C68.9951 35.3671 70.6786 36.7966 71.9906 37.7158C72.33 37.9537 72.5486 38.1042 73.0519 38.1859C74.0316 38.3434 74.5897 37.8073 75.1271 37.2635C76.5272 35.846 76.5959 36.121 75.235 34.7659C75.0614 34.593 74.6481 34.1341 74.4521 34.0268C73.6639 33.5922 73.5206 35.1793 72.4497 34.7679C70.6665 34.0839 69.3808 32.8613 68.5785 31.1006C68.412 30.7355 68.2056 30.3402 68.5032 29.9712C68.6691 29.7661 69.1289 29.4208 69.2118 29.181V29.1824Z" clip-rule="evenodd"/><path fill="#D2010D" fill-rule="evenodd" d="M72.6756 27.4302C72.682 27.6281 72.695 28.6599 72.6628 28.7975C72.2251 28.8425 71.6426 28.7461 71.226 28.8232C70.9927 28.9531 71.0569 29.2083 71.0569 29.5175C71.0569 30.5653 70.9581 30.5435 71.7822 30.5435C72.0348 30.5435 72.4211 30.5178 72.6583 30.5499C72.684 30.9247 72.6602 31.3797 72.6615 31.7635C72.6627 32.2662 73.0768 32.148 73.5242 32.148C74.7385 32.148 74.3111 32.2058 74.4133 30.5511C75.0279 30.4586 75.8737 30.7216 75.9984 30.3365C76.0306 30.2311 76.0114 29.6191 76.0114 29.4545C76.0114 29.1594 76.0563 28.8508 75.7703 28.8046L74.4068 28.7981C74.3618 28.6085 74.3875 27.6984 74.3939 27.4496C74.381 27.0999 73.8841 27.1898 73.5421 27.1898C73.2245 27.1898 72.6936 27.0998 72.675 27.4321L72.6756 27.4302Z" clip-rule="evenodd"/></svg>