<svg width="100" height="101" viewBox="0 0 100 101" fill="none" xmlns="http://www.w3.org/2000/svg">
<path fill-rule="evenodd" clip-rule="evenodd" d="M50.0014 0.947266C77.6148 0.947266 100 23.3324 100 50.9465C100 78.5599 77.6148 100.945 50.0014 100.945C22.3873 100.945 0 78.5599 0 50.9465C0 23.3324 22.3873 0.947266 50.0014 0.947266Z" fill="#FF0000"/>
<path fill-rule="evenodd" clip-rule="evenodd" d="M49.4505 67.7795C47.9566 68.4185 46.1078 68.9693 44.5463 69.5145C42.9733 70.0647 41.2937 70.9075 39.9354 70.4267C38.4016 69.8841 38.0846 68.9802 37.4187 67.0748L28.7167 42.1761C27.5667 38.8861 26.4166 35.5961 25.266 32.3061C23.6852 27.7864 25.941 27.3949 29.5826 26.1215C31.1614 25.5693 43.4343 21.1542 44.4602 20.9948C47.8402 20.4709 48.5191 24.8152 49.5019 27.6289C50.6025 30.7775 60.7702 59.5673 60.7599 59.9858C60.747 60.5496 59.8542 61.074 59.1291 61.2739C56.8316 61.9071 53.0851 61.2805 51.1226 60.8704C49.3426 60.4975 44.1537 57.9403 41.4654 59.5024C39.3653 60.7232 40.9434 63.4095 42.6803 64.5795C43.8239 65.3496 44.9277 65.6503 46.0404 66.1948C46.7443 66.5393 49.0783 67.46 49.4505 67.7795V67.7795ZM62.9378 78.5127C62.9057 78.89 62.5611 79.063 62.4396 79.594C62.2403 80.4625 63.544 83.6573 63.7902 83.9742C64.3894 84.7463 65.133 84.8279 66.2271 84.446L75.6536 81.1503C78.0899 80.2992 79.7671 80.1964 78.77 77.3711C78.4846 76.5637 78.043 74.893 77.5063 74.4057C76.5472 73.536 76.5965 74.8498 76.0585 72.3492C75.6381 70.3937 75.1767 68.4216 74.7331 66.4263C73.9077 62.712 73.0051 58.6108 72.4889 54.8554C72.2478 53.0979 72.6611 48.9522 69.679 47.5361L67.5609 46.5589C66.3209 46.0119 64.325 44.8015 63.3524 44.3978L59.0944 42.3394C58.519 42.0719 58.5279 42.09 58.2714 41.3308L52.2115 23.9879C51.4035 21.675 51.0782 20.3431 49.3991 18.8916C45.8777 15.8472 42.4495 17.6522 38.9275 18.8851C34.7182 20.3559 30.5095 21.8293 26.2996 23.2975C24.0105 24.0959 23.0213 24.8415 21.9857 26.4428C21.2182 27.6308 20.7302 29.3788 21.0317 31.2533C21.249 32.6006 24.58 41.7152 25.2987 43.7716C28.2403 52.1901 31.1878 60.606 34.1249 69.0258C35.3636 72.5774 38.1663 74.8873 42.0798 74.2425C43.9633 73.9327 51.8046 70.849 54.5694 70.0063C55.1666 70.5096 56.6458 73.4189 60.8923 76.3457C61.3237 76.6427 61.6734 76.8601 62.1021 77.062C62.7006 77.3429 62.6801 77.776 62.9378 78.5146V78.5127Z" fill="white"/>
<path fill-rule="evenodd" clip-rule="evenodd" d="M35.8033 26.5834C37.0369 25.6185 38.2338 27.4531 37.2779 28.2856C36.016 29.3855 34.686 27.457 35.8033 26.5834ZM49.4499 67.7831C49.0777 67.4636 46.7436 66.5429 46.0397 66.1984C44.927 65.6539 43.8232 65.3532 42.6796 64.5831C40.9427 63.4131 39.3646 60.7268 41.4647 59.506C44.153 57.9439 49.3419 60.5011 51.1219 60.874C53.0844 61.2847 56.8309 61.9107 59.1284 61.2775C59.8535 61.0776 60.7451 60.5532 60.7592 59.9894C60.7721 59.5709 50.6018 30.7811 49.5013 27.6325C48.5184 24.8188 47.8395 20.4745 44.4595 20.9984C43.4336 21.1578 31.1607 25.5729 29.5819 26.1251C25.9403 27.3985 23.6846 27.79 25.2653 32.3097C26.4159 35.5997 27.566 38.8897 28.716 42.1798L37.418 67.0784C38.084 68.9838 38.4009 69.8877 39.9347 70.4303C41.293 70.9111 42.9727 70.0683 44.5457 69.5181C46.1071 68.973 47.9559 68.4221 49.4499 67.7831V67.7831Z" fill="#FF0000"/>
<path fill-rule="evenodd" clip-rule="evenodd" d="M35.6964 53.8739L39.5746 52.5452L38.5435 49.5488L34.6523 50.8673L35.6964 53.8739Z" fill="white"/>
<path fill-rule="evenodd" clip-rule="evenodd" d="M49.502 49.038L53.3435 47.7356L52.3124 44.7529C51.8496 44.7979 48.8783 45.8424 48.4766 46.0899L49.502 49.038Z" fill="white"/>
<path fill-rule="evenodd" clip-rule="evenodd" d="M42.6224 51.466L46.4523 50.1451L45.4226 47.125L41.5771 48.4486L42.6224 51.466Z" fill="white"/>
<path fill-rule="evenodd" clip-rule="evenodd" d="M50.3094 39.0723L46.4795 40.3662C46.7077 41.1878 47.0567 42.0865 47.328 42.8689C47.5478 43.5046 47.5548 43.3818 48.1945 43.1459L50.6965 42.2717C51.3464 42.0557 51.4087 42.1437 51.1869 41.5202C50.9041 40.725 50.6264 39.8437 50.3094 39.0723V39.0723Z" fill="white"/>
<path fill-rule="evenodd" clip-rule="evenodd" d="M33.7071 48.1768L37.5755 46.8493L36.5579 43.8672L32.6816 45.1876L33.7071 48.1768Z" fill="white"/>
<path fill-rule="evenodd" clip-rule="evenodd" d="M40.6313 45.7649L44.4471 44.4476L43.436 41.4443L39.6055 42.766L40.6313 45.7649Z" fill="white"/>
<path fill-rule="evenodd" clip-rule="evenodd" d="M30.6348 39.2646L31.6833 42.2306L35.4721 40.9064L34.4416 37.9854L30.6348 39.2646Z" fill="white"/>
<path fill-rule="evenodd" clip-rule="evenodd" d="M42.3804 38.4949L41.305 35.5752L37.6035 36.9161L38.616 39.8216L42.3804 38.4949Z" fill="white"/>
<path fill-rule="evenodd" clip-rule="evenodd" d="M45.4944 37.4015L49.2151 36.0979L48.1989 33.2012L44.4961 34.4677L45.4944 37.4015Z" fill="white"/>
<path fill-rule="evenodd" clip-rule="evenodd" d="M51.2637 54.0875L55.1097 52.7704L54.189 50.001L50.334 51.3381L51.2637 54.0875Z" fill="white"/>
<path fill-rule="evenodd" clip-rule="evenodd" d="M36.542 56.1595L37.4985 58.8574L41.2861 57.5338L40.3533 54.8789L36.542 56.1595Z" fill="white"/>
<path fill-rule="evenodd" clip-rule="evenodd" d="M35.8062 26.582C34.6889 27.4556 36.0189 29.3841 37.2808 28.2842C38.2367 27.4518 37.0398 25.6171 35.8062 26.582Z" fill="white"/>
</svg>
