<svg width="66" height="66" viewBox="0 0 66 66" fill="none" xmlns="http://www.w3.org/2000/svg">
<circle cx="33" cy="33" r="31" stroke="black" stroke-width="4"/>
<path d="M33.16 20.72C32.0747 20.72 31.1653 20.3827 30.432 19.708C29.728 19.004 29.376 18.1387 29.376 17.112C29.376 16.0853 29.728 15.2347 30.432 14.56C31.1653 13.856 32.0747 13.504 33.16 13.504C34.2453 13.504 35.14 13.856 35.844 14.56C36.5773 15.2347 36.944 16.0853 36.944 17.112C36.944 18.1387 36.5773 19.004 35.844 19.708C35.14 20.3827 34.2453 20.72 33.16 20.72ZM36.196 23.624V48H30.036V23.624H36.196Z" fill="black"/>
</svg>
