<svg width="35" height="11" viewBox="0 0 35 11" fill="none" xmlns="http://www.w3.org/2000/svg">
<path d="M3.36646 3.53263H2.79086L2.9399 2.67437H2.32319L2.17929 3.53263H1.5009L1.64994 2.67437H1.03323L0.889325 3.53263H0.308586V4.07226H0.796818L0.678615 4.7455H0.118432V5.28513H0.586107L0.442207 6.14853H1.05378L1.20282 5.28513H1.87607L1.73217 6.14853H2.34374L2.49278 5.28513H3.01699L3.16603 4.7455H2.58529L2.69835 4.07226H3.21742L3.36646 3.53263ZM1.40839 4.07226H2.08678L1.96858 4.7455H1.29533L1.40839 4.07226ZM6.29132 5.54209H6.01894C5.91101 5.54209 5.85448 5.50612 5.78767 5.41875L5.20179 4.68897L6.18339 3.46582H5.34055L4.59535 4.39603H4.38978V2.38143L3.67028 2.57159V6.14853H4.38978V5.00247H4.47201C4.5234 5.00247 4.56452 5.01789 4.60049 5.059L5.22235 5.84531C5.39194 6.05602 5.51529 6.14853 5.78253 6.14853H6.12172L6.29132 5.54209ZM7.93272 6.19992C8.22052 6.19992 8.56485 6.15367 8.82181 6.08172L8.76014 5.5164C8.54943 5.56265 8.27191 5.60376 7.99439 5.60376C7.50102 5.60376 7.20808 5.37764 7.20294 5.059H8.97085C8.99141 4.95108 9.00169 4.81745 9.00169 4.69411C9.00169 4.026 8.66764 3.41957 7.80938 3.41957C6.93056 3.41957 6.44232 4.026 6.44232 4.81745C6.44232 5.68599 6.92028 6.19992 7.93272 6.19992ZM7.77854 3.95405C8.12801 3.95405 8.27705 4.20588 8.27705 4.56049H7.21322C7.21836 4.19046 7.41879 3.95405 7.77854 3.95405ZM10.9039 6.19992C11.1917 6.19992 11.536 6.15367 11.793 6.08172L11.7313 5.5164C11.5206 5.56265 11.2431 5.60376 10.9655 5.60376C10.4722 5.60376 10.1792 5.37764 10.1741 5.059H11.942C11.9626 4.95108 11.9728 4.81745 11.9728 4.69411C11.9728 4.026 11.6388 3.41957 10.7805 3.41957C9.90171 3.41957 9.41348 4.026 9.41348 4.81745C9.41348 5.68599 9.89143 6.19992 10.9039 6.19992ZM10.7497 3.95405C11.0992 3.95405 11.2482 4.20588 11.2482 4.56049H10.1844C10.1895 4.19046 10.3899 3.95405 10.7497 3.95405ZM13.248 5.3468V4.63758C13.248 4.27783 13.5101 4.03114 13.9213 4.03114C14.281 4.03114 14.5945 4.27783 14.5945 4.78148C14.5945 5.32624 14.317 5.59349 13.8904 5.59349C13.6386 5.59349 13.3611 5.47528 13.248 5.3468ZM14.0549 3.41957C13.69 3.41957 13.356 3.56347 13.1504 3.74848L13.1195 3.46582H12.5285V7.33057L13.248 7.14041V6.00977C13.4073 6.11769 13.6797 6.19992 13.9572 6.19992C14.7281 6.19992 15.3294 5.71683 15.3294 4.76606C15.3294 3.91808 14.7744 3.41957 14.0549 3.41957ZM16.6005 5.60376C16.3332 5.60376 16.0197 5.53181 15.7679 5.43931L15.7114 6.05088C15.9992 6.14853 16.323 6.19992 16.693 6.19992C17.2635 6.19992 17.7877 5.94296 17.7877 5.29027C17.7877 4.92538 17.6129 4.69411 17.027 4.5091C16.7136 4.41145 16.4669 4.36006 16.4669 4.1956C16.4669 4.05684 16.6313 4.00031 16.9037 4.00031C17.1298 4.00031 17.3765 4.04142 17.5821 4.11337L17.6335 3.52235C17.3971 3.46068 17.135 3.41957 16.8523 3.41957C16.287 3.41957 15.7319 3.6457 15.7319 4.21616C15.7319 4.62216 15.9735 4.8894 16.544 5.05386C16.9654 5.1772 17.0579 5.23374 17.0579 5.36736C17.0579 5.50098 16.9345 5.60376 16.6005 5.60376ZM21.5541 4.14421C21.6209 4.23157 21.6312 4.35492 21.6312 4.56049V6.14853H22.3507V4.47826C22.3507 4.10309 22.3147 3.86155 22.14 3.66111C22.0269 3.52235 21.7751 3.41957 21.5027 3.41957C21.1789 3.41957 20.8037 3.56347 20.5159 3.7382C20.3566 3.53263 20.1048 3.41957 19.817 3.41957C19.4829 3.41957 19.1592 3.55833 18.9433 3.70223L18.9073 3.46582H18.2701V6.14853H18.9896V4.21102C19.154 4.09795 19.3699 4.03114 19.5498 4.03114C19.7039 4.03114 19.7964 4.0774 19.8581 4.15962C19.9301 4.25727 19.9506 4.37547 19.9506 4.56049V6.14853H20.6701V4.47312C20.6701 4.37547 20.6701 4.29839 20.665 4.20588C20.8243 4.10823 21.0658 4.03114 21.2303 4.03114C21.3742 4.03114 21.4873 4.06712 21.5541 4.14421ZM23.0282 6.14853H23.7477V3.46582H23.0282V6.14853ZM23.7528 2.21184L23.023 2.40199V3.06496H23.7528V2.21184ZM25.1881 2.38143L24.4686 2.57159V6.14853H25.1881V2.38143ZM25.909 6.14853H26.6285V3.46582H25.909V6.14853ZM26.6336 2.21184L25.9038 2.40199V3.06496H26.6336V2.21184ZM28.8809 3.41957C28.5982 3.41957 28.259 3.53777 28.0124 3.70223L27.9764 3.46582H27.3391V6.14853H28.0586V4.21102C28.2025 4.11337 28.4184 4.03114 28.6239 4.03114C28.7678 4.03114 28.8706 4.06198 28.9528 4.13393C29.0402 4.21102 29.0813 4.32408 29.0813 4.54507V6.14853H29.8008V4.46284C29.8008 4.10309 29.7237 3.85641 29.5696 3.68681C29.4102 3.51207 29.179 3.41957 28.8809 3.41957ZM33.0713 3.46582H32.5471L32.5009 3.74848C32.357 3.56347 32.0486 3.41957 31.7351 3.41957C30.8769 3.41957 30.327 4.02086 30.327 4.80204C30.327 5.6089 30.8409 6.17936 31.6426 6.17936C31.9356 6.17936 32.2028 6.07658 32.3775 5.9224V6.092C32.3775 6.55453 32.136 6.7858 31.6375 6.7858C31.4114 6.7858 31.1184 6.72927 30.918 6.65218L30.8512 7.2432C31.1081 7.32543 31.437 7.37682 31.7403 7.37682C32.5574 7.37682 33.0713 6.92456 33.0713 5.93268V3.46582ZM32.3518 5.38278C32.2336 5.49584 32.0281 5.58321 31.7814 5.58321C31.3702 5.58321 31.0619 5.29541 31.0619 4.79176C31.0619 4.32408 31.3445 4.01572 31.7814 4.01572C32.1 4.01572 32.3518 4.23671 32.3518 4.55535V5.38278Z" fill="white"/>
<path d="M28.7206 7.00514C27.9072 7.87821 26.9532 8.59942 25.889 9.08759C24.8282 9.57956 23.6668 9.83541 22.5001 9.83459C21.3334 9.83397 20.173 9.57658 19.1134 9.08368C18.0507 8.59449 17.0989 7.87277 16.2876 7L16 7.70785C16.6557 8.64093 17.5525 9.43684 18.5972 10.0095C19.7701 10.654 21.1356 11.0025 22.5001 11C23.8646 11.0009 25.2295 10.6509 26.4007 10.0056C27.4479 9.43006 28.3456 8.63004 29 7.69285L28.7206 7.00514Z" fill="white"/>
</svg>
