<svg width="255" height="101" viewBox="0 0 255 101" fill="none" xmlns="http://www.w3.org/2000/svg">
<path d="M56.4023 38.0904C53.8544 38.0904 52.0139 37.4504 50.9343 36.1899C49.7626 34.8245 49.4632 32.7005 50.0361 29.8848C51.0835 24.771 55.5244 17.1444 63.4943 17.1444C65.4223 17.1444 66.8602 17.6932 67.7675 18.7613C68.8287 20.0006 69.1502 21.9295 68.6887 24.2046C65.9989 37.4145 57.9821 38.0904 56.4023 38.0904V38.0904ZM63.7016 11.9873C53.006 11.9873 41.2483 18.3838 39.0799 29.1703C36.7751 40.6916 47.0359 43.1637 53.6185 43.2392C68.4308 43.4197 77.4406 34.5603 79.5142 25.5296C81.4956 16.8581 73.8435 11.9873 63.7016 11.9873V11.9873Z" fill="white"/>
<path d="M161.295 28.1499C155.702 28.7282 153.626 30.1783 153.153 32.8696C152.776 35.0205 154.167 37.0276 159.372 36.8029C162.412 36.6676 165.712 35.9283 168.038 34.7645L170.625 28.0025C166.749 27.7815 164.114 27.8673 161.295 28.1508V28.1499ZM152.998 12.9779C156.874 12.3564 160.538 11.6926 167.62 11.6926C179 11.6926 185.991 15.4621 182.726 23.9541C181.311 27.6187 179.857 31.4581 178.615 34.6973C176.89 39.2218 177.264 40.9472 177.621 42.5493C177.621 42.5493 174.939 41.5705 169.363 41.7298C164.374 41.8679 162.216 43.1451 154.038 43.1451C145.189 43.1451 141.952 38.7679 142.294 34.1357C142.605 30.0706 144.867 26.533 149.926 24.5193C153.277 23.1833 156.617 22.735 160.078 22.4662C165.42 22.0445 170.175 22.2765 172.763 22.4662C173.228 20.946 173.892 17.8459 166.39 17.7999C158.359 17.7373 152.872 19.1413 150.333 19.9286L152.999 12.9779H152.998Z" fill="white"/>
<path d="M116.11 37.3243C109.936 37.3243 110.498 31.3257 112.667 26.6447C115.45 20.646 121.069 17.9005 124.637 17.7698C127.301 17.6667 129.516 18.0736 131.296 19.7641C127.104 36.0455 118.624 37.3252 116.11 37.3252V37.3243ZM139.434 13.4874C134 13.4874 133.759 11.9995 124.919 11.9995C112.223 11.9995 101.785 21.3404 100.3 31.6499C99.8262 34.8983 100.742 37.8095 102.613 39.849C104.555 41.9685 107.486 42.7946 110.964 42.9511C116.11 43.1757 120.82 42.1481 125.331 39.2036C122.692 47.0344 113.68 48.6623 107.632 48.6255C104.68 48.608 101.447 48.4838 98.8912 47.2573L96.2383 53.9106C98.8912 54.6168 102.849 55.0789 106.018 55.0789C120.854 55.0789 130.396 49.7764 134.372 39.3417L144.504 12.667C144.504 12.667 141.487 13.4883 139.434 13.4883V13.4874Z" fill="white"/>
<path d="M35.4432 33.9397C33.5143 34.8577 28.844 36.2507 25.1492 36.2507C15.1786 36.2507 12.1249 30.2042 13.1852 24.3115C14.9336 14.5977 24.3064 7.22525 35.4229 7.22525C38.8515 7.22525 41.9272 7.87816 44.6649 9.00883L47.9102 2.6888C45.1715 1.4412 41.2898 0.667847 37.6742 0.667847C19.917 0.667847 3.30945 10.7895 0.954967 24.271C-1.11949 36.1744 9.16157 42.8036 21.7888 42.8036C25.1787 42.8036 28.938 42.2687 32.0635 41.5367L35.445 33.9406L35.4432 33.9397Z" fill="white"/>
<path d="M205.204 11.7629L207.431 5.79468L196.182 7.72733L194.644 11.7629H189.684L187.893 16.6898H192.809L186.897 31.313C185.383 35.0273 185.301 37.7462 186.66 39.6171C187.979 41.4439 190.614 42.3371 194.701 42.3371C196.99 42.3371 200.092 41.8647 202.517 41.2275L204.904 35.4691V35.4609C203.546 36.0197 201.36 36.5862 199.576 36.6515C198.31 36.7003 197.566 36.4231 197.108 35.8016C196.44 34.926 196.615 33.1673 197.574 30.7577C197.574 30.7577 202.458 18.7716 203.302 16.6898H210.705L212.597 11.7629H205.204H205.204Z" fill="white"/>
<path d="M231.539 16.8664C233.466 16.8664 234.808 17.3563 235.552 18.3221C236.426 19.4657 236.466 21.3274 235.677 23.7038H221.89C222.94 20.4342 226.016 16.8664 231.539 16.8664V16.8664ZM239.61 35.7333C236.654 37.1706 231.539 37.9487 228.128 37.9487C225.144 37.9487 222.713 36.955 221.273 35.1467C219.961 33.5041 219.627 31.3138 220.286 28.9337H244.55L244.667 28.6168C246.567 23.3345 246.333 18.7549 243.989 15.7119C241.854 12.9257 238.121 11.5114 232.972 11.5114C221.485 11.5114 211.71 17.9095 209.17 27.0663C207.891 31.6939 208.558 35.7535 211.087 38.803C213.876 42.1647 218.768 44.0144 224.858 44.0144C228.374 44.0144 232.615 43.3882 236.446 42.2364L239.61 35.7333V35.7333Z" fill="white"/>
<path d="M231.539 16.8664C233.466 16.8664 234.808 17.3563 235.552 18.3221C236.426 19.4657 236.466 21.3274 235.677 23.7038H221.89C222.94 20.4342 226.016 16.8664 231.539 16.8664V16.8664ZM239.61 35.7333C236.654 37.1706 231.539 37.9487 228.128 37.9487C225.144 37.9487 222.713 36.955 221.273 35.1467C219.961 33.5041 219.627 31.3138 220.286 28.9337H244.55L244.667 28.6168C246.567 23.3345 246.333 18.7549 243.989 15.7119C241.854 12.9257 238.121 11.5114 232.972 11.5114C221.485 11.5114 211.71 17.9095 209.17 27.0663C207.891 31.6939 208.558 35.7535 211.087 38.803C213.876 42.1647 218.768 44.0144 224.858 44.0144C228.374 44.0144 232.615 43.3882 236.446 42.2364L239.61 35.7333V35.7333Z" fill="white"/>
<path d="M249.826 9.93434H250.193C250.632 9.93434 250.939 9.72987 250.939 9.45366C250.939 9.12127 250.643 8.94456 250.243 8.94456C250.086 8.94456 249.918 8.97207 249.826 8.97207V9.93326V9.93434ZM249.784 12.2415H248.526V8.206C248.814 8.1572 249.471 8.05692 250.302 8.05692C251.225 8.05692 251.627 8.18118 251.936 8.38098C252.19 8.56328 252.371 8.86893 252.371 9.27221C252.371 9.68101 251.989 10.0356 251.429 10.1875V10.2336C251.879 10.3634 252.141 10.6974 252.265 11.2766C252.391 11.8622 252.47 12.0896 252.543 12.2406H251.147C251.017 12.0896 250.94 11.738 250.868 11.3789C250.793 10.9719 250.601 10.7675 250.193 10.7675H249.784V12.2406V12.2415ZM250.284 6.8857C248.502 6.8857 247.162 8.33318 247.162 10.1884C247.162 11.9848 248.502 13.4633 250.314 13.4633C252.164 13.4882 253.515 11.9847 253.515 10.1589C253.515 8.33315 252.164 6.8857 250.302 6.8857H250.284ZM250.396 5.79468C252.85 5.79468 254.836 7.74665 254.836 10.1589C254.836 12.6007 252.85 14.5536 250.314 14.5536C247.821 14.5536 245.821 12.6007 245.821 10.1589C245.821 7.74665 247.821 5.79468 250.314 5.79468H250.396Z" fill="white"/>
<path d="M94.6701 1.51941L78.7617 42.5503H89.3182L105.232 1.51941H94.6701Z" fill="white"/>
<path d="M189.999 56.5817L189.997 56.5808C181.429 66.2155 171.382 74.1761 160.172 79.5634C148.997 84.992 136.763 87.8161 124.475 87.8069C112.187 87.8004 99.9622 84.959 88.8023 79.5202C77.6066 74.1228 67.5825 66.1566 59.0351 56.5256L56.0054 64.3372C62.9122 74.6329 72.3587 83.4176 83.3638 89.7366C95.7175 96.8493 110.101 100.695 124.475 100.668C138.849 100.679 153.225 96.8162 165.563 89.6924C176.593 83.3421 186.049 74.5131 192.942 64.1714L189.999 56.5817V56.5817Z" fill="white"/>
<path d="M56.4023 38.0904C53.8544 38.0904 52.0139 37.4504 50.9343 36.1899C49.7626 34.8245 49.4632 32.7005 50.0361 29.8848C51.0835 24.771 55.5244 17.1444 63.4943 17.1444C65.4223 17.1444 66.8602 17.6932 67.7675 18.7613C68.8287 20.0006 69.1502 21.9295 68.6887 24.2046C65.9989 37.4145 57.9821 38.0904 56.4023 38.0904V38.0904ZM63.7016 11.9873C53.006 11.9873 41.2483 18.3838 39.0799 29.1703C36.7751 40.6916 47.0359 43.1637 53.6185 43.2392C68.4308 43.4197 77.4406 34.5603 79.5142 25.5296C81.4956 16.8581 73.8435 11.9873 63.7016 11.9873V11.9873Z" fill="white"/>
<path d="M161.295 28.1499C155.702 28.7282 153.626 30.1783 153.153 32.8696C152.776 35.0205 154.167 37.0276 159.372 36.8029C162.412 36.6676 165.712 35.9283 168.038 34.7645L170.625 28.0025C166.749 27.7815 164.114 27.8673 161.295 28.1508V28.1499ZM152.998 12.9779C156.874 12.3564 160.538 11.6926 167.62 11.6926C179 11.6926 185.991 15.4621 182.726 23.9541C181.311 27.6187 179.857 31.4581 178.615 34.6973C176.89 39.2218 177.264 40.9472 177.621 42.5493C177.621 42.5493 174.939 41.5705 169.363 41.7298C164.374 41.8679 162.216 43.1451 154.038 43.1451C145.189 43.1451 141.952 38.7679 142.294 34.1357C142.605 30.0706 144.867 26.533 149.926 24.5193C153.277 23.1833 156.617 22.735 160.078 22.4662C165.42 22.0445 170.175 22.2765 172.763 22.4662C173.228 20.946 173.892 17.8459 166.39 17.7999C158.359 17.7373 152.872 19.1413 150.333 19.9286L152.999 12.9779H152.998Z" fill="white"/>
<path d="M116.11 37.3243C109.936 37.3243 110.498 31.3257 112.667 26.6447C115.45 20.646 121.069 17.9005 124.637 17.7698C127.301 17.6667 129.516 18.0736 131.296 19.7641C127.104 36.0455 118.624 37.3252 116.11 37.3252V37.3243ZM139.434 13.4874C134 13.4874 133.759 11.9995 124.919 11.9995C112.223 11.9995 101.785 21.3404 100.3 31.6499C99.8262 34.8983 100.742 37.8095 102.613 39.849C104.555 41.9685 107.486 42.7946 110.964 42.9511C116.11 43.1757 120.82 42.1481 125.331 39.2036C122.692 47.0344 113.68 48.6623 107.632 48.6255C104.68 48.608 101.447 48.4838 98.8912 47.2573L96.2383 53.9106C98.8912 54.6168 102.849 55.0789 106.018 55.0789C120.854 55.0789 130.396 49.7764 134.372 39.3417L144.504 12.667C144.504 12.667 141.487 13.4883 139.434 13.4883V13.4874Z" fill="white"/>
<path d="M35.4432 33.9397C33.5143 34.8577 28.844 36.2507 25.1492 36.2507C15.1786 36.2507 12.1249 30.2042 13.1852 24.3115C14.9336 14.5977 24.3064 7.22525 35.4229 7.22525C38.8515 7.22525 41.9272 7.87816 44.6649 9.00883L47.9102 2.6888C45.1715 1.4412 41.2898 0.667847 37.6742 0.667847C19.917 0.667847 3.30945 10.7895 0.954967 24.271C-1.11949 36.1744 9.16157 42.8036 21.7888 42.8036C25.1787 42.8036 28.938 42.2687 32.0635 41.5367L35.445 33.9406L35.4432 33.9397Z" fill="white"/>
<path d="M205.204 11.7629L207.431 5.79468L196.182 7.72733L194.644 11.7629H189.684L187.893 16.6898H192.809L186.897 31.313C185.383 35.0273 185.301 37.7462 186.66 39.6171C187.979 41.4439 190.614 42.3371 194.701 42.3371C196.99 42.3371 200.092 41.8647 202.517 41.2275L204.904 35.4691V35.4609C203.546 36.0197 201.36 36.5862 199.576 36.6515C198.31 36.7003 197.566 36.4231 197.108 35.8016C196.44 34.926 196.615 33.1673 197.574 30.7577C197.574 30.7577 202.458 18.7716 203.302 16.6898H210.705L212.597 11.7629H205.204H205.204Z" fill="white"/>
<path d="M231.539 16.8664C233.466 16.8664 234.808 17.3563 235.552 18.3221C236.426 19.4657 236.466 21.3274 235.677 23.7038H221.89C222.94 20.4342 226.016 16.8664 231.539 16.8664V16.8664ZM239.61 35.7333C236.654 37.1706 231.539 37.9487 228.128 37.9487C225.144 37.9487 222.713 36.955 221.273 35.1467C219.961 33.5041 219.627 31.3138 220.286 28.9337H244.55L244.667 28.6168C246.567 23.3345 246.333 18.7549 243.989 15.7119C241.854 12.9257 238.121 11.5114 232.972 11.5114C221.485 11.5114 211.71 17.9095 209.17 27.0663C207.891 31.6939 208.558 35.7535 211.087 38.803C213.876 42.1647 218.768 44.0144 224.858 44.0144C228.374 44.0144 232.615 43.3882 236.446 42.2364L239.61 35.7333V35.7333Z" fill="white"/>
<path d="M231.539 16.8664C233.466 16.8664 234.808 17.3563 235.552 18.3221C236.426 19.4657 236.466 21.3274 235.677 23.7038H221.89C222.94 20.4342 226.016 16.8664 231.539 16.8664V16.8664ZM239.61 35.7333C236.654 37.1706 231.539 37.9487 228.128 37.9487C225.144 37.9487 222.713 36.955 221.273 35.1467C219.961 33.5041 219.627 31.3138 220.286 28.9337H244.55L244.667 28.6168C246.567 23.3345 246.333 18.7549 243.989 15.7119C241.854 12.9257 238.121 11.5114 232.972 11.5114C221.485 11.5114 211.71 17.9095 209.17 27.0663C207.891 31.6939 208.558 35.7535 211.087 38.803C213.876 42.1647 218.768 44.0144 224.858 44.0144C228.374 44.0144 232.615 43.3882 236.446 42.2364L239.61 35.7333V35.7333Z" fill="white"/>
<path d="M249.826 9.93434H250.193C250.632 9.93434 250.939 9.72987 250.939 9.45366C250.939 9.12127 250.643 8.94456 250.243 8.94456C250.086 8.94456 249.918 8.97207 249.826 8.97207V9.93326V9.93434ZM249.784 12.2415H248.526V8.206C248.814 8.1572 249.471 8.05692 250.302 8.05692C251.225 8.05692 251.627 8.18118 251.936 8.38098C252.19 8.56328 252.371 8.86893 252.371 9.27221C252.371 9.68101 251.989 10.0356 251.429 10.1875V10.2336C251.879 10.3634 252.141 10.6974 252.265 11.2766C252.391 11.8622 252.47 12.0896 252.543 12.2406H251.147C251.017 12.0896 250.94 11.738 250.868 11.3789C250.793 10.9719 250.601 10.7675 250.193 10.7675H249.784V12.2406V12.2415ZM250.284 6.8857C248.502 6.8857 247.162 8.33318 247.162 10.1884C247.162 11.9848 248.502 13.4633 250.314 13.4633C252.164 13.4882 253.515 11.9847 253.515 10.1589C253.515 8.33315 252.164 6.8857 250.302 6.8857H250.284ZM250.396 5.79468C252.85 5.79468 254.836 7.74665 254.836 10.1589C254.836 12.6007 252.85 14.5536 250.314 14.5536C247.821 14.5536 245.821 12.6007 245.821 10.1589C245.821 7.74665 247.821 5.79468 250.314 5.79468H250.396Z" fill="white"/>
<path d="M94.6701 1.51941L78.7617 42.5503H89.3182L105.232 1.51941H94.6701Z" fill="white"/>
<path d="M189.999 56.5817L189.997 56.5808C181.429 66.2155 171.382 74.1761 160.172 79.5634C148.997 84.992 136.763 87.8161 124.475 87.8069C112.187 87.8004 99.9622 84.959 88.8023 79.5202C77.6066 74.1228 67.5825 66.1566 59.0351 56.5256L56.0054 64.3372C62.9122 74.6329 72.3587 83.4176 83.3638 89.7366C95.7175 96.8493 110.101 100.695 124.475 100.668C138.849 100.679 153.225 96.8162 165.563 89.6924C176.593 83.3421 186.049 74.5131 192.942 64.1714L189.999 56.5817V56.5817Z" fill="white"/>
</svg>
