<svg width="862" height="802" viewBox="0 0 862 802" fill="none" xmlns="http://www.w3.org/2000/svg">
<rect width="862" height="802" fill="white"/>
<path d="M272.48 383.328H262.256V421.704C262.256 428.544 265.28 432 272.048 432H291.848L294.296 423.144H277.232C273.704 423.144 272.48 422.208 272.48 418.464V383.328ZM338.078 413.208C338.078 401.112 330.446 393.768 318.35 393.768C306.254 393.768 298.622 401.184 298.622 413.28C298.622 425.376 305.894 432.72 318.35 432.72C330.446 432.72 338.078 425.304 338.078 413.208ZM327.782 413.28C327.782 420.696 323.822 424.512 318.422 424.512C313.022 424.512 308.918 420.696 308.918 413.28C308.918 405.864 312.95 401.976 318.35 401.976C323.75 401.976 327.782 405.864 327.782 413.28ZM374.309 394.416H366.461L358.469 417.816H358.181L351.413 394.416H340.397L353.429 432H361.925L370.205 408.168H370.565L378.773 432H387.125L400.373 394.416H389.357L382.805 417.816H382.517L374.309 394.416ZM423.565 432.72C427.597 432.72 432.421 432.072 436.021 431.064L435.157 423.144C432.205 423.792 428.317 424.368 424.429 424.368C417.517 424.368 413.413 421.2 413.341 416.736H438.109C438.397 415.224 438.541 413.352 438.541 411.624C438.541 402.264 433.861 393.768 421.837 393.768C409.525 393.768 402.685 402.264 402.685 413.352C402.685 425.52 409.381 432.72 423.565 432.72ZM421.405 401.256C426.301 401.256 428.389 404.784 428.389 409.752H413.485C413.557 404.568 416.365 401.256 421.405 401.256ZM454.966 394.416H446.326V432H456.406V407.088C460.078 405 464.542 403.56 468.862 403.272L469.222 393.696C463.894 394.272 459.214 396.432 455.614 399.456L454.966 394.416ZM491.048 433.512C491.048 438.408 489.536 440.712 485.792 440.712C484.424 440.712 482.552 440.424 481.112 439.992L480.392 448.272C482.408 448.848 484.928 449.208 487.016 449.208C496.376 449.208 501.128 443.952 501.128 432.504V394.416H491.048V433.512ZM501.2 376.848L490.976 379.512V388.8H501.2V376.848ZM508.348 419.904C508.348 427.248 513.964 432.72 522.244 432.72C526.852 432.72 530.38 431.064 532.9 428.4H533.044C533.188 429.768 533.332 430.776 533.548 432H542.26C542.116 429.624 542.116 427.032 542.116 424.512V407.16C542.116 397.872 536.284 393.768 526.348 393.768C521.308 393.768 515.548 394.632 511.876 395.64L512.524 403.632C516.196 402.696 520.3 402.12 523.684 402.12C529.444 402.12 532.036 403.704 532.036 407.592V409.248C530.596 409.104 528.508 408.96 526.564 408.96H524.116C512.596 408.96 508.348 412.848 508.348 419.904ZM532.036 419.4C532.036 420.84 531.532 422.064 530.452 423.072C529.156 424.224 527.428 424.944 524.836 424.944C521.164 424.944 518.644 423.072 518.644 419.832C518.644 417.312 520.444 415.944 523.324 415.944H532.036V419.4ZM579.481 394.416H571.633L563.641 417.816H563.353L556.585 394.416H545.569L558.601 432H567.097L575.377 408.168H575.737L583.945 432H592.297L605.545 394.416H594.529L587.977 417.816H587.689L579.481 394.416Z" fill="black" fill-opacity="0.5"/>
</svg>
