<svg width="696" height="746" viewBox="0 0 696 746" fill="none" xmlns="http://www.w3.org/2000/svg">
<path d="M380.781 523.404C343.573 516.318 322.925 505.611 293.507 490.201L291.807 488.554L289.223 489.963C288.222 490.509 285.866 491.443 282.137 492.711C278.516 493.942 273.871 495.399 268.504 497.007C257.776 500.221 244.273 504.003 230.528 507.729C207.734 513.908 184.403 519.897 172.076 522.857C174.948 510.747 180.911 488.054 187.108 465.568C190.847 452.002 194.655 438.571 197.893 427.679C201.162 416.679 203.775 408.53 205.139 405.331L205.913 403.514L204.941 401.795C172.47 344.324 156.867 282.706 173.778 206.739C209.654 45.5659 391.032 -43.3817 543.942 30.0764C557.129 36.4112 571.202 44.9062 581.379 52.3549C581.842 52.6936 582.305 53.0322 582.768 53.3708C588.173 57.3212 593.562 61.2601 598.116 65.3578C614.375 80.3241 629.196 94.3415 642.051 112.598C668.984 150.849 686.641 193.768 690.675 243.49C698.848 344.244 649.539 435.637 572.97 485.082C548.604 500.817 521.719 513.503 489.28 520.972L490.178 524.87L489.28 520.972C453.861 529.129 417.085 530.318 380.781 523.404Z" fill="#E40001" stroke="white" stroke-width="8"/>
<path fill-rule="evenodd" clip-rule="evenodd" d="M352.088 89.0066C306.324 97.2659 315.855 167.378 327.58 198.532C339.164 229.307 346.115 218.75 348.172 256.946C349.357 278.97 349.899 302.835 360.524 322.851C374.532 349.242 394.956 333.96 401.089 310.418C405.105 295.007 408.267 260.774 421.074 251.409C457.715 224.612 443.271 347.287 485.496 334.906C502.108 330.036 506.764 293.822 508.575 279.516C513.035 244.259 504.598 247.117 521.444 213.508C555.273 146.02 550.136 62.1738 456.868 96.1365C405.588 114.81 484.67 104.738 470.352 119.905C456.367 134.721 379.809 84.0025 352.087 89.0052L352.088 89.0066Z" fill="white"/>
<path fill-rule="evenodd" clip-rule="evenodd" d="M315.23 224.985C314.79 223.967 314.543 222.821 314.543 221.611C314.543 217.348 317.612 213.892 321.4 213.892C325.186 213.892 328.257 217.348 328.257 221.611C328.257 225.524 325.669 228.756 322.318 229.261C291.78 308.876 369.277 368.445 440.173 365.349C499.786 362.745 568.845 305.496 531.588 243.969C530.774 244.353 529.88 244.564 528.943 244.564C525.156 244.564 522.086 241.108 522.086 236.844C522.086 232.581 525.156 229.125 528.943 229.125C532.729 229.125 535.8 232.581 535.8 236.844C535.8 237.262 535.771 237.669 535.714 238.069L536.179 238.928C569.287 304.156 521.018 345.812 480.254 364.722C419.792 392.771 278.378 349.346 315.233 224.985H315.23Z" fill="white"/>
<path d="M37.6881 511.695L16.4211 472.66H5.38385V533.321H17.6774V499.132L33.0219 525.963H42.444L57.6091 499.94V533.321H69.9027V472.66H59.2243L38.2265 511.695H37.6881Z" fill="white"/>
<path d="M127.076 486.48H113.077L102.758 516.002H102.399L91.0925 486.48H77.0043L96.4766 531.795L87.3237 552.344L98.7199 555.126L127.076 486.48Z" fill="white"/>
<path d="M52.2252 559.749H0V570.786H18.9339V620.409H31.8556V570.786H49.1743L52.2252 559.749Z" fill="white"/>
<path d="M101.455 596.988C101.455 581.913 91.9431 572.76 76.8678 572.76C61.7924 572.76 52.2806 582.003 52.2806 597.078C52.2806 612.154 61.3438 621.306 76.8678 621.306C91.9431 621.306 101.455 612.064 101.455 596.988ZM88.6229 597.078C88.6229 606.321 83.6875 611.077 76.9575 611.077C70.2274 611.077 65.1126 606.321 65.1126 597.078C65.1126 587.836 70.1377 582.99 76.8678 582.99C83.5978 582.99 88.6229 587.836 88.6229 597.078Z" fill="white"/>
<path d="M157.802 596.988C157.802 581.913 148.29 572.76 133.214 572.76C118.139 572.76 108.627 582.003 108.627 597.078C108.627 612.154 117.69 621.306 133.214 621.306C148.29 621.306 157.802 612.064 157.802 596.988ZM144.97 597.078C144.97 606.321 140.034 611.077 133.304 611.077C126.574 611.077 121.459 606.321 121.459 597.078C121.459 587.836 126.484 582.99 133.214 582.99C139.944 582.99 144.97 587.836 144.97 597.078Z" fill="white"/>
<path d="M193.33 584.785L195.573 574.196H179.331V561.364L166.769 563.248V604.436C166.769 617.179 173.319 620.768 183.549 620.768C187.497 620.768 191.984 620.23 194.855 619.243L194.227 609.372C192.253 609.82 189.202 610.09 186.061 610.09C181.395 610.09 179.331 607.667 179.331 602.193V584.785H193.33Z" fill="white"/>
<path d="M230.949 572.76C226.283 572.76 220.809 574.555 216.591 577.157V554.634L204.029 557.954V620.409H216.591V586.579C219.104 584.874 222.873 583.439 226.462 583.439C228.975 583.439 230.769 583.977 232.205 585.233C233.731 586.579 234.448 588.553 234.448 592.412V620.409H247.011V590.976C247.011 584.695 245.665 580.388 242.973 577.426C240.191 574.375 236.153 572.76 230.949 572.76Z" fill="white"/>
<path d="M259.338 559.749V620.409H282.131C292.361 620.409 300.616 617.627 306.269 612.423C312.102 607.039 314.974 599.142 314.974 589.451C314.974 579.939 312.461 572.85 307.705 568.094C301.872 562.261 293.258 559.749 280.875 559.749H259.338ZM301.872 589.541C301.872 595.553 300.167 600.757 296.937 604.167C293.617 607.667 289.579 609.372 282.31 609.372H272.081V570.786H282.759C289.22 570.786 294.245 572.042 297.745 575.721C300.526 578.593 301.872 582.631 301.872 589.541Z" fill="white"/>
<path d="M371.709 596.988C371.709 581.913 362.197 572.76 347.122 572.76C332.046 572.76 322.534 582.003 322.534 597.078C322.534 612.154 331.598 621.306 347.122 621.306C362.197 621.306 371.709 612.064 371.709 596.988ZM358.877 597.078C358.877 606.321 353.941 611.077 347.211 611.077C340.481 611.077 335.366 606.321 335.366 597.078C335.366 587.836 340.391 582.99 347.122 582.99C353.852 582.99 358.877 587.836 358.877 597.078Z" fill="white"/>
<path d="M417.377 608.744C414.416 610 410.557 610.807 406.34 610.807C398.174 610.807 391.713 606.141 391.713 596.899C391.713 587.566 398.264 583.259 406.16 583.259C410.288 583.259 414.147 584.067 416.749 585.054L418.185 574.734C413.788 573.388 409.211 572.76 405.083 572.76C390.008 572.76 378.881 581.823 378.881 597.078C378.881 612.423 389.38 621.306 404.904 621.306C410.198 621.306 415.403 620.319 418.454 618.884L417.377 608.744Z" fill="white"/>
<path d="M445.603 370.25C451.335 390.964 436.802 395.991 421.843 401.163C408.658 405.721 395.067 410.422 400.641 429.577C403.329 438.817 408.006 446.46 413.848 451.805C418.825 456.358 424.652 459.235 430.794 459.98C436.909 460.721 443.39 459.345 449.709 455.402C456.791 450.983 463.681 443.363 469.695 431.931C472.235 427.099 475.282 421.878 479.213 416.418C483.144 410.96 487.936 405.303 493.951 399.631C503.174 390.931 513.674 385.213 525.918 384.464C538.032 383.722 551.697 387.881 567.302 398.9L563.771 403.918C549.402 393.772 537.047 389.927 526.279 390.587C515.641 391.239 506.384 396.334 498.154 404.098C492.43 409.497 487.893 414.848 484.185 419.997C480.48 425.145 477.57 430.139 475.123 434.791C468.568 447.251 460.91 455.648 452.951 460.616C445.375 465.342 437.531 466.984 430.075 466.08C422.646 465.179 415.646 461.745 409.719 456.321C403.067 450.233 397.767 441.622 394.759 431.283C387.56 406.543 403.951 400.874 419.852 395.376C432.048 391.159 443.897 387.061 439.698 371.884L445.606 370.25H445.603Z" fill="white"/>
<path d="M566.873 422.619C578.124 422.619 587.244 413.499 587.244 402.248C587.244 390.997 578.124 381.876 566.873 381.876C555.622 381.876 546.501 390.997 546.501 402.248C546.501 413.499 555.622 422.619 566.873 422.619Z" fill="#E60000"/>
<path fill-rule="evenodd" clip-rule="evenodd" d="M566.873 384.95C557.319 384.95 549.575 392.694 549.575 402.248C549.575 411.801 557.319 419.545 566.873 419.545C576.426 419.545 584.17 411.801 584.17 402.248C584.17 392.694 576.426 384.95 566.873 384.95ZM543.427 402.248C543.427 389.299 553.924 378.802 566.873 378.802C579.821 378.802 590.318 389.299 590.318 402.248C590.318 415.196 579.821 425.693 566.873 425.693C553.924 425.693 543.427 415.196 543.427 402.248Z" fill="white"/>
<path d="M263.219 701.661C261.413 701.661 260.111 701.209 259.347 700.315C258.516 699.348 258.305 697.843 258.71 695.849C259.452 692.227 262.596 686.824 268.24 686.824C269.605 686.824 270.624 687.212 271.267 687.969C272.018 688.847 272.246 690.213 271.92 691.825C270.015 701.185 264.336 701.661 263.219 701.661ZM268.387 683.169C260.813 683.169 252.487 687.7 250.952 695.342C249.32 703.503 256.585 705.256 261.247 705.308C271.736 705.436 278.117 699.16 279.584 692.762C280.986 686.619 275.569 683.169 268.386 683.169H268.387Z" fill="white"/>
<path d="M337.496 694.62C333.536 695.03 332.065 696.056 331.731 697.963C331.464 699.486 332.449 700.909 336.134 700.749C338.288 700.653 340.624 700.129 342.271 699.304L344.103 694.514C341.358 694.358 339.492 694.419 337.496 694.62ZM331.621 683.87C334.367 683.43 336.96 682.959 341.976 682.959C350.033 682.959 354.985 685.629 352.673 691.646C351.671 694.243 350.641 696.963 349.762 699.257C348.54 702.461 348.806 703.685 349.058 704.82C349.058 704.82 347.159 704.127 343.211 704.239C339.678 704.337 338.15 705.241 332.358 705.241C326.092 705.241 323.8 702.141 324.042 698.858C324.263 695.978 325.863 693.471 329.446 692.046C331.819 691.099 334.185 690.782 336.634 690.59C340.416 690.291 343.784 690.456 345.617 690.59C345.946 689.514 346.415 687.318 341.104 687.285C335.417 687.24 331.53 688.235 329.732 688.794L331.62 683.869L331.621 683.87Z" fill="white"/>
<path d="M305.5 701.12C301.127 701.12 301.525 696.87 303.061 693.554C305.032 689.303 309.011 687.36 311.536 687.266C313.423 687.192 314.992 687.481 316.252 688.678C313.284 700.213 307.279 701.12 305.498 701.12H305.5ZM322.015 684.232C318.168 684.232 317.996 683.177 311.736 683.177C302.746 683.177 295.354 689.796 294.303 697.099C293.968 699.4 294.616 701.463 295.941 702.908C297.316 704.41 299.391 704.994 301.855 705.106C305.5 705.265 308.834 704.537 312.029 702.45C310.16 707.998 303.777 709.151 299.495 709.125C297.405 709.112 295.115 709.024 293.305 708.156L291.426 712.87C293.305 713.371 296.107 713.697 298.351 713.697C308.858 713.697 315.613 709.941 318.43 702.548L325.604 683.65C325.604 683.65 323.468 684.232 322.014 684.232H322.015Z" fill="white"/>
<path d="M248.376 698.721C247.01 699.371 243.703 700.359 241.086 700.359C234.026 700.359 231.864 696.075 232.615 691.9C233.852 685.019 240.49 679.795 248.362 679.795C250.79 679.795 252.967 680.257 254.907 681.059L257.205 676.582C255.265 675.696 252.517 675.151 249.956 675.151C237.383 675.151 225.622 682.321 223.954 691.871C222.485 700.304 229.765 705 238.706 705C241.106 705 243.77 704.622 245.983 704.102L248.378 698.719L248.376 698.721Z" fill="white"/>
<path d="M368.589 683.01L370.166 678.781L362.2 680.15L361.111 683.01H357.599L356.331 686.5H359.813L355.628 696.861C354.554 699.492 354.497 701.419 355.459 702.743C356.393 704.037 358.259 704.67 361.153 704.67C362.773 704.67 364.97 704.335 366.687 703.884L368.378 699.804V699.798C367.416 700.194 365.868 700.596 364.605 700.642C363.708 700.676 363.182 700.48 362.857 700.04C362.383 699.419 362.508 698.174 363.186 696.467C363.186 696.467 366.645 687.975 367.242 686.5H372.484L373.823 683.01H368.588H368.589Z" fill="white"/>
<path d="M387.238 686.624C388.603 686.624 389.553 686.971 390.08 687.656C390.7 688.466 390.727 689.784 390.168 691.468H380.406C381.149 689.152 383.329 686.624 387.238 686.624ZM392.954 699.99C390.86 701.008 387.238 701.56 384.823 701.56C382.71 701.56 380.989 700.857 379.969 699.574C379.039 698.412 378.804 696.859 379.27 695.173H396.453L396.537 694.949C397.883 691.207 397.717 687.962 396.058 685.806C394.546 683.831 391.903 682.829 388.256 682.829C380.122 682.829 373.201 687.362 371.401 693.848C370.496 697.127 370.968 700.003 372.759 702.164C374.733 704.545 378.197 705.857 382.51 705.857C384.999 705.857 388.002 705.413 390.716 704.597L392.957 699.989L392.954 699.99Z" fill="white"/>
<path d="M400.189 681.713H400.449C400.76 681.713 400.978 681.568 400.978 681.373C400.978 681.138 400.768 681.012 400.484 681.012C400.373 681.012 400.254 681.033 400.189 681.033V681.713ZM400.159 683.348H399.269V680.488C399.471 680.455 399.938 680.383 400.526 680.383C401.18 680.383 401.464 680.471 401.684 680.612C401.863 680.741 401.992 680.958 401.992 681.245C401.992 681.534 401.721 681.787 401.324 681.893V681.925C401.642 682.018 401.828 682.253 401.915 682.665C402.004 683.079 402.061 683.241 402.113 683.349H401.125C401.033 683.242 400.979 682.992 400.927 682.738C400.874 682.449 400.738 682.305 400.449 682.305H400.159V683.349V683.348ZM400.513 679.552C399.25 679.552 398.303 680.578 398.303 681.892C398.303 683.164 399.252 684.211 400.534 684.211C401.844 684.229 402.8 683.164 402.8 681.87C402.8 680.576 401.844 679.551 400.524 679.551H400.513V679.552ZM400.594 678.78C402.331 678.78 403.736 680.162 403.736 681.872C403.736 683.602 402.331 684.984 400.534 684.984C398.768 684.984 397.353 683.6 397.353 681.872C397.353 680.162 398.768 678.78 400.534 678.78H400.594Z" fill="white"/>
<path d="M290.317 675.753L279.051 704.821H286.526L297.795 675.753H290.317Z" fill="white"/>
<path d="M357.823 714.761H357.822C351.753 721.587 344.639 727.226 336.701 731.043C328.788 734.889 320.124 736.889 311.423 736.883C302.722 736.879 294.064 734.866 286.162 731.013C278.235 727.189 271.135 721.545 265.083 714.722L262.936 720.257C267.826 727.551 274.517 733.774 282.31 738.251C291.058 743.29 301.243 746.015 311.422 745.995C321.6 746.002 331.78 743.267 340.518 738.219C348.328 733.719 355.025 727.466 359.906 720.138L357.822 714.761H357.823Z" fill="white"/>
<path d="M196.822 659.126C196.822 653.569 193.304 650.642 189.325 650.642C187.122 650.642 185.215 651.399 183.965 652.451V644L179.362 645.217V667.018C181.433 667.873 184.36 668.432 187.155 668.432C192.942 668.432 196.822 665.209 196.822 659.126ZM183.965 663.927V658.764C183.965 657.087 184.327 656.101 185.018 655.476C185.642 654.884 186.596 654.457 187.977 654.457C190.443 654.457 192.12 656.265 192.12 659.488C192.12 662.546 190.64 664.486 187.582 664.486C186.136 664.486 184.853 664.256 183.965 663.927Z" fill="white"/>
<path d="M215.74 650.938H210.61L206.829 661.757H206.697L202.554 650.938H197.391L204.527 667.544L201.173 675.074L205.349 676.093L215.74 650.938Z" fill="white"/>
</svg>
