<svg width="45" height="46" viewBox="0 0 45 46" fill="none" xmlns="http://www.w3.org/2000/svg">
<path fill-rule="evenodd" clip-rule="evenodd" d="M22.5314 1.60986C34.4229 1.60986 44.0629 11.2498 44.0629 23.1413C44.0629 35.0327 34.4229 44.6727 22.5314 44.6727C10.64 44.6727 1 35.0327 1 23.1413C1 11.2498 10.64 1.60986 22.5314 1.60986Z" fill="#F11A1E" stroke="white" stroke-width="1.31569" stroke-miterlimit="22.9256"/>
<path d="M17.0176 26.392C16.8207 26.392 16.6785 26.3425 16.5952 26.2451C16.5046 26.1396 16.4815 25.9754 16.5257 25.7576C16.6066 25.3624 16.9497 24.7729 17.5655 24.7729C17.7145 24.7729 17.8256 24.8152 17.8957 24.8979C17.9778 24.9935 18.0025 25.1426 17.9671 25.3185C17.7591 26.3397 17.1397 26.392 17.0176 26.392ZM17.5815 24.3742C16.7552 24.3742 15.8467 24.8687 15.6791 25.7025C15.501 26.5931 16.2939 26.7842 16.8025 26.7901C17.947 26.8041 18.6432 26.1193 18.8034 25.4211C18.9564 24.7508 18.3652 24.3742 17.5814 24.3742H17.5815Z" fill="white"/>
<path d="M25.1226 25.6236C24.6904 25.6683 24.5299 25.7804 24.4935 25.9885C24.4643 26.1548 24.5718 26.3099 24.974 26.2925C25.2089 26.2821 25.464 26.2249 25.6436 26.1349L25.8435 25.6122C25.544 25.5952 25.3404 25.6018 25.1226 25.6237V25.6236ZM24.4815 24.4508C24.781 24.4027 25.0641 24.3514 25.6113 24.3514C26.4906 24.3514 27.0307 24.6428 26.7785 25.2994C26.6692 25.5826 26.5568 25.8794 26.4607 26.1298C26.3275 26.4796 26.3565 26.613 26.384 26.7367C26.384 26.7367 26.1767 26.6612 25.7459 26.6734C25.3604 26.6841 25.1937 26.7828 24.5618 26.7828C23.878 26.7828 23.6279 26.4443 23.6542 26.0863C23.6784 25.7721 23.8531 25.4986 24.244 25.343C24.5029 25.2397 24.761 25.2051 25.0284 25.1842C25.4412 25.1516 25.8087 25.1696 26.0085 25.1842C26.0446 25.0667 26.0958 24.827 25.5161 24.8234C24.8955 24.8185 24.4716 24.9271 24.2753 24.988L24.4814 24.4508H24.4815Z" fill="white"/>
<path d="M21.6313 26.3329C21.154 26.3329 21.1975 25.8692 21.3651 25.5074C21.5802 25.0437 22.0143 24.8315 22.29 24.8212C22.496 24.8133 22.6671 24.8447 22.8047 24.9754C22.4807 26.234 21.8256 26.333 21.6314 26.333L21.6313 26.3329ZM23.4334 24.4903C23.0135 24.4903 22.9949 24.3752 22.3117 24.3752C21.3309 24.3752 20.5243 25.0973 20.4096 25.8942C20.373 26.1453 20.4438 26.3705 20.5884 26.5281C20.7384 26.692 20.9648 26.7557 21.2337 26.7678C21.6314 26.7851 21.9952 26.7057 22.3437 26.4781C22.1398 27.0836 21.4434 27.2093 20.9761 27.2065C20.7481 27.2051 20.4982 27.1955 20.3009 27.1008L20.0958 27.6152C20.3009 27.6697 20.6067 27.7054 20.8515 27.7054C21.9978 27.7054 22.735 27.2955 23.0423 26.4888L23.8253 24.4267C23.8253 24.4267 23.5921 24.4904 23.4335 24.4904L23.4334 24.4903Z" fill="white"/>
<path d="M15.3982 26.0711C15.2491 26.1422 14.8882 26.2499 14.6027 26.2499C13.8323 26.2499 13.5963 25.7824 13.6783 25.3269C13.8134 24.576 14.5376 24.006 15.3964 24.006C15.6613 24.006 15.8991 24.0564 16.1105 24.1439L16.3612 23.6552C16.1496 23.5588 15.8497 23.499 15.5703 23.499C14.1982 23.499 12.915 24.2815 12.733 25.3237C12.5727 26.2438 13.3672 26.7562 14.3428 26.7562C14.6047 26.7562 14.8952 26.7149 15.1368 26.6584L15.398 26.0711H15.3982Z" fill="white"/>
<path d="M28.5151 24.3568L28.6872 23.8955L27.8181 24.0449L27.6992 24.3568H27.316L27.1776 24.7377H27.5575L27.1008 25.8681C26.9837 26.1552 26.9774 26.3655 27.0824 26.5101C27.1842 26.6512 27.388 26.7203 27.7037 26.7203C27.8806 26.7203 28.1203 26.6838 28.3076 26.6346L28.4921 26.1894V26.1888C28.3873 26.2321 28.2183 26.2758 28.0806 26.2808C27.9827 26.2847 27.9252 26.2632 27.8897 26.2152C27.8381 26.1473 27.8517 26.0114 27.9259 25.8252C27.9259 25.8252 28.3031 24.8987 28.3684 24.7377H28.9403L29.0864 24.3568H28.5152H28.5151Z" fill="white"/>
<path d="M30.5499 24.7513C30.6988 24.7513 30.8026 24.7892 30.8601 24.8637C30.9277 24.9521 30.9308 25.0961 30.8698 25.2798H29.8044C29.8855 25.0271 30.1233 24.7513 30.5499 24.7513ZM31.1737 26.2098C30.9453 26.3208 30.5499 26.3811 30.2866 26.3811C30.056 26.3811 29.8682 26.3043 29.7569 26.1644C29.6555 26.0375 29.6298 25.8681 29.6806 25.6841H31.5554L31.5645 25.6596C31.7113 25.2513 31.6933 24.8973 31.5121 24.662C31.3471 24.4466 31.0588 24.3372 30.6609 24.3372C29.7733 24.3372 29.018 24.8319 28.8217 25.5397C28.7229 25.8974 28.7743 26.2112 28.9699 26.447C29.1854 26.7068 29.5633 26.8499 30.0338 26.8499C30.3055 26.8499 30.6332 26.8014 30.9292 26.7124L31.1737 26.2097V26.2098Z" fill="white"/>
<path d="M31.9632 24.2154H31.9915C32.0255 24.2154 32.0492 24.1997 32.0492 24.1783C32.0492 24.1526 32.0264 24.139 31.9954 24.139C31.9833 24.139 31.9704 24.1411 31.9632 24.1411V24.2153V24.2154ZM31.9599 24.3939H31.8628V24.0818C31.885 24.0781 31.9359 24.0704 31.9999 24.0704C32.0714 24.0704 32.1024 24.08 32.1262 24.0954C32.1458 24.1095 32.1598 24.1332 32.1598 24.1644C32.1598 24.196 32.1303 24.2234 32.087 24.2352V24.2387C32.1217 24.2488 32.1421 24.2747 32.1516 24.3194C32.1613 24.3646 32.1674 24.3823 32.173 24.3939H32.0653C32.0553 24.3822 32.0492 24.355 32.0437 24.3272C32.0379 24.2957 32.0231 24.28 31.9915 24.28H31.9599V24.3938V24.3939ZM31.9985 23.9799C31.8609 23.9799 31.7574 24.0917 31.7574 24.2351C31.7574 24.3739 31.8609 24.4882 32.0009 24.4882C32.1438 24.4902 32.2482 24.3739 32.2482 24.2328C32.2482 24.0917 32.1438 23.9799 31.9999 23.9799H31.9985ZM32.0073 23.8956C32.1969 23.8956 32.3503 24.0464 32.3503 24.2329C32.3503 24.4218 32.1969 24.5727 32.0009 24.5727C31.8082 24.5727 31.6538 24.4218 31.6538 24.2329C31.6538 24.0464 31.8082 23.8956 32.0009 23.8956H32.0073Z" fill="white"/>
<path d="M19.9746 23.565L18.7453 26.7368H19.561L20.7906 23.565H19.9746Z" fill="white"/>
<path d="M31.9632 24.2154H31.9915C32.0255 24.2154 32.0492 24.1997 32.0492 24.1783C32.0492 24.1526 32.0264 24.139 31.9954 24.139C31.9833 24.139 31.9704 24.1411 31.9632 24.1411V24.2153V24.2154ZM31.9599 24.3939H31.8628V24.0818C31.885 24.0781 31.9359 24.0704 31.9999 24.0704C32.0714 24.0704 32.1024 24.08 32.1262 24.0954C32.1458 24.1095 32.1598 24.1332 32.1598 24.1644C32.1598 24.196 32.1303 24.2234 32.087 24.2352V24.2387C32.1217 24.2488 32.1421 24.2747 32.1516 24.3194C32.1613 24.3646 32.1674 24.3823 32.173 24.3939H32.0653C32.0553 24.3822 32.0492 24.355 32.0437 24.3272C32.0379 24.2957 32.0231 24.28 31.9915 24.28H31.9599V24.3938V24.3939ZM31.9985 23.9799C31.8609 23.9799 31.7574 24.0917 31.7574 24.2351C31.7574 24.3739 31.8609 24.4882 32.0009 24.4882C32.1438 24.4902 32.2482 24.3739 32.2482 24.2328C32.2482 24.0917 32.1438 23.9799 31.9999 23.9799H31.9985ZM32.0073 23.8956C32.1969 23.8956 32.3503 24.0464 32.3503 24.2329C32.3503 24.4218 32.1969 24.5727 32.0009 24.5727C31.8082 24.5727 31.6538 24.4218 31.6538 24.2329C31.6538 24.0464 31.8082 23.8956 32.0009 23.8956H32.0073Z" fill="white"/>
<path fill-rule="evenodd" clip-rule="evenodd" d="M8.75446 31.1927L9.98639 28.9029H10.8926V32.9766H9.82478V31.3122L9.12141 32.5193H8.36049L7.6467 31.2713V32.9765H6.57898V28.9028H7.50701L8.75456 31.1926L8.75446 31.1927ZM13.0586 30.3734L13.8469 28.9029H15.0856L13.5877 31.5377V32.9766H12.4921V31.5322L10.994 28.9029H12.2601L13.0586 30.3734ZM17.5376 31.7999V32.9766H16.442V28.9029H17.9992C18.9409 28.9029 19.6233 29.3084 19.6233 30.3207C19.6233 31.2974 19.0156 31.7999 18.0606 31.7999H17.5376ZM23.9637 30.9398C23.9637 32.1572 23.103 33.0325 21.8879 33.0325C20.6763 33.0325 19.8064 32.1556 19.8064 30.9398C19.8064 29.721 20.6736 28.8471 21.8879 28.8471C23.1057 28.8471 23.9637 29.7194 23.9637 30.9398ZM26.3899 33.0325C25.0941 33.0325 24.2025 32.2714 24.2025 30.9566C24.2025 29.6713 25.1111 28.8471 26.3787 28.8471C26.7345 28.8471 27.1284 28.8872 27.4638 29.013L27.5729 29.0539L27.4754 30.062L27.2879 29.988C27.0386 29.8896 26.6867 29.8424 26.4178 29.8424C25.7545 29.8424 25.3204 30.2584 25.3204 30.9288C25.3204 31.6275 25.7288 32.0372 26.4288 32.0372C26.7114 32.0372 27.0452 31.9946 27.3122 31.9056L27.494 31.845L27.5832 32.8191L27.4764 32.8605C27.1554 32.9844 26.732 33.0325 26.3898 33.0325H26.3899ZM29.0751 31.3481V32.9766H27.9795V28.9029H29.0751V30.3697H29.2274L30.3484 28.9029H31.6609L30.1714 30.8645L30.9003 31.8861C30.9398 31.944 30.9699 31.9871 31.0426 31.9871H31.6046L31.331 32.9766H30.7805C30.4718 32.9766 30.2614 32.8602 30.0829 32.6124L29.1873 31.3696C29.1836 31.364 29.1778 31.3534 29.1725 31.3491C29.1659 31.347 29.1533 31.348 29.1464 31.348H29.075L29.0751 31.3481ZM32.9191 29.8926V30.4868H34.3991L34.3507 31.4764H32.9191V31.7763C32.9191 31.9723 32.9421 31.9871 33.1354 31.9871H34.824L34.5505 32.9766H32.7339C32.1155 32.9766 31.8235 32.6311 31.8235 32.0272V28.9028H34.8185L34.545 29.8925H32.9193L32.9191 29.8926ZM37.1701 29.8926V32.9766H36.0634V29.8926H34.8867V28.9029H38.4839L38.2104 29.8926H37.1702H37.1701ZM10.9857 34.2796H12.476C13.1076 34.2796 13.7843 34.3761 14.2509 34.8427C14.6306 35.2225 14.7472 35.7569 14.7472 36.2774C14.7472 36.8525 14.5905 37.4174 14.1573 37.8168C13.7242 38.216 13.1288 38.3534 12.5541 38.3534H10.9858V34.2796H10.9857ZM16.2431 35.2693V35.8635H17.723L17.6747 36.8531H16.2431V37.1531C16.2431 37.349 16.2661 37.3637 16.4594 37.3637H18.148L17.8744 38.3534H16.0579C15.4395 38.3534 15.1475 38.0078 15.1475 37.4039V34.2795H18.1424L17.8689 35.2692H16.2432L16.2431 35.2693ZM19.468 36.2027V38.3534H18.4225V34.2796H19.2092L20.9322 36.3678V34.2796H21.9776V38.3534H21.2182L19.468 36.2027ZM24.511 35.2693V38.3534H23.4043V35.2693H22.2276V34.2796H25.8248L25.5513 35.2693H24.5111H24.511ZM27.1001 34.2796V38.3534H26.0045V34.2796H27.1001ZM28.8459 37.4307C29.0531 37.4307 29.3521 37.3961 29.3521 37.1309C29.3521 37.0665 29.3423 37.0135 29.2941 36.9682C29.2051 36.8849 28.7533 36.7574 28.6311 36.7174C27.9707 36.5004 27.5283 36.1783 27.5283 35.4298C27.5283 34.5594 28.3708 34.2239 29.1246 34.2239C29.4601 34.2239 29.8394 34.2625 30.1634 34.3521L30.2794 34.3841L30.239 35.3937L30.0539 35.3417C29.7733 35.263 29.4557 35.2023 29.1636 35.2023C29.051 35.2023 28.6573 35.2147 28.6573 35.3964C28.6573 35.4262 28.6601 35.4584 28.6717 35.486C28.7325 35.6303 29.1769 35.757 29.3087 35.7978C29.9821 36.0056 30.481 36.2666 30.481 37.0416C30.481 37.9456 29.7418 38.4093 28.9015 38.4093C28.4504 38.4093 27.9956 38.3346 27.5747 38.1702L27.4699 38.1292L27.5513 37.0775L27.7507 37.1721C28.0728 37.3248 28.4877 37.4307 28.8458 37.4307H28.8459ZM32.7635 35.2694V38.3535H31.6568V35.2694H30.4801V34.2797H34.0773L33.8038 35.2694H32.7636H32.7635ZM17.5375 29.8926V30.8047H17.9992C18.3274 30.8047 18.5055 30.6741 18.5055 30.3374C18.5055 29.9915 18.3035 29.8926 17.9825 29.8926H17.5376H17.5375ZM20.9297 30.9398C20.9297 31.5206 21.2665 32.0428 21.8878 32.0428C22.5059 32.0428 22.8456 31.5179 22.8456 30.9398C22.8456 30.3619 22.5057 29.8368 21.8878 29.8368C21.2664 29.8368 20.9297 30.359 20.9297 30.9398ZM12.0811 35.2694V37.3638H12.5651C12.878 37.3638 13.1426 37.3212 13.3641 37.0877C13.5624 36.8784 13.6291 36.563 13.6291 36.2831C13.6291 36.023 13.6042 35.727 13.4147 35.5293C13.2029 35.3083 12.8843 35.2694 12.593 35.2694H12.0811Z" fill="white"/>
<path fill-rule="evenodd" clip-rule="evenodd" d="M12.6108 6.39221H22.1944C22.6784 6.39221 23.0742 6.78798 23.0742 7.27201V15.9898C23.0742 16.7017 18.7122 18.9384 17.9651 19.3823C16.4191 20.1795 11.731 17.4501 11.731 15.9898V7.27201C11.731 6.78798 12.1268 6.39221 12.6108 6.39221Z" fill="#F11A1E" stroke="white" stroke-width="0.861785" stroke-miterlimit="22.9256"/>
<path fill-rule="evenodd" clip-rule="evenodd" d="M29.3092 12.5801L28.4525 11.8818L24.6891 12.1388L24.2737 12.4763L24.8707 17.8235L25.935 17.9532C26.7409 15.8884 27.9495 14.2295 29.3093 12.5801H29.3092Z" fill="#00CCFF"/>
<path fill-rule="evenodd" clip-rule="evenodd" d="M27.5719 11.3163H25.3245L24.6613 12.1268C24.7509 13.1661 25.2336 14.0513 25.7164 14.5994L26.6165 14.6035C27.1689 13.9036 28.1067 13.0668 28.8559 12.4651C28.6488 11.9157 28.1951 11.5711 27.5719 11.3164V11.3163Z" fill="#00AFDB"/>
<path fill-rule="evenodd" clip-rule="evenodd" d="M25.2414 11.2722C25.396 11.5363 25.3165 12.7088 26.7116 12.4935C26.9913 12.4502 27.7375 11.698 27.8082 11.4878C27.9185 11.1357 28.2368 11.493 29.3098 10.8348C31.2856 9.62289 30.9866 7.91433 31.2201 7.66747C31.6006 7.26499 31.7426 6.28783 31.7881 5.79109C31.8671 4.92911 30.6037 5.3666 30.2497 3.98497C30.1922 3.76042 30.1626 2.87551 30.0256 2.69229C29.8191 2.4164 29.4086 2.45913 29.1109 2.30543C25.5637 0.475186 23.7884 0.70294 22.748 2.17734C22.4255 2.63445 22.4125 4.7776 22.1456 5.01397C21.372 5.54412 21.8009 7.20705 22.1353 7.35075C22.1383 7.59992 22.1313 7.85369 22.1395 8.10206C22.1723 9.09944 23.3465 10.3993 24.2259 10.8327C24.5575 10.9962 25.0196 10.8932 25.2414 11.2722Z" fill="#B06146"/>
<path fill-rule="evenodd" clip-rule="evenodd" d="M23.6181 1.88355C25.4413 3.03523 28.9106 3.40348 29.7355 2.89424C30.1756 2.62255 29.5336 4.85197 29.9184 4.99736C30.8466 5.3484 30.69 7.13141 30.7378 8.21235C30.8689 7.16624 31.1694 5.23152 31.3667 5.24853C31.6391 5.27195 31.5746 4.9045 31.6689 4.37975C32.5325 -0.424014 22.214 -2.12937 22.2686 3.68217C22.2716 4.00979 22.0406 5.75468 22.4719 4.32381C22.8274 3.14401 22.8806 2.6956 23.6181 1.88365V1.88355Z" fill="black"/>
<path fill-rule="evenodd" clip-rule="evenodd" d="M24.2564 8.69078C25.197 9.72879 26.3419 9.61731 27.2942 8.80216C28.2797 7.59214 26.3201 8.03934 25.2871 7.90715C25.0039 7.87083 24.5792 7.79437 24.293 7.85902C23.7593 7.9798 24.0282 8.43891 24.2564 8.69068V8.69078Z" fill="#FEFEFE"/>
<path fill-rule="evenodd" clip-rule="evenodd" d="M24.193 4.84396C24.4994 4.84396 24.7324 5.21491 24.7135 5.67253C24.6947 6.13004 24.4312 6.50099 24.1249 6.50099C23.8185 6.50099 23.5854 6.13004 23.6043 5.67253C23.6232 5.21491 23.8867 4.84396 24.193 4.84396Z" fill="black"/>
<path fill-rule="evenodd" clip-rule="evenodd" d="M27.8025 5.11523C28.1088 5.11523 28.3182 5.48609 28.2705 5.9438C28.2225 6.40131 27.9354 6.77226 27.6291 6.77226C27.3228 6.77226 27.1133 6.40131 27.161 5.9438C27.209 5.48609 27.4962 5.11523 27.8025 5.11523Z" fill="black"/>
<path fill-rule="evenodd" clip-rule="evenodd" d="M29.8802 17.9272C30.6014 16.1362 30.2924 14.3451 29.2832 12.5541C32.6893 13.5081 34.4575 18.2787 32.5483 21.2627C31.1148 23.5029 26.0088 22.1506 24.0141 21.5611L24.5851 17.8753C26.4437 18.1388 28.2292 18.1047 29.8802 17.9272Z" fill="white"/>
<path d="M24.5015 11.9982C24.6636 11.891 25.0516 11.8825 24.8897 11.9895C23.9372 12.6233 23.2302 13.7473 22.848 14.7926C22.4312 15.9328 22.3653 17.1541 22.6748 18.109C22.6997 18.1865 22.6569 18.2698 22.5793 18.2947C22.5017 18.3196 22.4185 18.2769 22.3936 18.1992C22.0643 17.1834 22.1317 15.8918 22.5703 14.692C22.9727 13.5913 23.493 12.6693 24.5015 11.9982Z" fill="black"/>
<path fill-rule="evenodd" clip-rule="evenodd" d="M26.8204 14.3588C26.8827 13.7834 26.6449 13.4085 26.274 13.1481C25.8647 13.3538 25.6402 13.6855 25.5064 14.1669L25.7574 14.4917C25.537 15.1567 25.1066 15.6132 24.7829 16.3373L24.842 17.8874L25.964 17.9612L26.5694 16.4404C26.6621 15.8202 26.6538 15.2001 26.5103 14.5802L26.8204 14.3587V14.3588Z" fill="#0F187A"/>
<path fill-rule="evenodd" clip-rule="evenodd" d="M23.5534 19.7722L23.8142 18.1688C22.9301 17.293 21.664 17.1981 20.0563 17.8003C19.8398 18.0501 19.6966 18.3183 19.6512 18.6109C19.6036 18.894 19.7096 19.0067 19.9185 18.9905L21.0511 18.9792C21.8631 19.4863 22.6987 19.7354 23.5534 19.7722Z" fill="#B06146"/>
<path d="M28.608 12.3081C28.5387 12.265 28.5176 12.1738 28.5606 12.1045C28.6037 12.0351 28.7849 12.164 28.8543 12.2071C29.64 12.6949 30.0546 13.4061 30.2245 14.4724C30.3845 15.4772 30.2453 16.7191 29.7606 18.1557C29.7347 18.2329 29.651 18.2747 29.5737 18.2489C29.4964 18.2229 29.4547 18.1393 29.4806 18.0619C29.9496 16.6717 30.0855 15.4776 29.9328 14.5186C29.7772 13.5412 29.3193 12.7496 28.608 12.308V12.3081Z" fill="black"/>
<path fill-rule="evenodd" clip-rule="evenodd" d="M32.1549 19.5187C31.0329 18.6185 29.7773 18.2164 28.4249 18.2372C29.6326 17.3224 30.9388 16.9279 32.31 16.8774C32.5306 16.8714 32.6121 17.0332 32.3395 17.0769C31.8908 17.1601 31.4745 17.2797 31.1661 17.5033L32.978 17.6802C33.3077 17.7255 33.2502 17.9645 32.9055 17.9134C32.3156 17.9012 31.7507 17.8752 31.2308 17.9567C31.8795 18.2366 32.3924 18.4838 32.9475 18.8106C33.1719 18.9973 32.9542 19.1467 32.7201 19.0089C32.2852 18.7322 31.8022 18.6096 31.274 18.4962L32.3964 19.3595C32.6096 19.6169 32.3357 19.6935 32.1549 19.5187Z" fill="#B06146"/>
<path fill-rule="evenodd" clip-rule="evenodd" d="M23.8019 17.9781H24.657L24.2708 20.5159H23.4157L23.8019 17.9781Z" fill="#00CCFF"/>
<path fill-rule="evenodd" clip-rule="evenodd" d="M14.7766 8.77153C14.4612 8.88391 14.0111 9.45749 13.8947 9.87168C13.5954 10.9367 14.2316 12.0496 14.829 12.814C15.3171 13.4386 15.2699 13.3417 15.7847 13.8667C16.0866 14.1745 16.4894 14.4827 16.8864 14.7312C17.329 15.0085 17.6761 15.19 18.2232 15.4041C20.5729 16.3241 21.3202 14.5664 21.237 13.9693C21.2051 13.7396 20.3261 13.4177 19.9723 13.2569C19.1994 12.9057 19.4002 12.8798 18.8067 13.6228C18.6283 13.8462 18.5752 14.0626 18.235 13.9263C17.5721 13.6607 16.8933 13.208 16.4342 12.7309C16.3386 12.6315 16.3036 12.5545 16.219 12.4539C15.3904 11.468 15.7169 11.5323 16.1925 10.9504C16.5114 10.5603 16.3545 10.4944 15.9498 9.53685C15.8914 9.39875 15.7126 8.93594 15.6449 8.85929C15.5075 8.70348 14.9934 8.69458 14.7768 8.77173L14.7766 8.77153Z" stroke="#F11A1E" stroke-width="0.864887" stroke-miterlimit="22.9256"/>
<path fill-rule="evenodd" clip-rule="evenodd" d="M14.7766 8.77153C14.4612 8.88391 14.0111 9.45749 13.8947 9.87168C13.5954 10.9367 14.2316 12.0496 14.829 12.814C15.3171 13.4386 15.2699 13.3417 15.7847 13.8667C16.0866 14.1745 16.4894 14.4827 16.8864 14.7312C17.329 15.0085 17.6761 15.19 18.2232 15.4041C20.5729 16.3241 21.3202 14.5664 21.237 13.9693C21.2051 13.7396 20.3261 13.4177 19.9723 13.2569C19.1994 12.9057 19.4002 12.8798 18.8067 13.6228C18.6283 13.8462 18.5752 14.0626 18.235 13.9263C17.5721 13.6607 16.8933 13.208 16.4342 12.7309C16.3386 12.6315 16.3036 12.5545 16.219 12.4539C15.3904 11.468 15.7169 11.5323 16.1925 10.9504C16.5114 10.5603 16.3545 10.4944 15.9498 9.53685C15.8914 9.39875 15.7126 8.93594 15.6449 8.85929C15.5075 8.70348 14.9934 8.69458 14.7768 8.77173L14.7766 8.77153Z" fill="#FEFFFE"/>
</svg>
