<svg xmlns="http://www.w3.org/2000/svg" width="686" height="746" fill="none" viewBox="0 0 686 746"><path fill="#E40001" stroke="#fff" stroke-width="8" d="M370.781 523.404C333.573 516.318 312.925 505.611 283.507 490.201L281.807 488.554L279.223 489.963C278.222 490.509 275.866 491.443 272.137 492.711C268.516 493.942 263.871 495.399 258.504 497.007C247.776 500.221 234.273 504.003 220.528 507.729C197.734 513.908 174.403 519.897 162.076 522.857C164.948 510.747 170.911 488.054 177.108 465.568C180.847 452.002 184.655 438.571 187.893 427.679C191.162 416.679 193.775 408.53 195.139 405.331L195.913 403.514L194.941 401.795C162.47 344.324 146.867 282.706 163.778 206.739C199.654 45.5659 381.032 -43.3817 533.942 30.0764C547.129 36.4112 561.202 44.9062 571.379 52.3549C571.842 52.6936 572.305 53.0322 572.768 53.3708C578.173 57.3212 583.562 61.2601 588.116 65.3578C604.375 80.3241 619.196 94.3415 632.051 112.598C658.984 150.849 676.641 193.768 680.675 243.49C688.848 344.244 639.539 435.637 562.97 485.082C538.604 500.817 511.719 513.503 479.28 520.972L480.178 524.87L479.28 520.972C443.861 529.129 407.085 530.318 370.781 523.404Z"/><path fill="#fff" fill-rule="evenodd" d="M342.088 89.0066C296.324 97.2659 305.855 167.378 317.58 198.532C329.164 229.307 336.115 218.75 338.171 256.946C339.357 278.97 339.899 302.835 350.524 322.851C364.532 349.242 384.956 333.96 391.089 310.418C395.105 295.007 398.267 260.774 411.074 251.409C447.715 224.612 433.271 347.287 475.496 334.906C492.108 330.036 496.764 293.822 498.575 279.516C503.035 244.259 494.598 247.117 511.444 213.508C545.273 146.02 540.136 62.1738 446.868 96.1365C395.588 114.81 474.67 104.738 460.352 119.905C446.367 134.721 369.809 84.0025 342.087 89.0052L342.088 89.0066Z" clip-rule="evenodd"/><path fill="#fff" fill-rule="evenodd" d="M305.23 224.985C304.79 223.967 304.543 222.821 304.543 221.611C304.543 217.348 307.612 213.892 311.4 213.892C315.186 213.892 318.257 217.348 318.257 221.611C318.257 225.524 315.669 228.756 312.318 229.261C281.78 308.876 359.277 368.445 430.173 365.349C489.786 362.745 558.845 305.496 521.588 243.969C520.774 244.353 519.88 244.564 518.943 244.564C515.156 244.564 512.086 241.108 512.086 236.844C512.086 232.581 515.156 229.125 518.943 229.125C522.729 229.125 525.8 232.581 525.8 236.844C525.8 237.262 525.771 237.669 525.714 238.069L526.179 238.928C559.287 304.156 511.018 345.812 470.254 364.722C409.792 392.771 268.378 349.346 305.233 224.985H305.23Z" clip-rule="evenodd"/><path fill="#333" d="M37.6881 511.695L16.4212 472.66H5.38387V533.321H17.6774V499.132L33.022 525.963H42.444L57.6091 499.94V533.321H69.9027V472.66H59.2243L38.2265 511.695H37.6881Z"/><path fill="#333" d="M127.076 486.48H113.077L102.758 516.002H102.399L91.0925 486.48H77.0043L96.4766 531.795L87.3237 552.344L98.7199 555.126L127.076 486.48Z"/><path fill="#E40001" d="M52.2252 559.749H0V570.786H18.9339V620.409H31.8556V570.786H49.1743L52.2252 559.749Z"/><path fill="#E40001" d="M101.455 596.988C101.455 581.913 91.9431 572.76 76.8678 572.76C61.7924 572.76 52.2806 582.003 52.2806 597.078C52.2806 612.154 61.3438 621.306 76.8678 621.306C91.9431 621.306 101.455 612.064 101.455 596.988ZM88.6229 597.078C88.6229 606.321 83.6875 611.077 76.9575 611.077C70.2274 611.077 65.1126 606.321 65.1126 597.078C65.1126 587.836 70.1377 582.99 76.8678 582.99C83.5978 582.99 88.6229 587.836 88.6229 597.078Z"/><path fill="#E40001" d="M157.802 596.988C157.802 581.913 148.29 572.76 133.214 572.76C118.139 572.76 108.627 582.003 108.627 597.078C108.627 612.154 117.69 621.306 133.214 621.306C148.29 621.306 157.802 612.064 157.802 596.988ZM144.97 597.078C144.97 606.321 140.034 611.077 133.304 611.077C126.574 611.077 121.459 606.321 121.459 597.078C121.459 587.836 126.484 582.99 133.214 582.99C139.944 582.99 144.97 587.836 144.97 597.078Z"/><path fill="#E40001" d="M193.33 584.785L195.573 574.196H179.331V561.364L166.769 563.248V604.436C166.769 617.179 173.319 620.768 183.549 620.768C187.497 620.768 191.984 620.23 194.855 619.243L194.227 609.372C192.253 609.82 189.202 610.09 186.061 610.09C181.395 610.09 179.331 607.667 179.331 602.193V584.785H193.33Z"/><path fill="#E40001" d="M230.949 572.76C226.283 572.76 220.809 574.555 216.591 577.157V554.634L204.029 557.954V620.409H216.591V586.579C219.104 584.874 222.873 583.439 226.462 583.439C228.975 583.439 230.769 583.977 232.205 585.233C233.731 586.579 234.448 588.553 234.448 592.412V620.409H247.011V590.976C247.011 584.695 245.665 580.388 242.973 577.426C240.191 574.375 236.153 572.76 230.949 572.76Z"/><path fill="#E40001" d="M259.338 559.749V620.409H282.131C292.361 620.409 300.616 617.627 306.269 612.423C312.102 607.039 314.974 599.142 314.974 589.451C314.974 579.939 312.461 572.85 307.705 568.094C301.872 562.261 293.258 559.749 280.875 559.749H259.338ZM301.872 589.541C301.872 595.553 300.167 600.757 296.937 604.167C293.617 607.667 289.579 609.372 282.31 609.372H272.081V570.786H282.759C289.22 570.786 294.245 572.042 297.745 575.721C300.526 578.593 301.872 582.631 301.872 589.541Z"/><path fill="#E40001" d="M371.709 596.988C371.709 581.913 362.197 572.76 347.122 572.76C332.046 572.76 322.534 582.003 322.534 597.078C322.534 612.154 331.598 621.306 347.122 621.306C362.197 621.306 371.709 612.064 371.709 596.988ZM358.877 597.078C358.877 606.321 353.941 611.077 347.211 611.077C340.481 611.077 335.366 606.321 335.366 597.078C335.366 587.836 340.391 582.99 347.122 582.99C353.852 582.99 358.877 587.836 358.877 597.078Z"/><path fill="#E40001" d="M417.377 608.744C414.416 610 410.557 610.807 406.34 610.807C398.174 610.807 391.713 606.141 391.713 596.899C391.713 587.566 398.264 583.259 406.16 583.259C410.288 583.259 414.147 584.067 416.749 585.054L418.185 574.734C413.788 573.388 409.211 572.76 405.083 572.76C390.008 572.76 378.881 581.823 378.881 597.078C378.881 612.423 389.38 621.306 404.904 621.306C410.198 621.306 415.403 620.319 418.454 618.884L417.377 608.744Z"/><path fill="#fff" d="M435.603 370.25C441.335 390.964 426.802 395.991 411.843 401.163C398.658 405.721 385.067 410.422 390.641 429.577C393.329 438.817 398.006 446.46 403.848 451.805C408.825 456.358 414.652 459.235 420.794 459.98C426.909 460.721 433.39 459.345 439.709 455.402C446.791 450.983 453.681 443.363 459.695 431.931C462.235 427.099 465.282 421.878 469.213 416.418C473.144 410.96 477.936 405.303 483.951 399.631C493.174 390.931 503.674 385.213 515.918 384.464C528.032 383.722 541.697 387.881 557.302 398.9L553.771 403.918C539.402 393.772 527.047 389.927 516.279 390.587C505.641 391.239 496.384 396.334 488.154 404.098C482.43 409.497 477.893 414.848 474.186 419.997C470.48 425.145 467.57 430.139 465.123 434.791C458.568 447.251 450.91 455.648 442.951 460.616C435.375 465.342 427.531 466.984 420.075 466.08C412.646 465.179 405.646 461.745 399.719 456.321C393.067 450.233 387.767 441.622 384.759 431.283C377.56 406.543 393.951 400.874 409.852 395.376C422.048 391.159 433.897 387.061 429.698 371.884L435.606 370.25H435.603Z"/><path fill="#E60000" d="M556.873 422.619C568.124 422.619 577.244 413.499 577.244 402.248C577.244 390.997 568.124 381.876 556.873 381.876C545.622 381.876 536.501 390.997 536.501 402.248C536.501 413.499 545.622 422.619 556.873 422.619Z"/><path fill="#fff" fill-rule="evenodd" d="M556.873 384.95C547.319 384.95 539.575 392.694 539.575 402.248C539.575 411.801 547.319 419.545 556.873 419.545C566.426 419.545 574.17 411.801 574.17 402.248C574.17 392.694 566.426 384.95 556.873 384.95ZM533.427 402.248C533.427 389.299 543.924 378.802 556.873 378.802C569.821 378.802 580.318 389.299 580.318 402.248C580.318 415.196 569.821 425.693 556.873 425.693C543.924 425.693 533.427 415.196 533.427 402.248Z" clip-rule="evenodd"/><path fill="#F11A1E" d="M253.219 701.661C251.413 701.661 250.111 701.209 249.347 700.315C248.516 699.348 248.305 697.843 248.71 695.849C249.452 692.227 252.596 686.824 258.24 686.824C259.605 686.824 260.624 687.212 261.267 687.969C262.018 688.847 262.246 690.213 261.92 691.825C260.015 701.185 254.336 701.661 253.219 701.661ZM258.387 683.169C250.813 683.169 242.487 687.7 240.952 695.342C239.32 703.503 246.585 705.256 251.247 705.308C261.736 705.436 268.117 699.16 269.584 692.762C270.986 686.619 265.569 683.169 258.386 683.169H258.387Z"/><path fill="#F11A1E" d="M327.496 694.62C323.536 695.03 322.065 696.056 321.731 697.963C321.464 699.486 322.449 700.909 326.134 700.749C328.288 700.653 330.624 700.129 332.271 699.304L334.103 694.514C331.358 694.358 329.492 694.419 327.496 694.62ZM321.621 683.87C324.367 683.43 326.96 682.959 331.976 682.959C340.033 682.959 344.985 685.629 342.673 691.646C341.671 694.243 340.641 696.963 339.762 699.257C338.54 702.461 338.806 703.685 339.058 704.82C339.058 704.82 337.159 704.127 333.211 704.239C329.678 704.337 328.15 705.241 322.358 705.241C316.092 705.241 313.8 702.141 314.042 698.858C314.263 695.978 315.863 693.471 319.446 692.046C321.819 691.099 324.185 690.782 326.634 690.59C330.416 690.291 333.784 690.456 335.617 690.59C335.946 689.514 336.415 687.318 331.104 687.285C325.417 687.24 321.53 688.235 319.732 688.794L321.62 683.869L321.621 683.87Z"/><path fill="#F11A1E" d="M295.5 701.12C291.127 701.12 291.525 696.87 293.061 693.554C295.032 689.303 299.011 687.36 301.536 687.266C303.423 687.192 304.992 687.481 306.252 688.678C303.284 700.213 297.279 701.12 295.498 701.12H295.5ZM312.015 684.232C308.168 684.232 307.996 683.177 301.736 683.177C292.746 683.177 285.354 689.796 284.303 697.099C283.968 699.4 284.616 701.463 285.941 702.908C287.316 704.41 289.391 704.994 291.855 705.106C295.5 705.265 298.834 704.537 302.029 702.45C300.16 707.998 293.777 709.151 289.495 709.125C287.405 709.112 285.115 709.024 283.305 708.156L281.426 712.87C283.305 713.371 286.107 713.697 288.351 713.697C298.858 713.697 305.613 709.941 308.43 702.548L315.604 683.65C315.604 683.65 313.468 684.232 312.014 684.232H312.015Z"/><path fill="#F11A1E" d="M238.376 698.721C237.01 699.371 233.703 700.359 231.086 700.359C224.026 700.359 221.864 696.075 222.615 691.9C223.852 685.019 230.49 679.795 238.362 679.795C240.79 679.795 242.968 680.257 244.907 681.059L247.205 676.582C245.265 675.696 242.517 675.151 239.956 675.151C227.383 675.151 215.622 682.321 213.954 691.871C212.485 700.304 219.765 705 228.706 705C231.106 705 233.77 704.622 235.983 704.102L238.378 698.719L238.376 698.721Z"/><path fill="#F11A1E" d="M358.589 683.01L360.166 678.781L352.2 680.15L351.111 683.01H347.599L346.331 686.5H349.813L345.628 696.861C344.554 699.492 344.497 701.419 345.459 702.743C346.393 704.037 348.259 704.67 351.153 704.67C352.773 704.67 354.97 704.335 356.687 703.884L358.378 699.804V699.798C357.416 700.194 355.868 700.596 354.605 700.642C353.708 700.676 353.182 700.48 352.857 700.04C352.383 699.419 352.508 698.174 353.186 696.467C353.186 696.467 356.645 687.975 357.242 686.5H362.484L363.823 683.01H358.588H358.589Z"/><path fill="#F11A1E" d="M377.238 686.624C378.603 686.624 379.553 686.971 380.08 687.656C380.7 688.466 380.727 689.784 380.168 691.468H370.406C371.149 689.152 373.329 686.624 377.238 686.624ZM382.954 699.99C380.86 701.008 377.238 701.56 374.823 701.56C372.71 701.56 370.989 700.857 369.969 699.574C369.039 698.412 368.804 696.859 369.27 695.173H386.453L386.537 694.949C387.883 691.207 387.717 687.962 386.058 685.806C384.546 683.831 381.903 682.829 378.256 682.829C370.122 682.829 363.201 687.362 361.401 693.848C360.496 697.127 360.968 700.003 362.759 702.164C364.733 704.545 368.197 705.857 372.51 705.857C374.999 705.857 378.002 705.413 380.716 704.597L382.957 699.989L382.954 699.99Z"/><path fill="#F11A1E" d="M390.189 681.713H390.449C390.76 681.713 390.978 681.568 390.978 681.373C390.978 681.138 390.768 681.012 390.484 681.012C390.373 681.012 390.254 681.033 390.189 681.033V681.713ZM390.159 683.348H389.269V680.488C389.471 680.455 389.938 680.383 390.526 680.383C391.18 680.383 391.464 680.471 391.684 680.612C391.863 680.741 391.992 680.958 391.992 681.245C391.992 681.534 391.721 681.787 391.324 681.893V681.925C391.642 682.018 391.828 682.253 391.915 682.665C392.005 683.079 392.061 683.241 392.113 683.349H391.125C391.033 683.242 390.979 682.992 390.927 682.738C390.874 682.449 390.738 682.305 390.449 682.305H390.159V683.349V683.348ZM390.513 679.552C389.25 679.552 388.303 680.578 388.303 681.892C388.303 683.164 389.252 684.211 390.534 684.211C391.844 684.229 392.8 683.164 392.8 681.87C392.8 680.576 391.844 679.551 390.524 679.551H390.513V679.552ZM390.594 678.78C392.331 678.78 393.736 680.162 393.736 681.872C393.736 683.602 392.331 684.984 390.534 684.984C388.768 684.984 387.353 683.6 387.353 681.872C387.353 680.162 388.768 678.78 390.534 678.78H390.594Z"/><path fill="#F11A1E" d="M280.317 675.753L269.051 704.821H276.526L287.795 675.753H280.317Z"/><path fill="#F11A1E" d="M347.823 714.761H347.822C341.753 721.587 334.639 727.226 326.701 731.043C318.788 734.889 310.125 736.889 301.423 736.883C292.722 736.879 284.064 734.866 276.162 731.013C268.235 727.189 261.135 721.545 255.083 714.722L252.936 720.257C257.826 727.551 264.517 733.774 272.31 738.251C281.058 743.29 291.243 746.015 301.422 745.995C311.6 746.002 321.781 743.267 330.518 738.219C338.328 733.719 345.025 727.466 349.906 720.138L347.822 714.761H347.823Z"/><path fill="#F11A1E" d="M186.822 659.126C186.822 653.569 183.304 650.642 179.325 650.642C177.122 650.642 175.215 651.399 173.965 652.451V644L169.362 645.217V667.018C171.433 667.873 174.36 668.432 177.155 668.432C182.942 668.432 186.822 665.209 186.822 659.126ZM173.965 663.927V658.764C173.965 657.087 174.327 656.101 175.018 655.476C175.642 654.884 176.596 654.457 177.977 654.457C180.443 654.457 182.12 656.265 182.12 659.488C182.12 662.546 180.64 664.486 177.582 664.486C176.136 664.486 174.853 664.256 173.965 663.927Z"/><path fill="#F11A1E" d="M205.74 650.938H200.61L196.829 661.757H196.697L192.554 650.938H187.391L194.527 667.544L191.173 675.074L195.349 676.093L205.74 650.938Z"/></svg>