<svg xmlns="http://www.w3.org/2000/svg" width="100" height="100" fill="none" viewBox="0 0 100 100"><path fill="#fff" fill-rule="evenodd" d="M49.9996 0C77.6147 0 100 22.3861 100 49.9996C100 77.6147 77.6139 100 49.9996 100C22.3853 100 0 77.6139 0 49.9996C0 22.3852 22.3861 0 49.9996 0Z" clip-rule="evenodd"/><path fill="red" d="M28.4785 20.241H64.3172C65.5496 20.241 66.6699 20.7448 67.4806 21.5562C68.292 22.3675 68.7964 23.4877 68.7964 24.7194V41.7861L67.4373 43.1587V24.7202C67.4373 23.8635 67.0856 23.0833 66.5205 22.5175C65.9553 21.9517 65.1746 21.6001 64.3172 21.6001H28.4785C27.6211 21.6001 26.8411 21.9517 26.2753 22.5175C25.7101 23.0827 25.3585 23.8635 25.3585 24.7202V75.6565C25.3585 76.5132 25.7101 77.2932 26.2753 77.8597C26.8404 78.4248 27.6211 78.7765 28.4785 78.7765H64.3172C65.1746 78.7765 65.9547 78.4248 66.5205 77.8597C67.0856 77.2938 67.4373 76.5139 67.4373 75.6565V50.1686L68.7964 48.7962V75.6565C68.7964 76.8889 68.2927 78.0085 67.4806 78.8199C66.6699 79.6312 65.5496 80.1351 64.3172 80.1351H28.4785C27.2461 80.1351 26.1265 79.6319 25.3151 78.8199C24.5038 78.0085 24 76.8889 24 75.6565V24.7202C24 23.4878 24.5031 22.3682 25.3151 21.5568C26.1265 20.7461 27.2461 20.2416 28.4785 20.2416V20.241Z"/><path fill="red" d="M73.2082 38.4832L75.561 40.8126C75.8512 41.0995 75.9979 41.4797 75.9999 41.8621C76.0013 42.2424 75.8579 42.6248 75.5696 42.9163L50.3406 68.4008C50.0537 68.6904 49.6727 68.8372 49.291 68.8392C48.91 68.8412 48.5284 68.6978 48.2362 68.4089C48.0387 68.2141 45.8848 66.0756 45.8808 66.0802L45.8381 66.0328C45.5778 65.7519 45.4464 65.3916 45.4451 65.0306C45.4431 64.6496 45.5866 64.2674 45.8748 63.9758V63.9731L45.9088 63.9417L71.1038 38.4912C71.3913 38.2016 71.7717 38.0548 72.1534 38.0528C72.5343 38.0508 72.916 38.1943 73.2082 38.4832V38.4832ZM74.6061 41.7727L72.2528 39.4433C72.2281 39.4186 72.1934 39.406 72.1587 39.406C72.1253 39.406 72.0906 39.42 72.0646 39.4467L46.8716 64.8946L46.8356 64.9333L46.8343 64.9326C46.8103 64.9573 46.7983 64.9913 46.7983 65.0246C46.7983 65.0527 46.8076 65.08 46.8249 65.104L46.8409 65.1194L46.8403 65.1207L49.1917 67.4487C49.2164 67.4734 49.2511 67.4861 49.2858 67.4861C49.3191 67.4861 49.3538 67.4722 49.3805 67.4455L74.6088 41.9615C74.6341 41.9361 74.6461 41.9014 74.6461 41.8674C74.6461 41.8334 74.6321 41.7987 74.6061 41.7727V41.7727Z"/><path fill="red" d="M45.0946 69.2483L48.4034 67.9252L46.371 65.9141L45.0946 69.2483V69.2483ZM49.866 68.7992L44.1918 71.0685C44.0317 71.1425 43.8428 71.1545 43.666 71.0865C43.3157 70.9537 43.1403 70.5614 43.273 70.2111L45.4749 64.4602C45.509 64.3741 45.5596 64.2933 45.629 64.2239C45.8933 63.9584 46.3216 63.9571 46.5872 64.2213L50.0762 67.6749C50.1469 67.741 50.2043 67.8231 50.243 67.9185C50.3818 68.2661 50.213 68.6604 49.866 68.7992V68.7992Z"/><path fill="red" fill-rule="evenodd" d="M30.5716 27.8068H43.502C44.0031 27.8068 44.4135 28.2172 44.4135 28.7183V28.7196C44.4135 29.2207 44.0031 29.631 43.502 29.631H30.5716C30.0705 29.631 29.6602 29.2207 29.6602 28.7196V28.7183C29.6602 28.2172 30.0705 27.8068 30.5716 27.8068Z" clip-rule="evenodd"/><path fill="red" fill-rule="evenodd" d="M30.5716 33.4382H51.3548C51.8559 33.4382 52.2662 33.8486 52.2662 34.3497V34.3511C52.2662 34.8522 51.8559 35.2626 51.3548 35.2626H30.5716C30.0705 35.2626 29.6602 34.8522 29.6602 34.3511V34.3497C29.6602 33.8486 30.0705 33.4382 30.5716 33.4382V33.4382Z" clip-rule="evenodd"/><path fill="red" fill-rule="evenodd" d="M30.5716 39.0697H51.3548C51.8559 39.0697 52.2662 39.4801 52.2662 39.9812V39.9825C52.2662 40.4836 51.8559 40.894 51.3548 40.894H30.5716C30.0705 40.894 29.6602 40.4836 29.6602 39.9825V39.9812C29.6602 39.4801 30.0705 39.0697 30.5716 39.0697V39.0697Z" clip-rule="evenodd"/><path fill="red" fill-rule="evenodd" d="M30.5716 44.7018H51.3548C51.8559 44.7018 52.2662 45.1122 52.2662 45.6133V45.6146C52.2662 46.1157 51.8559 46.5261 51.3548 46.5261H30.5716C30.0705 46.5261 29.6602 46.1157 29.6602 45.6146V45.6133C29.6602 45.1122 30.0705 44.7018 30.5716 44.7018V44.7018Z" clip-rule="evenodd"/><path fill="red" fill-rule="evenodd" d="M30.5716 50.3335H51.3548C51.8559 50.3335 52.2662 50.7438 52.2662 51.2449V51.2462C52.2662 51.7473 51.8559 52.1577 51.3548 52.1577H30.5716C30.0705 52.1577 29.6602 51.7473 29.6602 51.2462V51.2449C29.6602 50.7438 30.0705 50.3335 30.5716 50.3335V50.3335Z" clip-rule="evenodd"/><path fill="red" fill-rule="evenodd" d="M30.5716 55.9656H43.502C44.0031 55.9656 44.4135 56.3759 44.4135 56.877V56.8783C44.4135 57.3794 44.0031 57.7898 43.502 57.7898H30.5716C30.0705 57.7898 29.6602 57.3794 29.6602 56.8783V56.877C29.6602 56.3759 30.0705 55.9656 30.5716 55.9656Z" clip-rule="evenodd"/></svg>