<svg width="224" height="241" viewBox="0 0 224 241" fill="none" xmlns="http://www.w3.org/2000/svg">
<path d="M96.0449 155.673L94.3516 154.01L91.7492 155.429C91.7507 155.429 91.7496 155.429 91.7458 155.431C91.7209 155.443 91.5771 155.511 91.2509 155.639C90.9077 155.773 90.4561 155.936 89.8953 156.126C88.775 156.507 87.3161 156.965 85.6041 157.478C82.1854 158.502 77.8669 159.712 73.4554 160.908C68.3013 162.305 63.0822 163.667 59.0779 164.678C60.0715 160.793 61.4173 155.743 62.8117 150.684C64.0118 146.33 65.2317 142.027 66.2663 138.546C67.333 134.958 68.1278 132.503 68.4927 131.647L69.2669 129.831L68.2955 128.111C58.114 110.091 53.2873 90.9494 58.5557 67.2823L55.3989 66.5796L58.5557 67.2823C69.7143 17.1534 126.185 -10.5815 173.821 12.3029L175.392 9.03275L173.821 12.3029C177.918 14.2709 182.302 16.9188 185.438 19.2141C185.579 19.3177 185.72 19.4207 185.86 19.523C187.624 20.8126 189.244 21.9969 190.598 23.2145C195.826 28.0265 200.393 32.361 204.341 37.9681C212.765 49.9318 218.245 63.284 219.498 78.7358C222.045 110.126 206.681 138.581 182.863 153.962L185.033 157.322L182.863 153.962C175.243 158.882 166.883 162.822 156.802 165.143L156.801 165.143C145.752 167.688 134.301 168.054 123.012 165.905C111.603 163.732 105.272 160.504 96.0449 155.673Z" fill="#E40001" stroke="white" stroke-width="8"/>
<path fill-rule="evenodd" clip-rule="evenodd" d="M113.273 28.8162C98.5499 31.4734 101.616 54.0297 105.389 64.0524C109.115 73.9534 111.352 70.5571 112.013 82.8453C112.395 89.9307 112.569 97.6086 115.987 104.048C120.494 112.539 127.064 107.622 129.038 100.048C130.33 95.0903 131.347 84.077 135.467 81.064C147.255 72.443 142.608 111.91 156.193 107.926C161.537 106.36 163.035 94.7089 163.618 90.1064C165.053 78.7636 162.338 79.6831 167.758 68.8705C178.641 47.1584 176.989 20.1836 146.983 31.1101C130.485 37.1176 155.927 33.8773 151.321 38.7567C146.821 43.5233 122.192 27.2063 113.273 28.8158L113.273 28.8162Z" fill="white"/>
<path fill-rule="evenodd" clip-rule="evenodd" d="M101.415 72.5629C101.274 72.2353 101.194 71.8669 101.194 71.4775C101.194 70.106 102.181 68.9941 103.4 68.9941C104.618 68.9941 105.606 70.106 105.606 71.4775C105.606 72.7362 104.773 73.776 103.696 73.9386C93.8708 99.5521 118.803 118.717 141.612 117.721C160.79 116.883 183.008 98.4649 171.022 78.6703C170.76 78.7939 170.472 78.8617 170.17 78.8617C168.952 78.8617 167.964 77.7499 167.964 76.3783C167.964 75.0068 168.952 73.8949 170.17 73.8949C171.389 73.8949 172.376 75.0068 172.376 76.3783C172.376 76.5126 172.367 76.6436 172.349 76.7723L172.499 77.0488C183.15 98.0337 167.621 111.435 154.506 117.519C135.055 126.543 89.5591 112.572 101.416 72.5629H101.415Z" fill="white"/>
<path d="M12.1249 164.803L5.28295 152.245H1.73206V171.76H5.68712V160.761L10.6237 169.393H13.655L18.5339 161.021V171.76H22.4889V152.245H19.0535L12.2981 164.803H12.1249Z" fill="white"/>
<path d="M40.8826 156.69H36.379L33.0591 166.188H32.9436L29.3061 156.69H24.7736L31.0382 171.269L28.0936 177.88L31.7599 178.775L40.8826 156.69Z" fill="white"/>
<path d="M16.8018 180.263H0V183.813H6.09137V199.778H10.2485V183.813H15.8203L16.8018 180.263Z" fill="white"/>
<path d="M32.6399 192.243C32.6399 187.393 29.5797 184.449 24.7297 184.449C19.8797 184.449 16.8196 187.422 16.8196 192.272C16.8196 197.122 19.7354 200.067 24.7297 200.067C29.5797 200.067 32.6399 197.093 32.6399 192.243ZM28.5116 192.272C28.5116 195.246 26.9238 196.776 24.7586 196.776C22.5934 196.776 20.9479 195.246 20.9479 192.272C20.9479 189.299 22.5646 187.74 24.7297 187.74C26.8949 187.74 28.5116 189.299 28.5116 192.272Z" fill="white"/>
<path d="M50.7676 192.243C50.7676 187.393 47.7075 184.449 42.8575 184.449C38.0075 184.449 34.9474 187.422 34.9474 192.272C34.9474 197.122 37.8631 200.067 42.8575 200.067C47.7075 200.067 50.7676 197.093 50.7676 192.243ZM46.6393 192.272C46.6393 195.246 45.0515 196.776 42.8864 196.776C40.7212 196.776 39.0756 195.246 39.0756 192.272C39.0756 189.299 40.6923 187.74 42.8575 187.74C45.0227 187.74 46.6393 189.299 46.6393 192.272Z" fill="white"/>
<path d="M62.1977 188.317L62.9195 184.91H57.6942V180.782L53.6525 181.388V194.639C53.6525 198.739 55.7599 199.894 59.051 199.894C60.3212 199.894 61.7647 199.72 62.6885 199.403L62.4864 196.227C61.8513 196.371 60.8698 196.458 59.8593 196.458C58.3581 196.458 57.6942 195.679 57.6942 193.918V188.317H62.1977Z" fill="white"/>
<path d="M74.3004 184.449C72.7992 184.449 71.0382 185.026 69.6814 185.863V178.617L65.6397 179.685V199.778H69.6814V188.894C70.4897 188.346 71.7022 187.884 72.857 187.884C73.6653 187.884 74.2427 188.057 74.7046 188.461C75.1954 188.894 75.4263 189.53 75.4263 190.771V199.778H79.468V190.309C79.468 188.288 79.0349 186.902 78.1689 185.95C77.2739 184.968 75.9748 184.449 74.3004 184.449Z" fill="white"/>
<path d="M83.4339 180.263V199.778H90.7666C94.0577 199.778 96.7136 198.883 98.5324 197.209C100.409 195.477 101.333 192.936 101.333 189.818C101.333 186.758 100.524 184.477 98.9943 182.947C97.1178 181.071 94.3464 180.263 90.3624 180.263H83.4339ZM97.1178 189.847C97.1178 191.781 96.5693 193.456 95.53 194.553C94.4619 195.679 93.1627 196.227 90.8243 196.227H87.5333V183.813H90.9687C93.0473 183.813 94.6639 184.218 95.7898 185.401C96.6848 186.325 97.1178 187.624 97.1178 189.847Z" fill="white"/>
<path d="M119.585 192.243C119.585 187.393 116.525 184.449 111.675 184.449C106.825 184.449 103.765 187.422 103.765 192.272C103.765 197.122 106.681 200.067 111.675 200.067C116.525 200.067 119.585 197.093 119.585 192.243ZM115.457 192.272C115.457 195.246 113.869 196.776 111.704 196.776C109.539 196.776 107.893 195.246 107.893 192.272C107.893 189.299 109.51 187.74 111.675 187.74C113.84 187.74 115.457 189.299 115.457 192.272Z" fill="white"/>
<path d="M134.278 196.025C133.325 196.429 132.084 196.689 130.727 196.689C128.1 196.689 126.021 195.188 126.021 192.214C126.021 189.212 128.129 187.826 130.669 187.826C131.997 187.826 133.238 188.086 134.076 188.404L134.538 185.084C133.123 184.651 131.651 184.449 130.323 184.449C125.473 184.449 121.893 187.364 121.893 192.272C121.893 197.209 125.271 200.067 130.265 200.067C131.968 200.067 133.643 199.749 134.624 199.287L134.278 196.025Z" fill="white"/>
<path d="M143.359 119.297C145.203 125.961 140.527 127.579 135.715 129.243C131.473 130.709 127.1 132.221 128.894 138.384C129.758 141.357 131.263 143.815 133.142 145.535C134.744 147 136.618 147.925 138.594 148.165C140.562 148.403 142.647 147.961 144.679 146.692C146.958 145.271 149.175 142.819 151.109 139.141C151.927 137.587 152.907 135.907 154.172 134.15C155.436 132.395 156.978 130.575 158.913 128.75C161.88 125.951 165.258 124.111 169.197 123.87C173.095 123.631 177.491 124.969 182.511 128.515L181.375 130.129C176.753 126.865 172.778 125.628 169.314 125.84C165.891 126.05 162.913 127.689 160.265 130.187C158.424 131.924 156.964 133.645 155.771 135.302C154.579 136.958 153.643 138.565 152.856 140.061C150.747 144.07 148.283 146.771 145.723 148.37C143.285 149.89 140.762 150.419 138.363 150.128C135.973 149.838 133.721 148.733 131.814 146.988C129.674 145.029 127.969 142.259 127.001 138.933C124.685 130.973 129.958 129.15 135.074 127.381C138.998 126.024 142.81 124.706 141.459 119.823L143.359 119.297H143.359Z" fill="white"/>
<path d="M182.373 136.145C185.993 136.145 188.927 133.211 188.927 129.592C188.927 125.972 185.993 123.038 182.373 123.038C178.754 123.038 175.819 125.972 175.819 129.592C175.819 133.211 178.754 136.145 182.373 136.145Z" fill="#E60000"/>
<path fill-rule="evenodd" clip-rule="evenodd" d="M182.373 124.027C179.3 124.027 176.808 126.518 176.808 129.592C176.808 132.665 179.3 135.156 182.373 135.156C185.447 135.156 187.938 132.665 187.938 129.592C187.938 126.518 185.447 124.027 182.373 124.027ZM174.83 129.592C174.83 125.426 178.207 122.049 182.373 122.049C186.539 122.049 189.916 125.426 189.916 129.592C189.916 133.757 186.539 137.134 182.373 137.134C178.207 137.134 174.83 133.757 174.83 129.592Z" fill="white"/>
<path d="M84.6821 225.918C84.1013 225.918 83.6823 225.773 83.4365 225.485C83.1693 225.174 83.1015 224.69 83.2316 224.048C83.4704 222.883 84.4819 221.145 86.2976 221.145C86.7367 221.145 87.0647 221.27 87.2714 221.513C87.513 221.796 87.5864 222.235 87.4814 222.754C86.8686 225.765 85.0417 225.918 84.6821 225.918ZM86.345 219.969C83.9081 219.969 81.2295 221.427 80.7356 223.885C80.2106 226.511 82.5481 227.075 84.0479 227.091C87.4224 227.133 89.4751 225.114 89.9472 223.055C90.3983 221.079 88.6555 219.969 86.3445 219.969H86.345Z" fill="white"/>
<path d="M108.579 223.653C107.305 223.785 106.831 224.115 106.724 224.728C106.638 225.219 106.955 225.676 108.14 225.625C108.833 225.594 109.585 225.425 110.115 225.16L110.704 223.619C109.821 223.569 109.221 223.588 108.579 223.653V223.653ZM106.689 220.195C107.572 220.053 108.406 219.901 110.02 219.901C112.612 219.901 114.205 220.761 113.461 222.696C113.139 223.532 112.808 224.407 112.525 225.145C112.131 226.176 112.217 226.569 112.298 226.934C112.298 226.934 111.687 226.711 110.417 226.748C109.281 226.779 108.789 227.07 106.925 227.07C104.909 227.07 104.172 226.073 104.25 225.016C104.321 224.09 104.836 223.283 105.989 222.825C106.752 222.52 107.513 222.418 108.301 222.357C109.518 222.26 110.602 222.313 111.191 222.357C111.297 222.01 111.448 221.304 109.739 221.293C107.91 221.279 106.659 221.599 106.081 221.779L106.688 220.194L106.689 220.195Z" fill="white"/>
<path d="M98.2849 225.744C96.878 225.744 97.0063 224.377 97.5002 223.31C98.1344 221.943 99.4144 221.317 100.227 221.287C100.834 221.263 101.339 221.356 101.744 221.741C100.789 225.452 98.8573 225.744 98.2844 225.744H98.2849ZM103.598 220.311C102.361 220.311 102.305 219.972 100.291 219.972C97.3989 219.972 95.021 222.101 94.6827 224.451C94.5749 225.191 94.7835 225.855 95.2096 226.319C95.6519 226.802 96.3196 226.991 97.1122 227.026C98.2849 227.078 99.3577 226.843 100.385 226.172C99.7842 227.957 97.7306 228.328 96.353 228.319C95.6807 228.315 94.9438 228.287 94.3617 228.008L93.7572 229.524C94.3617 229.685 95.263 229.79 95.9851 229.79C99.3652 229.79 101.539 228.582 102.445 226.204L104.753 220.124C104.753 220.124 104.066 220.311 103.598 220.311H103.598Z" fill="white"/>
<path d="M79.9072 224.972C79.4677 225.181 78.4037 225.499 77.5618 225.499C75.2903 225.499 74.5948 224.121 74.8364 222.778C75.2345 220.564 77.3699 218.883 79.9026 218.883C80.6836 218.883 81.3842 219.032 82.0082 219.29L82.7474 217.85C82.1234 217.565 81.2393 217.389 80.4155 217.389C76.3705 217.389 72.5867 219.696 72.0501 222.769C71.5775 225.482 73.9197 226.992 76.7961 226.992C77.5683 226.992 78.4251 226.871 79.1373 226.703L79.9077 224.972L79.9072 224.972Z" fill="white"/>
<path d="M118.582 219.918L119.089 218.557L116.526 218.998L116.176 219.918H115.046L114.638 221.041H115.758L114.412 224.374C114.067 225.22 114.048 225.84 114.357 226.266C114.658 226.683 115.258 226.886 116.189 226.886C116.711 226.886 117.417 226.778 117.97 226.633L118.514 225.321V225.319C118.204 225.446 117.706 225.575 117.3 225.59C117.011 225.601 116.842 225.538 116.738 225.397C116.585 225.197 116.625 224.796 116.844 224.247C116.844 224.247 117.956 221.515 118.148 221.041H119.835L120.265 219.918H118.581H118.582Z" fill="white"/>
<path d="M124.581 221.081C125.021 221.081 125.326 221.192 125.496 221.412C125.695 221.673 125.704 222.097 125.524 222.639H122.383C122.623 221.894 123.324 221.081 124.581 221.081ZM126.42 225.381C125.747 225.708 124.581 225.886 123.805 225.886C123.125 225.886 122.571 225.659 122.243 225.247C121.944 224.873 121.868 224.373 122.018 223.831H127.546L127.573 223.759C128.006 222.555 127.953 221.511 127.419 220.817C126.932 220.182 126.082 219.86 124.909 219.86C122.292 219.86 120.065 221.318 119.486 223.405C119.195 224.459 119.347 225.385 119.923 226.08C120.558 226.846 121.673 227.268 123.06 227.268C123.861 227.268 124.827 227.125 125.7 226.863L126.421 225.38L126.42 225.381Z" fill="white"/>
<path d="M128.748 219.5H128.832C128.932 219.5 129.002 219.454 129.002 219.391C129.002 219.316 128.934 219.275 128.843 219.275C128.807 219.275 128.769 219.282 128.748 219.282V219.5ZM128.738 220.026H128.452V219.107C128.517 219.096 128.667 219.073 128.856 219.073C129.067 219.073 129.158 219.101 129.229 219.146C129.287 219.188 129.328 219.257 129.328 219.35C129.328 219.443 129.241 219.524 129.113 219.559V219.569C129.215 219.599 129.275 219.674 129.303 219.807C129.332 219.94 129.35 219.992 129.367 220.027H129.049C129.019 219.993 129.002 219.912 128.986 219.83C128.968 219.737 128.925 219.691 128.832 219.691H128.738V220.027V220.026ZM128.852 218.805C128.446 218.805 128.141 219.135 128.141 219.558C128.141 219.967 128.447 220.304 128.859 220.304C129.281 220.31 129.588 219.967 129.588 219.551C129.588 219.135 129.281 218.805 128.856 218.805H128.852V218.805ZM128.878 218.557C129.437 218.557 129.889 219.002 129.889 219.552C129.889 220.108 129.437 220.553 128.859 220.553C128.291 220.553 127.836 220.108 127.836 219.552C127.836 219.002 128.291 218.557 128.859 218.557H128.878Z" fill="white"/>
<path d="M93.4004 217.583L89.7759 226.935H92.1807L95.8062 217.583H93.4004Z" fill="white"/>
<path d="M115.118 230.133H115.118C113.165 232.329 110.877 234.143 108.323 235.371C105.777 236.608 102.99 237.252 100.19 237.25C97.3911 237.248 94.6057 236.601 92.0633 235.361C89.513 234.131 87.2289 232.315 85.2817 230.12L84.5913 231.901C86.1645 234.248 88.3171 236.25 90.8242 237.69C93.6384 239.311 96.9153 240.188 100.19 240.181C103.465 240.183 106.74 239.303 109.551 237.68C112.063 236.232 114.218 234.22 115.788 231.863L115.118 230.133H115.118Z" fill="white"/>
<path d="M63.3214 212.234C63.3214 210.446 62.1894 209.505 60.9094 209.505C60.2006 209.505 59.587 209.748 59.185 210.086V207.368L57.704 207.759V214.773C58.3705 215.048 59.312 215.228 60.2112 215.228C62.0731 215.228 63.3214 214.191 63.3214 212.234ZM59.185 213.778V212.118C59.185 211.578 59.3014 211.261 59.5235 211.06C59.7245 210.869 60.0313 210.732 60.4757 210.732C61.2691 210.732 61.8086 211.314 61.8086 212.35C61.8086 213.334 61.3325 213.958 60.3487 213.958C59.8832 213.958 59.4707 213.884 59.185 213.778Z" fill="white"/>
<path d="M69.4075 209.6H67.7572L66.5406 213.08H66.4983L65.1653 209.6H63.5044L65.8001 214.942L64.721 217.365L66.0645 217.693L69.4075 209.6Z" fill="white"/>
</svg>
