<svg width="195" height="202" viewBox="0 0 195 202" fill="none" xmlns="http://www.w3.org/2000/svg">
<path fill-rule="evenodd" clip-rule="evenodd" d="M97.44 7.854C150.702 7.854 193.881 51.0121 193.881 104.25C193.881 157.489 150.702 200.647 97.44 200.647C44.1777 200.647 1 157.489 1 104.25C1 51.0121 44.1777 7.854 97.44 7.854Z" fill="#F11A1E" stroke="white" stroke-width="0.787234" stroke-miterlimit="22.9256"/>
<path d="M72.7447 118.804C71.863 118.804 71.2255 118.582 70.8524 118.146C70.4464 117.673 70.343 116.938 70.5415 115.963C70.9041 114.194 72.4405 111.555 75.1988 111.555C75.8655 111.555 76.3636 111.745 76.6783 112.114C77.0461 112.543 77.1569 113.21 76.9974 113.997C76.0662 118.569 73.2915 118.804 72.7454 118.804H72.7447ZM75.2707 109.77C71.5686 109.77 67.4995 111.983 66.7496 115.716C65.9525 119.704 69.5041 120.559 71.7814 120.586C76.9076 120.648 80.026 117.582 80.7429 114.457C81.4284 111.456 78.7811 109.77 75.2707 109.77V109.77Z" fill="white"/>
<path d="M109.046 115.363C107.11 115.564 106.391 116.064 106.229 116.997C106.098 117.741 106.579 118.436 108.381 118.358C109.433 118.311 110.575 118.055 111.38 117.653L112.275 115.313C110.933 115.236 110.022 115.266 109.046 115.364V115.363ZM106.175 110.113C107.516 109.898 108.785 109.667 111.235 109.667C115.173 109.667 117.593 110.972 116.462 113.911C115.973 115.18 115.47 116.509 115.04 117.629C114.443 119.195 114.572 119.793 114.695 120.347C114.695 120.347 113.767 120.008 111.838 120.063C110.112 120.111 109.365 120.553 106.534 120.553C103.472 120.553 102.352 119.038 102.47 117.436C102.578 116.028 103.36 114.804 105.112 114.107C106.271 113.644 107.427 113.49 108.625 113.397C110.473 113.251 112.12 113.331 113.015 113.397C113.176 112.87 113.406 111.797 110.81 111.782C108.03 111.76 106.131 112.246 105.252 112.518L106.175 110.113V110.113Z" fill="white"/>
<path d="M93.4074 118.538C91.2701 118.538 91.4649 116.462 92.2155 114.842C93.1789 112.766 95.1229 111.816 96.3582 111.77C97.2796 111.734 98.0467 111.875 98.6625 112.46C97.2114 118.094 94.2771 118.538 93.4074 118.538V118.538ZM101.48 110.288C99.5988 110.288 99.5158 109.773 96.4564 109.773C92.0628 109.773 88.4497 113.006 87.9366 116.574C87.7725 117.698 88.0894 118.705 88.7366 119.411C89.4078 120.144 90.4229 120.43 91.6267 120.484C93.4074 120.562 95.0374 120.206 96.5986 119.187C95.6854 121.897 92.5661 122.461 90.4738 122.448C89.452 122.442 88.3329 122.398 87.4489 121.974L86.5312 124.277C87.4489 124.521 88.819 124.681 89.9158 124.681C95.0495 124.681 98.3516 122.846 99.7285 119.235L103.235 110.002C103.235 110.002 102.191 110.288 101.481 110.288L101.48 110.288Z" fill="white"/>
<path d="M65.4908 117.367C64.8234 117.685 63.206 118.166 61.9272 118.166C58.4768 118.166 57.4198 116.073 57.7869 114.035C58.3922 110.673 61.6359 108.121 65.4834 108.121C66.67 108.121 67.7337 108.347 68.6813 108.738L69.8043 106.55C68.8567 106.118 67.5135 105.851 66.2618 105.851C60.1167 105.851 54.3686 109.354 53.5543 114.02C52.8359 118.139 56.3943 120.434 60.7639 120.434C61.937 120.434 63.2383 120.249 64.32 119.995L65.4908 117.366V117.367Z" fill="white"/>
<path d="M124.242 109.692L125.012 107.627L121.12 108.295L120.587 109.692H118.871L118.251 111.397H119.953L117.907 116.457C117.383 117.743 117.355 118.684 117.824 119.331C118.281 119.963 119.193 120.272 120.607 120.272C121.399 120.272 122.473 120.109 123.312 119.888L124.139 117.895V117.892C123.668 118.085 122.912 118.282 122.295 118.304C121.856 118.321 121.6 118.225 121.441 118.01C121.21 117.707 121.27 117.099 121.602 116.265C121.602 116.265 123.292 112.117 123.584 111.396H126.146L126.801 109.691H124.242V109.692Z" fill="white"/>
<path d="M133.355 111.458C134.021 111.458 134.486 111.627 134.744 111.962C135.047 112.358 135.061 113.002 134.788 113.824H130.016C130.379 112.693 131.444 111.458 133.355 111.458V111.458ZM136.148 117.987C135.126 118.485 133.355 118.754 132.175 118.754C131.142 118.754 130.301 118.41 129.802 117.784C129.347 117.217 129.234 116.458 129.46 115.635H137.858L137.898 115.525C138.556 113.697 138.475 112.112 137.664 111.058C136.925 110.095 135.633 109.604 133.851 109.604C129.875 109.604 126.492 111.819 125.612 114.988C125.17 116.589 125.4 117.993 126.275 119.049C127.241 120.213 128.934 120.853 131.041 120.853C132.259 120.853 133.726 120.636 135.051 120.237L136.147 117.987L136.148 117.987Z" fill="white"/>
<path d="M139.686 109.059H139.813C139.965 109.059 140.072 108.989 140.072 108.893C140.072 108.777 139.97 108.716 139.83 108.716C139.776 108.716 139.719 108.726 139.686 108.726V109.059ZM139.671 109.857H139.236V108.461C139.336 108.443 139.564 108.409 139.85 108.409C140.17 108.409 140.309 108.452 140.415 108.521C140.503 108.584 140.566 108.69 140.566 108.83C140.566 108.971 140.434 109.094 140.24 109.146V109.163C140.395 109.208 140.486 109.323 140.529 109.524C140.573 109.727 140.6 109.806 140.625 109.858H140.142C140.097 109.806 140.071 109.684 140.045 109.56C140.02 109.418 139.953 109.348 139.811 109.348H139.67V109.858L139.671 109.857ZM139.845 108.004C139.229 108.004 138.764 108.505 138.764 109.146C138.764 109.768 139.229 110.28 139.855 110.28C140.495 110.289 140.963 109.768 140.963 109.137C140.963 108.506 140.495 108.004 139.851 108.004H139.845V108.004ZM139.883 107.626C140.733 107.626 141.421 108.301 141.421 109.137C141.421 109.981 140.734 110.657 139.855 110.657C138.992 110.657 138.3 109.982 138.3 109.137C138.3 108.302 138.991 107.626 139.855 107.626H139.883Z" fill="white"/>
<path d="M85.9872 106.147L80.4819 120.347H84.1353L89.6428 106.147H85.9872Z" fill="white"/>
<path d="M139.686 109.059H139.813C139.965 109.059 140.072 108.989 140.072 108.893C140.072 108.777 139.97 108.716 139.83 108.716C139.776 108.716 139.719 108.726 139.686 108.726V109.059ZM139.671 109.857H139.236V108.461C139.336 108.443 139.564 108.409 139.85 108.409C140.17 108.409 140.309 108.452 140.415 108.521C140.503 108.584 140.566 108.69 140.566 108.83C140.566 108.971 140.434 109.094 140.24 109.146V109.163C140.395 109.208 140.486 109.323 140.529 109.524C140.573 109.727 140.6 109.806 140.625 109.858H140.142C140.097 109.806 140.071 109.684 140.045 109.56C140.02 109.418 139.953 109.348 139.811 109.348H139.67V109.858L139.671 109.857ZM139.845 108.004C139.229 108.004 138.764 108.505 138.764 109.146C138.764 109.768 139.229 110.28 139.855 110.28C140.495 110.289 140.963 109.768 140.963 109.137C140.963 108.506 140.495 108.004 139.851 108.004H139.845V108.004ZM139.883 107.626C140.733 107.626 141.421 108.301 141.421 109.137C141.421 109.981 140.734 110.657 139.855 110.657C138.992 110.657 138.3 109.982 138.3 109.137C138.3 108.302 138.991 107.626 139.855 107.626H139.883Z" fill="white"/>
<path fill-rule="evenodd" clip-rule="evenodd" d="M35.7326 140.297L41.2499 130.044H45.3086V148.282H40.5262V140.831L37.3755 146.235H33.967L30.7704 140.648V148.282H25.988V130.044H30.1442L35.7319 140.297H35.7326ZM55.0113 136.628L58.5425 130.044H64.0898L57.3814 141.84V148.282H52.4732V141.815L45.7633 130.044H51.435L55.0113 136.628ZM75.0733 143.015V148.282H70.1659V130.044H77.1409C81.3577 130.044 84.415 131.859 84.415 136.392C84.415 140.765 81.6925 143.015 77.4151 143.015H75.0726H75.0733ZM103.856 139.163C103.856 144.613 100 148.532 94.5579 148.532C89.1313 148.532 85.2344 144.607 85.2344 139.163C85.2344 133.707 89.1186 129.794 94.5579 129.794C100.012 129.794 103.856 133.699 103.856 139.163ZM114.723 148.532C108.919 148.532 104.925 145.125 104.925 139.238C104.925 133.484 108.994 129.795 114.673 129.795C116.266 129.795 118.031 129.974 119.533 130.537L120.022 130.72L119.584 135.233L118.746 134.902C117.628 134.461 116.052 134.25 114.849 134.25C111.878 134.25 109.933 136.112 109.933 139.114C109.933 142.243 111.762 144.076 114.897 144.076C116.163 144.076 117.657 143.886 118.854 143.487L119.668 143.216L120.068 147.578L119.588 147.763C118.151 148.318 116.255 148.532 114.722 148.532H114.723ZM126.75 140.992V148.282H121.842V130.044H126.75V136.611H127.432L132.452 130.044H138.331L131.66 138.826L134.924 143.4C135.101 143.659 135.237 143.853 135.561 143.853H138.079L136.853 148.283H134.387C133.005 148.283 132.063 147.761 131.263 146.652L127.252 141.089C127.235 141.063 127.209 141.016 127.185 140.997C127.156 140.987 127.1 140.992 127.069 140.992H126.749H126.75ZM143.967 134.476V137.136H150.596L150.379 141.567H143.967V142.91C143.967 143.787 144.069 143.853 144.935 143.853H152.499L151.273 148.283H143.136C140.367 148.283 139.059 146.736 139.059 144.033V130.045H152.474L151.248 134.476H143.967V134.476ZM163.008 134.476V148.282H158.05V134.476H152.78V130.044H168.892L167.666 134.476H163.007H163.008ZM45.7259 154.116H52.4012C55.2299 154.116 58.2609 154.549 60.351 156.637C62.0515 158.338 62.5736 160.73 62.5736 163.06C62.5736 165.635 61.8724 168.164 59.9315 169.953C57.992 171.739 55.3244 172.355 52.7512 172.355H45.7259V154.117V154.116ZM69.2744 158.547V161.208H75.9034L75.687 165.638H69.2744V166.981C69.2744 167.858 69.3772 167.924 70.2431 167.924H77.8062L76.5807 172.355H68.4436C65.6749 172.355 64.3669 170.808 64.3669 168.105V154.117H77.7814L76.5559 158.548H69.2744V158.547ZM83.7189 162.726V172.354H79.0362V154.116H82.5602L90.2775 163.465V154.116H94.9603V172.354H91.5585L83.7189 162.726ZM106.307 158.547V172.354H101.349V158.547H96.0787V154.116H112.191L110.965 158.547H106.306H106.307ZM117.904 154.116V172.354H112.996V154.116H117.904ZM125.723 168.223C126.651 168.223 127.99 168.069 127.99 166.881C127.99 166.593 127.946 166.355 127.73 166.153C127.331 165.779 125.308 165.209 124.762 165.029C121.804 164.058 119.822 162.616 119.822 159.265C119.822 155.369 123.595 153.867 126.972 153.867C128.475 153.867 130.173 154.039 131.625 154.44L132.145 154.583L131.965 159.103L131.135 158.871C129.878 158.517 128.456 158.247 127.148 158.247C126.644 158.247 124.88 158.302 124.88 159.115C124.88 159.249 124.893 159.393 124.945 159.517C125.217 160.162 127.208 160.73 127.798 160.913C130.814 161.843 133.048 163.012 133.048 166.481C133.048 170.529 129.737 172.604 125.973 172.604C123.953 172.604 121.916 172.269 120.03 171.533L119.56 171.35L119.925 166.641L120.818 167.065C122.26 167.749 124.119 168.223 125.723 168.223V168.223ZM143.271 158.547V172.354H138.312V158.547H133.042V154.116H149.155L147.929 158.547H143.27H143.271ZM75.0733 134.476V138.559H77.1409C78.6107 138.559 79.4086 137.974 79.4086 136.467C79.4086 134.918 78.5043 134.476 77.0652 134.476H75.0733ZM90.267 139.164C90.267 141.764 91.7749 144.102 94.5579 144.102C97.3259 144.102 98.8482 141.752 98.8482 139.164C98.8482 136.577 97.3259 134.225 94.5579 134.225C91.7749 134.225 90.267 136.564 90.267 139.164ZM50.6333 158.547V167.924H52.8014C54.203 167.924 55.3881 167.733 56.3799 166.687C57.2676 165.75 57.5665 164.338 57.5665 163.085C57.5665 161.921 57.4556 160.595 56.6068 159.71C55.6584 158.721 54.2306 158.547 52.9256 158.547H50.6333V158.547Z" fill="white"/>
<path fill-rule="evenodd" clip-rule="evenodd" d="M53.0043 29.2638H95.9302C98.0982 29.2638 99.8698 31.0354 99.8698 33.2023V72.2325C99.8698 75.4193 80.3329 85.4335 76.9866 87.4207C70.0618 90.9894 49.064 78.7701 49.064 72.2325V33.2023C49.064 31.0354 50.8364 29.2638 53.0036 29.2638H53.0043Z" fill="#F11A1E" stroke="white" stroke-width="0.51575" stroke-miterlimit="22.9256"/>
<path fill-rule="evenodd" clip-rule="evenodd" d="M131.439 58.8772C122.656 54.8353 115.697 53.0487 106.306 54.2168C85.611 58.4736 60.6968 96.0016 83.8078 99.8001C101.712 103.717 116.575 91.4273 136.303 99.395L131.438 58.8772H131.439Z" fill="url(#paint0_linear)"/>
<path fill-rule="evenodd" clip-rule="evenodd" d="M127.798 56.9674L123.96 53.8413L107.103 54.9921L105.242 56.5033L107.917 80.4415L112.683 81.0225C116.293 71.7774 121.707 64.3511 127.798 56.9674Z" fill="#00CCFF"/>
<path fill-rule="evenodd" clip-rule="evenodd" d="M120.017 51.3087H109.951L106.982 54.9381C107.383 59.5909 109.545 63.5534 111.707 66.0079L115.739 66.0258C118.213 62.893 122.414 59.1468 125.769 56.4527C124.842 53.9922 122.81 52.4506 120.017 51.3094V51.3087Z" fill="#00AFDB"/>
<path fill-rule="evenodd" clip-rule="evenodd" d="M109.581 51.1119C110.272 52.2942 109.917 57.5431 116.166 56.5794C117.419 56.3855 120.76 53.0175 121.077 52.0762C121.572 50.5001 122.997 52.0995 127.803 49.1538C136.652 43.7282 135.314 36.0786 136.359 34.9734C138.063 33.1718 138.7 28.7975 138.903 26.5736C139.259 22.7144 133.599 24.6732 132.013 18.4868C131.755 17.4812 131.622 13.5202 131.009 12.6996C130.085 11.4641 128.246 11.6557 126.912 10.9676C111.024 2.77369 103.073 3.79349 98.4127 10.3947C96.9684 12.4411 96.9098 22.0352 95.7142 23.094C92.2495 25.4676 94.1704 32.912 95.6678 33.556C95.6821 34.6716 95.6506 35.8075 95.6873 36.9195C95.8341 41.3852 101.093 47.2047 105.032 49.1447C106.518 49.877 108.587 49.4159 109.581 51.1126L109.581 51.1119Z" fill="#B06146"/>
<path fill-rule="evenodd" clip-rule="evenodd" d="M102.311 9.07924C110.477 14.2353 126.017 15.8842 129.711 13.6049C131.682 12.3882 128.807 22.3692 130.53 23.0199C134.688 24.5916 133.986 32.5736 134.201 37.4129C134.787 32.7301 136.133 24.0683 137.017 24.1447C138.237 24.2495 137.948 22.6044 138.371 20.2547C142.239 -1.25086 96.0211 -8.88606 96.2661 17.1324C96.2796 18.5992 95.2449 26.4111 97.1761 20.0046C98.7688 14.7228 99.0071 12.7153 102.311 9.07924H102.311Z" fill="black"/>
<path fill-rule="evenodd" clip-rule="evenodd" d="M105.168 39.555C109.38 44.2018 114.509 43.7024 118.774 40.0544C123.188 34.6372 114.411 36.6394 109.784 36.0471C108.515 35.8846 106.613 35.5418 105.332 35.8323C102.94 36.3729 104.145 38.4283 105.168 39.5559V39.555Z" fill="#FEFEFE"/>
<path fill-rule="evenodd" clip-rule="evenodd" d="M104.883 22.333C106.255 22.333 107.3 23.9939 107.215 26.0433C107.13 28.0913 105.95 29.7529 104.577 29.7529C103.206 29.7529 102.161 28.092 102.246 26.0433C102.33 23.9946 103.51 22.333 104.883 22.333V22.333Z" fill="black"/>
<path fill-rule="evenodd" clip-rule="evenodd" d="M121.052 23.5463C122.425 23.5463 123.363 25.207 123.148 27.2564C122.933 29.3043 121.647 30.9659 120.275 30.9659C118.903 30.9659 117.965 29.3051 118.179 27.2564C118.394 25.2077 119.681 23.5463 121.052 23.5463Z" fill="black"/>
<path fill-rule="evenodd" clip-rule="evenodd" d="M130.355 80.9055C133.585 72.8876 132.2 64.8689 127.68 56.851C142.936 61.122 150.856 82.4803 142.305 95.8393C135.885 105.868 113.015 99.8146 104.08 97.1751L106.638 80.6742C114.963 81.8542 122.959 81.7015 130.355 80.9063L130.355 80.9055Z" fill="white"/>
<path d="M106.264 54.3616C106.99 53.8816 108.728 53.8434 108.003 54.3234C103.736 57.1605 100.57 62.193 98.8578 66.8728C96.991 71.9772 96.6958 77.4449 98.0825 81.7204C98.1941 82.0686 98.0023 82.4399 97.6539 82.5515C97.3063 82.6631 96.934 82.4722 96.8224 82.124C95.3474 77.576 95.6493 71.7938 97.6135 66.4221C99.4159 61.4937 101.746 57.3656 106.264 54.3616H106.264Z" fill="black"/>
<path fill-rule="evenodd" clip-rule="evenodd" d="M116.653 64.9311C116.931 62.3545 115.867 60.6766 114.205 59.5107C112.371 60.4317 111.366 61.9164 110.767 64.0714L111.89 65.5257C110.905 68.5029 108.976 70.547 107.526 73.7893L107.791 80.7297L112.816 81.0607L115.528 74.252C115.943 71.4762 115.906 68.699 115.263 65.9232L116.653 64.9326V64.9311Z" fill="#0F187A"/>
<path fill-rule="evenodd" clip-rule="evenodd" d="M102.02 89.1661L103.188 81.9883C99.2278 78.0676 93.5568 77.6422 86.3555 80.3386C85.3862 81.4573 84.7443 82.6577 84.5413 83.9673C84.3278 85.235 84.8026 85.7389 85.739 85.667L90.8113 85.6168C94.4491 87.8864 98.1908 89.0014 102.02 89.1661V89.1661Z" fill="#B06146"/>
<path d="M124.658 55.7496C124.347 55.5564 124.252 55.1484 124.445 54.8376C124.638 54.5276 125.45 55.1041 125.761 55.2973C129.28 57.4815 131.137 60.6654 131.897 65.4396C132.614 69.9383 131.991 75.4979 129.82 81.93C129.704 82.2759 129.329 82.4631 128.983 82.347C128.636 82.231 128.45 81.8566 128.565 81.5107C130.667 75.2868 131.276 69.9398 130.591 65.647C129.894 61.2711 127.842 57.7271 124.657 55.7504L124.658 55.7496Z" fill="black"/>
<path fill-rule="evenodd" clip-rule="evenodd" d="M140.546 88.0317C135.52 84.0017 129.897 82.201 123.839 82.2938C129.248 78.1987 135.099 76.4316 141.24 76.2062C142.228 76.1792 142.594 76.904 141.372 77.0987C139.363 77.4724 137.498 78.007 136.117 79.0081L144.232 79.7996C145.709 80.0025 145.451 81.0725 143.907 80.8441C141.265 80.7894 138.735 80.6726 136.407 81.0373C139.312 82.2915 141.609 83.3982 144.096 84.8614C145.102 85.6962 144.126 86.3656 143.078 85.7486C141.13 84.5094 138.966 83.9614 136.601 83.4537L141.627 87.3182C142.582 88.4705 141.355 88.8134 140.546 88.031V88.0317Z" fill="#B06146"/>
<path fill-rule="evenodd" clip-rule="evenodd" d="M103.13 81.134H106.96L105.231 92.4959H101.401L103.13 81.134Z" fill="#00CCFF"/>
<path fill-rule="evenodd" clip-rule="evenodd" d="M62.7067 39.9166C61.2938 40.4198 59.2773 42.9874 58.7567 44.8422C57.4158 49.6104 60.2654 54.592 62.9412 58.0147C65.1271 60.8106 64.9158 60.3778 67.2208 62.7275C68.5738 64.106 70.3777 65.4852 72.1554 66.5979C74.1383 67.8394 75.6934 68.6518 78.1438 69.611C88.6681 73.7285 92.0153 65.8597 91.643 63.1865C91.4999 62.1585 87.5632 60.7171 85.9773 59.9975C82.5164 58.4251 83.4146 58.3089 80.7568 61.6358C79.9582 62.6361 79.72 63.6043 78.1963 62.9948C75.2276 61.8058 72.186 59.7788 70.1297 57.6432C69.7012 57.1977 69.5454 56.8534 69.1671 56.4034C65.4545 51.9885 66.9175 52.2768 69.048 49.6718C70.4766 47.9256 69.7732 47.6299 67.961 43.3431C67.6996 42.7254 66.898 40.6526 66.5946 40.3097C65.9796 39.6126 63.6775 39.5723 62.7074 39.9175L62.7067 39.9166Z" stroke="#F11A1E" stroke-width="0.517451" stroke-miterlimit="22.9256"/>
<path fill-rule="evenodd" clip-rule="evenodd" d="M62.7067 39.9166C61.2938 40.4198 59.2773 42.9874 58.7567 44.8422C57.4158 49.6104 60.2654 54.592 62.9412 58.0147C65.1271 60.8106 64.9158 60.3778 67.2208 62.7275C68.5738 64.106 70.3777 65.4852 72.1554 66.5979C74.1383 67.8394 75.6934 68.6518 78.1438 69.611C88.6681 73.7285 92.0153 65.8597 91.643 63.1865C91.4999 62.1585 87.5632 60.7171 85.9773 59.9975C82.5164 58.4251 83.4146 58.3089 80.7568 61.6358C79.9582 62.6361 79.72 63.6043 78.1963 62.9948C75.2276 61.8058 72.186 59.7788 70.1297 57.6432C69.7012 57.1977 69.5454 56.8534 69.1671 56.4034C65.4545 51.9885 66.9175 52.2768 69.048 49.6718C70.4766 47.9256 69.7732 47.6299 67.961 43.3431C67.6996 42.7254 66.898 40.6526 66.5946 40.3097C65.9796 39.6126 63.6775 39.5723 62.7074 39.9175L62.7067 39.9166Z" fill="#FEFFFE"/>
<defs>
<linearGradient id="paint0_linear" x1="26.2493" y1="79.6094" x2="120.311" y2="73.9345" gradientUnits="userSpaceOnUse">
<stop stop-color="#E6E6E6"/>
<stop offset="0.301961" stop-color="#F2F2F2"/>
<stop offset="1" stop-color="#FEFEFE"/>
</linearGradient>
</defs>
</svg>
