<svg xmlns="http://www.w3.org/2000/svg" width="162" height="61" fill="none" viewBox="0 0 162 61"><path fill="#fff" d="M85.4198 52.0116L85.4193 52.0113C83.7299 53.9757 81.749 55.5987 79.5388 56.6971C77.3355 57.804 74.9234 58.3797 72.5002 58.3778C70.0771 58.3764 67.6669 57.7973 65.4664 56.6883C63.2591 55.5876 61.2824 53.9637 59.5972 52L59 53.5927C60.3618 55.6921 62.2244 57.4829 64.3943 58.7713C66.8302 60.2216 69.6662 61.0055 72.5002 61C75.3343 61.0021 78.169 60.2146 80.6015 58.7625C82.7763 57.4676 84.6409 55.6676 86 53.5589L85.4198 52.0116Z"/><path fill="#fff" d="M7.296 11.612C7.296 10.652 6.708 9.908 5.688 9.668V9.644C6.408 9.392 6.816 8.732 6.816 7.976C6.816 6.464 5.82 5.888 3.996 5.888H0.9V14H4.248C6.144 14 7.296 13.316 7.296 11.612ZM2.604 12.524V10.58H4.092C5.1 10.58 5.544 10.808 5.544 11.528C5.544 12.224 5.136 12.524 4.212 12.524H2.604ZM2.604 7.364H4.02C4.68 7.364 5.112 7.544 5.112 8.228C5.112 8.864 4.68 9.128 3.96 9.128H2.604V7.364ZM11.6123 14.12C12.2843 14.12 13.0883 14.012 13.6883 13.844L13.5443 12.524C13.0523 12.632 12.4043 12.728 11.7563 12.728C10.6043 12.728 9.92034 12.2 9.90834 11.456H14.0363C14.0843 11.204 14.1083 10.892 14.1083 10.604C14.1083 9.044 13.3283 7.628 11.3243 7.628C9.27234 7.628 8.13234 9.044 8.13234 10.892C8.13234 12.92 9.24834 14.12 11.6123 14.12ZM11.2523 8.876C12.0683 8.876 12.4163 9.464 12.4163 10.292H9.93234C9.94434 9.428 10.4123 8.876 11.2523 8.876ZM20.2178 12.44C19.8218 12.608 19.3058 12.716 18.7418 12.716C17.6498 12.716 16.7858 12.092 16.7858 10.856C16.7858 9.608 17.6618 9.032 18.7178 9.032C19.2698 9.032 19.7858 9.14 20.1338 9.272L20.3258 7.892C19.7378 7.712 19.1258 7.628 18.5738 7.628C16.5578 7.628 15.0698 8.84 15.0698 10.88C15.0698 12.932 16.4738 14.12 18.5498 14.12C19.2578 14.12 19.9538 13.988 20.3618 13.796L20.2178 12.44ZM21.2077 11.984C21.2077 13.208 22.1437 14.12 23.5237 14.12C24.2917 14.12 24.8797 13.844 25.2997 13.4H25.3237C25.3477 13.628 25.3717 13.796 25.4077 14H26.8597C26.8357 13.604 26.8357 13.172 26.8357 12.752V9.86C26.8357 8.312 25.8637 7.628 24.2077 7.628C23.3677 7.628 22.4077 7.772 21.7957 7.94L21.9037 9.272C22.5157 9.116 23.1997 9.02 23.7637 9.02C24.7237 9.02 25.1557 9.284 25.1557 9.932V10.208C24.9157 10.184 24.5677 10.16 24.2437 10.16H23.8357C21.9157 10.16 21.2077 10.808 21.2077 11.984ZM25.1557 11.9C25.1557 12.14 25.0717 12.344 24.8917 12.512C24.6757 12.704 24.3877 12.824 23.9557 12.824C23.3437 12.824 22.9237 12.512 22.9237 11.972C22.9237 11.552 23.2237 11.324 23.7037 11.324H25.1557V11.9ZM31.1148 14.12C32.9508 14.12 33.9708 13.28 33.9708 11.576V7.736H32.2908V11.552C32.2908 12.38 31.9068 12.752 31.1388 12.752C30.3708 12.752 29.9748 12.38 29.9748 11.552V7.736H28.2948V11.576C28.2948 13.364 29.2788 14.12 31.1148 14.12ZM37.1949 12.728C36.5709 12.728 35.8389 12.56 35.2509 12.344L35.1189 13.772C35.7909 14 36.5469 14.12 37.4109 14.12C38.7429 14.12 39.9669 13.52 39.9669 11.996C39.9669 11.144 39.5589 10.604 38.1909 10.172C37.4589 9.944 36.8829 9.824 36.8829 9.44C36.8829 9.116 37.2669 8.984 37.9029 8.984C38.4309 8.984 39.0069 9.08 39.4869 9.248L39.6069 7.868C39.0549 7.724 38.4429 7.628 37.7829 7.628C36.4629 7.628 35.1669 8.156 35.1669 9.488C35.1669 10.436 35.7309 11.06 37.0629 11.444C38.0469 11.732 38.2629 11.864 38.2629 12.176C38.2629 12.488 37.9749 12.728 37.1949 12.728ZM44.2373 14.12C44.9093 14.12 45.7133 14.012 46.3133 13.844L46.1693 12.524C45.6773 12.632 45.0293 12.728 44.3813 12.728C43.2293 12.728 42.5453 12.2 42.5333 11.456H46.6613C46.7093 11.204 46.7333 10.892 46.7333 10.604C46.7333 9.044 45.9533 7.628 43.9493 7.628C41.8973 7.628 40.7573 9.044 40.7573 10.892C40.7573 12.92 41.8733 14.12 44.2373 14.12ZM43.8773 8.876C44.6933 8.876 45.0413 9.464 45.0413 10.292H42.5573C42.5693 9.428 43.0373 8.876 43.8773 8.876ZM53.8702 14.12C54.5422 14.12 55.3462 14.012 55.9462 13.844L55.8022 12.524C55.3102 12.632 54.6622 12.728 54.0142 12.728C52.8622 12.728 52.1782 12.2 52.1662 11.456H56.2942C56.3422 11.204 56.3662 10.892 56.3662 10.604C56.3662 9.044 55.5862 7.628 53.5822 7.628C51.5302 7.628 50.3902 9.044 50.3902 10.892C50.3902 12.92 51.5062 14.12 53.8702 14.12ZM53.5102 8.876C54.3262 8.876 54.6742 9.464 54.6742 10.292H52.1902C52.2022 9.428 52.6702 8.876 53.5102 8.876ZM60.8122 14L63.4402 7.736H61.6162L60.1402 11.756H60.0802L58.5322 7.736H56.7082L59.4082 14H60.8122ZM67.2647 14.12C67.9367 14.12 68.7407 14.012 69.3407 13.844L69.1967 12.524C68.7047 12.632 68.0567 12.728 67.4087 12.728C66.2567 12.728 65.5727 12.2 65.5607 11.456H69.6887C69.7367 11.204 69.7607 10.892 69.7607 10.604C69.7607 9.044 68.9807 7.628 66.9767 7.628C64.9247 7.628 63.7847 9.044 63.7847 10.892C63.7847 12.92 64.9007 14.12 67.2647 14.12ZM66.9047 8.876C67.7207 8.876 68.0687 9.464 68.0687 10.292H65.5847C65.5967 9.428 66.0647 8.876 66.9047 8.876ZM72.4982 7.736H71.0582V14H72.7382V9.848C73.3502 9.5 74.0942 9.26 74.8142 9.212L74.8742 7.616C73.9862 7.712 73.2062 8.072 72.6062 8.576L72.4982 7.736ZM82.0253 7.736H80.1533L78.7733 11.684H78.7253L77.2133 7.736H75.3293L77.9333 13.796L76.7093 16.544L78.2333 16.916L82.0253 7.736ZM88.8763 10.868C88.8763 8.852 87.6043 7.628 85.5883 7.628C83.5723 7.628 82.3003 8.864 82.3003 10.88C82.3003 12.896 83.5123 14.12 85.5883 14.12C87.6043 14.12 88.8763 12.884 88.8763 10.868ZM87.1603 10.88C87.1603 12.116 86.5003 12.752 85.6003 12.752C84.7003 12.752 84.0163 12.116 84.0163 10.88C84.0163 9.644 84.6883 8.996 85.5883 8.996C86.4883 8.996 87.1603 9.644 87.1603 10.88ZM93.7715 7.628C93.1115 7.628 92.3195 7.904 91.7435 8.288L91.6595 7.736H90.1715V14H91.8515V9.476C92.1875 9.248 92.6915 9.056 93.1715 9.056C93.5075 9.056 93.7475 9.128 93.9395 9.296C94.1435 9.476 94.2395 9.74 94.2395 10.256V14H95.9195V10.064C95.9195 9.224 95.7395 8.648 95.3795 8.252C95.0075 7.844 94.4675 7.628 93.7715 7.628ZM100.628 14.12C101.3 14.12 102.104 14.012 102.704 13.844L102.56 12.524C102.068 12.632 101.42 12.728 100.772 12.728C99.62 12.728 98.936 12.2 98.924 11.456H103.052C103.1 11.204 103.124 10.892 103.124 10.604C103.124 9.044 102.344 7.628 100.34 7.628C98.288 7.628 97.148 9.044 97.148 10.892C97.148 12.92 98.264 14.12 100.628 14.12ZM100.268 8.876C101.084 8.876 101.432 9.464 101.432 10.292H98.948C98.96 9.428 99.428 8.876 100.268 8.876ZM110.141 9.02C110.981 9.02 111.509 9.524 111.509 10.388V12.056C111.233 12.428 110.729 12.68 110.177 12.68C109.157 12.68 108.497 11.936 108.497 10.796C108.497 9.752 109.169 9.02 110.141 9.02ZM113.189 5.204L111.509 5.648V8.12C111.221 7.844 110.609 7.628 110.021 7.628C108.281 7.628 106.781 8.876 106.781 10.904C106.781 12.968 108.173 14.12 109.865 14.12C110.681 14.12 111.305 13.796 111.653 13.364H111.689C111.725 13.676 111.749 13.736 111.797 14H113.213C113.189 13.4 113.189 12.848 113.189 12.224V5.204ZM117.937 14.12C118.609 14.12 119.413 14.012 120.013 13.844L119.869 12.524C119.377 12.632 118.729 12.728 118.081 12.728C116.929 12.728 116.245 12.2 116.233 11.456H120.361C120.409 11.204 120.433 10.892 120.433 10.604C120.433 9.044 119.653 7.628 117.649 7.628C115.597 7.628 114.457 9.044 114.457 10.892C114.457 12.92 115.573 14.12 117.937 14.12ZM117.577 8.876C118.393 8.876 118.741 9.464 118.741 10.292H116.257C116.269 9.428 116.737 8.876 117.577 8.876ZM123.398 12.728C122.774 12.728 122.042 12.56 121.454 12.344L121.322 13.772C121.994 14 122.75 14.12 123.614 14.12C124.946 14.12 126.17 13.52 126.17 11.996C126.17 11.144 125.762 10.604 124.394 10.172C123.662 9.944 123.086 9.824 123.086 9.44C123.086 9.116 123.47 8.984 124.106 8.984C124.634 8.984 125.21 9.08 125.69 9.248L125.81 7.868C125.258 7.724 124.646 7.628 123.986 7.628C122.666 7.628 121.37 8.156 121.37 9.488C121.37 10.436 121.934 11.06 123.266 11.444C124.25 11.732 124.466 11.864 124.466 12.176C124.466 12.488 124.178 12.728 123.398 12.728ZM130.44 14.12C131.112 14.12 131.916 14.012 132.516 13.844L132.372 12.524C131.88 12.632 131.232 12.728 130.584 12.728C129.432 12.728 128.748 12.2 128.736 11.456H132.864C132.912 11.204 132.936 10.892 132.936 10.604C132.936 9.044 132.156 7.628 130.152 7.628C128.1 7.628 126.96 9.044 126.96 10.892C126.96 12.92 128.076 14.12 130.44 14.12ZM130.08 8.876C130.896 8.876 131.244 9.464 131.244 10.292H128.76C128.772 9.428 129.24 8.876 130.08 8.876ZM135.674 7.736H134.234V14H135.914V9.848C136.526 9.5 137.27 9.26 137.99 9.212L138.05 7.616C137.162 7.712 136.382 8.072 135.782 8.576L135.674 7.736ZM142.668 14L145.296 7.736H143.472L141.996 11.756H141.936L140.388 7.736H138.564L141.264 14H142.668ZM149.12 14.12C149.792 14.12 150.596 14.012 151.196 13.844L151.052 12.524C150.56 12.632 149.912 12.728 149.264 12.728C148.112 12.728 147.428 12.2 147.416 11.456H151.544C151.592 11.204 151.616 10.892 151.616 10.604C151.616 9.044 150.836 7.628 148.832 7.628C146.78 7.628 145.64 9.044 145.64 10.892C145.64 12.92 146.756 14.12 149.12 14.12ZM148.76 8.876C149.576 8.876 149.924 9.464 149.924 10.292H147.44C147.452 9.428 147.92 8.876 148.76 8.876ZM154.582 12.728C153.958 12.728 153.226 12.56 152.638 12.344L152.506 13.772C153.178 14 153.934 14.12 154.798 14.12C156.13 14.12 157.354 13.52 157.354 11.996C157.354 11.144 156.946 10.604 155.578 10.172C154.846 9.944 154.27 9.824 154.27 9.44C154.27 9.116 154.654 8.984 155.29 8.984C155.818 8.984 156.394 9.08 156.874 9.248L156.994 7.868C156.442 7.724 155.83 7.628 155.17 7.628C153.85 7.628 152.554 8.156 152.554 9.488C152.554 10.436 153.118 11.06 154.45 11.444C155.434 11.732 155.65 11.864 155.65 12.176C155.65 12.488 155.362 12.728 154.582 12.728ZM4.272 26.236L4.572 24.82H2.4V23.104L0.72 23.356V28.864C0.72 30.568 1.596 31.048 2.964 31.048C3.492 31.048 4.092 30.976 4.476 30.844L4.392 29.524C4.128 29.584 3.72 29.62 3.3 29.62C2.676 29.62 2.4 29.296 2.4 28.564V26.236H4.272ZM9.30272 24.628C8.67872 24.628 7.94672 24.868 7.38272 25.216V22.204L5.70272 22.648V31H7.38272V26.476C7.71872 26.248 8.22272 26.056 8.70272 26.056C9.03872 26.056 9.27872 26.128 9.47072 26.296C9.67472 26.476 9.77072 26.74 9.77072 27.256V31H11.4507V27.064C11.4507 26.224 11.2707 25.648 10.9107 25.252C10.5387 24.844 9.99872 24.628 9.30272 24.628ZM16.1592 31.12C16.8312 31.12 17.6352 31.012 18.2352 30.844L18.0912 29.524C17.5992 29.632 16.9512 29.728 16.3032 29.728C15.1512 29.728 14.4672 29.2 14.4552 28.456H18.5832C18.6312 28.204 18.6552 27.892 18.6552 27.604C18.6552 26.044 17.8752 24.628 15.8712 24.628C13.8192 24.628 12.6792 26.044 12.6792 27.892C12.6792 29.92 13.7952 31.12 16.1592 31.12ZM15.7992 25.876C16.6152 25.876 16.9632 26.464 16.9632 27.292H14.4792C14.4912 26.428 14.9592 25.876 15.7992 25.876ZM29.02 27.724C29.02 25.696 27.736 24.628 26.284 24.628C25.48 24.628 24.784 24.904 24.328 25.288V22.204L22.648 22.648V30.604C23.404 30.916 24.472 31.12 25.492 31.12C27.604 31.12 29.02 29.944 29.02 27.724ZM24.328 29.476V27.592C24.328 26.98 24.46 26.62 24.712 26.392C24.94 26.176 25.288 26.02 25.792 26.02C26.692 26.02 27.304 26.68 27.304 27.856C27.304 28.972 26.764 29.68 25.648 29.68C25.12 29.68 24.652 29.596 24.328 29.476ZM33.4561 31.12C34.1281 31.12 34.9321 31.012 35.5321 30.844L35.3881 29.524C34.8961 29.632 34.2481 29.728 33.6001 29.728C32.4481 29.728 31.7641 29.2 31.7521 28.456H35.8801C35.9281 28.204 35.9521 27.892 35.9521 27.604C35.9521 26.044 35.1721 24.628 33.1681 24.628C31.1161 24.628 29.9761 26.044 29.9761 27.892C29.9761 29.92 31.0921 31.12 33.4561 31.12ZM33.0961 25.876C33.9121 25.876 34.2601 26.464 34.2601 27.292H31.7761C31.7881 26.428 32.2561 25.876 33.0961 25.876ZM38.9176 29.728C38.2936 29.728 37.5616 29.56 36.9736 29.344L36.8416 30.772C37.5136 31 38.2696 31.12 39.1336 31.12C40.4656 31.12 41.6896 30.52 41.6896 28.996C41.6896 28.144 41.2816 27.604 39.9136 27.172C39.1816 26.944 38.6056 26.824 38.6056 26.44C38.6056 26.116 38.9896 25.984 39.6256 25.984C40.1536 25.984 40.7296 26.08 41.2096 26.248L41.3296 24.868C40.7776 24.724 40.1656 24.628 39.5056 24.628C38.1856 24.628 36.8896 25.156 36.8896 26.488C36.8896 27.436 37.4536 28.06 38.7856 28.444C39.7696 28.732 39.9856 28.864 39.9856 29.176C39.9856 29.488 39.6976 29.728 38.9176 29.728ZM46.272 26.236L46.572 24.82H44.4V23.104L42.72 23.356V28.864C42.72 30.568 43.596 31.048 44.964 31.048C45.492 31.048 46.092 30.976 46.476 30.844L46.392 29.524C46.128 29.584 45.72 29.62 45.3 29.62C44.676 29.62 44.4 29.296 44.4 28.564V26.236H46.272ZM53.422 26.02C54.262 26.02 54.79 26.524 54.79 27.388V29.056C54.514 29.428 54.01 29.68 53.458 29.68C52.438 29.68 51.778 28.936 51.778 27.796C51.778 26.752 52.45 26.02 53.422 26.02ZM56.47 22.204L54.79 22.648V25.12C54.502 24.844 53.89 24.628 53.302 24.628C51.562 24.628 50.062 25.876 50.062 27.904C50.062 29.968 51.454 31.12 53.146 31.12C53.962 31.12 54.586 30.796 54.934 30.364H54.97C55.006 30.676 55.03 30.736 55.078 31H56.494C56.47 30.4 56.47 29.848 56.47 29.224V22.204ZM61.2178 31.12C61.8898 31.12 62.6938 31.012 63.2938 30.844L63.1498 29.524C62.6578 29.632 62.0098 29.728 61.3618 29.728C60.2098 29.728 59.5258 29.2 59.5138 28.456H63.6418C63.6898 28.204 63.7138 27.892 63.7138 27.604C63.7138 26.044 62.9338 24.628 60.9298 24.628C58.8778 24.628 57.7378 26.044 57.7378 27.892C57.7378 29.92 58.8538 31.12 61.2178 31.12ZM60.8578 25.876C61.6738 25.876 62.0218 26.464 62.0218 27.292H59.5378C59.5498 26.428 60.0178 25.876 60.8578 25.876ZM68.6113 24.628C67.9513 24.628 67.1593 24.904 66.5833 25.288L66.4993 24.736H65.0113V31H66.6913V26.476C67.0273 26.248 67.5313 26.056 68.0113 26.056C68.3473 26.056 68.5873 26.128 68.7793 26.296C68.9833 26.476 69.0793 26.74 69.0793 27.256V31H70.7593V27.064C70.7593 26.224 70.5793 25.648 70.2193 25.252C69.8473 24.844 69.3073 24.628 68.6113 24.628ZM75.7798 26.236L76.0798 24.82H73.9078V23.104L72.2278 23.356V28.864C72.2278 30.568 73.1038 31.048 74.4718 31.048C74.9998 31.048 75.5998 30.976 75.9838 30.844L75.8998 29.524C75.6358 29.584 75.2278 29.62 74.8078 29.62C74.1838 29.62 73.9078 29.296 73.9078 28.564V26.236H75.7798ZM76.7545 28.984C76.7545 30.208 77.6905 31.12 79.0705 31.12C79.8385 31.12 80.4265 30.844 80.8465 30.4H80.8705C80.8945 30.628 80.9185 30.796 80.9545 31H82.4065C82.3825 30.604 82.3825 30.172 82.3825 29.752V26.86C82.3825 25.312 81.4105 24.628 79.7545 24.628C78.9145 24.628 77.9545 24.772 77.3425 24.94L77.4505 26.272C78.0625 26.116 78.7465 26.02 79.3105 26.02C80.2705 26.02 80.7025 26.284 80.7025 26.932V27.208C80.4625 27.184 80.1145 27.16 79.7905 27.16H79.3825C77.4625 27.16 76.7545 27.808 76.7545 28.984ZM80.7025 28.9C80.7025 29.14 80.6185 29.344 80.4385 29.512C80.2225 29.704 79.9345 29.824 79.5025 29.824C78.8905 29.824 78.4705 29.512 78.4705 28.972C78.4705 28.552 78.7705 28.324 79.2505 28.324H80.7025V28.9ZM85.6177 22.204L83.9377 22.648V31H85.6177V22.204ZM94.7843 29.44C94.3883 29.608 93.8723 29.716 93.3083 29.716C92.2163 29.716 91.3523 29.092 91.3523 27.856C91.3523 26.608 92.2283 26.032 93.2843 26.032C93.8363 26.032 94.3523 26.14 94.7003 26.272L94.8923 24.892C94.3043 24.712 93.6923 24.628 93.1403 24.628C91.1243 24.628 89.6363 25.84 89.6363 27.88C89.6363 29.932 91.0403 31.12 93.1163 31.12C93.8243 31.12 94.5203 30.988 94.9283 30.796L94.7843 29.44ZM95.7741 28.984C95.7741 30.208 96.7101 31.12 98.0901 31.12C98.8581 31.12 99.4461 30.844 99.8661 30.4H99.8901C99.9141 30.628 99.9381 30.796 99.9741 31H101.426C101.402 30.604 101.402 30.172 101.402 29.752V26.86C101.402 25.312 100.43 24.628 98.7741 24.628C97.9341 24.628 96.9741 24.772 96.3621 24.94L96.4701 26.272C97.0821 26.116 97.7661 26.02 98.3301 26.02C99.2901 26.02 99.7221 26.284 99.7221 26.932V27.208C99.4821 27.184 99.1341 27.16 98.8101 27.16H98.4021C96.4821 27.16 95.7741 27.808 95.7741 28.984ZM99.7221 28.9C99.7221 29.14 99.6381 29.344 99.4581 29.512C99.2421 29.704 98.9541 29.824 98.5221 29.824C97.9101 29.824 97.4901 29.512 97.4901 28.972C97.4901 28.552 97.7901 28.324 98.2701 28.324H99.7221V28.9ZM104.373 24.736H102.933V31H104.613V26.848C105.225 26.5 105.969 26.26 106.689 26.212L106.749 24.616C105.861 24.712 105.081 25.072 104.481 25.576L104.373 24.736ZM110.718 31.12C111.39 31.12 112.194 31.012 112.794 30.844L112.65 29.524C112.158 29.632 111.51 29.728 110.862 29.728C109.71 29.728 109.026 29.2 109.014 28.456H113.142C113.19 28.204 113.214 27.892 113.214 27.604C113.214 26.044 112.434 24.628 110.43 24.628C108.378 24.628 107.238 26.044 107.238 27.892C107.238 29.92 108.354 31.12 110.718 31.12ZM110.358 25.876C111.174 25.876 111.522 26.464 111.522 27.292H109.038C109.05 26.428 109.518 25.876 110.358 25.876ZM120.891 26.236L121.287 24.82H118.887V24.688C118.887 23.848 119.283 23.476 120.207 23.476C120.579 23.476 121.023 23.512 121.323 23.584L121.479 22.264C121.059 22.156 120.507 22.096 120.063 22.096C118.227 22.096 117.207 23.056 117.207 24.844V31H118.887V26.236H120.891ZM128.286 27.868C128.286 25.852 127.014 24.628 124.998 24.628C122.982 24.628 121.71 25.864 121.71 27.88C121.71 29.896 122.922 31.12 124.998 31.12C127.014 31.12 128.286 29.884 128.286 27.868ZM126.57 27.88C126.57 29.116 125.91 29.752 125.01 29.752C124.11 29.752 123.426 29.116 123.426 27.88C123.426 26.644 124.098 25.996 124.998 25.996C125.898 25.996 126.57 26.644 126.57 27.88ZM131.022 24.736H129.582V31H131.262V26.848C131.874 26.5 132.618 26.26 133.338 26.212L133.398 24.616C132.51 24.712 131.73 25.072 131.13 25.576L131.022 24.736ZM4.272 43.236L4.572 41.82H2.4V40.104L0.72 40.356V45.864C0.72 47.568 1.596 48.048 2.964 48.048C3.492 48.048 4.092 47.976 4.476 47.844L4.392 46.524C4.128 46.584 3.72 46.62 3.3 46.62C2.676 46.62 2.4 46.296 2.4 45.564V43.236H4.272ZM9.30272 41.628C8.67872 41.628 7.94672 41.868 7.38272 42.216V39.204L5.70272 39.648V48H7.38272V43.476C7.71872 43.248 8.22272 43.056 8.70272 43.056C9.03872 43.056 9.27872 43.128 9.47072 43.296C9.67472 43.476 9.77072 43.74 9.77072 44.256V48H11.4507V44.064C11.4507 43.224 11.2707 42.648 10.9107 42.252C10.5387 41.844 9.99872 41.628 9.30272 41.628ZM16.1592 48.12C16.8312 48.12 17.6352 48.012 18.2352 47.844L18.0912 46.524C17.5992 46.632 16.9512 46.728 16.3032 46.728C15.1512 46.728 14.4672 46.2 14.4552 45.456H18.5832C18.6312 45.204 18.6552 44.892 18.6552 44.604C18.6552 43.044 17.8752 41.628 15.8712 41.628C13.8192 41.628 12.6792 43.044 12.6792 44.892C12.6792 46.92 13.7952 48.12 16.1592 48.12ZM15.7992 42.876C16.6152 42.876 16.9632 43.464 16.9632 44.292H14.4792C14.4912 43.428 14.9592 42.876 15.7992 42.876ZM19.9767 48H21.6567V41.736H19.9767V48ZM21.6687 38.808L19.9647 39.252V40.8H21.6687V38.808ZM24.756 41.736H23.316V48H24.996V43.848C25.608 43.5 26.352 43.26 27.072 43.212L27.132 41.616C26.244 41.712 25.464 42.072 24.864 42.576L24.756 41.736ZM37.1177 44.724C37.1177 42.696 35.8337 41.628 34.3817 41.628C33.5777 41.628 32.8817 41.904 32.4257 42.288V39.204L30.7457 39.648V47.604C31.5017 47.916 32.5697 48.12 33.5897 48.12C35.7017 48.12 37.1177 46.944 37.1177 44.724ZM32.4257 46.476V44.592C32.4257 43.98 32.5577 43.62 32.8097 43.392C33.0377 43.176 33.3857 43.02 33.8897 43.02C34.7897 43.02 35.4017 43.68 35.4017 44.856C35.4017 45.972 34.8617 46.68 33.7457 46.68C33.2177 46.68 32.7497 46.596 32.4257 46.476ZM41.5538 48.12C42.2258 48.12 43.0298 48.012 43.6298 47.844L43.4858 46.524C42.9938 46.632 42.3458 46.728 41.6978 46.728C40.5458 46.728 39.8618 46.2 39.8498 45.456H43.9778C44.0258 45.204 44.0498 44.892 44.0498 44.604C44.0498 43.044 43.2698 41.628 41.2658 41.628C39.2138 41.628 38.0738 43.044 38.0738 44.892C38.0738 46.92 39.1898 48.12 41.5538 48.12ZM41.1938 42.876C42.0098 42.876 42.3578 43.464 42.3578 44.292H39.8738C39.8858 43.428 40.3538 42.876 41.1938 42.876ZM47.0153 46.728C46.3913 46.728 45.6593 46.56 45.0713 46.344L44.9393 47.772C45.6113 48 46.3673 48.12 47.2313 48.12C48.5633 48.12 49.7873 47.52 49.7873 45.996C49.7873 45.144 49.3793 44.604 48.0113 44.172C47.2793 43.944 46.7033 43.824 46.7033 43.44C46.7033 43.116 47.0873 42.984 47.7233 42.984C48.2513 42.984 48.8273 43.08 49.3073 43.248L49.4273 41.868C48.8753 41.724 48.2633 41.628 47.6033 41.628C46.2833 41.628 44.9873 42.156 44.9873 43.488C44.9873 44.436 45.5513 45.06 46.8833 45.444C47.8673 45.732 48.0833 45.864 48.0833 46.176C48.0833 46.488 47.7953 46.728 47.0153 46.728ZM54.3697 43.236L54.6697 41.82H52.4977V40.104L50.8177 40.356V45.864C50.8177 47.568 51.6937 48.048 53.0617 48.048C53.5897 48.048 54.1897 47.976 54.5737 47.844L54.4897 46.524C54.2257 46.584 53.8177 46.62 53.3977 46.62C52.7737 46.62 52.4977 46.296 52.4977 45.564V43.236H54.3697ZM60.1637 46.728C59.5397 46.728 58.8077 46.56 58.2197 46.344L58.0877 47.772C58.7597 48 59.5157 48.12 60.3797 48.12C61.7117 48.12 62.9357 47.52 62.9357 45.996C62.9357 45.144 62.5277 44.604 61.1597 44.172C60.4277 43.944 59.8517 43.824 59.8517 43.44C59.8517 43.116 60.2357 42.984 60.8717 42.984C61.3997 42.984 61.9757 43.08 62.4557 43.248L62.5757 41.868C62.0237 41.724 61.4117 41.628 60.7517 41.628C59.4317 41.628 58.1357 42.156 58.1357 43.488C58.1357 44.436 58.6997 45.06 60.0317 45.444C61.0157 45.732 61.2317 45.864 61.2317 46.176C61.2317 46.488 60.9437 46.728 60.1637 46.728ZM71.7301 43.32C71.8861 43.524 71.9101 43.812 71.9101 44.292V48H73.5901V44.1C73.5901 43.224 73.5061 42.66 73.0981 42.192C72.8341 41.868 72.2461 41.628 71.6101 41.628C70.8541 41.628 69.9781 41.964 69.3061 42.372C68.9341 41.892 68.3461 41.628 67.6741 41.628C66.8941 41.628 66.1381 41.952 65.6341 42.288L65.5501 41.736H64.0621V48H65.7421V43.476C66.1261 43.212 66.6301 43.056 67.0501 43.056C67.4101 43.056 67.6261 43.164 67.7701 43.356C67.9381 43.584 67.9861 43.86 67.9861 44.292V48H69.6661V44.088C69.6661 43.86 69.6661 43.68 69.6541 43.464C70.0261 43.236 70.5901 43.056 70.9741 43.056C71.3101 43.056 71.5741 43.14 71.7301 43.32ZM75.172 48H76.852V41.736H75.172V48ZM76.864 38.808L75.16 39.252V40.8H76.864V38.808ZM80.2153 39.204L78.5353 39.648V48H80.2153V39.204ZM85.0186 48.12C85.6906 48.12 86.4946 48.012 87.0946 47.844L86.9506 46.524C86.4586 46.632 85.8106 46.728 85.1626 46.728C84.0106 46.728 83.3266 46.2 83.3146 45.456H87.4426C87.4906 45.204 87.5146 44.892 87.5146 44.604C87.5146 43.044 86.7346 41.628 84.7306 41.628C82.6786 41.628 81.5386 43.044 81.5386 44.892C81.5386 46.92 82.6546 48.12 85.0186 48.12ZM84.6586 42.876C85.4746 42.876 85.8226 43.464 85.8226 44.292H83.3386C83.3506 43.428 83.8186 42.876 84.6586 42.876Z"/></svg>