<svg width="862" height="802" viewBox="0 0 862 802" fill="none" xmlns="http://www.w3.org/2000/svg">
<rect width="862" height="802" fill="white"/>
<path d="M280.776 432.72C293.952 432.72 301.44 426.384 301.44 413.352V383.328H291.216V412.776C291.216 419.256 287.832 423.936 280.776 423.936C273.72 423.936 270.264 419.256 270.264 412.776V383.328H260.04V413.352C260.04 426.384 267.6 432.72 280.776 432.72ZM321.445 420.768V410.832C321.445 405.792 325.117 402.336 330.877 402.336C335.917 402.336 340.309 405.792 340.309 412.848C340.309 420.48 336.421 424.224 330.445 424.224C326.917 424.224 323.029 422.568 321.445 420.768ZM332.749 393.768C327.637 393.768 322.957 395.784 320.077 398.376L319.645 394.416H311.365V448.56L321.445 445.896V430.056C323.677 431.568 327.493 432.72 331.381 432.72C342.181 432.72 350.605 425.952 350.605 412.632C350.605 400.752 342.829 393.768 332.749 393.768ZM368.484 420.768V410.832C368.484 405.792 372.156 402.336 377.916 402.336C382.956 402.336 387.348 405.792 387.348 412.848C387.348 420.48 383.46 424.224 377.484 424.224C373.956 424.224 370.068 422.568 368.484 420.768ZM379.788 393.768C374.676 393.768 369.996 395.784 367.116 398.376L366.684 394.416H358.404V448.56L368.484 445.896V430.056C370.716 431.568 374.532 432.72 378.42 432.72C389.22 432.72 397.644 425.952 397.644 412.632C397.644 400.752 389.868 393.768 379.788 393.768ZM424.307 432.72C428.339 432.72 433.163 432.072 436.763 431.064L435.899 423.144C432.947 423.792 429.059 424.368 425.171 424.368C418.259 424.368 414.155 421.2 414.083 416.736H438.851C439.139 415.224 439.283 413.352 439.283 411.624C439.283 402.264 434.603 393.768 422.579 393.768C410.267 393.768 403.427 402.264 403.427 413.352C403.427 425.52 410.123 432.72 424.307 432.72ZM422.147 401.256C427.043 401.256 429.131 404.784 429.131 409.752H414.227C414.299 404.568 417.107 401.256 422.147 401.256ZM455.708 394.416H447.068V432H457.148V407.088C460.82 405 465.284 403.56 469.604 403.272L469.964 393.696C464.636 394.272 459.956 396.432 456.356 399.456L455.708 394.416ZM491.79 433.512C491.79 438.408 490.278 440.712 486.534 440.712C485.166 440.712 483.294 440.424 481.854 439.992L481.134 448.272C483.15 448.848 485.67 449.208 487.758 449.208C497.118 449.208 501.87 443.952 501.87 432.504V394.416H491.79V433.512ZM501.942 376.848L491.718 379.512V388.8H501.942V376.848ZM509.09 419.904C509.09 427.248 514.706 432.72 522.986 432.72C527.594 432.72 531.122 431.064 533.642 428.4H533.786C533.93 429.768 534.074 430.776 534.29 432H543.002C542.858 429.624 542.858 427.032 542.858 424.512V407.16C542.858 397.872 537.026 393.768 527.09 393.768C522.05 393.768 516.29 394.632 512.618 395.64L513.266 403.632C516.938 402.696 521.042 402.12 524.426 402.12C530.186 402.12 532.778 403.704 532.778 407.592V409.248C531.338 409.104 529.25 408.96 527.306 408.96H524.858C513.338 408.96 509.09 412.848 509.09 419.904ZM532.778 419.4C532.778 420.84 532.274 422.064 531.194 423.072C529.898 424.224 528.17 424.944 525.578 424.944C521.906 424.944 519.386 423.072 519.386 419.832C519.386 417.312 521.186 415.944 524.066 415.944H532.778V419.4ZM580.223 394.416H572.375L564.383 417.816H564.095L557.327 394.416H546.311L559.343 432H567.839L576.119 408.168H576.479L584.687 432H593.039L606.287 394.416H595.271L588.719 417.816H588.431L580.223 394.416Z" fill="black" fill-opacity="0.5"/>
</svg>
