<svg width="100" height="101" viewBox="0 0 100 101" fill="none" xmlns="http://www.w3.org/2000/svg">
<path fill-rule="evenodd" clip-rule="evenodd" d="M49.9996 0.583069C77.6147 0.583069 100 22.9691 100 50.5826C100 78.1978 77.6139 100.583 49.9996 100.583C22.3853 100.583 0 78.1969 0 50.5826C0 22.9683 22.3861 0.583069 49.9996 0.583069Z" fill="white"/>
<path fill-rule="evenodd" clip-rule="evenodd" d="M49.1593 73.6932C50.2965 73.1471 51.4086 73.7982 51.7288 74.6244C52.169 75.7616 51.542 76.8363 50.7342 77.1681C48.4264 78.1152 46.9049 74.7762 49.1593 73.6932V73.6932ZM38.8571 27.7588C39.7783 27.4053 53.939 27.6029 56.2083 27.6029C59.1805 27.6029 62.4237 26.7441 62.4212 30.1499L62.4187 69.2111C62.427 70.6051 62.3536 71.6289 61.0914 72.0574C60.0217 72.4201 46.0937 72.1817 43.7118 72.1817C40.1635 72.1817 37.5381 72.9403 37.5164 69.6855L37.5214 30.6251C37.5148 29.1786 37.6365 28.2273 38.8571 27.7588V27.7588ZM44.2495 25.4719C44.2737 24.8 46.1871 25.0767 46.8365 25.0767H53.0844C54.9894 25.0767 55.413 24.8008 55.7164 25.5219C55.0278 25.9171 46.5714 25.6853 45.1191 25.6853C44.5922 25.6853 44.6272 25.7788 44.2504 25.4719H44.2495ZM35.4805 49.8397L35.483 54.5244C35.8307 60.6505 35.2996 67.3628 35.498 73.5856C35.5822 76.2302 37.5223 78.2928 40.2752 78.3761C43.4425 78.4729 46.774 78.377 49.9596 78.377C53.1244 78.377 56.3342 78.4304 59.4932 78.3787C62.2361 78.3337 64.3146 76.3953 64.4354 73.7191C64.7181 67.467 64.3696 60.7256 64.4454 54.4019L64.4571 49.9965C64.2845 46.8042 64.4421 43.1042 64.4421 39.8427C64.4421 36.3544 64.4413 32.8662 64.4421 29.3771C64.4429 26.7242 64.1236 23.5652 60.4619 22.9366C58.2884 22.5639 52.6676 22.8632 50.1156 22.8632C47.2101 22.8632 42.3945 22.574 39.715 22.9008C36.2609 23.3226 35.4913 26.1206 35.4955 29.0644C35.4997 32.5527 35.4955 36.0418 35.4955 39.5301C35.4955 42.7899 35.6806 46.6774 35.4788 49.8397H35.4805Z" fill="#FF0000"/>
<path fill-rule="evenodd" clip-rule="evenodd" d="M76.2519 35.8518C73.4047 36.9781 76.2694 38.9123 78.3111 42.6315C81.3892 48.2391 81.34 55.244 78.5663 60.9416C77.8534 62.4072 77.2332 63.2576 76.4228 64.4357C75.4657 65.8263 76.6187 67.8155 78.3962 67.0452C79.726 66.4691 81.8519 61.9896 82.5739 60.1021C84.8833 54.0651 84.3539 47.1611 81.5093 41.4702C80.6747 39.8011 79.3016 37.7126 78.1402 36.3812C77.7517 35.936 77.0447 35.5375 76.2527 35.851L76.2519 35.8518Z" fill="#FF0000"/>
<path fill-rule="evenodd" clip-rule="evenodd" d="M70.2823 40.078C67.8487 41.2635 70.2614 43.2044 71.2661 45.1378C75.5931 53.46 69.8271 59.6453 69.8638 60.8976C69.8996 62.1198 72.515 65.2187 75.2296 57.2942C77.1012 51.8284 76.1933 45.8565 72.8034 41.2502C72.299 40.5657 71.5921 39.4394 70.2823 40.078V40.078Z" fill="#FF0000"/>
<path fill-rule="evenodd" clip-rule="evenodd" d="M23.7482 35.8518C26.5953 36.9781 23.7307 38.9123 21.6889 42.6315C18.6108 48.2391 18.66 55.244 21.4338 60.9416C22.1466 62.4072 22.7669 63.2576 23.5773 64.4357C24.5344 65.8263 23.3814 67.8155 21.6039 67.0452C20.2741 66.4691 18.1481 61.9896 17.4253 60.1021C15.1167 54.0651 15.6461 47.1611 18.4908 41.4702C19.3253 39.8011 20.6985 37.7126 21.8598 36.3812C22.2483 35.936 22.9553 35.5375 23.7474 35.851L23.7482 35.8518Z" fill="#FF0000"/>
<path fill-rule="evenodd" clip-rule="evenodd" d="M29.7185 40.078C32.1512 41.2635 29.7393 43.2044 28.7347 45.1378C24.4077 53.46 30.1737 59.6453 30.137 60.8976C30.1011 62.1198 27.4858 65.2187 24.7712 57.2942C22.8995 51.8284 23.8074 45.8565 27.1973 41.2502C27.7017 40.5657 28.4087 39.4394 29.7185 40.078V40.078Z" fill="#FF0000"/>
</svg>
